<svg xmlns="http://www.w3.org/2000/svg" fill="none" viewBox="0 0 500 500"><path fill="#C1EEE6" d="M74.52 124c11.63-17.36 28.92-30.51 50.37-32.23C146 90 166.48 100.87 181.41 115c44.4 42 49.19 124.23 112 147.1 26.23 9.55 53.11-2.86 78.77-8.18 20-4.14 40.68 2.71 44.62 25.12 4.39 25-12.7 51.36-26.59 70.6-15.17 21-38.67 35.54-63.61 41.82-52.39 13.2-109.69-5.46-155-31.71a276.366 276.366 0 0 1-39.6-27.64c-48.66-41-83-103.28-73-168.41A100.12 100.12 0 0 1 74.52 124zM250 427.56c107.083 0 193.89-5.068 193.89-11.32 0-6.252-86.807-11.32-193.89-11.32-107.082 0-193.89 5.068-193.89 11.32 0 6.252 86.808 11.32 193.89 11.32z"/><path fill="#F77021" d="M444 92.61v201.25a9.362 9.362 0 0 1-9 9.14H145.39c-4.81 0-8.39-4.32-8.39-9.14V92.61a8.351 8.351 0 0 1 2.369-6.085 8.36 8.36 0 0 1 6.021-2.526H435a8.91 8.91 0 0 1 9 8.61z"/><path fill="#fff" d="M444 117.689v176.17a9.362 9.362 0 0 1-9 9.14H145.39c-4.81 0-8.39-4.32-8.39-9.14v-68.57c25.48-49 86.22-56.94 157.33-28.29 100.67 40.56 143.6-14.49 149.67-79.31z" opacity=".1"/><path fill="#000" d="M364.92 280H218a5.004 5.004 0 0 1-3.536-1.464 5.004 5.004 0 0 1 0-7.072A5.004 5.004 0 0 1 218 270h146.92c1.326 0 2.598.527 3.536 1.464a5.004 5.004 0 0 1 0 7.072A5.004 5.004 0 0 1 364.92 280z" opacity=".2"/><path fill="#F77021" d="M218 279a3.995 3.995 0 0 1-2.828-1.172 3.995 3.995 0 0 1 0-5.656A3.995 3.995 0 0 1 218 271h86.84c1.061 0 2.078.421 2.828 1.172a3.995 3.995 0 0 1 0 5.656A3.995 3.995 0 0 1 304.84 279H218z"/><path fill="#fff" d="M218 279a3.995 3.995 0 0 1-2.828-1.172 3.995 3.995 0 0 1 0-5.656A3.995 3.995 0 0 1 218 271h86.84c1.061 0 2.078.421 2.828 1.172a3.995 3.995 0 0 1 0 5.656A3.995 3.995 0 0 1 304.84 279H218z" opacity=".7"/><path fill="#2F3F5C" d="M159.93 287.26c9.32 7.49 6.07 43.24 7.82 48.74s9.25 10 9.25 10l-10.46 12.25s-8.75-1.52-15.4-15.77 8.79-55.22 8.79-55.22z"/><path fill="#000" d="M159.93 287.26c9.32 7.49 6.07 43.24 7.82 48.74s9.25 10 9.25 10l-10.46 12.25s-8.75-1.52-15.4-15.77 8.79-55.22 8.79-55.22z" opacity=".2"/><path fill="#F77021" d="M150 365.751s67-18.69 75.38 4.82c8.38 23.51-52.38 42.24-86.01 43.43-33.63 1.19-47.37-22.49-37.45-44.92l48.08-3.33z"/><path fill="#000" d="M150 365.751s67-18.69 75.38 4.82c8.38 23.51-52.38 42.24-86.01 43.43-33.63 1.19-47.37-22.49-37.45-44.92l48.08-3.33z" opacity=".2"/><path fill="#F77021" d="M215.669 403.8a.229.229 0 0 1-.25 0 .171.171 0 0 1-.06-.21c.11-.37 1.23-3.61 2.35-3.95a.744.744 0 0 1 .68.2 1.148 1.148 0 0 1 .39 1.09 2.996 2.996 0 0 1-1.05 1.52c-.642.514-1.332.966-2.06 1.35zm.29-.63a4.758 4.758 0 0 0 2.39-2.31.72.72 0 0 0-.031-.411.72.72 0 0 0-.249-.329.22.22 0 0 0-.26-.07.609.609 0 0 0-.26.15 9.178 9.178 0 0 0-1.55 2.97h-.04z"/><path fill="#F77021" d="M215.61 403.84a.193.193 0 0 1-.114.001.19.19 0 0 1-.096-.061c-.11-.09-1.66-2.06-1.4-3.38a1.25 1.25 0 0 1 .53-.81.722.722 0 0 1 .9-.08c.81.57.71 3.19.31 4.19v.1l-.13.04zm-.89-3.85a.824.824 0 0 0-.26.47c-.17.84.61 2.1 1 2.7.25-1.12.17-3-.31-3.29-.05 0-.15-.11-.39.06l-.08.06h.04zM147.4 415.69a.238.238 0 0 1 .18-.17.18.18 0 0 1 .19.11c.2.34 1.73 3.4 1.18 4.44a.676.676 0 0 1-.61.34 1.118 1.118 0 0 1-1.05-.47 3 3 0 0 1-.35-1.82c.074-.823.228-1.637.46-2.43zm.24.64a4.827 4.827 0 0 0 0 3.33.738.738 0 0 0 .73.32.25.25 0 0 0 .24-.14 1 1 0 0 0 .07-.29 9.483 9.483 0 0 0-1.04-3.22z"/><path fill="#EBB376" d="M163.63 393.07l-11.85 8.69-5.69 4.17 3.71 6.49 5.78-3.16 14.11-7.72-6.06-8.47z"/><path fill="#2F3F5C" d="M151.64 412.22l-3.58-7.89a.858.858 0 0 0-.489-.449.845.845 0 0 0-.661.039l-3.86 1.89s-5.37 2.17-6 3.91c-2 5.1 5.49 22.75 7.82 22.76.85 0 1.36-1.32 1.48-2.16.37-2.68.44-9.4.78-11.63.4-2.6 3-4.6 4.25-5.4a.862.862 0 0 0 .26-1.07z"/><path fill="#F77021" d="M147.409 415.62a.21.21 0 0 1 .19-.11c.14 0 2.63.25 3.4 1.36.189.278.261.619.2.95a.716.716 0 0 1-.57.7c-1 .18-2.78-1.72-3.21-2.7v-.09a.216.216 0 0 1-.01-.11zm3.37 2.06a.797.797 0 0 0-.15-.52c-.48-.7-1.93-1-2.65-1.15.62 1 2 2.2 2.56 2.09.06 0 .18 0 .23-.32v-.1h.01z"/><path fill="#000" d="M163.63 393.07l-11.85 8.69 3.8 7.5 14.11-7.72-6.06-8.47z" opacity=".2"/><path fill="#F77021" d="M158.28 409.751l3.9-.87-6.47-12.36-3.62 3.69 6.19 9.54z"/><path fill="#fff" d="M158.28 409.751l3.9-.87-6.47-12.36-3.62 3.69 6.19 9.54z" opacity=".6"/><path fill="#EBB376" d="M188.149 408.03l14.5 2.39 6.97 1.15 2.03-7.2-6.3-1.91-15.38-4.68-1.82 10.25z"/><path fill="#2F3F5C" d="M210.229 403.2l-3.14 8.07a.87.87 0 0 0 .51 1.12l4.05 1.43s5.31 2.32 7 1.58c5-2.16 12.42-19.84 10.79-21.51-.6-.61-1.89-.05-2.58.46-2.17 1.6-7 6.26-8.85 7.57-2.14 1.54-5.41 1.06-6.83.75a.844.844 0 0 0-.95.53z"/><path fill="#000" d="M188.149 408.03l14.5 2.39 2.7-7.96-15.38-4.68-1.82 10.25z" opacity=".2"/><path fill="#F77021" d="M202.85 401s-60.28-35.56-80.68-34.61c-20.4.95-22.17 21.21-13.76 32.46 8.41 11.25 24 14 24 14s-10.58-15-9.05-19.16c1.53-4.16 7.36 9.94 7.36 9.94s37.35 4.89 69.89 7.65l2.24-10.28z"/><path fill="#F77021" d="M203.81 400.04l-3.35-2.25-4.3 13.21h5.16l2.49-10.96z"/><path fill="#fff" d="M203.81 400.04l-3.35-2.25-4.3 13.21h5.16l2.49-10.96z" opacity=".6"/><path fill="#2F3F5C" d="M157.89 372c-10.91-21-7.44-52.95 2-84.74-6.6-5.51-32.93-9.23-53-3.39 0 0-12.74 47.21-11.24 98.78L157.89 372z"/><path fill="#EBB376" d="M134.73 292.42c-8.77 0-14.48-9.2-14.48-9.2 11.5-4 11.54-16.17 11.54-16.17l4.43 4.33 6.31 6.18c-5.25 3.72-2.77 6.94-1.1 8.37.341.305.71.58 1.1.82 0 0 .97 5.67-7.8 5.67z"/><path fill="#000" d="M141.43 285.93c-10.76 1.21-10-14.9-10-14.9a27.31 27.31 0 0 1 4.82.35l6.31 6.18c-5.28 3.72-2.8 6.94-1.13 8.37z" opacity=".2"/><path fill="#2F3F5C" d="M149.83 255c-4.07 1.68-3.29 6.13 3.47 14.24 4.16-3.59 6.42-11.75 4.23-14.37-2.19-2.62-4.14-1.36-7.7.13z"/><path fill="#EBB376" d="M155.85 273.001a28.501 28.501 0 0 1-1.3 3.18c-4 8.19-15.58 9.78-20.7 1.68l-.06-.08c-3.38-5.45-2.11-10.54-.7-19.36a12.202 12.202 0 0 1 13.269-10.288c2.058.206 4.03.931 5.731 2.108 6.74 4.69 6.34 15.23 3.76 22.76z"/><path fill="#2F3F5C" d="M145.54 263.75c-.16.71.09 1.37.55 1.47.46.1 1-.38 1.12-1.09.12-.71-.09-1.36-.54-1.47-.45-.11-.93.4-1.13 1.09zM153.58 265.57c-.16.7.09 1.36.56 1.46.47.1 1-.37 1.13-1.09.13-.72-.1-1.37-.56-1.47-.46-.1-.97.39-1.13 1.1z"/><path fill="#D58745" d="M150.88 265.311a25.826 25.826 0 0 0 2 6.82c-1.54.88-3.53-.13-3.53-.13l1.53-6.69z"/><path fill="#2F3F5C" d="M143.91 260.72a.372.372 0 0 1-.25-.12.427.427 0 0 1-.126-.3.417.417 0 0 1 .126-.3 4.215 4.215 0 0 1 3.77-1 .41.41 0 0 1 .29.5.448.448 0 0 1-.53.29 3.344 3.344 0 0 0-3 .79.437.437 0 0 1-.28.14zM157.85 263.68a.443.443 0 0 1-.32-.33 3.394 3.394 0 0 0-1.92-2.4.439.439 0 0 1-.26-.55.43.43 0 0 1 .54-.26 4.24 4.24 0 0 1 2.46 3 .417.417 0 0 1-.049.32.417.417 0 0 1-.261.19h-.19v.03zM138.28 251.521c3.75 2.31 2.27 6.58-5.69 13.5-3.55-4.2-4.48-12.63-1.89-14.85 2.59-2.22 4.3-.66 7.58 1.35z"/><path fill="#EBB376" d="M127.38 264.48a8.449 8.449 0 0 0 2.83 5.84c2.24 2 4.63.26 5.08-2.52.41-2.51-.28-6.55-3-7.43-2.72-.88-5.06 1.36-4.91 4.11z"/><path stroke="#2F3F5C" stroke-linecap="round" stroke-linejoin="round" stroke-width=".557" d="M142.53 272.09s.92 3.18 5.18 3.92M150.189 265.37a3.001 3.001 0 1 1-5.771-1.148 2.995 2.995 0 0 1 4.893-.973 3 3 0 0 1 .878 2.121zM158.36 267.05a3 3 0 0 1-3.585 2.942 3 3 0 1 1 3.585-2.942zM150.189 266.19a1.602 1.602 0 0 1 2.11.56M144.19 264.75s-8.69-3.66-10.31-4"/><path fill="#2F3F5C" d="M130.61 250.29s-.9-7.06 6.31-8.23c7.21-1.17 16.64.64 19.56-.61a4.592 4.592 0 0 1-2.07 3.06s5.5 2 9.83.28c0 0-1.88 5.21-4.31 7.21H162s-4.1 3.92-9.09 4c-4.99.08-9.69-6.79-14.63-4.48-4.94 2.31-7.67-1.23-7.67-1.23z"/><path fill="#000" d="M155.849 273a28.159 28.159 0 0 1-1.3 3.18c-4 8.19-15.58 9.78-20.7 1.68l-.06-.08c-2.64-4.69-.53-9.81-.53-9.81l1.54-5 1.12-1.11s.26 5.07 1.05 6.5c.79 1.43 5.29 1.85 6.21 2.1.92.25 3.1 2.85 4.18 3.55 1.08.7 5 .12 5.51.7.51.58 2.98-1.71 2.98-1.71z" opacity=".4"/><path fill="#000" d="M110.89 353.5l20.74 23s22.92-.51 50.76 13.1c0 0 29.87-12.34 32.62-22.59 2.75-10.25-62.71-3-62.71-3l-41.41-10.51z" opacity=".2"/><path fill="#EBB376" d="M116.75 346.75L150 357.63s11.88-2.63 14-2.63c2.12 0 10.33 6.67 5.69 9s-17.31 2.63-18.69 1.88c-1.38-.75-38.25-9.38-38.25-9.38l4-9.75z"/><path fill="#2F3F5C" d="M106.89 283.87c7.52-1.46-5.53 44.38-2.33 51.13s15.69 11 15.69 11l-5.75 12.69s-17-3.21-26.25-15 6.36-57.44 18.64-59.82z"/><path fill="#000" d="M106.89 283.87c7.52-1.46-5.53 44.38-2.33 51.13s15.69 11 15.69 11l-5.75 12.69s-17-3.21-26.25-15 6.36-57.44 18.64-59.82z" opacity=".2"/><path fill="#2F3F5C" d="M120.25 345l-7 13.71 6 1.29 5.5-12.62-4.5-2.38z"/><path fill="#fff" d="M120.25 345l-7 13.71 6 1.29 5.5-12.62-4.5-2.38z" opacity=".2"/><path fill="#2F3F5C" d="M134 364v2.18a2.829 2.829 0 0 0 2.7 2.82h80.39a2.999 2.999 0 0 0 2.91-2.82V364h-86z"/><path fill="#fff" d="M134 364v2.18a2.829 2.829 0 0 0 2.7 2.82h80.39a2.999 2.999 0 0 0 2.91-2.82V364h-86z" opacity=".2"/><path fill="#fff" d="M164 364v2.18a2.84 2.84 0 0 0 2.71 2.82h50.38a2.999 2.999 0 0 0 2.91-2.82V364h-56z" opacity=".2"/><path fill="#2F3F5C" d="M166.71 367h53.11a4.327 4.327 0 0 0 3.86-2.85l12.18-38.21a2.106 2.106 0 0 0-.979-2.71 2.117 2.117 0 0 0-1.021-.23h-53.15a4.442 4.442 0 0 0-3.86 2.94l-12.18 38.16a2.072 2.072 0 0 0 .209 2.021 2.08 2.08 0 0 0 1.831.879z"/><path fill="#fff" d="M166.71 367h53.11a4.327 4.327 0 0 0 3.86-2.85l12.18-38.21a2.106 2.106 0 0 0-.979-2.71 2.117 2.117 0 0 0-1.021-.23h-53.15a4.442 4.442 0 0 0-3.86 2.94l-12.18 38.16a2.072 2.072 0 0 0 .209 2.021 2.08 2.08 0 0 0 1.831.879z" opacity=".2"/><path fill="#fff" d="M168.71 367h51.11a4.327 4.327 0 0 0 3.86-2.85l12.18-38.21a2.106 2.106 0 0 0-.979-2.71 2.117 2.117 0 0 0-1.021-.23h-51.15a4.442 4.442 0 0 0-3.86 2.94l-12.18 38.16a2.072 2.072 0 0 0 .209 2.021 2.08 2.08 0 0 0 1.831.879z" opacity=".2"/><path fill="#fff" d="M205.32 340.811l-7.35 5.21 3.18 5.2 7.35-5.2-3.18-5.21z" opacity=".2"/><path fill="#000" d="M242.11 93.7h-67.25a8.74 8.74 0 0 0-8.74 8.739v67.25a8.74 8.74 0 0 0 8.74 8.74h67.25a8.74 8.74 0 0 0 8.74-8.74v-67.25a8.74 8.74 0 0 0-8.74-8.74z" opacity=".2"/><path fill="#F77021" d="M253.55 84.4h-56.34a7.33 7.33 0 0 0-7.33 7.33v56.339a7.33 7.33 0 0 0 7.33 7.33h56.34a7.33 7.33 0 0 0 7.33-7.33v-56.34a7.33 7.33 0 0 0-7.33-7.33z"/><path fill="#fff" d="M253.55 84.4h-56.34a7.33 7.33 0 0 0-7.33 7.33v56.339a7.33 7.33 0 0 0 7.33 7.33h56.34a7.33 7.33 0 0 0 7.33-7.33v-56.34a7.33 7.33 0 0 0-7.33-7.33z" opacity=".3"/><path fill="#fff" d="M230.851 111.7v-4.29l-2.21-.21a11.419 11.419 0 0 0-1.65-4l1.42-1.72-3-3-1.71 1.42a11.539 11.539 0 0 0-4-1.65l-.22-2.25h-4.29l-.19 2.25a11.523 11.523 0 0 0-4 1.65l-1.71-1.42-3 3 1.42 1.72a11.381 11.381 0 0 0-1.65 4l-2.21.21v4.29l2.21.21a11.502 11.502 0 0 0 1.65 4l-1.42 1.72 3 3 1.71-1.42a11.54 11.54 0 0 0 4 1.65l.21 2.21h4.29l.21-2.21a11.556 11.556 0 0 0 4-1.65l1.71 1.42 3-3-1.42-1.75a11.54 11.54 0 0 0 1.65-4l2.2-.18zm-13.51 3.67a5.822 5.822 0 0 1-4.126-9.935 5.817 5.817 0 0 1 8.959.888 5.816 5.816 0 0 1-.728 7.342 5.821 5.821 0 0 1-4.105 1.705z"/><path fill="#fff" d="M248.25 123.83v-3.37l-1.73-.16a8.934 8.934 0 0 0-1.29-3.11l1.11-1.34-2.34-2.38-1.34 1.11a8.904 8.904 0 0 0-3.11-1.29l-.16-1.74H236l-.16 1.74a8.896 8.896 0 0 0-3.11 1.29l-1.34-1.11-2.39 2.38 1.11 1.34a8.915 8.915 0 0 0-1.29 3.11l-1.73.16v3.37l1.73.16a8.923 8.923 0 0 0 1.29 3.11l-1.11 1.34 2.38 2.38 1.34-1.11a8.934 8.934 0 0 0 3.11 1.29l.16 1.73h3.37l.16-1.73a8.942 8.942 0 0 0 3.11-1.29l1.34 1.11 2.38-2.38-1.11-1.34a8.942 8.942 0 0 0 1.29-3.11l1.72-.16zm-10.59 2.87a4.563 4.563 0 0 1-4.473-5.45 4.57 4.57 0 0 1 1.248-2.335 4.561 4.561 0 0 1 6.449 6.449 4.56 4.56 0 0 1-3.224 1.336z"/><path fill="#fff" d="M230.85 133.379v-2.83l-1.46-.13a7.446 7.446 0 0 0-1.08-2.61l.93-1.13-2-2-1.13.93a7.603 7.603 0 0 0-2.61-1.08l-.14-1.46h-2.83l-.14 1.46c-.93.194-1.815.56-2.61 1.08l-1.13-.93-2 2 .93 1.13a7.446 7.446 0 0 0-1.08 2.61l-1.46.13v2.83l1.46.14c.194.93.56 1.815 1.08 2.61l-.93 1.13 2 2 1.13-.93a7.81 7.81 0 0 0 2.61 1.09l.14 1.45h2.83l.14-1.45a7.801 7.801 0 0 0 2.61-1.09l1.13.93 2-2-.93-1.13c.52-.795.886-1.68 1.08-2.61l1.46-.14zm-8.85 2.41a3.834 3.834 0 0 1-3.546-2.359 3.828 3.828 0 0 1 5.006-5.007 3.822 3.822 0 0 1 2.36 3.546 3.817 3.817 0 0 1-3.82 3.82z"/><path fill="#fff" d="M256.55 84.4h-56.34a7.33 7.33 0 0 0-7.33 7.33v56.339a7.33 7.33 0 0 0 7.33 7.33h56.34a7.33 7.33 0 0 0 7.33-7.33v-56.34a7.33 7.33 0 0 0-7.33-7.33z" opacity=".2"/><path fill="#000" d="M364.25 175.939h-62.17a8.08 8.08 0 0 0-8.08 8.08v62.17a8.08 8.08 0 0 0 8.08 8.08h62.17a8.08 8.08 0 0 0 8.08-8.08v-62.17a8.08 8.08 0 0 0-8.08-8.08z" opacity=".2"/><path fill="#F77021" d="M372.54 171.75h-52.09a6.77 6.77 0 0 0-6.77 6.77v52.09a6.77 6.77 0 0 0 6.77 6.77h52.09a6.77 6.77 0 0 0 6.77-6.77v-52.09a6.77 6.77 0 0 0-6.77-6.77z"/><path fill="#fff" d="M372.54 171.75h-52.09a6.77 6.77 0 0 0-6.77 6.77v52.09a6.77 6.77 0 0 0 6.77 6.77h52.09a6.77 6.77 0 0 0 6.77-6.77v-52.09a6.77 6.77 0 0 0-6.77-6.77z" opacity=".2"/><path fill="#fff" d="M349 215.109a2.37 2.37 0 1 1-4.74 0 2.37 2.37 0 0 1 4.74 0z"/><path fill="#fff" d="M346.43 191.47a23.51 23.51 0 0 0-16.641 6.889A23.513 23.513 0 0 0 322.9 215h18.79a4.43 4.43 0 0 1 4.74-4.64c.481.023.955.114 1.41.27l8.81-10.23-6.22 12.1c.487.742.741 1.612.73 2.5H370a23.527 23.527 0 0 0-23.57-23.53z"/><path fill="#fff" d="M375.31 171.75h-52.09a6.77 6.77 0 0 0-6.77 6.77v52.09a6.77 6.77 0 0 0 6.77 6.77h52.09a6.77 6.77 0 0 0 6.77-6.77v-52.09a6.77 6.77 0 0 0-6.77-6.77z" opacity=".2"/><path fill="#000" d="M383.34 113.34h-54.55a7.09 7.09 0 0 0-7.09 7.09v54.55a7.09 7.09 0 0 0 7.09 7.09h54.55a7.09 7.09 0 0 0 7.09-7.09v-54.55a7.09 7.09 0 0 0-7.09-7.09z" opacity=".2"/><path fill="#F77021" d="M391.78 107.279h-45.71a5.94 5.94 0 0 0-5.94 5.94v45.71a5.94 5.94 0 0 0 5.94 5.94h45.71a5.94 5.94 0 0 0 5.94-5.94v-45.71a5.94 5.94 0 0 0-5.94-5.94z"/><path fill="#fff" d="M391.78 107.279h-45.71a5.94 5.94 0 0 0-5.94 5.94v45.71a5.94 5.94 0 0 0 5.94 5.94h45.71a5.94 5.94 0 0 0 5.94-5.94v-45.71a5.94 5.94 0 0 0-5.94-5.94z" opacity=".1"/><path fill="#fff" d="M385 121.89c0-.501-.199-.982-.554-1.336a1.887 1.887 0 0 0-1.336-.554h-28.22c-.501 0-.982.199-1.336.554a1.887 1.887 0 0 0-.554 1.336v6.22c0 .501.199.982.554 1.336.354.355.835.554 1.336.554h28.22c.501 0 .982-.199 1.336-.554.355-.354.554-.835.554-1.336v-6.22zm-9.32 3.37h-1.62v-1.62h1.62v1.62zm4.33.81a1.623 1.623 0 0 1-.909-.271 1.625 1.625 0 0 1-.7-1.675 1.631 1.631 0 0 1 2.227-1.188c.299.125.553.335.731.605.179.269.273.586.271.909a1.617 1.617 0 0 1-1.63 1.62h.01zM385 132.89c0-.501-.199-.982-.554-1.336a1.887 1.887 0 0 0-1.336-.554h-28.22c-.501 0-.982.199-1.336.554a1.887 1.887 0 0 0-.554 1.336v6.22c0 .501.199.982.554 1.336.354.355.835.554 1.336.554h28.22c.501 0 .982-.199 1.336-.554.355-.354.554-.835.554-1.336v-6.22zm-9.32 4h-1.62v-1.62h1.62v1.62zm4.33.81a1.62 1.62 0 1 1 1.496-.999 1.598 1.598 0 0 1-1.506.989l.01.01zM385 143.89c0-.501-.199-.982-.554-1.336a1.887 1.887 0 0 0-1.336-.554h-28.22c-.501 0-.982.199-1.336.554a1.887 1.887 0 0 0-.554 1.336v6.22c0 .501.199.982.554 1.336.354.355.835.554 1.336.554h28.22c.501 0 .982-.199 1.336-.554.355-.354.554-.835.554-1.336v-6.22zm-9.32 4.62h-1.62v-1.62h1.62v1.62zm4.33.81a1.62 1.62 0 1 1 .613-.12 1.64 1.64 0 0 1-.623.12h.01z"/><path fill="#fff" d="M394.22 107.279h-45.71a5.94 5.94 0 0 0-5.94 5.94v45.71a5.94 5.94 0 0 0 5.94 5.94h45.71a5.94 5.94 0 0 0 5.94-5.94v-45.71a5.94 5.94 0 0 0-5.94-5.94z" opacity=".2"/><path fill="#000" d="M285.6 166.56h-67.25a8.74 8.74 0 0 0-8.74 8.74v67.25a8.74 8.74 0 0 0 8.74 8.74h67.25a8.74 8.74 0 0 0 8.74-8.74V175.3a8.74 8.74 0 0 0-8.74-8.74z" opacity=".2"/><path fill="#F77021" d="M293.16 160.569h-56.34a7.33 7.33 0 0 0-7.33 7.33v56.34a7.33 7.33 0 0 0 7.33 7.33h56.34a7.33 7.33 0 0 0 7.33-7.33v-56.34a7.33 7.33 0 0 0-7.33-7.33z"/><path fill="#fff" d="M293.16 160.569h-56.34a7.33 7.33 0 0 0-7.33 7.33v56.34a7.33 7.33 0 0 0 7.33 7.33h56.34a7.33 7.33 0 0 0 7.33-7.33v-56.34a7.33 7.33 0 0 0-7.33-7.33z" opacity=".5"/><path fill="#fff" d="M245.35 215.56a5.556 5.556 0 0 1-1.626-3.925 5.555 5.555 0 0 1 1.626-3.925l13-12.94a3.108 3.108 0 0 1 4.42 0l3.42 3.41a3.126 3.126 0 0 1 0 4.43l-12.95 12.95a5.536 5.536 0 0 1-7.89 0zM269.21 194.25l-2.55-2.55 14.63-14.63 3.19-.64-.64 3.19-14.63 14.63zM267.77 197.64l-4.5-4.51a1.016 1.016 0 0 1-.311-.725 1.011 1.011 0 0 1 .311-.725 1.002 1.002 0 0 1 1.46 0l4.5 4.5a.993.993 0 0 1 0 1.46.996.996 0 0 1-1.128.234 1.017 1.017 0 0 1-.332-.234zM261.71 189l-6.17-6.19c1.15-3.09-1.18-6.89-3.71-7.89l-.05 4.76a2 2 0 0 1-4 0V175a6.583 6.583 0 0 0-4.1 5.76 6.111 6.111 0 0 0 5.34 6 5.265 5.265 0 0 0 3-.42l6.22 6.24 3.47-3.58zM282.25 212.479v4.73a6.574 6.574 0 0 0 4.1-5.76 6.121 6.121 0 0 0-5.2-6.09 4.815 4.815 0 0 0-2.85.28l-6.46-6.48-3.54 3.54 6.42 6.43c-1.86 3.8 1 7 3.57 8v-4.7a2 2 0 0 1 2-2 2.003 2.003 0 0 1 1.96 2.05z"/><path fill="#fff" d="M296.16 160.569h-56.34a7.33 7.33 0 0 0-7.33 7.33v56.34a7.33 7.33 0 0 0 7.33 7.33h56.34a7.33 7.33 0 0 0 7.33-7.33v-56.34a7.33 7.33 0 0 0-7.33-7.33z" opacity=".2"/><path fill="#F77021" d="M278.25 147.72h67.92a8.83 8.83 0 0 0 8.83-8.83V70.97a8.83 8.83 0 0 0-8.83-8.83h-67.92a8.83 8.83 0 0 0-8.83 8.83v67.92a8.83 8.83 0 0 0 8.83 8.83z"/><path fill="#000" d="M341.27 75.73h-81.06c-5.821 0-10.54 4.718-10.54 10.54v81.059c0 5.822 4.719 10.54 10.54 10.54h81.06c5.821 0 10.54-4.718 10.54-10.54v-81.06c0-5.82-4.719-10.54-10.54-10.54z" opacity=".2"/><path fill="#fff" d="M278.25 147.72h67.92a8.83 8.83 0 0 0 8.83-8.83V70.97a8.83 8.83 0 0 0-8.83-8.83h-67.92a8.83 8.83 0 0 0-8.83 8.83v67.92a8.83 8.83 0 0 0 8.83 8.83z" opacity=".5"/><path fill="#fff" d="M312.18 78.41L286 88.69s3.31 35.999 26.21 42.749c22.91-6.75 26.22-42.75 26.22-42.75l-26.25-10.28zm-.66 34.859a1.848 1.848 0 0 1-1.45.73 1.812 1.812 0 0 1-1.45-.76l-9.19-12.67a1.81 1.81 0 0 1 2.411-2.61c.203.125.379.288.519.48l7.76 10.68 12.68-16.74a1.812 1.812 0 0 1 2.53-.35 2.002 2.002 0 0 1 .35 2.65l-14.16 18.59z"/><path fill="#fff" d="M281.86 147.72h67.92a8.83 8.83 0 0 0 8.83-8.83V70.97a8.83 8.83 0 0 0-8.83-8.83h-67.92a8.83 8.83 0 0 0-8.83 8.83v67.92a8.83 8.83 0 0 0 8.83 8.83z" opacity=".2"/><path fill="#F77021" d="M433.06 284.93h-85.25v57.53h85.25v-57.53z"/><path fill="#fff" d="M433.06 284.93h-85.25v57.53h85.25v-57.53z" opacity=".7"/><path fill="#2F3F5C" d="M431.26 289.359h-81.87v51.18h81.87v-51.18z"/><path fill="#E0E0E0" d="M420.45 297.29h-67.31v1.5h67.31v-1.5zM410.44 301.54h-57.3v1.5h57.3v-1.5zM420.45 305.79h-67.31v1.5h67.31v-1.5zM410.44 310.04h-57.3v1.5h57.3v-1.5zM360.41 314.29h-7.27v1.5h7.27v-1.5zM390.43 318.54h-37.29v1.5h37.29v-1.5zM410.44 322.79h-57.3v1.5h57.3v-1.5zM360.41 327.04h-7.27v1.5h7.27v-1.5zM360.41 331.29h-7.27v1.5h7.27v-1.5z"/><path fill="#F77021" d="M187.23 165.24h-85.25v57.53h85.25v-57.53z"/><path fill="#fff" d="M187.23 165.24h-85.25v57.53h85.25v-57.53z" opacity=".7"/><path fill="#2F3F5C" d="M185.44 169.67h-81.87v51.18h81.87v-51.18z"/><path fill="#E0E0E0" d="M174.63 177.601h-67.31v1.5h67.31v-1.5zM164.62 181.851h-57.3v1.5h57.3v-1.5zM174.63 186.101h-67.31v1.5h67.31v-1.5zM164.62 190.351h-57.3v1.5h57.3v-1.5zM114.59 194.601h-7.27v1.5h7.27v-1.5zM144.61 198.851h-37.29v1.5h37.29v-1.5zM164.62 203.101h-57.3v1.5h57.3v-1.5zM114.59 207.351h-7.27v1.5h7.27v-1.5zM114.59 211.601h-7.27v1.5h7.27v-1.5z"/></svg>