<svg xmlns="http://www.w3.org/2000/svg" fill="none" viewBox="0 0 500 500"><path fill="#F77021" d="M250.01 431.22c103.609 0 187.6-5.207 187.6-11.63 0-6.423-83.991-11.63-187.6-11.63-103.608 0-187.6 5.207-187.6 11.63 0 6.423 83.992 11.63 187.6 11.63z"/><path fill="#fff" d="M250.01 431.22c103.609 0 187.6-5.207 187.6-11.63 0-6.423-83.991-11.63-187.6-11.63-103.608 0-187.6 5.207-187.6 11.63 0 6.423 83.992 11.63 187.6 11.63z" opacity=".7"/><path stroke="#14C3BF" stroke-linejoin="round" stroke-width="1.571" d="M291.08 113.24l-.54 4.58 2.48.88c.036 1.57.254 3.13.65 4.65l-2.15 1.56 1.81 4.25 2.61-.49a20.23 20.23 0 0 0 2.88 3.7l-1.09 2.44 3.7 2.76 2-1.7a19.784 19.784 0 0 0 4.35 1.76l.28 2.65 4.57.55.89-2.49c1.57-.036 3.13-.254 4.65-.65l1.57 2.14L324 138l-.47-2.6a20.25 20.25 0 0 0 3.69-2.88l2.44 1.09 2.76-3.7-1.71-2a19.494 19.494 0 0 0 1.76-4.34l2.65-.28.55-4.58-2.49-.89a19.654 19.654 0 0 0-.65-4.64l2.16-1.57-1.82-4.25-2.6.48a20.225 20.225 0 0 0-2.89-3.69l1.08-2.43-3.73-2.72-2 1.71a20.501 20.501 0 0 0-4.32-1.76l-.28-2.65-4.58-.54-.89 2.48c-1.567.038-3.124.26-4.64.66l-1.57-2.15-4.25 1.81.48 2.6A20.195 20.195 0 0 0 299 104l-2.43-1.08-2.77 3.7 1.71 2a19.784 19.784 0 0 0-1.76 4.35l-2.67.27zm10.63 3.67a11.463 11.463 0 0 1 8.282-9.68 11.46 11.46 0 1 1 1.718 22.41v0a11.46 11.46 0 0 1-10-12.73z"/><path fill="#14C3BF" d="M171.61 225.94l-.49 4.15 2.25.8c.032 1.421.23 2.834.59 4.21l-2 1.42 1.64 3.85 2.36-.45a18.521 18.521 0 0 0 2.61 3.35l-1 2.21L181 248l1.81-1.55a17.773 17.773 0 0 0 3.94 1.6l.25 2.4 4.15.5.8-2.26a18.029 18.029 0 0 0 4.21-.59l1.42 1.95 3.84-1.65-.42-2.4a18.566 18.566 0 0 0 3.35-2.61l2.21 1 2.5-3.34-1.55-1.83a17.949 17.949 0 0 0 1.6-3.93l2.4-.26.49-4.15-2.25-.8a18.135 18.135 0 0 0-.59-4.21l2-1.42-1.65-3.85-2.35.43a18.432 18.432 0 0 0-2.63-3.33l1-2.21-3.43-2.49-1.82 1.55a17.79 17.79 0 0 0-3.92-1.59l-.25-2.4-4.15-.5-.8 2.26c-1.422.03-2.835.228-4.21.59l-1.42-1.91-3.85 1.64.43 2.36a18.32 18.32 0 0 0-3.35 2.61l-2.21-1-2.5 3.35 1.55 1.82a18.227 18.227 0 0 0-1.6 3.94l-2.39.22zm9.63 3.32a10.385 10.385 0 0 1 7.5-8.761 10.373 10.373 0 0 1 6.024.125 10.369 10.369 0 0 1 4.94 3.45 10.37 10.37 0 0 1 2.191 5.613A10.377 10.377 0 0 1 190.32 240.8a10.393 10.393 0 0 1-9.08-11.54z"/><path fill="#fff" d="M383.08 327.75v-9.41l-5.25-1.19a40.572 40.572 0 0 0-2.44-9.26l4-3.69-4.72-8.2-5.16 1.63a41.233 41.233 0 0 0-6.74-6.79l1.63-5.21-8.17-4.71-3.65 3.93a40.544 40.544 0 0 0-9.24-2.51l-1.2-5.3h-9.41l-1.2 5.26a40.137 40.137 0 0 0-9.26 2.44l-3.69-4-8.15 4.7 1.59 5.16a41.172 41.172 0 0 0-6.79 6.73l-5.2-1.61-4.7 8.14 3.94 3.67a40.565 40.565 0 0 0-2.51 9.23l-5.3 1.21v9.41l5.25 1.2a41.106 41.106 0 0 0 2.44 9.25l-4 3.7 4.71 8.17 5.15-1.59a40.786 40.786 0 0 0 6.76 6.76l-1.61 5.21 8.18 4.71 3.65-4a40.248 40.248 0 0 0 9.19 2.52l1.2 5.3h9.42l1.19-5.25a41.195 41.195 0 0 0 9.27-2.46l3.69 4 8.17-4.71-1.59-5.15a40.786 40.786 0 0 0 6.79-6.73l5.2 1.61 4.71-8.18-3.95-3.66a41.048 41.048 0 0 0 2.52-9.24l5.28-1.09zm-16.27-4.86a29.54 29.54 0 1 1-29.54-29.54 29.54 29.54 0 0 1 29.54 29.54z"/><path fill="#F77021" d="M219.58 94.15h-24.24v5.59h24.24v-5.59zM211.27 102.229h-15.93v5.59h15.93v-5.59zM204.51 110.31h-9.17v5.59h9.17v-5.59z"/><path fill="#000" d="M219.58 94.15h-24.24v5.59h24.24v-5.59zM211.27 102.229h-15.93v5.59h15.93v-5.59zM204.51 110.31h-9.17v5.59h9.17v-5.59z" opacity=".2"/><path fill="#F77021" d="M161.47 156.07h-8.22v16.84h8.22v-16.84zM173.34 161.86h-8.22v11.06h8.22v-11.06zM185.22 166.55H177v6.37h8.22v-6.37z"/><path fill="#000" d="M161.47 156.07h-8.22v16.84h8.22v-16.84zM173.34 161.86h-8.22v11.06h8.22v-11.06zM185.22 166.55H177v6.37h8.22v-6.37z" opacity=".2"/><path fill="#14C3BF" d="M250.94 185.66h-99.53a10.382 10.382 0 0 1-7.36-3.036 10.378 10.378 0 0 1-3.05-7.354V93.1a10.41 10.41 0 0 1 10.39-10.39h99.53a10.404 10.404 0 0 1 9.615 6.41 10.41 10.41 0 0 1 .795 3.98v82.17a10.393 10.393 0 0 1-10.39 10.39zm-99.53-102a9.501 9.501 0 0 0-9.48 9.48v82.17a9.502 9.502 0 0 0 9.48 9.48h99.53a9.502 9.502 0 0 0 9.48-9.48V93.1a9.501 9.501 0 0 0-9.48-9.48l-99.53.04z"/><path fill="#14C3BF" d="M249.66 156.53h-35.49v.91h35.49v-.91zM249.66 160.34h-35.49v.91h35.49v-.91zM249.66 164.14h-35.49v.91h35.49v-.91zM249.66 167.94h-35.49v.91h35.49v-.91zM249.66 171.74h-35.49v.91h35.49v-.91zM187.65 94.53h-35.49v.91h35.49v-.91zM187.65 98.33h-35.49v.91h35.49v-.91zM187.65 102.13h-35.49v.91h35.49v-.91zM187.65 105.93h-35.49v.91h35.49v-.91zM187.65 109.729h-35.49v.91h35.49v-.91zM242.65 125.23l6.36 3.34-.73-17.94-15.17 9.6 6.36 3.33-4.79 9.11a3.782 3.782 0 0 0-2.33.8l-8.45-3.91v-.05a3.88 3.88 0 0 0-7.75-.38 2.41 2.41 0 0 0 0 .38c.005.555.124 1.103.35 1.61l-11 12a3.698 3.698 0 0 0-1.09-.17c-.192 0-.383.02-.57.06L188 122.9a3.869 3.869 0 0 0-4.934-5.039 3.869 3.869 0 0 0-2.146 1.929 3.702 3.702 0 0 0-.33 1.54c.012.397.079.791.2 1.17L162.74 141a3.874 3.874 0 0 0-4.166 1.025 3.867 3.867 0 0 0 2.995 6.483A3.879 3.879 0 0 0 165.05 146c.151-.427.229-.877.23-1.33a3.396 3.396 0 0 0-.13-.94L183.4 125a3.52 3.52 0 0 0 1.82.11l15.75 20a3.916 3.916 0 0 0 4.554 5.616 3.913 3.913 0 0 0 2.326-1.886 3.842 3.842 0 0 0 .47-2.04 4.007 4.007 0 0 0-.2-1.19l11.26-12.26c.214.04.432.06.65.06.77 0 1.522-.23 2.16-.66l8.6 4a3.87 3.87 0 1 0 7.73-.37 3.837 3.837 0 0 0-.69-2l4.82-9.15z"/><path stroke="#14C3BF" stroke-linejoin="round" d="M251.17 196.27a5.908 5.908 0 0 0-5.9 5.91v51.21a5.898 5.898 0 0 0 5.9 5.9h62a5.91 5.91 0 0 0 5.91-5.9v-51.24a5.914 5.914 0 0 0-5.91-5.9l-62 .02z"/><path fill="#14C3BF" d="M254.869 203.25h-4.71v.63h4.71v-.63zM254.869 208.39h-4.71v.63h4.71v-.63zM254.869 213.53h-4.71v.63h4.71v-.63zM254.869 218.68h-4.71v.63h4.71v-.63z"/><path fill="#14C3BF" d="M254.689 208.39h-4.71v.63h4.71v-.63zM254.869 223.82h-4.71v.63h4.71v-.63z"/><path fill="#F77021" d="M285.76 251.64a22.588 22.588 0 0 0 5.298-44.652 22.594 22.594 0 0 0-23.378 9.168 22.594 22.594 0 0 0-4.04 12.484 22.581 22.581 0 0 0 22.12 23zm.79-38.54a16 16 0 1 1-.648 31.994 16 16 0 0 1 .648-31.994z"/><path fill="#000" d="M285.76 251.64a22.588 22.588 0 0 0 5.298-44.652 22.594 22.594 0 0 0-23.378 9.168 22.594 22.594 0 0 0-4.04 12.484 22.581 22.581 0 0 0 22.12 23zm.79-38.54a16 16 0 1 1-.648 31.994 16 16 0 0 1 .648-31.994z" opacity=".2"/><path fill="#14C3BF" d="M270 245.22a23.006 23.006 0 0 0 32.53.14.48.48 0 0 0 0-.64l-4.69-4.72a.44.44 0 0 0-.32-.14.566.566 0 0 0-.33.13 15.363 15.363 0 0 1-11.28 4.51h-1.11a15.458 15.458 0 0 1-9.21-3.71c-.23-.21-.47-.42-.69-.64a15.792 15.792 0 0 1-1.75-20.27.362.362 0 0 0 .05-.09c.1-.14.21-.26.33-.4a15.471 15.471 0 0 1 13-5.86.445.445 0 0 0 .322-.125.466.466 0 0 0 .138-.315l.13-6.63a.457.457 0 0 0-.44-.47 23.002 23.002 0 0 0-22.969 27.357A23.007 23.007 0 0 0 270 245.22z"/><path fill="#14C3BF" d="M286.69 206a23.506 23.506 0 0 1 23.485 23.522A23.509 23.509 0 1 1 286.64 206h.05zm-.92 45.17a22.14 22.14 0 1 0-21.68-22.58 22.15 22.15 0 0 0 21.68 22.59v-.01zm.79-38.54a16.42 16.42 0 1 1-.666 32.833 16.42 16.42 0 0 1 .666-32.833zm-.65 31.91a15.508 15.508 0 0 0 14.523-9.281 15.514 15.514 0 0 0-3.018-16.968 15.507 15.507 0 0 0-16.832-3.704 15.515 15.515 0 0 0-9.863 14.133 15.514 15.514 0 0 0 15.19 15.81v.01z"/><path stroke="#14C3BF" stroke-linecap="round" stroke-linejoin="round" stroke-width=".879" d="M169.67 278.13v60.66"/><path fill="#14C3BF" d="M179.42 301.02h-5.15v34.73h5.15v-34.73z"/><path fill="#F77021" d="M186.78 315.19h-5.15v20.55h5.15v-20.55z"/><path fill="#fff" stroke="#14C3BF" stroke-linejoin="round" stroke-width=".879" d="M195.43 289.79h-5.15v45.96h5.15v-45.96z"/><path fill="#14C3BF" d="M209.79 283.16h-5.15v52.58h5.15v-52.58z"/><path fill="#F77021" d="M217.16 322.74h-5.15v13.01h5.15v-13.01z"/><path fill="#fff" stroke="#14C3BF" stroke-linejoin="round" stroke-width=".879" d="M225.81 304.7h-5.15v31.05h5.15V304.7z"/><path fill="#14C3BF" d="M246.79 309.45h-5.15v26.29h5.15v-26.29z"/><path fill="#F77021" d="M254.16 289.05h-5.15v46.69h5.15v-46.69z"/><path fill="#fff" stroke="#14C3BF" stroke-linejoin="round" stroke-width=".879" d="M262.81 299.36h-5.15v36.38h5.15v-36.38z"/><path stroke="#14C3BF" stroke-linecap="round" stroke-linejoin="round" stroke-width=".879" d="M164.14 327.71h2.88M164.14 320.22h2.88M164.14 312.74h2.88M164.14 305.25h2.88M164.14 297.76h2.88M164.14 290.27h2.88M164.14 282.78h2.88M166.26 335.75h100.16"/><path fill="#000" d="M186.78 315.19h-5.15v20.55h5.15v-20.55zM217.16 322.74h-5.15v13.01h5.15v-13.01zM254.16 289.05h-5.15v46.69h5.15v-46.69z" opacity=".3"/><path stroke="#14C3BF" stroke-linejoin="round" d="M160.05 269.71a6.516 6.516 0 0 0-6.51 6.51v59.51a6.533 6.533 0 0 0 6.51 6.52H270.5a6.543 6.543 0 0 0 6.52-6.52V276.2a6.528 6.528 0 0 0-6.52-6.52l-110.45.03z"/><path fill="#fff" d="M72.65 402.74s2.31 15.42-3.28 17-9.47-.5-10.17-2.81c-.7-2.31 4.25-18.81 4.25-18.81l9.2 4.62zM169.88 406.15l24.3 5.76s1.84 1 1.64 2.65c-.2 1.65-11.29 5.88-14.4 6.41-3.11.53-21.06 2.87-23.61.68-2.55-2.19 2.84-19.65 2.84-19.65l9.23 4.15zM125.88 124.92s3.42 5.16 3.47 7.77c.05 2.61-.27 5.59 1.33 7.13s2.83 3.22 2.17 4c-.66.78-1.93 2.3-1.93 2.3s1.65 8.79-.49 10.38c-2.14 1.59-8.57 0-8.57 0v5.68s-9.14-3-15.45-2.44l-1.12-12.17s13.71-26.36 20.59-22.65zM182.1 160.88s-.82-6.24 2.22-10c0 0-3.64-.62-3.2-1.94.44-1.32 6 .41 6 .41l-1.5-3s-5.25-1.74-4.6-3.37c.65-1.63 8.35 2.38 8.35 2.38s-4.57-3.82-3.93-5.41c.64-1.59 5.29-1.56 7.77 6.68l1.26-1.57s.45-9.38 1.74-9.89c0 0 2 1.1 2 6.49 0 0 2 2.41.73 4.45s-4.26 6.63-6.8 8.35c-2.54 1.72-2.53 8.43-2.53 8.43l-7.51-2.01zM101.62 109.59l1.15-1.54s12.87-5.74 12.55-7.53c-.32-1.79-7.61.68-9-.27 0 0 1.33-16.94 0-17.49-1.33-.55-2.81 7.95-2.81 7.95s-1.87-8.72-3.31-8.47-.84 9-.84 9-2.75-5.61-3.82-5.09c-1.07.52.53 7.36.53 7.36s-2-2.35-2.8-1.64A26.516 26.516 0 0 0 96.12 102l-2.78 4.7 8.28 2.89z"/><path fill="#F77021" d="M180.71 160.92l8.87 1.24s-6.49 55-8.4 61.79c-1.91 6.79-3.63 11.67-10.15 12-6.52.33-29.75-19.2-29.75-19.2l-1.08 27 1.51 11.2s-28.41 14.93-57.3 1.94l.65-13.14-10.41-60.1-8.19-28.54L92.89 105l9.58 5-16.9 45.61 4.73 15.23 5.29-2.12 5.85-7.46s9.92-5.15 22.47 2l2 6.26s14.72 1.11 39.57 35.56l15.23-44.16z"/><path fill="#000" d="M117.3 160.92l1.12 7.7s8.26 5.48 11.58 7.38c0 0 8.12 51.28 2.11 61.37l-6.33 9.91s6.47 0 9.45-4.53c0 0-3.71 12.38-13.33 15.71 0 0 14.77-1.54 19.85-3.5l-1.51-11.2 2.43-62.45s2.29-4.18-16.75-11.67l-2.81-6.75-5.81-1.97z" opacity=".2"/><path stroke="#3D5276" stroke-linecap="round" stroke-linejoin="round" d="M125.879 125.62s3.1 4.54 3.47 7.07c.37 2.53-.73 5.32 1.33 7.13 2.06 1.81 3 3 2.17 4-.83 1-1.93 2.3-1.93 2.3s.84 8.57-.49 10.38c-1.33 1.81-8.57 0-8.57 0v5.68M121.859 145.74s-2.9-7.49-5.07-5.68c-2.17 1.81-.24 11.71 5.07 9.54"/><path fill="#3D5276" d="M121.07 144s3.45-.28 1.27-8.37 2.54-7 7.61-9.3c5.07-2.3 6.28-6.52 5.19-9.05-1.09-2.53-2.9-3.87-9.3-2.66 0 0-7-8.09-13.76.85 0 0-15.22-.24-19.32 7s1.33 25.72 9.3 31.88c7.97 6.16 15.76 1.23 17.38-4.56 0 0-5.43-2.93-2.65-9.69 0-.04 2.53-.94 4.28 3.9z"/><path stroke="#3D5276" stroke-linecap="round" stroke-linejoin="round" d="M73.86 179.09s36.829-26.71 68.929 0l-2.59 64.62 1.51 11.2s-27.14 12.71-57.3 1.94l.65-13.14-11.2-64.62z"/><path stroke="#3D5276" stroke-linecap="round" stroke-linejoin="round" d="M95.1 169.38l6.34-8.08s12.43-4.3 22.47 2l2 6.26M142.79 179.09l32.07 36.88M141.31 216s21.25 19.77 29.72 20c8.47.23 9.88-10 9.88-10l8.67-63.8-8.87-1.24-15.26 44.23M189.43 162s1.11-7.21 4-8.85c2.89-1.64 6.32-8 5.22-9.83-1.1-1.83-4.46 4.12-7.49 5.26-3.03 1.14-5.49 6.74-5.91 9.17"/><path stroke="#3D5276" stroke-linecap="round" stroke-linejoin="round" d="M197.719 143.06s0-8.33-1.53-7.94c-1.53.39-1.74 10.94-1.74 10.94M193.33 147.13s-1-4.67-3.75-6.95c-2.75-2.28-4.47-1.05-4.16-.28.31.77 5 7 4.89 9.12"/><path stroke="#3D5276" stroke-linecap="round" stroke-linejoin="round" d="M188.57 144.82s-7.55-3.46-7.57-1.39c-.02 2.07 4.6 2.87 4.6 2.87l1.5 3s-6.36-2-6-.41c.36 1.59 3.2 1.94 3.2 1.94s-3.09 3.06-2.22 10"/><path fill="#3D5276" d="M137.34 255.66l1.93 13.52s17.77 53.31 20.47 63.73c2.7 10.42 4.25 34 5 44.81.75 10.81 7 29 7 29s-.77 7.34-13.9 6.18c0 0-5.41-21.63-11.2-34.38-5.79-12.75-6.64-32.09-6.64-32.09l-28.2-51.76s-5.77 30.14-9.65 41.33c-4 11.54-31.27 75.57-29.36 71.08 0 0-3.86 2.32-12-3.48 0 0 5.79-19.31 7.33-29.74s9.66-34.38 9.66-34.38 1.93-45.19 5-59.1c0 0-2-15.32 2.27-26.14a91.914 91.914 0 0 0 52.29 1.42z"/><path stroke="#fff" stroke-linecap="round" stroke-linejoin="round" d="M96.35 285.59l12.66 3.68 1.84 4.49"/><path stroke="#3D5276" stroke-linecap="round" stroke-linejoin="round" d="M158.12 411.32s-1.71 8.57-.31 10.33c.74.92 2.94.75 4 .77 2.44.05 4.89-.11 7.33-.27 4.88-.32 9.88-.27 14.59-1.78a46.38 46.38 0 0 0 11.27-5.11c1.92-1.28 0-3.35 0-3.35l-23.25-5.22M158 418.63s26.13 4.29 37-6.72M61.8 402.74s-3 10.29-2.56 13.53c.44 3.24 3.69 4 7.49 3.91 3.8-.09 5.36-1.79 5.92-4.36.56-2.57 0-10.88 0-10.88M59.2 414.7l13.45 1.12M94.31 105.32c1.14-2.08 1.81-3.35 1.81-3.35S92.41 93 93.34 91.9c.93-1.1 3.08 2 3.08 2s-2.2-7.13-.81-7.74c1.39-.61 3.87 6 3.87 6s-.65-9.55.79-10c1.44-.45 3.17 9.08 3.17 9.08s1.86-8.48 3-8.56c1.14-.08 0 17.49 0 17.49 2.3 1.13 9.06-1.63 9 .6-.06 2.23-13 7.36-13 7.36a5.794 5.794 0 0 0-.59.94M73.86 179.09l-7.4-23.98 26.43-50.08 9.58 5.01-16.9 45.61 4.73 15.23"/><path stroke="#3D5276" stroke-linecap="round" stroke-linejoin="round" d="M74.72 151.32s9.48-.08 10.85 4.33a19.009 19.009 0 0 0-11.71 3.24M106.04 160.26v-6.95"/><path fill="#000" d="M142.63 198.43L145 214.2s1.94-10.29 3.15-10.29 0 12.06 0 12.06 19.88 18 28.48 18.1c0 0-4.78 3.36-9.57.86s-25.79-19-25.79-19l1.36-17.5zM100.769 109.15l-18.18 44.16s-6.33-.1-8.73 5.58l9.72-1.74 3.27 15 3.45-1.31-4.73-15.23 16.9-45.61-1.7-.85z" opacity=".2"/><path fill="#fff" d="M351.31 186.811l-7.16-15.29-28.14 18.59 23.22 41.14 18.11-10.28-6.03-34.16zM374.5 319.06s4.55 12.63 5.22 18.78c.67 6.15-1.38 32.05-.94 39.19.44 7.14 4.3 28.45 4.3 28.45s-18.93 13.76-24.94 9.33c0 0 13.34-10.8 14.69-15.1l-4.32-29.19-4.29-34.52s-1.09-7.21-2.61-10.92c-1.52-3.71-1.29-11.58-1.29-11.58l14.18 5.56z"/><path stroke="#3D5276" stroke-linecap="round" stroke-linejoin="round" d="M374.099 317.941s4.92 13.3 6.07 22.85c1.15 9.55-2.31 31.21-1.17 41.64 1.14 10.43 2.31 16.2 4.33 21.69l-1 16.11h-2.59l-1-9.14s-4.06-1.69-6.52 4.16-11.55 6.62-15.86 3.23c0 0 0-2.62 3.24-4.93 3.24-2.31 11.7-9.53 13.24-13.84 0 0-4.62-30-5.7-39.72-1.08-9.72-2.77-27.39-4.93-33.09-2.16-5.7-2.15-13.85-2.15-13.85M382.34 401.101s-12.69 13.8-23.34 13.71"/><path fill="#3D5276" d="M358.14 414.811c1.76.195 3.542-.028 5.2-.65 2.87-1 13.2-6 18.28-12.31l1.56 1.77-.82 16.24-2.61.37-1-9.14s-3.34-1.53-5.49 2.23c-2.15 3.76-3.7 6.34-7.46 7.17-3.76.83-9.43-2-9.43-2s-.99-1.49 1.77-3.68z"/><path fill="#fff" d="M383.35 319.49a115.666 115.666 0 0 0 4.34 12.91c2.27 5.21 21.88 57.9 21.88 57.9s1.49 28.52 9.84 28.43c8.35-.09-.33-19.93-.33-19.93L414 387.93s-1.94-31.93-4.34-43.67l-10.22-27.53-16.09 2.76z"/><path stroke="#3D5276" stroke-linecap="round" stroke-linejoin="round" d="M399.55 317.65s8.39 19.09 10.12 26.61c1.73 7.52 3.47 41.35 4.34 43.67.87 2.32 14.75 26.89 6.36 31.81-8.39 4.92-10.37-28.34-10.37-28.34s-19.37-53.8-22.27-59c-2.9-5.2-6.07-20.25-6.07-20.25l17.89 5.5z"/><path stroke="#3D5276" stroke-linecap="round" stroke-linejoin="round" d="M422 407.131s-.58 6.66-2.78 7.6c-2.2.94-7.06-6.57-7.06-6.57"/><path fill="#3D5276" d="M412.18 409.31s3 11.36 7 10.88c4-.48 4.72-6.79 2.83-11.66 0 0-.67 5-2.78 6.2-2.13.03-7.05-5.42-7.05-5.42zM376.77 218.351s10.11 13.8 17.12 36c7.01 22.2 6.29 64.72 6.29 64.72s-26.09 8.39-51.38-2.27l4.63-95.8s16.27.3 23.34-2.65z"/><path fill="#fff" d="M363.71 118.271s-7.86 7.36-8.78 12.18a37.84 37.84 0 0 1-3.62 9.67 7.051 7.051 0 0 0 3.53 2.76s.51 9.87 3.38 10.63l6.86-1.8.73 4.23 9.84-3.74v-5.7l7.5-4.9-2.67-12.81-12.2-5.7-4.57-4.82z"/><path fill="#fff" d="M353.38 220.23l-.87-13.84s-6.4-12-4.37-16.36c2.24-4.79 15.7-22.53 15.7-22.53l-1.32-9.68 18.86-8.08.9 8.08-2.28 1.69 2.53 5.42s.16-1.61 4.54 6.56 20.88 37.24 22.18 42.82c1.3 5.58-25.66 25.24-34.76 29.88 0 0-1.05-2.25-11.86 6-2.75-.48-6.55-2.95-7.36-4.48-.81-1.53 3.11-5.17 3.11-5.17s2.36-4.46 6.53-.89h4.44L394.76 216l-12.88-18.85-5.11 21.17s-16.53 5.02-23.39 1.91z"/><path stroke="#3D5276" stroke-linecap="round" stroke-linejoin="round" d="M362.52 157.82l1.35 9.89 18.41-9.89-.9-8.08-18.86 8.08zM363.869 167.71s-16.75 20.49-16.3 24.53c.45 4.04 4.94 14.15 4.94 14.15l.92 14.6s13.55.37 23.34-2.64l5.11-21.17"/><path stroke="#3D5276" stroke-linecap="round" stroke-linejoin="round" d="M394.76 216l-25.95-39.12s-2.55-9 3.59-12.21c6.14-3.21 11.48.86 13.39 3 1.91 2.14 22.51 41.83 23.47 46.6.96 4.77-20.8 23.85-33.39 29 0 0-5.73 3.44-5.73-3.62L394.76 216zM382.28 164.931l-2.43-5.8"/><path stroke="#3D5276" stroke-linecap="round" stroke-linejoin="round" d="M370.14 239.69h-5.22s-4.07-3.64-6 0c-1.93 3.64-4.37 4.36-3.64 6.06.73 1.7 4.91 5.09 7.36 4.48 2.45-.61 9.36-6.23 9.36-6.23M361.83 120.86s-6.13 5.36-6.81 8.33c-.68 2.97-.39 8-3.71 10.93 0 0 .17 2.4 3.53 2.76 0 0 1.72 9.47 3.38 10.63 1.66 1.16 11.82-4.08 15.8-6.24a5.27 5.27 0 0 0 2.09-2.91M357.069 145.77a7.719 7.719 0 0 0 4.76-2.81M357.069 132.071s2.42-1.41 3.75.93"/><path fill="#3D5276" d="M358.73 137.1c0 .81-.23 1.47-.6 1.49-.37.02-.71-.62-.75-1.42-.04-.8.23-1.48.6-1.5.37-.02.71.62.75 1.43z"/><path stroke="#3D5276" stroke-linecap="round" stroke-linejoin="round" d="M365.08 151.71l.81 4.67"/><path fill="#3D5276" d="M372.94 136.48s1.5-2.91 3.17-1.21c1.67 1.7 4.84 9.56-3.71 7.69 0 0-.57 4.8 3.71 6 4.28 1.2 12.41-5.42 12.68-16.71.27-11.29-10.63-18.91-16.39-16.73 0 0-8.35-13.09-16.63-7.51s-2.7 14.17-4.46 16.11c-1.76 1.94-5.52.12-5.64 5.33-.12 5.21 8.59 4.68 8.59 4.68l1.05-5.74 7.21-7.53s-1.7 5.44 1.19 10.17c2.61 4.26 9.23 5.45 9.23 5.45z"/><path fill="#3D5276" d="M388.789 132.251s4 .9 3.56 6.31c-.44 5.41-9.47 18.71-8.79 26.37l23.31 43.44s10.49-2 10-12.8c-.49-10.8-13.29-19.9-10.82-27.86 2.47-7.96 12.17-28.23-1.57-39.85-13.74-11.62-35.16 6.19-35.16 6.19l10.49-3.38 8.98 1.58z"/><path stroke="#3D5276" stroke-linecap="round" stroke-linejoin="round" d="M350.41 185.921l-6.26-14.4-28.14 18.59 23.22 41.14 14.08-7.75"/><path fill="#fff" stroke="#3D5276" stroke-linecap="round" stroke-linejoin="round" d="M324.77 210.46s-1.52-3.14.51-4.87c2.03-1.73 9-6.86 9-5.6a2.206 2.206 0 0 1-.48 1.73c-2 2.68-6.79 7-6.48 7.35 0 0 8.74-5.8 9.58-5.25.21.14.09.89-.64 1.62a75.623 75.623 0 0 1-7.57 5.92s9.22-3.57 10.41-3c.34.16.27.68-.8 1.33a84.078 84.078 0 0 1-8.25 3.92l2.31 3.86s-4.36.76-7.59-7.01z"/><path stroke="#3D5276" stroke-linejoin="round" d="M375.01 145.771l.64 6.43"/></svg>