<svg xmlns="http://www.w3.org/2000/svg" fill="none" viewBox="0 0 500 500"><path fill="#C1EEE6" d="M90.72 374.39c83.79 43.77 219.63 43.77 303.41 0 83.78-43.77 83.79-114.74 0-158.51-83.79-43.77-219.63-43.77-303.41 0-83.78 43.77-83.79 114.74 0 158.51z"/><path fill="#EBEBEB" d="M291.829 315.13c-19.71 11.37-19.71 29.82 0 41.2 19.71 11.38 51.65 11.38 71.36 0s19.7-29.83 0-41.2c-19.7-11.37-51.66-11.38-71.36 0z"/><path fill="#F77021" d="M84.31 152.029l52.801-16.42-40.62 28.14-12.18-11.72z"/><path fill="#F77021" d="M137.111 135.61l-56.87 9.38-12.18-11.73 69.05 2.35z"/><path fill="#3D5276" d="M80.24 144.989v14.07l4.07-7.03 52.8-16.42-56.87 9.38z"/><path fill="#F77021" d="M80.24 159.059l8.13-3.12-4.06-3.91-4.07 7.03z"/><path fill="#3D5276" d="M84.31 152.029l4.06 3.91-1.3.49-2.76-4.4z"/><path fill="#E0E0E0" d="M71.49 156.94a.748.748 0 0 1-.739-.559.753.753 0 0 1 .37-.851c.9-.5 1.81-1 2.71-1.39a.75.75 0 1 1 .65 1.35c-.87.42-1.76.87-2.63 1.36a.793.793 0 0 1-.36.09zM62.26 237.7a.756.756 0 0 1-.43-.13 41.076 41.076 0 0 1-4.61-3.78.75.75 0 1 1 1-1.09 39.094 39.094 0 0 0 4.45 3.64.748.748 0 0 1 .003 1.217.751.751 0 0 1-.443.143h.03zm-7.84-7.28a.75.75 0 0 1-.58-.27 40.975 40.975 0 0 1-3.43-4.87.755.755 0 0 1 .825-1.122.755.755 0 0 1 .465.342 40.097 40.097 0 0 0 3.3 4.7.75.75 0 0 1-.1 1.05.725.725 0 0 1-.48.17zm-5.63-9.1a.754.754 0 0 1-.69-.44 46.978 46.978 0 0 1-2.1-5.57.749.749 0 0 1 1.43-.44 45.67 45.67 0 0 0 2 5.39.749.749 0 0 1-.37 1 .717.717 0 0 1-.27.06zm-3.25-10.21a.754.754 0 0 1-.73-.61 51.974 51.974 0 0 1-.81-5.88.753.753 0 1 1 1.5-.12 48.73 48.73 0 0 0 .78 5.71.74.74 0 0 1-.59.88l-.15.02zm-.95-10.68a.748.748 0 0 1-.53-.224.743.743 0 0 1-.21-.536c.023-1.98.157-3.956.4-5.92a.75.75 0 1 1 1.48.18 52.973 52.973 0 0 0-.38 5.76.753.753 0 0 1-.76.74zm1.22-10.65a.539.539 0 0 1-.17 0 .75.75 0 0 1-.57-.89 46.73 46.73 0 0 1 1.68-5.71.743.743 0 0 1 .402-.443.753.753 0 0 1 .598-.007.76.76 0 0 1 .45 1 45.353 45.353 0 0 0-1.62 5.52.75.75 0 0 1-.77.53zm3.56-10.1a.624.624 0 0 1-.33-.08.747.747 0 0 1-.386-.427.737.737 0 0 1 .036-.573 48.263 48.263 0 0 1 2.94-5.17.75.75 0 0 1 1-.21.738.738 0 0 1 .22 1 45.233 45.233 0 0 0-2.85 5 .741.741 0 0 1-.63.46zm5.75-9a.725.725 0 0 1-.46-.16.756.756 0 0 1-.256-.799.748.748 0 0 1 .136-.261 52.978 52.978 0 0 1 4-4.41.748.748 0 0 1 1.28.53.752.752 0 0 1-.22.53 53.34 53.34 0 0 0-3.86 4.29.738.738 0 0 1-.62.24v.04zm7.52-7.68a.747.747 0 0 1-.57-.27.761.761 0 0 1 .09-1.06 58.764 58.764 0 0 1 4.75-3.56.75.75 0 0 1 1 .2.76.76 0 0 1-.2 1.05 55.834 55.834 0 0 0-4.63 3.47c-.126.1-.28.16-.44.17zM69.14 241.61a.694.694 0 0 1-.31-.07c-.93-.42-1.85-.87-2.73-1.35a.733.733 0 0 1-.362-.436.74.74 0 0 1 .052-.564.75.75 0 0 1 1-.31c.86.46 1.75.9 2.65 1.31a.752.752 0 0 1 .417.839.753.753 0 0 1-.727.591l.01-.01z"/><path fill="#F77021" d="M411.189 205.319l42.3-27.08 18.63 5.98-60.93 21.1z"/><path fill="#F77021" d="M411.189 205.32l36.56-30.48-8.13-9.38-28.43 39.86z"/><path fill="#3D5276" d="M447.749 174.84v7.07l-36.56 23.41 36.56-30.48z"/><path fill="#E0E0E0" d="M456 171.89a.725.725 0 0 1-.49-.19.76.76 0 0 1-.07-1.06 29.69 29.69 0 0 0 3.45-4.71.751.751 0 0 1 1.378.189.755.755 0 0 1-.078.571 32.463 32.463 0 0 1-3.62 4.95.764.764 0 0 1-.57.25zm5.72-9.32a.873.873 0 0 1-.27 0 .755.755 0 0 1-.483-.706.746.746 0 0 1 .063-.294 30.475 30.475 0 0 0 1.58-5.63.753.753 0 0 1 1.48.27 32.416 32.416 0 0 1-1.67 5.9.743.743 0 0 1-.7.46zm2.14-10.73a.737.737 0 0 1-.681-.473.742.742 0 0 1-.049-.287v-.78a33.484 33.484 0 0 0-.4-5.07.758.758 0 0 1 .63-.86.769.769 0 0 1 .86.63 35.21 35.21 0 0 1 .41 5.3v.81a.759.759 0 0 1-.77.73zM462.35 141a.74.74 0 0 1-.71-.54 37.89 37.89 0 0 0-2.15-5.47.74.74 0 0 1 .35-1 .747.747 0 0 1 1 .35 38.154 38.154 0 0 1 2.23 5.69.749.749 0 0 1-.055.57.744.744 0 0 1-.445.36.591.591 0 0 1-.22.04zm-4.64-9.93a.729.729 0 0 1-.63-.35 44.983 44.983 0 0 0-3.53-4.71.748.748 0 0 1 .08-1.06.742.742 0 0 1 1.05.08 45.651 45.651 0 0 1 3.66 4.88.774.774 0 0 1-.63 1.15v.01zm-7-8.41a.732.732 0 0 1-.51-.21 54.38 54.38 0 0 0-4.53-3.8.743.743 0 0 1-.277-.786.751.751 0 0 1 1.177-.414 54.164 54.164 0 0 1 4.66 3.91.754.754 0 0 1-.52 1.3zm-8.77-6.66a.756.756 0 0 1-.4-.12 73.41 73.41 0 0 0-5.17-2.9.763.763 0 0 1-.424-.433.76.76 0 0 1 .035-.605.752.752 0 0 1 1.069-.292c1.05.54 2.1 1.1 3.12 1.68.74.41 1.46.84 2.16 1.28a.753.753 0 0 1 .25 1 .774.774 0 0 1-.64.39zm-89.65-.51a.763.763 0 0 1-.65-.38.736.736 0 0 1 .27-1c1.74-1 3.53-2 5.34-2.84a.747.747 0 0 1 1 .34.763.763 0 0 1-.35 1c-1.78.87-3.54 1.8-5.25 2.79a.722.722 0 0 1-.36.07v.02zm79.9-4.57a.678.678 0 0 1-.3-.07c-1.8-.79-3.66-1.53-5.52-2.19a.758.758 0 0 1-.455-.965.753.753 0 0 1 .965-.455c1.89.68 3.78 1.43 5.62 2.24a.748.748 0 0 1 .171 1.278.744.744 0 0 1-.481.162zm-70.05-.31a.742.742 0 0 1-.69-.46.753.753 0 0 1-.012-.585.74.74 0 0 1 .412-.415c1.85-.78 3.75-1.5 5.65-2.15a.74.74 0 0 1 .6.011.754.754 0 0 1 .4.449.776.776 0 0 1-.024.599.776.776 0 0 1-.446.401c-1.87.64-3.75 1.35-5.56 2.11a.8.8 0 0 1-.33.02v.02zm59.73-3.46a.82.82 0 0 1-.21 0c-1.89-.55-3.83-1-5.76-1.47a.753.753 0 1 1 .32-1.47c2 .43 3.94.94 5.86 1.5a.75.75 0 0 1-.21 1.47v-.03zm-49.35-.15a.75.75 0 0 1-.72-.55.738.738 0 0 1 .51-.92c1.93-.54 3.91-1 5.88-1.44a.734.734 0 0 1 .309-.031.734.734 0 0 1 .295.097.733.733 0 0 1 .357.492.741.741 0 0 1-.126.596.757.757 0 0 1-.525.306c-1.94.41-3.88.89-5.78 1.42l-.2.03zm38.63-2.26H411c-1.95-.31-3.94-.56-5.9-.74a.753.753 0 0 1-.703-.511.748.748 0 0 1 .526-.966.74.74 0 0 1 .307-.013c2 .18 4 .43 6 .75a.759.759 0 0 1 .62.86.753.753 0 0 1-.7.59v.03zm-27.89-.07a.751.751 0 0 1-.74-.63.758.758 0 0 1 .63-.86c2-.3 4-.55 6-.72a.743.743 0 0 1 .549.173.76.76 0 0 1 .266.512.763.763 0 0 1-.174.549.768.768 0 0 1-.229.184.777.777 0 0 1-.282.082c-2 .17-3.95.4-5.9.71h-.12zm16.95-1c-2-.07-4-.08-5.95 0a.733.733 0 0 1-.708-.435.72.72 0 0 1-.062-.285.733.733 0 0 1 .442-.708.734.734 0 0 1 .288-.062c2-.07 4-.06 6 0a.74.74 0 0 1 .524.233.749.749 0 0 1 .206.537.76.76 0 0 1-.74.7v.02z"/><path fill="#3D5276" d="M396.44 219.94v-1.6h-.39a6.27 6.27 0 0 0-2.59-2.54 15.934 15.934 0 0 0-14.42 0 6.258 6.258 0 0 0-2.59 2.54h-.39v1.55c0 1.53 1 3.07 3 4.24a15.991 15.991 0 0 0 14.42 0c1.98-1.13 2.97-2.67 2.96-4.19z"/><path fill="#3D5276" d="M386.25 224.23c5.627 0 10.19-2.637 10.19-5.89 0-3.253-4.563-5.89-10.19-5.89-5.628 0-10.19 2.637-10.19 5.89 0 3.253 4.562 5.89 10.19 5.89z"/><path fill="#3D5276" d="M383.63 169.301v48.35a1.312 1.312 0 0 0 .76 1.07 4.106 4.106 0 0 0 3.71 0 1.303 1.303 0 0 0 .77-1.07v-48.35h-5.24z"/><path fill="#3D5276" d="M398 133.11c-2.55-1.47-4.87-1.59-6.61-.62L359 151.21l16.25 32.59 32.5-18.8v-14.26c0-6.63-4.37-14.52-9.75-17.63z"/><path fill="#3D5276" d="M375.25 169.53v14.27l-19.49-11.26v-14.26c0-6.63 4.36-9.48 9.74-6.37 3.45 2 6.48 5.94 8.21 10.26a20.272 20.272 0 0 1 1.54 7.36z"/><path fill="#2F3F5C" d="M375.25 169.53v14.27l-19.49-11.26 17.95-10.37a20.272 20.272 0 0 1 1.54 7.36z"/><path fill="#3D5276" d="M372 174.421c-1.79-5.18-7.61-11.9-13-15-5.39-3.1-8.29-1.43-6.5 3.75l3.25 9.38 19.5 11.26s-1.45-4.21-3.25-9.39z"/><path fill="#2F3F5C" d="M385.409 170.07l-1.09-.63a1.46 1.46 0 0 0-1.46.14 4.592 4.592 0 0 0-2.07 3.59 1.446 1.446 0 0 0 .61 1.34l1 .58.19-.31c.208-.045.407-.123.59-.23a4.558 4.558 0 0 0 1.463-1.543c.36-.622.568-1.32.607-2.037a2.107 2.107 0 0 0-.07-.53l.23-.37z"/><path fill="#3D5276" d="M383.899 170.19a4.574 4.574 0 0 0-2.07 3.58c0 1.32.93 1.85 2.07 1.19a4.548 4.548 0 0 0 1.464-1.542c.36-.622.568-1.32.606-2.038.03-1.32-.97-1.85-2.07-1.19z"/><path fill="#2F3F5C" d="M383.9 173.141a.605.605 0 0 1-.555-.371.603.603 0 0 1-.045-.229v-20.63a.6.6 0 1 1 1.2 0v20.63a.599.599 0 0 1-.6.6z"/><path fill="#3D5276" d="M384.439 152.45v5.38l5.77-5.92-5.77.54z"/><path fill="#F77021" d="M81.08 330.91c-.5.27-9.68 2.87-13.08-1.62-3.4-4.49 2.25-11.49-.94-14.07s-12.13 0-14.28-5.42c-2.15-5.42 4.22-7.76.64-13.23-2.26-3.45-8.58-5.35-8.29-8.56.42-4.69 9.06-6 16.6-.93 7.54 5.07 11.06.91 13.45.57 2.39-.34 7.55.41 7.39 8.81-.16 8.4-1.49 34.45-1.49 34.45z"/><path fill="#fff" d="M81.69 319a.512.512 0 0 1-.5-.42c-2.63-16-21.16-28.93-30.8-31.71a.501.501 0 0 1-.302-.238.492.492 0 0 1-.038-.382.5.5 0 0 1 .62-.34c9.85 2.85 28.81 16.14 31.51 32.51a.501.501 0 0 1-.41.57l-.08.01z"/><path fill="#fff" d="M59.831 305.61a.5.5 0 0 1-.26-.93c.3-.18 7.44-4.35 14.46-2.4a.514.514 0 0 1 .132.945.516.516 0 0 1-.392.055c-6.62-1.84-13.62 2.25-13.69 2.29a.449.449 0 0 1-.25.04z"/><path fill="#F77021" d="M342.5 246.42c3.94.54 10.65-1.74 11.13-8.3.48-6.56 3.19-8.34 8.16-9.41 4.97-1.07 6.43-2.8 7-5.92.57-3.12-3.21-6.85-2.15-11.55 1.06-4.7 4.6-4.69 8.08-10 2.23-3.42-2.34-8.64-9.95-6.4-7.61 2.24-7 7.15-14.61 7.78-7.61.63-12.38 5.25-12.53 11-.15 5.75 4.87 32.8 4.87 32.8z"/><path fill="#2F3F5C" d="M342.5 246.42c3.94.54 10.65-1.74 11.13-8.3.48-6.56 3.19-8.34 8.16-9.41 4.97-1.07 6.43-2.8 7-5.92.57-3.12-3.21-6.85-2.15-11.55 1.06-4.7 4.6-4.69 8.08-10 2.23-3.42-2.34-8.64-9.95-6.4-7.61 2.24-7 7.15-14.61 7.78-7.61.63-12.38 5.25-12.53 11-.15 5.75 4.87 32.8 4.87 32.8z" opacity=".2"/><path fill="#fff" d="M341.062 233.84h-.06a.503.503 0 0 1-.391-.395.492.492 0 0 1 .001-.195c3.68-18.19 23.75-34.84 28.64-36.54a.525.525 0 1 1 .33 1c-4.78 1.66-24.39 18-28 35.79a.508.508 0 0 1-.52.34z"/><path fill="#F77021" d="M76.88 227.389a5.742 5.742 0 0 1 2.6-4.5l132.911-76.74a5.787 5.787 0 0 1 5.19 0l2.93 1.7a5.72 5.72 0 0 1 1.842 1.937c.451.783.711 1.661.758 2.563v101.88a5.764 5.764 0 0 1-2.6 4.5l-132.91 76.73a5.731 5.731 0 0 1-5.2 0l-2.92-1.69a5.749 5.749 0 0 1-2.6-4.5v-101.88z"/><path fill="#2F3F5C" d="M76.88 227.389a5.742 5.742 0 0 1 2.6-4.5l132.911-76.74a5.787 5.787 0 0 1 5.19 0l2.93 1.7a5.72 5.72 0 0 1 1.842 1.937c.451.783.711 1.661.758 2.563v101.88a5.764 5.764 0 0 1-2.6 4.5l-132.91 76.73a5.731 5.731 0 0 1-5.2 0l-2.92-1.69a5.749 5.749 0 0 1-2.6-4.5v-101.88z" opacity=".3"/><path fill="#F77021" d="M89.06 231.43l-11.42-6.6a5.32 5.32 0 0 0-.76 2.56v101.88a5.763 5.763 0 0 0 2.6 4.5l2.92 1.69a5.744 5.744 0 0 0 5.2 0l1.46-.84V231.43z"/><path fill="#2F3F5C" d="M89.06 231.43l-11.42-6.6a5.32 5.32 0 0 0-.76 2.56v101.88a5.763 5.763 0 0 0 2.6 4.5l2.92 1.69a5.744 5.744 0 0 0 5.2 0l1.46-.84V231.43z" opacity=".5"/><path fill="#F77021" d="M223.11 152.35v101.88a5.3 5.3 0 0 1-.81 2.63 5.57 5.57 0 0 1-1.52 1.7l-.1.06-.17.11L87.6 335.46a1.857 1.857 0 0 1-1.77.2A1.791 1.791 0 0 1 85 334V232.08a2.257 2.257 0 0 1 .857-1.915 2.263 2.263 0 0 1 2.063-.385l55.89 13.29 7.32 1.74a4.823 4.823 0 0 0 4.67-1.75l8.48-11.81 57.08-79.47c.96-1.34 1.75-1.09 1.75.57z"/><path fill="#2F3F5C" d="M223.11 152.35v101.88a5.3 5.3 0 0 1-.81 2.63 5.57 5.57 0 0 1-1.52 1.7l-.1.06-.17.11L87.6 335.46a1.857 1.857 0 0 1-1.77.2A1.791 1.791 0 0 1 85 334V232.08a2.257 2.257 0 0 1 .857-1.915 2.263 2.263 0 0 1 2.063-.385l55.89 13.29 7.32 1.74a4.823 4.823 0 0 0 4.67-1.75l8.48-11.81 57.08-79.47c.96-1.34 1.75-1.09 1.75.57z" opacity=".2"/><path fill="#F77021" d="M220.511 258.73l.17-.11.1-.06a5.57 5.57 0 0 0 1.52-1.7 5.263 5.263 0 0 0 .81-2.59l-58.83-23 39.4 37.2 16.83-9.74z"/><path fill="#2F3F5C" d="M220.511 258.73l.17-.11.1-.06a5.57 5.57 0 0 0 1.52-1.7 5.263 5.263 0 0 0 .81-2.59l-58.83-23 39.4 37.2 16.83-9.74z" opacity=".6"/><path fill="#F77021" d="M85 334a1.79 1.79 0 0 0 .81 1.71 1.853 1.853 0 0 0 1.77-.2L133.36 309l10.45-66L85 332.27V334z"/><path fill="#2F3F5C" d="M85 334a1.79 1.79 0 0 0 .81 1.71 1.853 1.853 0 0 0 1.77-.2L133.36 309l10.45-66L85 332.27V334z" opacity=".6"/><path fill="#F77021" d="M222.3 256.859a5.563 5.563 0 0 1-1.52 1.701l-.1.06L87.6 335.46a1.857 1.857 0 0 1-1.77.2l63.65-101.61a10 10 0 0 1 12.52-3.82l60.3 26.629z"/><path fill="#2F3F5C" d="M222.3 256.859a5.563 5.563 0 0 1-1.52 1.701l-.1.06L87.6 335.46a1.857 1.857 0 0 1-1.77.2l63.65-101.61a10 10 0 0 1 12.52-3.82l60.3 26.629z" opacity=".2"/><path fill="#F77021" d="M85 229.08l61.13 27a9.999 9.999 0 0 0 12.52-3.85l64.19-102.73L85 229.08z"/><path fill="#2F3F5C" d="M85 229.08l61.13 27a9.999 9.999 0 0 0 12.52-3.85l64.19-102.73L85 229.08z" opacity=".6"/><path fill="#F77021" d="M85 229.08l61.56 23a10 10 0 0 0 11.87-3.9l64.41-98.68L85 229.08z"/><path fill="#2F3F5C" d="M85 229.08l61.56 23a10 10 0 0 0 11.87-3.9l64.41-98.68L85 229.08z" opacity=".2"/><path fill="#455A64" d="M99.58 239.94a5.71 5.71 0 0 1 2.6-4.5l132.91-76.74a5.731 5.731 0 0 1 5.2 0l2.93 1.69a5.74 5.74 0 0 1 2.59 4.5v101.88a5.752 5.752 0 0 1-2.59 4.5L110.3 348a5.787 5.787 0 0 1-5.19 0l-2.93-1.69a5.767 5.767 0 0 1-2.6-4.5V239.94z"/><path fill="#455A64" d="M99.58 239.94a5.71 5.71 0 0 1 2.6-4.5l132.91-76.74a5.731 5.731 0 0 1 5.2 0l2.93 1.69a5.74 5.74 0 0 1 2.59 4.5v101.88a5.752 5.752 0 0 1-2.59 4.5L110.3 348a5.787 5.787 0 0 1-5.19 0l-2.93-1.69a5.767 5.767 0 0 1-2.6-4.5V239.94z"/><path fill="#2F3F5C" d="M111.77 244l-11.43-6.59a5.29 5.29 0 0 0-.76 2.56v101.85a5.765 5.765 0 0 0 2.6 4.5l2.93 1.69a5.774 5.774 0 0 0 5.19 0l1.47-.85V244z"/><path fill="#3D5276" d="M245.82 164.889v101.88a5.29 5.29 0 0 1-.81 2.63 5.548 5.548 0 0 1-1.52 1.7l-.1.06-.17.11-132.91 76.73a1.84 1.84 0 0 1-1.77.2 1.791 1.791 0 0 1-.81-1.71v-101.87a2.274 2.274 0 0 1 .193-1.063 2.257 2.257 0 0 1 2.727-1.237l55.89 13.29 7.32 1.74a4.813 4.813 0 0 0 4.67-1.75l8.47-11.81 57.08-79.47c.92-1.32 1.74-1.09 1.74.57z"/><path fill="#2F3F5C" d="M243.22 271.269l.17-.11.1-.06a5.548 5.548 0 0 0 1.52-1.7 5.283 5.283 0 0 0 .8-2.58l-58.82-23 39.39 37.18 16.84-9.73zM107.711 346.5a1.796 1.796 0 0 0 .81 1.71 1.855 1.855 0 0 0 1.77-.2l45.76-26.42 10.45-66-58.81 89.2.02 1.71z"/><path fill="#3D5276" d="M245.001 269.399a5.548 5.548 0 0 1-1.52 1.7l-.1.06-133.07 76.84a1.845 1.845 0 0 1-1.77.2l63.64-101.6a9.999 9.999 0 0 1 12.52-3.84l60.3 26.64z"/><path fill="#2F3F5C" d="M107.711 241.63l61.13 27a9.999 9.999 0 0 0 12.51-3.85L245.541 162l-137.83 79.63z"/><path fill="#3D5276" d="M107.711 241.63l61.55 23a10 10 0 0 0 11.88-3.9l64.4-98.73-137.83 79.63z"/><path fill="#F77021" d="M197.07 320.81V218.93a10.944 10.944 0 0 1 1.75-5.43l63.39-88.27a9.996 9.996 0 0 1 10.44-3.9l59.61 14.17a24.994 24.994 0 0 1 5.52 2.2l2.93 1.69a5.774 5.774 0 0 1 2.59 4.5v101.88a5.781 5.781 0 0 1-2.59 4.5L207.79 327a5.746 5.746 0 0 1-5.19 0l-2.93-1.69a5.767 5.767 0 0 1-2.6-4.5z"/><path fill="#fff" d="M197.07 320.81V218.93a10.944 10.944 0 0 1 1.75-5.43l63.39-88.27a9.996 9.996 0 0 1 10.44-3.9l59.61 14.17a24.994 24.994 0 0 1 5.52 2.2l2.93 1.69a5.774 5.774 0 0 1 2.59 4.5v101.88a5.781 5.781 0 0 1-2.59 4.5L207.79 327a5.746 5.746 0 0 1-5.19 0l-2.93-1.69a5.767 5.767 0 0 1-2.6-4.5z" opacity=".3"/><path fill="#FAFAFA" d="M209.25 169.69v130c0 1.65 1.17 2.33 2.6 1.5l124.79-72a5.735 5.735 0 0 0 2.6-4.5v-130c0-1.66-1.16-2.33-2.6-1.5l-124.79 72a5.738 5.738 0 0 0-2.6 4.5z"/><path fill="#E0E0E0" d="M210.691 302.06a1.84 1.84 0 0 1-.92-.24 2.27 2.27 0 0 1-1-2.11v-130a6.225 6.225 0 0 1 2.85-4.94l124.79-72a2.067 2.067 0 0 1 2.344-.187 2.067 2.067 0 0 1 1.006 2.126V224.71a6.202 6.202 0 0 1-2.85 4.93l-124.79 72a2.858 2.858 0 0 1-1.43.42zm127.11-208.78a1.92 1.92 0 0 0-.91.29l-124.79 72.05a5.269 5.269 0 0 0-2.35 4.07v130a1.108 1.108 0 0 0 1.212 1.376c.24-.03.464-.137.638-.306l124.79-72a5.279 5.279 0 0 0 2.35-4.07v-130a1.395 1.395 0 0 0-.51-1.25.863.863 0 0 0-.43-.16z"/><path fill="#F77021" d="M206.56 221.41l-9-5.2a9.534 9.534 0 0 0-.48 2.72v101.88a5.753 5.753 0 0 0 2.6 4.5l2.92 1.69a5.723 5.723 0 0 0 5.19 0l1.25-.71-2.48-104.88z"/><path fill="#2F3F5C" d="M206.56 221.41l-9-5.2a9.534 9.534 0 0 0-.48 2.72v101.88a5.753 5.753 0 0 0 2.6 4.5l2.92 1.69a5.723 5.723 0 0 0 5.19 0l1.25-.71-2.48-104.88z" opacity=".1"/><path fill="#F77021" d="M343.311 143.889v101.88a5.3 5.3 0 0 1-.81 2.63 5.56 5.56 0 0 1-1.52 1.7l-.1.06-.17.11-132.91 76.73a1.849 1.849 0 0 1-1.77.2 1.787 1.787 0 0 1-.81-1.71v-101.87a2.26 2.26 0 0 1 2.92-2.3l55.86 13.29 7.32 1.74a4.812 4.812 0 0 0 4.68-1.75l8.48-11.81 57.08-79.47c.96-1.32 1.75-1.09 1.75.57z"/><path fill="#fff" d="M343.311 143.889v101.88a5.3 5.3 0 0 1-.81 2.63 5.56 5.56 0 0 1-1.52 1.7l-.1.06-.17.11-132.91 76.73a1.849 1.849 0 0 1-1.77.2 1.787 1.787 0 0 1-.81-1.71v-101.87a2.26 2.26 0 0 1 2.92-2.3l55.86 13.29 7.32 1.74a4.812 4.812 0 0 0 4.68-1.75l8.48-11.81 57.08-79.47c.96-1.32 1.75-1.09 1.75.57z" opacity=".3"/><path fill="#F77021" d="M340.71 250.27l.17-.11.1-.06a5.57 5.57 0 0 0 1.52-1.7c.486-.78.762-1.673.8-2.59l-58.82-23L323.87 260l16.84-9.73zM205.202 325.5a1.786 1.786 0 0 0 .81 1.71 1.851 1.851 0 0 0 1.77-.2l45.76-26.42 10.45-66-58.81 89.2.02 1.71z"/><path fill="#F77021" d="M342.501 248.4a5.57 5.57 0 0 1-1.52 1.7l-.1.06L207.801 327a1.856 1.856 0 0 1-1.77.2l63.64-101.6a10 10 0 0 1 12.51-3.84l60.32 26.64z"/><path fill="#fff" d="M342.501 248.4a5.57 5.57 0 0 1-1.52 1.7l-.1.06L207.801 327a1.856 1.856 0 0 1-1.77.2l63.64-101.6a10 10 0 0 1 12.51-3.84l60.32 26.64z" opacity=".3"/><path fill="#E0E0E0" d="M264.202 199.63a7.292 7.292 0 0 1-6.41-2.2c-1.52-1.69-2.28-4.3-2.28-7.81a27.77 27.77 0 0 1 2.49-11.48 34.703 34.703 0 0 1 6.86-10 47.49 47.49 0 0 1 10.4-8.14c3.753-2.16 6.956-3.357 9.61-3.59 2.67-.24 4.68.45 6.06 2.05 1.38 1.6 2.06 4.05 2.06 7.33a19.172 19.172 0 0 1-2.24 9.34 15.592 15.592 0 0 1-5.92 6.26 4.366 4.366 0 0 1-3 .78 2.002 2.002 0 0 1-1.56-1.51 18.36 18.36 0 0 1-3.14 4.29 19.495 19.495 0 0 1-4.28 3.33c-2.72 1.54-4.89 2-6.49 1.47-1.6-.53-2.36-2.15-2.36-4.85a16.867 16.867 0 0 1 3-9.49 24.09 24.09 0 0 1 8.16-7.48 15.2 15.2 0 0 1 4.39-1.76 6.698 6.698 0 0 1 3.51 0v10.53c0 .85.15 1.37.44 1.57.29.2.77.1 1.45-.29a6.465 6.465 0 0 0 2.65-3.51c.676-1.951.998-4.006.95-6.07 0-2.627-.574-4.537-1.72-5.73a5.36 5.36 0 0 0-4.71-1.44 17.989 17.989 0 0 0-6.87 2.56 33.596 33.596 0 0 0-11.15 10 22.885 22.885 0 0 0-4.1 13.21c0 2.873.59 4.97 1.77 6.29a5.464 5.464 0 0 0 4.88 1.68 17.812 17.812 0 0 0 7-2.57 28.673 28.673 0 0 0 4.15-2.92 22.162 22.162 0 0 0 3.27-3.34c.1-.129.218-.244.35-.34.09-.05.18 0 .26.12l1.1 2c.04.079.07.163.09.25a1.004 1.004 0 0 1-.31.58 31.04 31.04 0 0 1-4 4 35.297 35.297 0 0 1-4.89 3.44 23.642 23.642 0 0 1-9.47 3.44zm13-18.8a6.701 6.701 0 0 0 1.58-4v-6.1a8.614 8.614 0 0 0-4 1.38 13.774 13.774 0 0 0-4.74 4.41 10.188 10.188 0 0 0-1.75 5.67c0 1.69.42 2.7 1.27 3 .85.3 2.16 0 3.95-1.07a12.638 12.638 0 0 0 3.73-3.29h-.04z"/><path fill="#F77021" d="M291.001 352.87c-2.72-3.16-.3-8.41 2.34-15.22 2.9-7.49 7.38-20.22 7.38-20.22l31.81-6.57s33.89-.65 37 5.83c2.52 5.19-19.8 13-23 13.28l-19.59 1.03-2.06 1-13.76 17.41-20.12 3.46z"/><path fill="#F77021" d="M349.61 322a80.09 80.09 0 0 0-6.89 8c-5.73 8-14.8 22.53-14.8 22.53s1.41 4.6 5.74 4.4c0 0 29.8-27.83 32.24-30.4 3.69-3.9 6.65-10.33.27-10.86-6.38-.53-14.08 3.65-16.56 6.33z"/><path fill="#F77021" d="M342.561 330.16s5.32-7.78 10.83-11c0 0-5.48 1.08-13.78 11.18l2.95-.18z"/><path fill="#2F3F5C" d="M342.561 330.16s5.32-7.78 10.83-11c0 0-5.48 1.08-13.78 11.18l2.95-.18z" opacity=".1"/><path fill="#FFA8A7" d="M346.18 340l-2.09.4 1.94 7.17s1.88-.18 2.53-.14a10.674 10.674 0 0 0 2.71-1.05l-.5-4.38-2.3-2.4-2.29.4z"/><path fill="#2F3F5C" d="M362.682 341.689a7.833 7.833 0 0 1 4.38 4.46 22.551 22.551 0 0 1 1.09 3.24c.33 1.16.17 3.13-1.3 3.45a2.431 2.431 0 0 1-1.39-.25c-2.95-1.14-5.83-2.46-8.85-3.42a29.425 29.425 0 0 0-8.05-1.75 5.573 5.573 0 0 0-.24-6.41 3.885 3.885 0 0 0-2.14-1c.76-.34 1.47-.78 2.2-1.19a6.676 6.676 0 0 1 4.67-1.15c1.26.27 2.22 1.27 3.29 2 2.04 1.33 4.01 1.24 6.34 2.02z"/><path fill="#F77021" d="M295.292 346c2.63-.81 6.83-1.53 19.29-2.17 12.46-.64 29.51-3.44 29.51-3.44 2.9 2.79 1.94 7.17 1.94 7.17s-22.13 7-29.34 7.93c-11.48 1.48-15.44 1.37-20.62.26-5.82-1.25-9.49-7.08-.78-9.75z"/><path fill="#F28F8F" d="M340.831 286.649l9.36 22.37-6.7 4.12-12.88-21.81 10.22-4.68z"/><path fill="#E0E0E0" d="M321.471 265.569c5.12.06 10.75 1.92 12.69 5.93l8 16.5s-4.52 6.62-11.7 6.15l-8.99-28.58z"/><path fill="#FFA8A7" d="M287.431 300.34c.06-.87 1.31-5.12 2.65-9.7l9.72 3.36-2.61 8.23-8.19 7.77a12.88 12.88 0 0 1-1.57-9.66z"/><path fill="#FAFAFA" d="M311 265.879c-6.1 1.47-14.41 3.38-16.82 10s-5.86 18.31-5.86 18.31c1.34 2.32 8.69 4.24 11.24 2.9l1.2-4v24.32c4.77 5.19 28.3 3.86 31.81-6.57v-33.13c0-5.3-2.94-11.67-11.07-12.14l-10.5.31z"/><path fill="#E0E0E0" d="M300.73 293.109l3.06-9.63-3.06 13.94v-4.31z"/><path fill="#2F3F5C" d="M308.681 238.769a3.624 3.624 0 0 0-3 1c-1.29 1.32-1 3.76 0 9.36l4 .45-1-10.81zM331.89 237.15a6.213 6.213 0 0 0 2.49-.51c1.22-.7 1.54.69.87 1.89a5.688 5.688 0 0 1-4.62 3.08c0-.17-1.14-3.11-1.14-3.11l2.4-1.35z"/><path fill="#FFA8A7" d="M310.55 249.64c-.59.35-1.44-.78-2.17-1.55a2.564 2.564 0 0 0-2.34-.841 2.561 2.561 0 0 0-1.95 1.541c-1.21 2.55 1.54 5.94 3.15 7.06a2.833 2.833 0 0 0 3.31.28l.42 9.75a10.374 10.374 0 0 0 3.171 3.962 10.375 10.375 0 0 0 4.669 1.988c5.72.77 4.54-3.95 2.66-6.26V262c1.432.306 2.904.38 4.36.22.74-.2 2.52-2.35 3.67-4.76 1.29-2.7 3.44-7.5 1.53-15.63-2.06-8.72-11.43-9-17-5.47-5.57 3.53-3.48 13.28-3.48 13.28z"/><path fill="#2F3F5C" d="M310.55 250.63c-.3 0-1.43-1.87-2.17-2.54-1-.93.3-9.32.3-9.32s-1-3.19 1-5.3 5.92-1.76 8.78-1.86a25.716 25.716 0 0 0 10.2-2.05c4.06-1.76 4.36-2 4.86-.19s.7 5.86-1.72 8.59l-1.32 2.15s-1.23 1-5 1.5-10.23-1.57-11-1.68c-1.1-.15-1.33.91-1.92 3.81-.56 2.55-1.01 6.87-2.01 6.89z"/><path fill="#2F3F5C" d="M308.691 239.42l-3.58-1.92a1.989 1.989 0 0 1 1.169-1.013 1.998 1.998 0 0 1 1.541.123 2.14 2.14 0 0 1 .87 2.81z"/><path fill="#F28F8F" d="M321.46 262s-5.3-1.07-7.15-2a6.128 6.128 0 0 1-2.56-2.54 8.397 8.397 0 0 0 1.46 3c1.35 1.73 8.25 3 8.25 3V262z"/><path fill="#2F3F5C" d="M321.631 249.44a1.06 1.06 0 1 1-1.06-1.1 1.076 1.076 0 0 1 1.06 1.1zM320.51 245.439l-2.28 1.25a1.384 1.384 0 0 1 .53-1.81 1.281 1.281 0 0 1 1.44.156c.129.112.235.25.31.404z"/><path fill="#F28F8F" d="M321.001 256.54l2.43.92a1.274 1.274 0 0 1-.657.748 1.27 1.27 0 0 1-.993.052 1.362 1.362 0 0 1-.78-1.72z"/><path fill="#2F3F5C" d="M331.101 246.32l-2.07-1.6a1.265 1.265 0 0 1 1.347-.493c.165.043.319.119.453.223a1.366 1.366 0 0 1 .27 1.87zM330.461 249.14a1.063 1.063 0 0 1-.681.95 1.056 1.056 0 0 1-1.141-.254 1.06 1.06 0 0 1 .762-1.796 1.082 1.082 0 0 1 1.06 1.1z"/><path fill="#F28F8F" d="M325.461 249.01l-1 6.32 3.5-.41-2.5-5.91z"/><path fill="#37474F" d="M361.941 320.779l-21.55-12.44a1.255 1.255 0 0 0-1.24 0l-37.79 21.82 22.16 12.84 38.42-22.22z"/><path fill="#2F3F5C" d="M323.321 341.13l-11.62-6.7 33.98-19.62 11.68 6.67-34.04 19.65zM317.611 322.49l.22.12 5.69 3.29 10.13-5.85.21-.12-5.91-3.41-10.34 5.97z"/><path fill="#2F3F5C" d="M317.83 322.61l5.69 3.29 10.13-5.85-5.7-3.29-10.12 5.85zM301.361 330.16v.51c-.002.361.088.716.263 1.032.176.315.43.58.737.768l20.08 11.59a2.066 2.066 0 0 0 2.08 0l36.34-21a2.096 2.096 0 0 0 1-1.8v-.51L323.521 343l-22.16-12.84z"/><path fill="#2F3F5C" d="M323.521 343v1.38c.353-.004.698-.1 1-.28l36.34-21a2.096 2.096 0 0 0 1-1.8v-.51L323.521 343z"/><path fill="#2F3F5C" d="M324.111 343.27c.344.131.713.184 1.08.155.366-.03.722-.141 1.04-.325l36.18-20.89a2.429 2.429 0 0 0 1.19-1.72l4-23.61c.01-.137.01-.274 0-.41a2.477 2.477 0 0 0-.73-1.75l-37.6 21.71a1.809 1.809 0 0 0-.88 1.27l-4.28 25.57z"/><path fill="#455A64" d="M323.521 343l.25.14c.111.063.224.119.34.17l4.281-25.57a1.8 1.8 0 0 1 .879-1.27l37.6-21.71a3.138 3.138 0 0 0-.5-.38l-37.669 21.71a1.814 1.814 0 0 0-.587.536c-.153.219-.257.47-.304.734l-4.29 25.64z"/><path fill="#37474F" d="M344.481 321.46a7.999 7.999 0 0 1 3.65-4.69c1.75-1 2.95-.55 2.69 1a8.007 8.007 0 0 1-3.65 4.69c-1.75 1.05-2.95.54-2.69-1z"/><path fill="#FFA8A7" d="M297.19 302.21s6.49 25 9.23 26.79c2.74 1.79 7.84 3.1 10.28 4 2.44.9 3.55 2.13 3.13 2.47-.42.34-3.94.71-5.16 1.14-1.22.43.36 2.4 3.06 4.49 2.7 2.09 5 1.9 4.7 3.29-.3 1.39-6.32 2.78-11.4-.2s-6.62-7-9.65-10.41c-3.03-3.41-9.95-17.58-12.38-23.78 0 0 .23-11.52 4-10.79 3.77.73 4.19 3 4.19 3z"/><path fill="#F77021" d="M328.07 352.869c.46 1.11 2.05 4.17 5.59 4l8.7-8.14-14.29 4.14z"/><path fill="#2F3F5C" d="M328.07 352.869c.46 1.11 2.05 4.17 5.59 4l8.7-8.14-14.29 4.14z" opacity=".1"/><path fill="#2F3F5C" d="M333.32 357.84zM330.701 367.19a20.02 20.02 0 0 1 1.27-7.68 3.173 3.173 0 0 1-2.91.38c-2.91-.87-3.64-4.93-3.18-5.81-.42.37-.86.72-1.29 1.08a6.632 6.632 0 0 0-2.75 3.95c-.2 1.27.39 2.52.68 3.78.56 2.4 0 4.9-.09 7.36a7.856 7.856 0 0 0 2.59 5.68c.82.8 1.703 1.532 2.64 2.19a2.478 2.478 0 0 0 3.945-.317c.276-.432.411-.94.385-1.453-.38-3.12-1.11-5.91-1.29-9.16z"/><path fill="#37474F" d="M334.001 356.35c-.27.51-.51 1-.72 1.49.25-.48.49-.98.72-1.49zM325.861 354.08l.19-.17-.19.17z"/></svg>