<svg xmlns="http://www.w3.org/2000/svg" fill="none" viewBox="0 0 500 500"><path fill="#C1EEE6" d="M440.299 102.52C416.679 67.29 376.6 42.24 334.2 41.59c-42.4-.65-85.28 25.61-99.56 65.55-7 19.46-7.19 40.62-11.28 60.88-4.09 20.26-13.57 41.35-32.11 50.5-25.12 12.38-54.9-1.77-82.86-.43-31.65 1.51-60.39 24.65-71.51 54.3-11.12 29.65-5.73 64.25 11.25 91s44.58 45.86 74.69 55.73c30.11 9.87 101.07 15.61 132.47 11.39a181.14 181.14 0 0 0 43.71-7.22c43.18-12.83 78.33-34.39 107.549-64.7 34.831-36.15 56.551-84.47 61.421-134.43 4.03-42.22-4.06-86.41-27.671-121.64z"/><path fill="#263238" d="M470.77 463.77c0 .15-98.85.26-220.76.26s-220.78-.11-220.78-.26c0-.15 98.83-.26 220.78-.26s220.76.12 220.76.26z"/><path fill="#F77021" d="M92.64 437.801c1-3.68-1.47-7.37-4.17-10s-5.93-5.05-7.34-8.58c-2.28-5.72.78-13.12-3.1-17.89-2.29-2.8-6.39-3.74-8.42-6.74a15.233 15.233 0 0 1-1.83-5.35 54.32 54.32 0 0 0-13.53-25.32 47.221 47.221 0 0 0 5.31 24.4c1.57 3 3.51 5.92 4 9.27.85 5.43-2.19 11-.85 16.36 1.53 6.1 8.38 10.19 8.7 16.47.28 5.31-4.35 10-4 15.28a14.22 14.22 0 0 0 2.39 6.3c4.1 6.83 10.14 11.53 19.28 11.38l11.201.39-7.64-25.97z"/><path fill="#000" d="M92.64 437.801c1-3.68-1.47-7.37-4.17-10s-5.93-5.05-7.34-8.58c-2.28-5.72.78-13.12-3.1-17.89-2.29-2.8-6.39-3.74-8.42-6.74a15.233 15.233 0 0 1-1.83-5.35 54.32 54.32 0 0 0-13.53-25.32 47.221 47.221 0 0 0 5.31 24.4c1.57 3 3.51 5.92 4 9.27.85 5.43-2.19 11-.85 16.36 1.53 6.1 8.38 10.19 8.7 16.47.28 5.31-4.35 10-4 15.28a14.22 14.22 0 0 0 2.39 6.3c4.1 6.83 10.14 11.53 19.28 11.38l11.201.39-7.64-25.97z" opacity=".3"/><path fill="#263238" d="M102.541 464a9.009 9.009 0 0 0 3.09-.06 19.242 19.242 0 0 0 3.63-.92 15.52 15.52 0 0 0 4.5-2.46 6.21 6.21 0 0 0 1.85-2.47c.335-1.082.51-2.207.52-3.34.023-1.211.113-2.419.27-3.62a9.796 9.796 0 0 1 1.36-3.6c1.32-2.32 3.52-4.52 4.22-7.67.7-3.15.22-6.45-.3-9.81-.52-3.36-1-7 .26-10.52 1.26-3.52 3.66-6.67 4.89-10.61 1.23-3.94.65-8.28.91-12.51a16.515 16.515 0 0 1 1.46-6.22c.9-2 2.16-3.85 3.14-5.93 2-4.22 2.34-9 2.88-13.69.27-2.36.53-4.75.8-7.15.17-2.426.589-4.829 1.25-7.17a64.277 64.277 0 0 1 2.68-6.93 24.091 24.091 0 0 0 1.3-3.61c.189-1.279.309-2.568.36-3.86.119-2.587.019-5.18-.3-7.75-.3-2.58-.77-5.14-1.05-7.73v-.45l-.06-.51-.45.22a17.305 17.305 0 0 0-6 5.09 27.662 27.662 0 0 0-3.71 6.83c-1.87 4.81-2.54 9.85-3.48 14.66-.94 4.81-2.14 9.54-4.6 13.54-1.23 2-2.72 3.82-4 5.76a15.773 15.773 0 0 0-2.78 6.38c-.67 4.74 1.94 8.9 1.4 13.1a14.465 14.465 0 0 1-2 5.81c-1 1.79-2.21 3.45-3.35 5.11a32.838 32.838 0 0 0-3 5.17 16.281 16.281 0 0 0-1.38 5.61c-.27 3.78.26 7.36 0 10.74a24.735 24.735 0 0 1-2.77 9.21c-1.35 2.75-2.86 5.24-4.12 7.66-.63 1.2-1.22 2.38-1.7 3.57a17.875 17.875 0 0 0-1 3.54 22.198 22.198 0 0 0-.08 6.39 16.11 16.11 0 0 0 3.2 8.15c.275.358.58.693.91 1 .221.232.466.44.73.62.42.31.64.45.64.45a13.942 13.942 0 0 1-2.17-2.14 16.151 16.151 0 0 1-3-8.1 22.095 22.095 0 0 1 .14-6.3c.21-1.182.546-2.338 1-3.45a36.585 36.585 0 0 1 1.71-3.52c1.27-2.4 2.79-4.88 4.17-7.65a24.994 24.994 0 0 0 2.86-9.37c.3-3.45-.22-7.05.06-10.73a16.07 16.07 0 0 1 1.35-5.43 32.715 32.715 0 0 1 3-5.06c1.14-1.66 2.35-3.32 3.39-5.15a14.982 14.982 0 0 0 2.14-6.05c.54-4.47-2.05-8.65-1.38-13.06a15.334 15.334 0 0 1 2.69-6.1c1.27-1.91 2.77-3.73 4-5.78 2.55-4.11 3.78-8.93 4.71-13.76.93-4.83 1.62-9.83 3.46-14.55a26.913 26.913 0 0 1 3.61-6.64 16.586 16.586 0 0 1 5.77-4.88l-.51-.29c0 .15 0 .3.05.46.28 2.62.75 5.18 1 7.74.316 2.53.413 5.083.29 7.63-.05 1.252-.164 2.5-.34 3.74a22.392 22.392 0 0 1-1.26 3.49 66.132 66.132 0 0 0-2.7 7 36.322 36.322 0 0 0-1.26 7.28c-.26 2.41-.53 4.8-.79 7.16-.54 4.71-.89 9.41-2.8 13.48-1 2-2.2 3.91-3.13 5.95a17.113 17.113 0 0 0-1.5 6.45c-.25 4.32.31 8.55-.86 12.37-1.17 3.82-3.6 7-4.83 10.61-1.23 3.61-.78 7.43-.24 10.78.54 3.35 1.08 6.65.36 9.62-.72 2.97-2.78 5.19-4.12 7.57a10.201 10.201 0 0 0-1.39 3.75 31.544 31.544 0 0 0-.24 3.66 11.178 11.178 0 0 1-.48 3.26 5.884 5.884 0 0 1-1.73 2.35 15.402 15.402 0 0 1-4.39 2.48 19.358 19.358 0 0 1-3.59 1c-.749.136-1.508.21-2.27.22-.63-.06-.9-.06-.9-.06z"/><path fill="#263238" d="M137.92 332.101a1.22 1.22 0 0 0-.11.34l-.24 1c-.22.89-.49 2.22-.91 3.88-.42 1.66-1.45 3.54-2.32 5.85a83.568 83.568 0 0 0-2.66 7.94c-.86 3-1.61 6.3-2.41 9.86a41.453 41.453 0 0 1-3.58 10.93c-.92 1.82-2 3.66-2.77 5.68a26.08 26.08 0 0 0-1.61 6.42 130.746 130.746 0 0 1-2.42 13.55c-2.24 9.17-4.38 17.91-6.33 25.87-1.95 7.96-3.79 15.08-5.31 21.1-1.52 6.02-2.67 10.82-3.51 14.25-.39 1.64-.7 2.93-.92 3.88-.09.41-.17.74-.23 1a1.86 1.86 0 0 0 0 .35c.058-.104.102-.215.13-.33.07-.27.17-.59.29-1 .25-.93.6-2.22 1.05-3.85.9-3.4 2.17-8.23 3.74-14.18 1.57-5.95 3.4-13.15 5.45-21.06 2.05-7.91 4.13-16.71 6.39-25.89a124.573 124.573 0 0 0 2.36-13.59c.256-2.147.78-4.254 1.56-6.27.79-2 1.8-3.79 2.72-5.63 2-3.65 2.79-7.57 3.58-11.1.79-3.53 1.49-6.87 2.31-9.85.82-2.98 1.68-5.64 2.54-7.94.86-2.3 1.81-4.2 2.22-5.92.41-1.72.6-3 .78-3.92.067-.414.127-.747.18-1 .03-.25.05-.37.03-.37z"/><path fill="#F77021" d="M104.521 464.05c7.31-4.35 9.41-17.55 6.36-25.49-3.05-7.94-8.39-15.2-9.21-23.67-.64-6.51 1.5-13.19 0-19.55-2.05-8.59-10.43-15.24-10.33-24.07.05-4.95 2.87-9.61 2.64-14.56-.27-6.06-4.93-10.88-7.81-16.22-4.42-8.19-4.71-17.86-6.22-27-1.51-9.14-5-19-13.14-23.51-1.2 7.79-3.25 13.13-2.61 23.68.24 3.79 4.64 11 5.24 19.35.36 5 .6 9.94.91 14.9.31 4.96.61 9.76 2.34 14.28 1.33 3.47 3.46 6.62 4.45 10.2 1.85 6.73-.59 14 .91 20.84 1.27 5.78 5.27 10.75 6.09 16.61 1.14 8.23-4.18 16.79-1.46 24.64 1.36 3.9 4.56 7 5.47 11.05.71 3.12-.06 6.43.58 9.56 1 5.06 10.66 9 15.81 8.67"/><path fill="#263238" d="M68.811 297.671a2.378 2.378 0 0 0 0 .44c0 .33.1.75.16 1.28.17 1.13.36 2.78.74 4.92s1.52 4.56 2.4 7.48c.88 2.92 1.86 6.26 2.68 10 .82 3.74 1.54 7.91 2.27 12.38.73 4.47 1.53 9.34 3.75 14 1 2.33 2.18 4.67 3 7.17a32.353 32.353 0 0 1 1.54 7.9 158.13 158.13 0 0 0 2.15 17c2.24 11.54 4.37 22.53 6.31 32.54 1.94 10.01 3.89 18.94 5.45 26.5 1.56 7.56 2.84 13.6 3.73 17.86l1 4.85c.12.52.21.93.29 1.25.027.147.067.29.12.43a1.8 1.8 0 0 0 0-.44c-.06-.33-.13-.74-.22-1.27-.22-1.16-.53-2.8-.92-4.88-.84-4.27-2-10.37-3.51-17.9-1.51-7.53-3.3-16.56-5.29-26.53-1.99-9.97-4-21-6.25-32.53a159.53 159.53 0 0 1-2.16-17 32.811 32.811 0 0 0-1.59-8.06c-.89-2.54-2.06-4.89-3.09-7.21-2.2-4.59-3-9.38-3.76-13.83-.76-4.45-1.49-8.63-2.36-12.39-.87-3.76-1.82-7.12-2.8-10-.98-2.88-2.07-5.32-2.51-7.41-.44-2.09-.65-3.77-.86-4.88-.1-.52-.18-.94-.24-1.27a3.39 3.39 0 0 0-.03-.4z"/><path fill="#F77021" d="M421.47 88.77h-4a3.39 3.39 0 0 1-3.47 3.41 3.22 3.22 0 0 1-3.12-2.06 3.565 3.565 0 0 1 .28-3.22c.68-1.12 2.16-2.13 4.84-1.66v-9h-3.93v5.26a7.683 7.683 0 0 0-5.51 7.5c0 5.82 5.22 7.17 7.46 7.17 1.71.04 7.53-.37 7.45-7.4zM412.039 74.42h3.99v-3.73h-3.99v3.73z"/><path fill="#263238" d="M443.279 83.45c.014-.17.014-.34 0-.51v-1.48c0-.32 0-.69-.05-1.09-.05-.4-.11-.84-.18-1.3-.07-.46-.14-1-.22-1.53l-.42-1.7a27.696 27.696 0 0 0-3.6-8.25 29.086 29.086 0 0 0-21.89-13.38 29.391 29.391 0 0 0-4-.08c-.67 0-1.36 0-2 .13l-2.06.31a29.703 29.703 0 0 0-8.12 2.77 31.713 31.713 0 0 0-7.29 5.31 30.356 30.356 0 0 0-5.49 7.64 27.75 27.75 0 0 0-2.96 9.31 18.875 18.875 0 0 0-.21 2.49 21.235 21.235 0 0 0-.05 2.51 29.52 29.52 0 0 0 4.85 15.05v-.31c-1.39 3.47-2.76 6.88-4.1 10.2l-.24.61.63-.18 10.9-3-.26-.06a29.185 29.185 0 0 0 12.48 5.46c2.103.392 4.246.523 6.38.39a19.621 19.621 0 0 0 3.07-.29l1.49-.23c.49-.09 1-.24 1.44-.35a29.17 29.17 0 0 0 16.62-11.39 27.823 27.823 0 0 0 3.57-6.77c.19-.53.37-1 .54-1.52.17-.52.26-1 .37-1.45.11-.45.23-.91.33-1.33.1-.42.13-.83.19-1.22.09-.77.23-1.45.26-2s0-1.08 0-1.5v-.91-.31a1.073 1.073 0 0 0 0 .31c0 .23 0 .53-.07.91s-.06.91-.1 1.49c-.04.58-.19 1.26-.31 2a28.994 28.994 0 0 1-21.51 23.2c-.47.11-.94.25-1.42.34l-1.47.22a19.96 19.96 0 0 1-3 .27 26.65 26.65 0 0 1-6.26-.41 28.864 28.864 0 0 1-12.19-5.37l-.12-.1h-.15l-10.91 3 .38.43 4.11-10.19.06-.16-.09-.15a28.773 28.773 0 0 1-4.12-9.79 29.41 29.41 0 0 1-.62-4.92 20.233 20.233 0 0 1 .05-2.45 16.48 16.48 0 0 1 .2-2.43 27.074 27.074 0 0 1 2.79-9.11 30.136 30.136 0 0 1 5.35-7.48 30.893 30.893 0 0 1 7.14-5.21 28.793 28.793 0 0 1 7.95-2.75l2-.31c.67-.1 1.34-.09 2-.14a29.905 29.905 0 0 1 3.91.07 28.78 28.78 0 0 1 21.63 13 27.647 27.647 0 0 1 3.66 8.12l.45 1.68c.09.53.17 1 .25 1.5.08.5.14.9.21 1.3.07.4.05.76.08 1.08 0 .62.08 1.11.11 1.47a1.69 1.69 0 0 0 .03.54z"/><path fill="#F77021" d="M145.069 201.38h57.75s0-48.49 50.39-49.35c26.17-.46 39.74 16.69 45.26 29.82 6.4 15.25 4.46 32.63-4.12 46.78-9.79 16.15-30.89 32.38-69.81 25.52l-.37 128.67h57.11v-76.28s80.09-20.7 80.09-109c0-84.45-68.29-102.69-105-103.87-20.42-.65-27.82-1.53-53.08 2.06-32.19 4.6-58.9 41.98-58.22 105.65zM281.97 409.64h-57.96v54.13h57.96v-54.13z"/><path fill="#000" d="M281.97 409.64h-57.96v54.13h57.96v-54.13zM145.069 201.38h57.75s0-48.49 50.39-49.35c26.17-.46 39.74 16.69 45.26 29.82 6.4 15.25 4.46 32.63-4.12 46.78-9.79 16.15-30.89 32.38-69.81 25.52l-.37 128.67h57.11v-76.28s80.09-20.7 80.09-109c0-84.45-68.29-102.69-105-103.87-20.42-.65-27.82-1.53-53.08 2.06-32.19 4.6-58.9 41.98-58.22 105.65z" opacity=".1"/><path fill="#F77021" d="M121.139 201.379h57.76s0-48.49 50.39-49.35c26.17-.46 39.74 16.69 45.25 29.82 6.41 15.25 4.47 32.63-4.11 46.78-9.79 16.15-31.26 30.83-70.18 24v130.19h57.11v-76.28s80.09-20.7 80.09-109c0-84.45-75.74-104.06-108.15-104.06-24.79.03-109.25 6.02-108.16 107.9z"/><path fill="#000" d="M121.139 201.379h57.76s0-48.49 50.39-49.35c26.17-.46 39.74 16.69 45.25 29.82 6.41 15.25 4.47 32.63-4.11 46.78-9.79 16.15-31.26 30.83-70.18 24v130.19h57.11v-76.28s80.09-20.7 80.09-109c0-84.45-75.74-104.06-108.15-104.06-24.79.03-109.25 6.02-108.16 107.9z" opacity=".3"/><path fill="#F77021" d="M258.05 409.64h-57.96v54.13h57.96v-54.13z"/><path fill="#000" d="M258.05 409.64h-57.96v54.13h57.96v-54.13z" opacity=".3"/><path fill="#263238" d="M235.81 152.29a5.145 5.145 0 0 1-.86 0c-.57 0-1.39-.19-2.46-.2a49.805 49.805 0 0 0-9.06.38 64.1 64.1 0 0 0-13.07 3.07 55.825 55.825 0 0 0-7.28 3.14 38.45 38.45 0 0 0-7.13 4.61 35.22 35.22 0 0 0-5.83 6.16 60.37 60.37 0 0 0-4.37 6.62 59.132 59.132 0 0 0-5.17 12.38 50.291 50.291 0 0 0-1.74 8.9c-.12 1.06-.15 1.9-.18 2.46a4.52 4.52 0 0 1-.08.86 4.75 4.75 0 0 1 0-.86c0-.57 0-1.41.09-2.48.23-3.046.762-6.061 1.59-9a57.582 57.582 0 0 1 5.1-12.52 59.673 59.673 0 0 1 4.39-6.69 34.977 34.977 0 0 1 5.9-6.25 38.718 38.718 0 0 1 7.22-4.67 55.894 55.894 0 0 1 7.33-3.2 62.787 62.787 0 0 1 13.19-3 45.927 45.927 0 0 1 9.11-.21c.825.052 1.646.153 2.46.3.288.046.572.113.85.2zM322.829 142s-.07-.07-.19-.22-.3-.41-.5-.7l-1.91-2.7c-.41-.58-.85-1.25-1.37-1.94l-1.8-2.19-2.06-2.53c-.75-.88-1.63-1.73-2.51-2.66-.88-.93-1.78-1.92-2.8-2.87-1.02-.95-2.11-1.92-3.23-2.92-.56-.5-1.11-1-1.71-1.53l-1.86-1.47c-1.27-1-2.53-2-3.9-3a125.547 125.547 0 0 0-18.93-11.18l-5.27-2.38-5.23-2c-1.71-.71-3.45-1.21-5.13-1.77-1.68-.56-3.32-1.13-5-1.52l-4.78-1.25c-1.55-.41-3.09-.66-4.56-1-1.47-.34-2.89-.64-4.28-.81l-4-.58c-2.53-.43-4.85-.52-6.87-.72-1-.08-2-.19-2.83-.23l-2.38-.06-3.3-.11h-1.15a.94.94 0 0 1 .29 0H232.119c.87 0 1.82.12 2.84.19 2 .17 4.36.24 6.89.65l4 .54c1.39.16 2.81.52 4.29.79s3 .55 4.59 1l4.8 1.24c1.66.38 3.3 1 5 1.51 1.7.51 3.43 1 5.14 1.76l5.26 2 5.3 2.39a122.472 122.472 0 0 1 19 11.26c1.38 1 2.64 2.07 3.91 3.06l1.86 1.35c.6.5 1.15 1 1.71 1.54l3.22 3c1 1 1.9 2 2.79 2.91.89.91 1.74 1.8 2.49 2.69l2 2.55 1.78 2.22c.51.7.94 1.38 1.34 2 .78 1.17 1.39 2.09 1.82 2.75l.47.73c.079.06.15.131.21.21zM316.81 266a3.099 3.099 0 0 1-.43.6l-1.38 1.63c-.57.73-1.29 1.6-2.18 2.57-.89.97-1.84 2.11-3 3.29-1.16 1.18-2.4 2.5-3.81 3.83-1.41 1.33-2.94 2.73-4.57 4.19a124.859 124.859 0 0 1-23.36 16.11c-1.94 1-3.77 2-5.54 2.77s-3.42 1.56-4.94 2.2c-1.52.64-2.92 1.17-4.14 1.64-1.22.47-2.29.85-3.17 1.13l-2 .65a3.512 3.512 0 0 1-.72.2c.216-.123.444-.224.68-.3l2-.74c.87-.31 1.92-.71 3.13-1.21s2.61-1 4.11-1.71c1.5-.71 3.16-1.38 4.89-2.25 1.73-.87 3.58-1.79 5.51-2.8 3.81-2.1 7.92-4.56 12.07-7.4 4.15-2.84 7.88-5.83 11.2-8.65 1.63-1.44 3.19-2.79 4.58-4.15 1.39-1.36 2.69-2.59 3.84-3.77 1.15-1.18 2.16-2.27 3.06-3.23.9-.96 1.64-1.8 2.24-2.5l1.4-1.59a4.56 4.56 0 0 1 .53-.51zM256.35 378.279c-.15 0-.27-16.06-.27-35.87s.12-35.88.27-35.88c.15 0 .26 16.06.26 35.88 0 19.82-.12 35.87-.26 35.87zM258.549 460.1c-.15 0-.26-11.27-.26-25.17 0-13.9.11-25.18.26-25.18.15 0 .26 11.27.26 25.18s-.12 25.17-.26 25.17z"/><path fill="#F77021" d="M315.399 193.71c-1 2 2.73 3.64 4.88 4.29 2.194.539 4.464.694 6.71.46 3-.16 6.07-.44 8.66-1.92a13.809 13.809 0 0 0 5.22-5.85 41.086 41.086 0 0 0 2.65-7.49s-23.63 1.54-28.12 10.51z"/><path fill="#000" d="M315.399 193.71c-1 2 2.73 3.64 4.88 4.29 2.194.539 4.464.694 6.71.46 3-.16 6.07-.44 8.66-1.92a13.809 13.809 0 0 0 5.22-5.85 41.086 41.086 0 0 0 2.65-7.49s-23.63 1.54-28.12 10.51z" opacity=".4"/><path fill="#F77021" d="M382.14 187.31a22.673 22.673 0 0 0 13.34 4.18 9.427 9.427 0 0 0 6.35-2c.77-.71 1.35-1.61 2.14-2.29.54-.46 1.17-.81 1.68-1.3a2.149 2.149 0 0 0 .73-1.9 3.936 3.936 0 0 0-1.38-2.2c-2.71-1.54-5.95-1.48-9.07-1.41a31.247 31.247 0 0 0-9.15 1.79c-2.42.82-4.95 2-6.18 4.2"/><path fill="#000" d="M406.38 184a4.154 4.154 0 0 0-1.77-2c-2.71-1.54-5.56-1.68-8.68-1.61a31.214 31.214 0 0 0-9.15 1.79c-2.42.82-4.95 2-6.18 4.2l1.54.93a22.68 22.68 0 0 0 13.34 4.18 9.427 9.427 0 0 0 6.35-2c.77-.71 1.35-1.61 2.14-2.29.54-.46 1.17-.81 1.68-1.3.269-.232.476-.527.604-.858.127-.332.17-.69.126-1.042z" opacity=".4"/><path fill="#F77021" d="M336 223.2l49.85.66a.641.641 0 0 0 .521-.264.64.64 0 0 0 .099-.576l-5.85-18.24s.86-9.12 2.05-20.08c1.81-16.65 4.22-37.58 4.25-37.52-3.41-9.56-23.53-11.18-23.53-11.18l-22.93 1.36-.8-1.35-6.6 3.07a30.164 30.164 0 0 0-4.14 2.34c-4.36 2.91-14.86 9.6-16.78 17.05-4.43 17.25 3.07 36.5 3.07 36.5l4.82-3.77a33.888 33.888 0 0 1 3.82-2.55l9.66 25.89a4.565 4.565 0 0 0-2.1 3.32c-.08 2.1 1 4.62 4.59 5.34"/><path fill="#000" d="M357.39 192.68c1.58-8.5.75-17.24-.1-25.84-2.76 7-2.66 15-5.59 21.94a9.42 9.42 0 0 0-.78 2.31 2.59 2.59 0 0 0 .66 2.26c.8.73 2 .33 3.06.21a11.951 11.951 0 0 0 2.75-.88" opacity=".3"/><path fill="#000" d="M339.001 212.36c4 1.39 8.26-1.2 12.49-1.66 2.8-.3 5.6.34 8.38.79a62.863 62.863 0 0 0 17 .42 6.531 6.531 0 0 0 2.5-.65 2.998 2.998 0 0 0 1.31-2.48c-9.42-1-18.83-1.54-28.25-2.51a17.64 17.64 0 0 0-7.06.23c-2.84.88-5 3.11-7 5.32" opacity=".4"/><path fill="#F77021" d="M404.94 180.72c-4.07-9.17-18.42-34.53-18.42-34.53l-11.11 13.93 2.59 27.35s5.87-6.55 22.28-6.68a8.004 8.004 0 0 1 6.1 3.22l-1.44-3.29z"/><path fill="#2F3F5C" d="M338.23 175.87a37.808 37.808 0 0 1-1.88-6 37.918 37.918 0 0 1-1.36-6.11 39.557 39.557 0 0 1 1.87 6 38.573 38.573 0 0 1 1.37 6.11zM374.57 158.271c.361.255.696.547 1 .87a29.043 29.043 0 0 1 2.48 2.72 26.42 26.42 0 0 1 5.31 10.86c.47 2.201.575 4.464.31 6.7-.25 2.05-.64 3.849-.9 5.369-.26 1.52-.42 2.761-.5 3.621a6.84 6.84 0 0 1-.14 1.33 5.985 5.985 0 0 1-.06-1.35c.044-1.226.157-2.448.34-3.661.21-1.53.56-3.35.79-5.36a20.697 20.697 0 0 0-.35-6.539 27.584 27.584 0 0 0-5.09-10.741c-1.83-2.46-3.27-3.739-3.19-3.819zM364.39 221a4.24 4.24 0 0 1-1.09.32 9.776 9.776 0 0 1-1.3.25c-.51.07-1.09.18-1.74.21-1.524.14-3.057.14-4.58 0a29.512 29.512 0 0 1-5.5-1.1 30.013 30.013 0 0 1-5.16-2.21 26.3 26.3 0 0 1-3.79-2.57c-.52-.4-.94-.82-1.32-1.17a11.3 11.3 0 0 1-.93-.94 3.859 3.859 0 0 1-.71-.88c.07-.07 1.14 1.13 3.19 2.7a28.704 28.704 0 0 0 3.79 2.44 31.759 31.759 0 0 0 5.08 2.13c1.763.531 3.57.906 5.4 1.12a29.53 29.53 0 0 0 4.5.14c2.57-.14 4.14-.52 4.16-.44zM379.779 215.32c.236.453.369.951.391 1.46a9.004 9.004 0 0 1-.271 3.64 6.305 6.305 0 0 1-2 3.1c-.73.61-1.29.8-1.32.75-.03-.05.44-.38 1.07-1a7.067 7.067 0 0 0 1.71-3c.8-2.64.23-4.94.42-4.95zM377.071 218.84a5.42 5.42 0 0 1-2.14 5.52c-.11-.11.82-1.1 1.4-2.63.58-1.53.59-2.88.74-2.89zM368.151 185.94a21.228 21.228 0 0 1-1.78 2.56 20.413 20.413 0 0 1-1.75 2.58 6.414 6.414 0 0 1 1.32-2.88 6.322 6.322 0 0 1 2.21-2.26zM333.929 161.72a25.111 25.111 0 0 1-2.21-1.46 28.373 28.373 0 0 0-11.81-4.41 22.171 22.171 0 0 1-2.63-.35 9.785 9.785 0 0 1 2.67 0 23.876 23.876 0 0 1 12 4.47 9.544 9.544 0 0 1 1.98 1.75zM386.52 145.86a43.413 43.413 0 0 0-5 4.73 43.14 43.14 0 0 0-3.79 5.78 6.123 6.123 0 0 1 .69-1.94 20.196 20.196 0 0 1 2.7-4.18 19.704 19.704 0 0 1 3.66-3.37 5.917 5.917 0 0 1 1.74-1.02zM365.939 137.62c.091.144.165.299.22.46.196.453.353.921.47 1.4a11.76 11.76 0 0 1 0 5.42 13.336 13.336 0 0 1-4.08 6.89 13.85 13.85 0 0 1-9.2 3.28 15.607 15.607 0 0 1-9.35-3.07 17.728 17.728 0 0 1-5.11-6.19 18.753 18.753 0 0 1-1.7-5.15 11.55 11.55 0 0 1-.18-1.46 1.62 1.62 0 0 1 0-.52s.11.7.39 1.94a20.378 20.378 0 0 0 1.83 5 17.725 17.725 0 0 0 5.07 6 15.28 15.28 0 0 0 9 3 13.518 13.518 0 0 0 8.89-3.12 13.192 13.192 0 0 0 4-6.62 12.19 12.19 0 0 0 .18-5.28c-.19-1.32-.49-1.96-.43-1.98z"/><path fill="#000" d="M369.441 187.71c0-.5-.08-1.09-.52-1.34a.99.99 0 0 0-.9 0c-.28.151-.527.355-.73.6a12.255 12.255 0 0 0-2.67 4.27l4.9-.43c-.03-1.01-.05-2.07-.08-3.1zM385.71 177.4a16.063 16.063 0 0 0-3.56-7.6c2.12 6.92 1.41 10.83.22 15.57l.26-.66c1.37-2.77 3.45-4.51 3.08-7.31z" opacity=".3"/><path fill="#FFBE9D" d="M375.919 409.861l-2.99 44.85-19.5-.23-3.07-46.63 25.56 2.01z"/><path fill="#F77021" d="M373.48 448.81v1.3s22 8.84 22.21 13l-43.69-.24.68-14.53c6.51 3.05 13.32 3.43 20.8.47z"/><path fill="#fff" d="M357.111 453a1.778 1.778 0 0 0-1.24 2 1.697 1.697 0 0 0 2 1.25 1.872 1.872 0 0 0 1.3-2.15 1.772 1.772 0 0 0-2.22-1.07"/><path fill="#2F3F5C" d="M352 462.87l.16-3.49L394 460.9s1.94.86 1.71 2.22l-43.71-.25zM373.641 450.23c0 .21-1.08.3-2.13 1-1.05.7-1.62 1.57-1.81 1.49-.19-.08.13-1.32 1.42-2.12s2.57-.6 2.52-.37zM378.211 452.15c.05.21-.88.56-1.61 1.46-.73.9-.94 1.85-1.16 1.84-.22-.01-.34-1.22.59-2.31.93-1.09 2.17-1.14 2.18-.99zM380.781 457.65c-.2 0-.49-1 .07-2.19s1.55-1.62 1.64-1.45c.09.17-.53.8-1 1.77s-.49 1.85-.71 1.87zM372.36 81.85c1.13-2.8-.24-6.19-2.67-8a11.64 11.64 0 0 0-8.69-1.69 34.61 34.61 0 0 0-8.54 3 9.632 9.632 0 0 0-14.187.557A9.628 9.628 0 0 0 336.1 80.5a6.141 6.141 0 0 0-7.27 8.05l13.52 4.75 14.76 26a11.806 11.806 0 0 0 15.581-.221 11.808 11.808 0 0 0 1.799-15.479c.827-.735 1.529-1.6 2.08-2.56a10.339 10.339 0 0 0 4.77-6.4c1.31-5.79-3.17-12.11-8.98-12.79z"/><path fill="#FFBE9D" d="M363.41 136c-.84-4.23-1.42-7.13-1.41-7.1.01.03 8-3.1 7.42-14.23-.28-5.54-2.39-14.27-4.35-21.35-1.76-6.38-7.71-13.41-14-11.38L332 91.24c-1.91.62-2.24 2.42-1.79 4.37v1l7.41 30.66 3.13 13.7a11.568 11.568 0 0 0 12.92 8.78 11.573 11.573 0 0 0 9.715-9.065 11.57 11.57 0 0 0 .025-4.685z"/><path fill="#2F3F5C" d="M365 100.72a1.42 1.42 0 0 1-1 1.68 1.363 1.363 0 0 1-1.69-1 1.41 1.41 0 0 1 1.543-1.713A1.354 1.354 0 0 1 365 100.72zM364.13 98.59c-.14.22-1.35-.33-2.83 0s-2.42 1.29-2.62 1.14c-.2-.15 0-.43.41-.87a3.9 3.9 0 0 1 2.05-1.14 3.67 3.67 0 0 1 2.3.25c.56.23.75.53.69.62zM350.481 104.001a1.41 1.41 0 0 1-1 1.67 1.37 1.37 0 0 1-1.041-.118 1.342 1.342 0 0 1-.649-.822 1.423 1.423 0 0 1 1-1.68 1.338 1.338 0 0 1 1.044.121 1.36 1.36 0 0 1 .646.829zM349.751 102.12c-.13.22-1.35-.34-2.83 0s-2.42 1.28-2.62 1.14c-.2-.14 0-.43.41-.88a3.935 3.935 0 0 1 2.05-1.13 3.754 3.754 0 0 1 2.3.24c.53.24.76.51.69.63zM357.281 111.52a10.5 10.5 0 0 1 2.32-.94c.37-.12.72-.27.73-.54a2.002 2.002 0 0 0-.49-1.07l-1.73-2.66c-2.42-3.79-4.26-6.93-4.11-7 .15-.07 2.24 2.9 4.66 6.69l1.69 2.68c.332.41.512.922.51 1.45a1.007 1.007 0 0 1-.51.68 2.542 2.542 0 0 1-.62.23 9.19 9.19 0 0 1-2.45.48z"/><path fill="#EB996E" d="M362 128.9a28.004 28.004 0 0 1-15.24-.82s5.24 6.84 15.81 3.57l-.57-2.75z"/><path fill="#2F3F5C" d="M350.001 100c-.1.43-1.63.42-3.37.85-1.74.43-3.12 1.08-3.4.74-.12-.16.08-.58.61-1a5.738 5.738 0 0 1 2.44-1.21 5.87 5.87 0 0 1 2.71 0c.71.13 1.08.42 1.01.62zM363.561 93.87c-.24.4-1.52.3-3 .59s-2.65.79-3 .5c-.16-.15 0-.53.43-1a4.777 4.777 0 0 1 2.31-1.06 4.711 4.711 0 0 1 2.51.18c.61.28.85.59.75.79z"/><path fill="#2F3F5C" d="M336.711 84.08a7.532 7.532 0 0 0 3.821 5.13 7.532 7.532 0 0 0 6.389.34c1.58-.64 3.22-1.84 4.82-1.26 1.6.58 2.26 2.86 3.79 3.71 2.25 1.26 5-.92 7.51-.7 2 .17 3.51 1.7 5.06 3 1.55 1.3 3.69 2.28 5.44 1.34a22.128 22.128 0 0 0-1.77-4.82 7.46 7.46 0 0 0-3.66-3.46c-.88-.35-1.83-.47-2.67-.9-1.81-.92-2.62-3-3.93-4.57a8.259 8.259 0 0 0-7-2.8c-2.16.22-4.21 1.31-6.39 1.22-1.61-.07-3.15-.79-4.76-.76-3.13 0-5.48 2.8-7.22 5.41"/><path fill="#2F3F5C" d="M347.249 86.37c-1.44-.11-4.38-.41-5.35-1.43a8.439 8.439 0 0 0-8-2.64 7.002 7.002 0 0 0-5 6.66 10.003 10.003 0 0 0-7.3 7.17 11.62 11.62 0 0 0 2.5 10.51 20.734 20.734 0 0 1 1.64 2.37 16.933 16.933 0 0 0-1.78 2.7c-2.29 5.06 3.92 7 3.92 7 0 3.4 3.15 3.38 5.16 3.37 2.01-.01 3.12 5.36 4.69 5.15l-1.59-16.57c.233.09.481.138.73.14 3.79.07 2.8-7.11 1.58-9a22.208 22.208 0 0 0 2.84-4.58 15.5 15.5 0 0 0 .14-7.66c1.27-.16 6.44-3.15 5.82-3.19z"/><path fill="#FFBE9D" d="M336.64 111.54a3.21 3.21 0 0 0-5.15-1.72c-1 .86-1.53 2.3-.93 4.71 1.62 6.44 7.75 3.49 7.71 3.31-.04-.18-.93-3.64-1.63-6.3z"/><path fill="#EB996E" d="M335.69 115.89s-.09.11-.26.24a1.146 1.146 0 0 1-.83.23c-.74-.08-1.59-1-1.91-2.17a3.86 3.86 0 0 1-.09-1.68 1.344 1.344 0 0 1 .63-1.08.588.588 0 0 1 .74.15c.13.15.12.29.16.3.04.01.11-.15 0-.4a.778.778 0 0 0-.35-.34.886.886 0 0 0-.66 0 1.659 1.659 0 0 0-.93 1.29c-.13.63-.106 1.282.07 1.9a3.001 3.001 0 0 0 2.33 2.37 1.257 1.257 0 0 0 1-.43c.13-.22.13-.37.1-.38z"/><path fill="#455A64" d="M371.171 102.55s.59-.45 1.41-1.45a9.578 9.578 0 0 0 2-5 9.228 9.228 0 0 0-.36-3.7 7.943 7.943 0 0 0-2.29-3.56 9.42 9.42 0 0 0-9.18-1.84c-.3.1-.58.25-.86.37s-.53.3-.79.45l-.4.22v-.44a3.221 3.221 0 0 0-.81-2.1 5.153 5.153 0 0 0-1.89-1.28 6.83 6.83 0 0 0-4.29-.32c-2.76.63-5.1 1.89-7.31 2.15a7.06 7.06 0 0 1-5-1 3.876 3.876 0 0 1-1-1c-.16-.27-.24-.42-.22-.43a5.45 5.45 0 0 0 1.31 1.27 7 7 0 0 0 4.83.81 17.017 17.017 0 0 0 3.36-1 31.314 31.314 0 0 1 3.9-1.27 8.374 8.374 0 0 1 2.26-.23 6.873 6.873 0 0 1 2.33.54 5.651 5.651 0 0 1 2 1.44c.591.677.924 1.542.94 2.44l-.4-.22.83-.48c.31-.12.6-.28.92-.39a9.83 9.83 0 0 1 9.69 1.93 8.285 8.285 0 0 1 2.38 3.78 9.73 9.73 0 0 1-1.91 9 6.35 6.35 0 0 1-1.11 1 1.921 1.921 0 0 1-.34.31zM369.87 79.94a7.842 7.842 0 0 0-2.08-.71 5.44 5.44 0 0 0-2.46.23 4.8 4.8 0 0 0-2.53 1.84l-.25.35-.15-.4a7.512 7.512 0 0 0-6.1-4.53 9.698 9.698 0 0 0-5.86 1.7 25.893 25.893 0 0 1-4.65 2.4 7.37 7.37 0 0 1-3.52.42 5.324 5.324 0 0 1-.93-.26c-.2-.09-.31-.14-.3-.16.01-.02.45.13 1.26.21a7.68 7.68 0 0 0 3.37-.55A28.842 28.842 0 0 0 350.2 78a15.514 15.514 0 0 1 2.8-1.37 7.68 7.68 0 0 1 3.36-.43 7.887 7.887 0 0 1 6.46 4.89h-.39a5.216 5.216 0 0 1 2.79-1.94 5.69 5.69 0 0 1 2.62-.13c.551.105 1.08.308 1.56.6.171.084.329.191.47.32z"/><path fill="#F77021" d="M356.7 114.481a2.147 2.147 0 0 0-1.7-.48 2.562 2.562 0 0 0-1.69 1.23s-.05.05-.06.08a1.29 1.29 0 0 0-.18.76 1.8 1.8 0 0 0 1 1.35 2.302 2.302 0 0 0 2.62-.38 1.872 1.872 0 0 0 .01-2.56z"/><path fill="#2F3F5C" d="M357.2 117.59c-.08 0-.17-.3-.44-.71a3.114 3.114 0 0 0-3.25-1.48c-.49.07-.79.21-.82.14-.03-.07.2-.31.74-.5a2.995 2.995 0 0 1 2.15.12 2.92 2.92 0 0 1 1.51 1.55c.21.52.18.87.11.88z"/><path fill="#F77021" d="M336.79 118.83s.29.5-.09 1.26a2 2 0 0 1-1.06 1 1.997 1.997 0 0 1-1.77-.21 2.004 2.004 0 0 1-.95-1.5c-.03-.494.115-.982.41-1.38.52-.66 1.1-.68 1.1-.62 0 .06-.44.23-.79.83a1.76 1.76 0 0 0-.24 1.12 1.602 1.602 0 0 0 .75 1.11 1.636 1.636 0 0 0 1.33.2c.369-.132.688-.377.91-.7.39-.62.32-1.11.4-1.11z"/><path fill="#F77021" d="M333.419 118.44c.05 0 0 .34-.47.56a1.312 1.312 0 0 1-1.389-.245 1.316 1.316 0 0 1-.361-1.365c.098-.27.285-.499.53-.65.41-.25.72-.15.71-.09-.01.06-.24.13-.49.38a1 1 0 0 0 .88 1.62c.34-.07.52-.25.59-.21z"/><path fill="#FFBE9D" d="M344.41 207.25s24.76 1.44 39.4 1.57c11.33.11 16.39-2.9 18.65-10.19 1.9-6.11-2.18-17.84-2.18-17.84-7.67 0-12.4 1.1-17.33 3.41l1.31 5.36-39.92 3.44.07 14.25z"/><path fill="#EB996E" d="M392.579 195.28a19.916 19.916 0 0 0-3.73-3.71 19.543 19.543 0 0 0-4.82-2.12 3.485 3.485 0 0 1 1.59.14c1.258.297 2.452.822 3.52 1.55a10.43 10.43 0 0 1 2.73 2.72c.56.82.77 1.39.71 1.42z"/><path fill="#FFBE9D" d="M335.351 184.16s-7.66 1.84-13.29 5.6l6 16.26c2 5.34 8.11 8 13 5.2 7.53-4.31 10.19-16.87 10.19-16.87l8.27-35.88-13.71-8.59-10.41 34.28"/><path fill="#FFBE9D" d="M345.76 149.88l.56-11.8-3.07-12c-.17-.66-.25-1.49.29-1.89a1.462 1.462 0 0 1 1.85.06c.83.86 4.83 11.35 4.83 11.35s6.07-3.64 7.15-3.82c1.08-.18 2.43 3.09 2.52 3.34.04.733.04 1.467 0 2.2 0 0 3.75.11 4.09.62.273 1.042.417 2.113.43 3.19 0 0 1.59.51 1.84 1.71s.77 3.18 0 3.62c-.77.44-2.33 1.3-2.33 1.3s-.63 6.12-.8 6.68c-.17.56-3.68 4-3.68 4l-13.68-8.56z"/><path fill="#EB996E" d="M333 211.461s.37.22 1.15.47a7.961 7.961 0 0 0 3.53.28 9.855 9.855 0 0 0 5.12-2.36 23.575 23.575 0 0 0 4.76-6 26.16 26.16 0 0 0 1.85-4.13c.52-1.572.951-3.171 1.29-4.79.78-3.37 1.63-7 2.53-10.86 1.8-7.71 3.82-16.33 6-25.62v-.07h.05c.69-.68 1.38-1.37 2.07-2.09.34-.36.68-.72 1-1.09.16-.19.33-.38.46-.57.101-.189.159-.397.17-.61.27-2 .48-4.07.7-6.16v-.13l.12-.06 1.91-1.07c.14-.09.36-.19.45-.27a.57.57 0 0 0 .18-.33 3.564 3.564 0 0 0 0-1 15.114 15.114 0 0 0-.45-2.17 2.694 2.694 0 0 0-1.59-1.29l-.17-.06v-.17c0-.58-.06-1.18-.13-1.77a8.114 8.114 0 0 0-.13-.88 1.444 1.444 0 0 0-.12-.37c0-.07 0 0-.06-.06a.935.935 0 0 0-.17-.07 17.81 17.81 0 0 0-3.66-.41h-.26v-.26-2a2.076 2.076 0 0 0-.24-.67c-.1-.24-.22-.47-.34-.71a8.756 8.756 0 0 0-.82-1.32 2.162 2.162 0 0 0-.51-.5.481.481 0 0 0-.53-.06c-.484.185-.955.402-1.41.65-1.86 1-3.68 2-5.46 3.08l-.26.16-.11-.28c-.94-2.37-1.88-4.71-2.8-7-.46-1.15-.91-2.3-1.37-3.43a1.403 1.403 0 0 0-1.1-1 1.107 1.107 0 0 0-1.45 1.19c0 .22.14.56.2.83.16.58.31 1.15.46 1.72.3 1.15.59 2.28.89 3.4.587 2.253 1.163 4.453 1.73 6.6v.07c-.2 4.106-.39 8.04-.57 11.8v-.02l-9.11 29.64-2.57 8.25c-.3.93-.53 1.66-.69 2.17a7.2 7.2 0 0 1-.26.73s.05-.26.19-.75l.63-2.19a1778 1778 0 0 0 2.46-8.28c2.16-7.16 5.23-17.38 8.94-29.7v.05c.173-3.747.35-7.68.53-11.8v.07c-.57-2.15-1.16-4.35-1.75-6.59l-.9-3.4c-.15-.57-.3-1.15-.46-1.72a8.944 8.944 0 0 1-.21-.91 1.66 1.66 0 0 1 .21-1c.185-.312.471-.552.81-.68a2.051 2.051 0 0 1 1.95.44c.251.235.437.531.54.86l1.37 3.43c.93 2.3 1.86 4.64 2.81 7l-.37-.13c1.79-1.06 3.59-2.12 5.49-3.11.48-.251.974-.475 1.48-.67a.995.995 0 0 1 .5-.07c.171.024.335.086.48.18.241.172.453.381.63.62.334.437.626.906.87 1.4.13.25.25.49.36.74.142.264.237.552.28.85v2l-.25-.27c1.285.008 2.566.156 3.82.44.086.03.17.066.25.11.11.059.2.15.26.26.078.162.135.333.17.51.06.32.1.62.14.93.06.61.1 1.21.13 1.81l-.18-.24a3.125 3.125 0 0 1 1.91 1.58c.219.759.38 1.535.48 2.32.069.4.069.809 0 1.21a1.054 1.054 0 0 1-.36.62 5.407 5.407 0 0 1-.51.3l-1.9.99.13-.19c-.23 2.09-.44 4.14-.72 6.17l-.06.39a.886.886 0 0 1-.19.43 5.213 5.213 0 0 1-.49.62c-.34.38-.68.75-1 1.11-.69.72-1.38 1.41-2.08 2.09l.07-.12c-2.2 9.28-4.24 17.9-6.07 25.61-.91 3.85-1.78 7.48-2.58 10.84a41.29 41.29 0 0 1-1.32 4.82 27.156 27.156 0 0 1-1.9 4.17 23.625 23.625 0 0 1-4.87 6.06 10.012 10.012 0 0 1-5.25 2.34 7.816 7.816 0 0 1-3.59-.36 6.156 6.156 0 0 1-.85-.39l-.31-.13z"/><path fill="#EB996E" d="M359.9 137.35c0 .07-.34.11-.87.13-.673.013-1.343.093-2 .24a3.892 3.892 0 0 0-1.7.91c-.36.34-.52.63-.6.6-.08-.03 0-.39.33-.85a3.323 3.323 0 0 1 1.84-1.16 5.55 5.55 0 0 1 2.14-.1c.54.07.86.16.86.23z"/><path fill="#EB996E" d="M357 137.46c-.13-.05-.14-.36 0-.69.14-.33.34-.56.47-.51.13.05.15.36 0 .69-.15.33-.37.56-.47.51zM364.581 141.091c-.971.3-1.984.438-3 .41a2 2 0 0 0-1.66.79c-.26.41-.17.75-.25.77-.08.02-.32-.33-.07-.93.138-.338.389-.618.71-.79.37-.204.779-.326 1.2-.36a8.216 8.216 0 0 1 3.07.11zM363.92 144.691c.14 0 .22.74.18 1.65-.04.91-.19 1.63-.33 1.63s-.23-.75-.19-1.66c.04-.91.19-1.63.34-1.62z"/><path fill="#fff" d="M368.07 171.62l.89-3.06a.831.831 0 0 1 .598-.579.833.833 0 0 1 .802.219l1.17 1.19.72-2.89a.845.845 0 0 1 .729-.629.837.837 0 0 1 .841.469l1.63 3.42-7.38 1.86zM375.469 171.07a13.445 13.445 0 0 1-3.53 1.14 13.049 13.049 0 0 1-3.66.64 26.717 26.717 0 0 1 7.19-1.78zM316 154s-.37.38-.89 1.19a10.07 10.07 0 0 0-1.35 3.77c-.285 1.987-.346 4-.18 6a128.625 128.625 0 0 0 2.68 20.57c.35 1.68.67 3 .89 4 .1.42.19.77.26 1.07.07.3.08.38.08.38s-.05-.12-.12-.36c-.07-.24-.18-.66-.29-1.07-.25-.93-.59-2.27-1-3.95a118.612 118.612 0 0 1-2.72-20.59 26.768 26.768 0 0 1 .22-6 10.003 10.003 0 0 1 1.44-3.8c.27-.446.6-.853.98-1.21zM337.05 140.38l-.23.12-.66.32c-.57.27-1.4.67-2.39 1.22a87.77 87.77 0 0 0-7.51 4.7c-2.86 2-5.39 3.82-7.24 5.14l-2.19 1.55-.61.41a1.261 1.261 0 0 1-.22.14.813.813 0 0 1 .2-.17l.58-.44 2.15-1.61c1.83-1.35 4.35-3.23 7.21-5.19a76.096 76.096 0 0 1 7.56-4.66c1-.53 1.84-.91 2.43-1.16l.67-.28c.2-.07.2-.1.25-.09zM384.739 146.89a.767.767 0 0 1-.17-.13l-.45-.39a18.452 18.452 0 0 0-1.75-1.31 36.18 36.18 0 0 0-6.43-3.25 64.686 64.686 0 0 0-6.85-2.28c-.9-.25-1.62-.43-2.13-.55l-.57-.15a.849.849 0 0 1-.2-.07h.21l.58.11c.51.1 1.24.26 2.14.49a55.43 55.43 0 0 1 6.9 2.23 32.815 32.815 0 0 1 6.43 3.32 12.794 12.794 0 0 1 2.29 1.98zM337.329 223.22a1.421 1.421 0 0 1-.39-.13 7.036 7.036 0 0 1-1-.54 4.795 4.795 0 0 1-2.18-2.94 5.757 5.757 0 0 1 .39-3.66c.153-.355.347-.691.58-1 .16-.21.27-.31.28-.3-.273.427-.516.871-.73 1.33a5.93 5.93 0 0 0-.31 3.55 4.853 4.853 0 0 0 2 2.87c.83.6 1.38.78 1.36.82z"/><path fill="#fff" d="M334.15 212.39c.213.397.371.82.47 1.26.157.42.251.862.28 1.31a4.132 4.132 0 0 1-.48-1.25 4.01 4.01 0 0 1-.27-1.32z"/><path fill="#2F3F5C" d="M347.669 436.6l30.5-.15-.55-105.45-.29-107.27-41.33-.53-7.43 14a50.28 50.28 0 0 0-5.71 18.14c-.5 4.86 3.14 20.66 4.4 24.66l11.37 36.06 9.04 120.54z"/><path fill="#2F3F5C" d="M386.281 223.86l33.52 91.37a42.142 42.142 0 0 1-4.13 35.7l-38.92 76-21.88-27.38 32.56-68-28.7-46.55 4.83-61 13.52-.22 9.2.08z"/><path fill="#455A64" d="M374.551 254.47v.47c0 .31.05.79.09 1.38.07 1.23.16 3 .28 5.29.23 4.63.55 11.28 1 19.49.45 8.21.83 18 1.33 28.9.24 5.44.5 11.15.76 17.07.19 3 .11 6 .14 9 .03 3 0 6.16 0 9.3 0 25.13.08 47.88.11 64.37v26.2-1.38c0-1.24 0-3-.06-5.31 0-4.63-.08-11.28-.14-19.5-.07-16.49-.16-39.24-.26-64.37v-9.3c0-3.06.06-6.08-.13-9-.25-5.91-.5-11.62-.73-17.06-.46-10.88-.88-20.67-1.22-28.91-.34-8.24-.59-14.86-.78-19.49-.08-2.28-.14-4.06-.18-5.3v-1.38c0-.38-.21-.47-.21-.47zM373.779 225.66c.117.322.188.659.21 1 .11.64.23 1.57.37 2.73.26 2.31.54 5.52.7 9.07.16 3.55.17 6.77.12 9.1 0 1.16-.07 2.11-.12 2.76a3.34 3.34 0 0 1-.12 1 28.607 28.607 0 0 1-.13-3.76c0-2.33-.11-5.53-.27-9.08-.16-3.55-.38-6.74-.55-9a33.856 33.856 0 0 1-.21-3.82zM367.06 227.72c.05.07-.52.33-.68 1.14a1.311 1.311 0 0 0 .39 1.22 1.41 1.41 0 0 0 1.5.27 1.432 1.432 0 0 0 .78-1.31 1.303 1.303 0 0 0-.67-1.09 2.436 2.436 0 0 0-1.31-.23s.1-.13.36-.21c.375-.091.77-.052 1.12.11a1.632 1.632 0 0 1 1 1.39 1.788 1.788 0 0 1-2.119 1.948 1.796 1.796 0 0 1-.961-.528 1.638 1.638 0 0 1-.41-1.65c.101-.374.327-.702.64-.93.2-.14.35-.16.36-.13zM351.06 225.91c.147.315.238.654.27 1 .161.898.191 1.814.09 2.72a11.122 11.122 0 0 1-1.15 3.87 10.247 10.247 0 0 1-7.82 5.61 10.832 10.832 0 0 1-4-.15 9.45 9.45 0 0 1-2.54-.95 3.146 3.146 0 0 1-.82-.56c1.105.497 2.258.883 3.44 1.15a10.516 10.516 0 0 0 11.174-4.92 10.51 10.51 0 0 0 1.396-4.08 17.44 17.44 0 0 0-.04-3.69zM390.3 234.67a4.196 4.196 0 0 1-1.93-.23 8.91 8.91 0 0 1-3.93-2.52 8.777 8.777 0 0 1-2.13-4.16 3.988 3.988 0 0 1 0-1.93c.09 0 .1.73.4 1.85a9.673 9.673 0 0 0 5.82 6.41c1.04.41 1.78.48 1.77.58zM402.21 333.17a6.383 6.383 0 0 1-1.77 1.41 8.302 8.302 0 0 1-2.27 1 5.464 5.464 0 0 1-3.07-.08 8.948 8.948 0 0 1-4.28-3.4 8.274 8.274 0 0 1-1.17-1.92c.54.515 1.029 1.081 1.46 1.69a9.483 9.483 0 0 0 4.14 3.13 6.396 6.396 0 0 0 5-.73 19.717 19.717 0 0 1 1.96-1.1zM394.57 339a25.293 25.293 0 0 1-3.15-4 25.987 25.987 0 0 1-2.74-4.29 24.445 24.445 0 0 1 3.16 4 23.912 23.912 0 0 1 2.73 4.29z"/><path fill="#FAFAFA" d="M343.33 258c-.14.05-.49-.52-.8-1.29-.31-.77-.44-1.42-.31-1.48.13-.06.49.52.79 1.29.3.77.45 1.48.32 1.48zM362.69 260.78c-.15 0-.26-.49-.26-1.1 0-.61.11-1.11.26-1.11.15 0 .26.5.26 1.11 0 .61-.12 1.1-.26 1.1zM354.73 271.3c-.14 0-.3-.6-.35-1.37-.05-.77 0-1.39.16-1.4.16-.01.31.6.36 1.37.05.77-.03 1.39-.17 1.4zM340.191 279c-.12.09-.53-.28-1.07-.66s-1-.67-1-.81.66-.06 1.27.38.92 1.09.8 1.09zM365.821 288.81c-.12-.08 0-.51.34-1s.65-.77.77-.69c.12.08 0 .52-.34 1s-.65.77-.77.69zM350 291.581c-.14 0-.26-.83-.26-1.84 0-1.01.12-1.85.26-1.85s.26.83.26 1.85-.15 1.84-.26 1.84zM344.821 302.8c-.08.11-.6-.12-1.16-.53-.56-.41-1-.83-.87-.95s.61.12 1.17.53c.56.41.95.83.86.95zM360.841 306.7c.06.13-.26.4-.72.61-.46.21-.88.26-.94.13-.06-.13.27-.4.73-.61.46-.21.88-.26.93-.13zM350 325c-.12.06-.64-.71-1.15-1.73-.51-1.02-.82-1.9-.69-2 .13-.1.65.71 1.15 1.73.5 1.02.78 1.89.69 2zM367.669 323.3c-.13-.07.1-.74.5-1.51s.85-1.33 1-1.26c.15.07-.1.74-.51 1.51-.41.77-.87 1.33-.99 1.26zM359.92 338.79c-.15 0-.13-.81-.29-1.75-.16-.94-.4-1.69-.26-1.76.14-.07.62.64.78 1.68.16 1.04-.09 1.86-.23 1.83zM351.621 347.64c-.1.1-.6-.28-1.11-.84-.51-.56-.84-1.09-.73-1.19.11-.1.6.28 1.11.84.51.56.84 1.09.73 1.19zM371.76 351c-.1-.1.27-.64.83-1.21.56-.57 1.08-.94 1.19-.84.11.1-.27.65-.82 1.21-.55.56-1.09.94-1.2.84zM360.179 364.25c-.14 0-.14-.79 0-1.71.14-.92.36-1.64.51-1.62.15.02.14.78 0 1.7-.14.92-.37 1.65-.51 1.63zM352.391 370.68c-.13.07-.57-.45-1-1.16-.43-.71-.65-1.34-.53-1.41.12-.07.56.44 1 1.15.44.71.65 1.34.53 1.42zM371.16 378.79c.09.12-.42.63-1.14 1.14-.72.51-1.35.83-1.44.71-.09-.12.43-.63 1.14-1.14.71-.51 1.36-.82 1.44-.71zM355.519 389.32c-.14-.05 0-.85.13-1.85s.05-1.82.2-1.84c.15-.02.41.82.31 1.89-.1 1.07-.51 1.86-.64 1.8zM361.771 404.441c-.12.09-.54-.25-.95-.76-.41-.51-.64-1-.53-1.09.11-.09.53.25.94.76.41.51.65 1 .54 1.09zM354.941 414.58c-.12.08-.67-.51-1.23-1.33-.56-.82-.91-1.54-.8-1.62.11-.08.67.51 1.23 1.33.56.82.92 1.54.8 1.62zM373.75 401.85c-.13-.05-.12-.42 0-.82.12-.4.39-.7.53-.65.14.05.12.42 0 .83s-.39.7-.53.64zM365.45 426c-.13-.07.12-.78.32-1.67.2-.89.27-1.64.42-1.65.15-.01.3.8.09 1.76s-.71 1.64-.83 1.56zM370.85 271.461c-.13.06-.45-.34-.71-.9-.26-.56-.37-1.06-.24-1.12.13-.06.45.34.71.9.26.56.39 1.06.24 1.12zM357 240.32c.08.12-.62.68-1.37 1.48-.75.8-1.26 1.54-1.39 1.47-.13-.07.21-1 1-1.82.79-.82 1.66-1.26 1.76-1.13zM369.33 240.001c-.15 0-.38-.57-.73-1.25s-.67-1.24-.56-1.34c.11-.1.65.34 1 1.1s.42 1.41.29 1.49zM330.829 250.11c-.13-.06 0-.72.31-1.48s.65-1.35.79-1.29c.14.06 0 .71-.31 1.48s-.62 1.34-.79 1.29zM332.08 265.21c-.1.11-.67-.21-1.28-.72s-1-1-.94-1.12c.06-.12.67.21 1.28.72s1.03 1.01.94 1.12zM357.34 228.33c-.13 0-.41-.32-.61-.83s-.26-1-.13-1 .41.32.61.83.26.95.13 1zM381.531 235.71c-.14 0-.13-.63 0-1.34.13-.71.39-1.27.53-1.24.14.03.13.64 0 1.35-.13.71-.39 1.26-.53 1.23zM387.21 247.14c-.13-.06.05-.8.41-1.67.36-.87.75-1.52.88-1.47.13.05 0 .8-.4 1.67-.4.87-.75 1.52-.89 1.47zM383.16 256.36c-.13.06-.61-.63-1.07-1.54-.46-.91-.72-1.72-.59-1.78.13-.06.6.63 1.06 1.54.46.91.73 1.71.6 1.78zM391.819 265.58c-.13-.05 0-.63.22-1.29s.57-1.16.71-1.11c.14.05 0 .63-.22 1.29s-.53 1.16-.71 1.11zM384.08 274.61c-.12.08-.43-.19-.68-.59-.25-.4-.37-.8-.24-.88.13-.08.42.19.68.6.26.41.36.8.24.87zM385.731 293.25c-.1.09-.73-.4-1.39-1.12-.66-.72-1.11-1.37-1-1.47.11-.1.73.4 1.39 1.12.66.72 1.11 1.37 1 1.47zM395.88 282.541c-.11.09-.66-.41-1.22-1.13-.56-.72-.92-1.361-.81-1.451.11-.09.66.421 1.22 1.131.56.71.93 1.37.81 1.45zM401.45 297.311c-.13-.06.1-.81.51-1.67.41-.86.84-1.52 1-1.46.16.06-.09.82-.5 1.68-.41.86-.88 1.52-1.01 1.45zM389.609 309.47c-.13.07-.59-.48-1.23-1.07-.64-.59-1.23-1-1.17-1.15.06-.15.82.12 1.52.77.7.65 1 1.38.88 1.45zM390.351 322c0 .14-.5.26-1.11.26-.61 0-1.1-.12-1.1-.26s.49-.26 1.1-.26c.61 0 1.11.12 1.11.26zM402.519 318.5c-.13-.07.13-.7.32-1.48s.27-1.46.42-1.47c.15-.01.31.72.09 1.59-.22.87-.72 1.44-.83 1.36zM414.611 322.71c-.13.05-.5-.66-.82-1.57-.32-.91-.47-1.69-.34-1.73.13-.04.51.65.83 1.56.32.91.47 1.69.33 1.74zM412.68 339.91c-.12-.07.19-.91.69-1.88.5-.97 1-1.7 1.15-1.63.15.07-.18.91-.69 1.87-.51.96-1.02 1.73-1.15 1.64zM401.65 350c-.13.05-.54-.64-.92-1.55s-.57-1.69-.43-1.75c.14-.06.54.64.91 1.55s.57 1.75.44 1.75zM389.43 353.91c0 .14-.42.26-.93.26s-.92-.12-.92-.26.42-.26.92-.26.93.12.93.26zM396.429 370c-.13 0-.41-.55-.62-1.31-.21-.76-.25-1.42-.11-1.45.14-.03.41.55.62 1.31.21.76.25 1.37.11 1.45zM387.581 364.6c-.12-.07 0-.54.33-1.05s.66-.86.78-.79c.12.07 0 .55-.33 1.06s-.65.86-.78.78zM387.399 382.31c-.14 0-.34-.67-.44-1.54-.1-.87-.07-1.58.07-1.6.14-.02.34.67.44 1.54.1.87.07 1.58-.07 1.6z"/><path fill="#F77021" d="M256.908 149.221c9.101 0 16.48-7.379 16.48-16.48 0-9.102-7.379-16.48-16.48-16.48-9.102 0-16.48 7.378-16.48 16.48 0 9.101 7.378 16.48 16.48 16.48z"/><path fill="#fff" d="M256.908 149.221c9.101 0 16.48-7.379 16.48-16.48 0-9.102-7.379-16.48-16.48-16.48-9.102 0-16.48 7.378-16.48 16.48 0 9.101 7.378 16.48 16.48 16.48z" opacity=".7"/><path fill="#F77021" d="M291.098 126.751a7.59 7.59 0 1 0 0-15.18 7.59 7.59 0 0 0 0 15.18z"/><path fill="#fff" d="M291.098 126.751a7.59 7.59 0 1 0 0-15.18 7.59 7.59 0 0 0 0 15.18z" opacity=".6"/><path fill="#F77021" d="M311.038 102.471c0 .671-.199 1.326-.572 1.883a3.384 3.384 0 0 1-3.48 1.442 3.392 3.392 0 0 1-2.47-4.622 3.386 3.386 0 0 1 3.132-2.093 3.39 3.39 0 0 1 3.39 3.39z"/><path fill="#fff" d="M311.038 102.471c0 .671-.199 1.326-.572 1.883a3.384 3.384 0 0 1-3.48 1.442 3.392 3.392 0 0 1-2.47-4.622 3.386 3.386 0 0 1 3.132-2.093 3.39 3.39 0 0 1 3.39 3.39z" opacity=".5"/><path fill="#F77021" d="M254.828 82.911a32.46 32.46 0 0 0-15.83-27.89 36.762 36.762 0 0 0-61.37-27.18 32.484 32.484 0 0 0-43.234-6.294 32.482 32.482 0 0 0-10.566 11.764 26.342 26.342 0 0 0-36.886 15.497 26.34 26.34 0 0 0-.344 14.933 23.79 23.79 0 0 0 2 40.79 23.801 23.801 0 0 0 23.4 19.49 24.161 24.161 0 0 0 4.45-.42 23.79 23.79 0 0 0 33.47 11.46 23.797 23.797 0 0 0 35.72-4.06 26.334 26.334 0 0 0 29.249 8.131 26.338 26.338 0 0 0 17.481-24.821v-.46a32.478 32.478 0 0 0 22.46-30.94z"/><path fill="#fff" d="M254.828 82.911a32.46 32.46 0 0 0-15.83-27.89 36.762 36.762 0 0 0-61.37-27.18 32.484 32.484 0 0 0-43.234-6.294 32.482 32.482 0 0 0-10.566 11.764 26.342 26.342 0 0 0-36.886 15.497 26.34 26.34 0 0 0-.344 14.933 23.79 23.79 0 0 0 2 40.79 23.801 23.801 0 0 0 23.4 19.49 24.161 24.161 0 0 0 4.45-.42 23.79 23.79 0 0 0 33.47 11.46 23.797 23.797 0 0 0 35.72-4.06 26.334 26.334 0 0 0 29.249 8.131 26.338 26.338 0 0 0 17.481-24.821v-.46a32.478 32.478 0 0 0 22.46-30.94z" opacity=".8"/><path fill="#fff" d="M168.607 116.771l-1.07.12c0-.3-2.82-23.85-11.16-35.45-4.16 1.57-7.36.09-8.71-2.12a3.703 3.703 0 0 1 .51-4.89l.21-.18.26.06c15.36 3.55 19.78 40.87 19.96 42.46zm-19.92-41.34a2.679 2.679 0 0 0-.1 3.33c1.09 1.77 3.68 3 7.11 1.78a13.62 13.62 0 0 0-7.01-5.11zM173.397 116.041c-.3-1.57-7.22-38.51 6.38-46.48l.24-.14.25.11a3.698 3.698 0 0 1 1.95 4.51c-.64 2.52-3.25 4.89-7.68 4.62-4.51 13.56-.14 36.88-.08 37.17l-1.06.21zm1.52-38.44c3.62.1 5.74-1.8 6.25-3.82a2.66 2.66 0 0 0-1.09-3.14 13.635 13.635 0 0 0-5.16 6.96z"/><path fill="#F77021" d="M132.898 69.312l-1 .1a33.369 33.369 0 0 1-.13-4.23h1a31.289 31.289 0 0 0 .13 4.13zM133.188 61.002l-1-.16a30.982 30.982 0 0 1 5.22-12.7l.82.58a29.905 29.905 0 0 0-5.04 12.28z"/><path fill="#F77021" d="M179.577 101.641l-21.16 3.23a3.598 3.598 0 0 1-3.77-2 47.256 47.256 0 0 0-11.07-15 29.191 29.191 0 0 1 15-50.24 29.168 29.168 0 0 1 33.65 24.38 29.202 29.202 0 0 1-3.7 19.22 45.429 45.429 0 0 0-6 17.36 3.574 3.574 0 0 1-.975 2.009 3.57 3.57 0 0 1-1.975 1.041zm-20.66-61.91a26.997 26.997 0 0 0-21.541 18.94 27.005 27.005 0 0 0 7.661 27.64 49.73 49.73 0 0 1 11.57 15.67 1.397 1.397 0 0 0 1.48.81l21.16-3.23a1.43 1.43 0 0 0 1.18-1.25 47.678 47.678 0 0 1 6.23-18.18 27.061 27.061 0 0 0 3.43-17.82 26.997 26.997 0 0 0-20.534-22.241 27 27 0 0 0-10.636-.339zM178.577 120.881l-13.47 2.06a3.787 3.787 0 0 1-4.31-3.17l-.05-.36c-.07-.41-.07-.829 0-1.24a3.93 3.93 0 0 1-1.28-2.33v-.16a3.996 3.996 0 0 1 .06-1.47 3.906 3.906 0 0 1-1.22-2.3 4.003 4.003 0 0 1 3.31-4.52l15.69-2.39a4 4 0 0 1 4.52 3.31 3.889 3.889 0 0 1-.48 2.57c.251.442.413.927.48 1.43v.16a3.903 3.903 0 0 1-.53 2.61c.189.371.321.769.39 1.18v.36a3.778 3.778 0 0 1-3.11 4.26zm-16.65-11.36a1.81 1.81 0 0 0-1.208 2.817c.158.226.366.412.608.543l.9.51-.47.92a1.724 1.724 0 0 0-.18 1v.16a1.73 1.73 0 0 0 .91 1.27l.91.47-.43.93a1.582 1.582 0 0 0-.12.91v.35a1.63 1.63 0 0 0 1.86 1.36l13.47-2.05a1.642 1.642 0 0 0 1.36-1.86v-.35a1.655 1.655 0 0 0-.4-.83l-.68-.76.73-.72a1.736 1.736 0 0 0 .49-1.48v-.16a1.746 1.746 0 0 0-.48-.94l-.73-.74.71-.76a1.762 1.762 0 0 0 .48-1.51 1.807 1.807 0 0 0-1.348-1.478 1.824 1.824 0 0 0-.702-.032l-15.68 2.43z"/></svg>