<svg xmlns="http://www.w3.org/2000/svg" fill="none" viewBox="0 0 1097 806"><path fill="#37CCC7" d="M641.82 111.403c-64.72-2.25-126.36-23.14-185.22-46s-117.16-48.19-180.37-60.3c-40.59-7.79-87.06-8.89-119.8 12.88-31.5 21-41.68 57.15-47.15 90.72-4.12 25.27-6.54 51.85 4.74 75.5 7.84 16.42 21.74 30.22 31.36 46 33.47 54.72 9.81 122.2-26.45 175.63-17 25.06-36.75 49-49.88 75.66-13.13 26.66-19.2 57.25-7.71 84.46 11.38 27 38.51 47.24 67.9 61.5 59.69 28.94 130 37.23 198.61 41.92 151.83 10.39 304.46 5.89 456.69 1.39 56.34-1.67 112.92-3.36 168.34-12.07 30.78-4.84 62.55-12.52 84.89-31 28.37-23.53 35.4-63.38 16.39-92.88-31.88-49.49-120-61.79-142.31-114.9-12.26-29.23.33-61.8 18.16-88.91 38.24-58.17 102.33-109.19 105.7-175.68 2.32-45.66-28.49-91.39-76.13-113-49.93-22.65-119.18-19.8-156 17.69-37.95 38.52-104.61 53.37-161.76 51.39z" opacity=".1"/><g opacity=".9"><path fill="#3A3768" d="M714.9 248.782h-4.28a2.29 2.29 0 0 0-2.29 2.29v68.44a2.29 2.29 0 0 0 2.29 2.29h4.28a2.29 2.29 0 0 0 2.29-2.29v-68.44a2.29 2.29 0 0 0-2.29-2.29zM416.57 191.583h-.39a2.29 2.29 0 0 0-2.29 2.29v19.46a2.29 2.29 0 0 0 2.29 2.29h.39a2.29 2.29 0 0 0 2.29-2.29v-19.46a2.29 2.29 0 0 0-2.29-2.29zM417.02 235.593H416a2.29 2.29 0 0 0-2.29 2.29v37.26a2.29 2.29 0 0 0 2.29 2.29h1.02a2.29 2.29 0 0 0 2.29-2.29v-37.26a2.29 2.29 0 0 0-2.29-2.29zM416.84 292.072h-.75a2.29 2.29 0 0 0-2.29 2.29v37.62a2.29 2.29 0 0 0 2.29 2.29h.75a2.29 2.29 0 0 0 2.29-2.29v-37.62a2.29 2.29 0 0 0-2.29-2.29z" opacity=".9"/><path fill="#4B6590" d="M674.12 112.143H455.7c-21.534 0-38.99 17.456-38.99 38.99v524.41c0 21.534 17.456 38.99 38.99 38.99h218.42c21.534 0 38.99-17.456 38.99-38.99v-524.41c0-21.534-17.456-38.99-38.99-38.99z" opacity=".9"/><path fill="#E6E8EC" d="M573.83 130.123h-33.65a3.87 3.87 0 0 0-3.87 3.87v.66a3.87 3.87 0 0 0 3.87 3.87h33.65a3.87 3.87 0 0 0 3.87-3.87v-.66a3.87 3.87 0 0 0-3.87-3.87zM588.73 139.103a4.77 4.77 0 1 0-.001-9.541 4.77 4.77 0 0 0 .001 9.541z" opacity=".9"/></g><path fill="#37CCC7" d="M238.04 748.773c110.44 0 199.97-9.124 199.97-20.38 0-11.256-89.53-20.38-199.97-20.38s-199.97 9.124-199.97 20.38c0 11.256 89.53 20.38 199.97 20.38zM682.68 805.973c51.738 0 93.68-4.276 93.68-9.55 0-5.274-41.942-9.55-93.68-9.55-51.738 0-93.68 4.276-93.68 9.55 0 5.274 41.942 9.55 93.68 9.55zM1002.78 757.853c51.74 0 93.68-4.276 93.68-9.55 0-5.274-41.94-9.55-93.68-9.55-51.738 0-93.68 4.276-93.68 9.55 0 5.274 41.942 9.55 93.68 9.55z" opacity=".1"/><path fill="#14C3BF" d="M671.23 127.822h-33.9v4.09a19.383 19.383 0 0 1-19.38 19.38H509.77a19.383 19.383 0 0 1-19.38-19.38v-4.09h-31.84a23.534 23.534 0 0 0-21.742 14.532 23.535 23.535 0 0 0-1.788 9.008v523.93a23.535 23.535 0 0 0 6.888 16.645 23.532 23.532 0 0 0 16.642 6.895h212.68a23.537 23.537 0 0 0 23.54-23.54v-523.93a23.537 23.537 0 0 0-23.54-23.54z"/><path fill="#F77021" d="M815.72 85.712s-84.2-5.08-74.27 53.92c0 0-2 10.43 7.48 15.16 0 0 .15-4.37 8.63-2.89a38.41 38.41 0 0 0 9.15.44 19.002 19.002 0 0 0 11.19-4.61s23.66-9.78 32.87-48.46c0 0 6.81-8.44 6.54-10.61l-14.21 6.07s4.85 10.25 1 18.77c0 0-.46-18.4-3.19-18-.56.08-7.39 3.55-7.39 3.55s8.36 17.85 2 30.83c0 0 2.39-22-4.66-29.54l-10 5.84s9.76 18.44 3.15 33.49c0 0 1.69-23.08-5.25-32.07l-9.06 7.07s9.17 18.17 3.58 30.65c0 0-.74-26.86-5.55-28.89 0 0-7.93 7-9.14 9.86 0 0 6.28 13.2 2.39 20.16 0 0-2.39-17.9-4.35-18 0 0-7.9 11.86-8.72 20 0 0 .34-12.09 6.8-21.12 0 0-7.63 1.31-12.09 6.26 0 0 1.23-8.38 14-9.12 0 0 6.53-9 8.28-9.54 0 0-12.75-1.07-20.48 2.36 0 0 6.8-7.91 22.82-4.31l8.94-7.31s-16.78-2.29-23.9.24c0 0 8.2-7 26.32-1.9l9.74-5.82s-14.31-3.09-22.84-2c0 0 9-4.85 25.69.41l7-3.13s-10.49-2.06-13.56-2.39c-3.07-.33-3.23-1.17-3.23-1.17a36.35 36.35 0 0 1 19.83 2.26s14.74-5.53 14.49-6.46zM729.36 59.473s-38-2.29-33.56 24.37c0 0-.89 4.71 3.38 6.85 0 0 .07-2 3.9-1.31 1.364.23 2.75.297 4.13.2a8.62 8.62 0 0 0 5.06-2.08s10.69-4.42 14.85-21.9c0 0 3.08-3.81 3-4.79l-6.42 2.74s2.19 4.63.46 8.48c0 0-.2-8.31-1.44-8.12-.25 0-3.33 1.61-3.33 1.61s3.77 8.06.92 13.93c0 0 1.08-9.94-2.1-13.35l-4.52 2.64s4.41 8.33 1.42 15.13c0 0 .77-10.43-2.37-14.49l-4.1 3.2s4.15 8.21 1.62 13.85c0 0-.33-12.14-2.5-13.06 0 0-3.59 3.16-4.13 4.46 0 0 2.83 6 1.07 9.11 0 0-1.08-8.09-2-8.13 0 0-3.57 5.36-3.94 9a19.457 19.457 0 0 1 3.07-9.54 10.708 10.708 0 0 0-5.46 2.83s.55-3.79 6.34-4.12c0 0 2.95-4.07 3.74-4.32 0 0-5.76-.48-9.25 1.07 0 0 3.07-3.57 10.31-2l4-3.3s-7.58-1-10.8.11c0 0 3.71-3.16 11.89-.86l4.4-2.63s-6.46-1.39-10.31-.89c0 0 4.06-2.19 11.6.18l3.15-1.41s-4.73-.93-6.12-1.08c-1.39-.15-1.46-.53-1.46-.53a16.36 16.36 0 0 1 8.89 1s6.72-2.43 6.61-2.85zM40.21 685.372c22.207 0 40.21-3.044 40.21-6.8s-18.003-6.8-40.21-6.8S0 674.816 0 678.572s18.003 6.8 40.21 6.8z"/><path fill="#F77021" d="M56.83 667.442a11.628 11.628 0 0 0 3.84-5.78c.49-2.3-.49-5-2.68-5.89-2.46-.95-5.09.76-7.08 2.48-1.99 1.72-4.28 3.69-6.89 3.32a10.475 10.475 0 0 0 3.21-9.81 4.003 4.003 0 0 0-.9-2c-1.36-1.46-3.84-.83-5.48.32-5.2 3.66-6.65 10.72-6.67 17.08-.53-2.3-.09-4.69-.1-7-.01-2.31-.66-5-2.64-6.22a8 8 0 0 0-4-.95c-2.34-.08-4.94.15-6.54 1.86-2 2.12-1.47 5.69.26 8 1.73 2.31 4.35 3.8 6.76 5.42a14.922 14.922 0 0 1 4.84 4.61c.148.26.269.535.36.82h14.65a40.753 40.753 0 0 0 9.06-6.26zM830.57 583.522s8.65 11.32-4 28.4-23.07 31.5-18.85 42.15c0 0 19.08-31.72 34.61-32.17 15.53-.45 5.32-19.3-11.76-38.38z"/><path fill="#000" d="M830.57 583.522a14.251 14.251 0 0 1 1.77 3.55c15.15 17.8 23.22 34.42 8.65 34.83-13.56.39-29.84 24.65-33.73 30.77.123.476.277.944.46 1.4 0 0 19.08-31.72 34.61-32.17 15.53-.45 5.32-19.3-11.76-38.38z" opacity=".1"/><path fill="#FFD037" d="M846.65 597.983c0 4-.45 7.21-1 7.21s-1-3.23-1-7.21.56-2.1 1.11-2.1.89-1.9.89 2.1z"/><path fill="#FFD037" d="M852.17 602.703c-3.5 1.9-6.54 3.06-6.81 2.57-.27-.49 2.36-2.42 5.86-4.33 3.5-1.91 2.11-.51 2.38 0s2.07-.15-1.43 1.76z"/><path fill="#F77021" d="M784.87 583.522s-8.65 11.32 4 28.4 23.07 31.5 18.86 42.15c0 0-19.08-31.72-34.61-32.17-15.53-.45-5.33-19.3 11.75-38.38z"/><g filter="url(#filter0_f)" opacity=".1"><path fill="#000" d="M784.87 583.522a13.87 13.87 0 0 0-1.77 3.55c-15.15 17.8-23.22 34.42-8.66 34.83 13.57.39 29.84 24.65 33.74 30.77-.128.475-.281.942-.46 1.4 0 0-19.08-31.72-34.61-32.17-15.53-.45-5.32-19.3 11.76-38.38z" opacity=".1"/><path stroke="#000" d="M807.591 652.914a138.35 138.35 0 0 0-2.682-4.087c-2.037-2.99-4.918-6.983-8.288-10.993a97.06 97.06 0 0 0-1.287-1.504c5.745 6.475 10.365 13.392 12.304 16.423l-.047.161zm-40.508-33.881c.11.196.23.385.361.564a4.427 4.427 0 0 1-.994-1.404c-.874-1.938-.584-4.767.778-8.316 2.433-6.337 8.131-14.575 15.438-23.084a.332.332 0 0 1-.01.029c-7.551 8.881-13.385 17.519-15.503 24.032-1.058 3.255-1.228 6.099-.07 8.179z" opacity=".1"/></g><path fill="#FFD037" d="M768.78 597.983c0 4 .45 7.21 1 7.21s1-3.23 1-7.21-.56-2.1-1.11-2.1-.89-1.9-.89 2.1z"/><path fill="#FFD037" d="M763.23 602.703c3.49 1.9 6.54 3.06 6.8 2.57.26-.49-2.35-2.42-5.85-4.33-3.5-1.91-2.12-.51-2.38 0-.26.51-2.03-.15 1.43 1.76z"/><path fill="#A8A8A8" d="M771.54 652.593s24.19-.75 31.48-5.94c7.29-5.19 37.21-11.39 39-3.06 1.79 8.33 36.35 41.41 9 41.63-27.35.22-63.46-4.26-70.73-8.69-7.27-4.43-8.75-23.94-8.75-23.94z"/><path fill="#000" d="M851.57 682.323c-27.31.22-63.46-4.26-70.73-8.69-5.55-3.37-7.75-15.48-8.49-21.071h-.81s1.53 19.511 8.81 23.941 43.42 8.91 70.73 8.69c7.88-.07 10.61-2.87 10.46-7-1.1 2.51-4.1 4.08-9.97 4.13z" opacity=".2"/><path fill="#3A3768" d="M662.56 487.873h-78.03v78.03h78.03v-78.03zM547.56 384.873h-78.03v78.03h78.03v-78.03zM555.06 589.112h-78.03v78.03h78.03v-78.03z" opacity=".3"/><path fill="#fff" d="M537.65 193.282h-78.03v78.03h78.03v-78.03z"/><path fill="#F77021" d="M513.78 218.772l-2.77 2.76a9.778 9.778 0 0 1 2.868 6.915 9.768 9.768 0 0 1-2.868 6.915l2.77 2.78a13.7 13.7 0 0 0 0-19.37z"/><path fill="#F77021" d="M519.32 213.442l-2.73 2.73a17.379 17.379 0 0 1 0 24.56l2.73 2.73a21.217 21.217 0 0 0 0-30v-.02zm-13 10.22v-12.5h-3.85l-11.52 9.6h-15.36l-3.84 1.92v13.45l3.84 1.92 9.64 15.37h5.76l-3.6-15.37h3.6l11.52 7.69h3.85v-12.5a4.912 4.912 0 0 0 2.755-7.857 4.912 4.912 0 0 0-2.755-1.723h-.04z"/><path fill="#fff" d="M646.921 459.739l-57.86 52.354 52.354 57.86 57.859-52.354-52.353-57.86z"/><path fill="#F77021" d="M621.57 504.122l5.66-5.14 31 34.17-5.7 5.16-30.96-34.19zm13.37 32l5.7-5.15 9 10-5.7 5.15-9-10zm11.94-21.16l5.7-5.16 14.17 15.67-5.69 5.15-14.18-15.66zm.81-16.28l5.7-5.16 21.91 24.21-5.7 5.16-21.91-24.21z"/><path fill="#fff" d="M661.27 287.312h-78.03v78.03h78.03v-78.03z"/><path fill="#F77021" d="M637.07 316.982l-10.47 16a5.699 5.699 0 0 1 1.3 3.64 5.77 5.77 0 0 1-11.53 0c.003-.359.037-.717.1-1.07l-6.92-4a5.795 5.795 0 0 1-6.83.86l-7.36 6.89v6.87a5.145 5.145 0 0 0 1.505 3.625 5.145 5.145 0 0 0 3.625 1.505h43.54a5.15 5.15 0 0 0 5.13-5.13v-25.52l-7-4.67a5.7 5.7 0 0 1-3.53 1.22 5.867 5.867 0 0 1-1.52-.21l-.04-.01z"/><path fill="#F77021" d="M605.56 321.642a5.763 5.763 0 0 1 5.77 5.76c0 .25 0 .51-.05.75l7.22 4a5.67 5.67 0 0 1 3.65-1.3c.417 0 .833.047 1.24.14l10.5-16.26a5.755 5.755 0 0 1 .655-7.43 5.767 5.767 0 0 1 4.965-1.586 5.754 5.754 0 0 1 4.212 3.071 5.767 5.767 0 0 1 .468 3.965l5 3.31v-9.62a5.139 5.139 0 0 0-5.13-5.12h-43.57a5.13 5.13 0 0 0-5.13 5.12v27.54l4.8-4.6a5.83 5.83 0 0 1-.36-2 5.758 5.758 0 0 1 5.76-5.74z"/><path fill="#fff" d="M562.63 374.312H484.6v78.03h78.03v-78.03z"/><path fill="#F77021" d="M547.16 388.472l-48 26a1.002 1.002 0 0 0-.52.917.988.988 0 0 0 .171.52.991.991 0 0 0 .419.353l8.19 3.09c.474.184.86.542 1.08 1l6.36 13.1c.12.58 1.19.74 1.2.15l-1-10.83c.057-.804.365-1.57.88-2.19l24.88-24.38a.623.623 0 0 1 .55-.16.573.573 0 0 1 .405.37.575.575 0 0 1-.095.54l-21.45 26.22a4.783 4.783 0 0 0-.84 2.16l-1.28 9.35c.1.82.74 1.13 1.26.4l4.62-5.43a1 1 0 0 1 1.36-.22l11.91 8.68a.998.998 0 0 0 1.51-.59l9.77-48a1 1 0 0 0-1.4-1.08l.02.03z"/><path fill="#6C63FF" d="M971.84 732.593c4.54.59 9.25 1 13.6-.46.67-.21 1.44-.67 1.35-1.36a1.593 1.593 0 0 0-.31-.66 42.432 42.432 0 0 1-4.13-7.83.638.638 0 0 0-.25-.35.607.607 0 0 0-.44 0c-2 .52-3.74 1.82-5.74 2.37a8.19 8.19 0 0 1-3.12.24c-.9-.1-2.14-.85-2.95-.76.5 2.97 1.64 5.78 1.99 8.81zM1057.77 724.982c3-2 6.1-4.22 7.87-7.39.13-.186.2-.405.21-.63a1.28 1.28 0 0 0-.25-.62 25.637 25.637 0 0 0-6.39-6.9 18.684 18.684 0 0 0-3.57 3.29c-.75.79-2.83 2.09-2.85 3.27 0 .71.79 1.48 1.16 2 .5.74 1 1.5 1.43 2.26.23.46 2.61 4.6 2.39 4.72z"/><path fill="#2F3F5C" d="M989.64 741.773a2.999 2.999 0 0 1-.54 2 2.672 2.672 0 0 1-1.15.67c-6.36 2.27-13.68-.57-20 1.68-1.31.46-2.54 1.12-3.85 1.56a20.837 20.837 0 0 1-4.77.85c-2.25.22-4.5.35-6.75.41a16.33 16.33 0 0 1-5.08-.44 6.15 6.15 0 0 1-3.9-3.09 2.997 2.997 0 0 1-.19-2.2c.096-.258.235-.498.41-.71.433-.48.939-.889 1.5-1.21l2.34-1.51a15.611 15.611 0 0 1 3.54-1.88c.92-.3 1.91-.43 2.84-.7 3.29-1 5.79-3.57 8.12-6.07l3.18-3.39a3.099 3.099 0 0 1 1.1-.88 2.992 2.992 0 0 1 1.36-.14 18.375 18.375 0 0 1 8.67 2.92c.67.49 1.387.912 2.14 1.26a7.635 7.635 0 0 0 6-.75c.82-.43.64-.7 1-1.47s1.18-1.27 1.9-.56c.215.247.37.542.45.86.7 2.27.43 4.7.43 7.07a3.13 3.13 0 0 0 .14 1.1c.177.351.384.685.62 1 .051.082.095.169.13.26a6.935 6.935 0 0 1 .36 3.36z"/><path fill="#464353" d="M989.64 741.773a2.999 2.999 0 0 1-.54 2 2.672 2.672 0 0 1-1.15.67c-6.36 2.27-13.68-.57-20 1.68-1.31.46-2.54 1.12-3.85 1.56a20.837 20.837 0 0 1-4.77.85c-2.25.22-4.5.35-6.75.41a16.33 16.33 0 0 1-5.08-.44 6.15 6.15 0 0 1-3.9-3.09 2.997 2.997 0 0 1-.19-2.2c.096-.258.235-.498.41-.71.38.78.65 1.8.88 2.17a4.439 4.439 0 0 0 3 2.15 7.611 7.611 0 0 0 2.71-.35c5.76-1.43 11.88-1.45 17.4-3.61a41.52 41.52 0 0 1 5.7-2.19 45.224 45.224 0 0 1 6.16-.5c3.25-.26 6.39-1.24 9.6-1.75a6.934 6.934 0 0 1 .37 3.35z"/><path fill="#2F3F5C" d="M1072.29 724.592c-.3 2.41-1.83 4.49-3.51 6.25a40.432 40.432 0 0 0-4.9 5.37c-1.66 2.52-2.39 5.63-4.53 7.76a12.36 12.36 0 0 1-2.72 2c-1.12.66-2.3 1.203-3.53 1.62-3.19 1-6.63.79-10 .55a8.93 8.93 0 0 1-3.16-.62 8.923 8.923 0 0 1-1.34-.81 6.32 6.32 0 0 1-2-2.07 2.086 2.086 0 0 1-.19-1.49c.2-.566.54-1.07 1-1.46.75-.78 1.56-1.505 2.41-2.17a14.3 14.3 0 0 0 3.14-2.76c.56-.845.96-1.779 1.21-2.76.48-1.713.78-3.473.88-5.25 0-1.18.12-2.357.37-3.51.51-1.8 1.85-3.43 1.69-5.3-.06-.268-.03-.547.07-.8.17-.191.39-.327.63-.39 1.05-.411 2.16-.664 3.28-.75.56-.035 1.11.053 1.63.259.52.205.99.523 1.37.931.47.56.77 1.34 1.46 1.59.33.07.67.07 1 0 1.68-.17 3.47-.38 4.76-1.47a6.04 6.04 0 0 0 1.46-1.976c.34-.752.53-1.567.54-2.394 0-.62-.28-1.27.67-1.4.73-.1 1.3.66 1.67 1.16a16.41 16.41 0 0 1 3.21 5.85c.19-.079.4-.12.61-.12a2.607 2.607 0 0 1 2.18 1.12c.58.899.81 1.982.64 3.04z"/><path fill="#464353" d="M1072.29 724.592c-.3 2.41-1.83 4.49-3.51 6.25a40.432 40.432 0 0 0-4.9 5.37c-1.66 2.52-2.39 5.63-4.53 7.76a12.36 12.36 0 0 1-2.72 2c-1.12.66-2.3 1.203-3.53 1.62-3.19 1-6.63.79-10 .55a8.93 8.93 0 0 1-3.16-.62 8.923 8.923 0 0 1-1.34-.81 6.32 6.32 0 0 1-2-2.07 4.88 4.88 0 0 1 2.06-.49c1.49.08 2.57 1.48 4 1.91 2 .61 4-.82 6.09-1.31 1.34-.31 2.76-.22 4.07-.65a10.09 10.09 0 0 0 3-1.82c1.22-.87 2.3-1.915 3.21-3.1.76-1.182 1.4-2.443 1.89-3.76a54.003 54.003 0 0 1 3.81-7.29c.21-.366.48-.702.78-1 .31-.29.7-.5 1-.76 1.37-1 1.94-2.77 2.42-4.41.13-.508.31-1.001.54-1.47a2.607 2.607 0 0 1 2.18 1.12c.57.883.8 1.942.64 2.98z"/><path fill="#A1616A" d="M928.63 510.983a14.514 14.514 0 0 1 4.08 4.77c1 1.88 6.49 16.48 6.17 18.57 1.8-1.82 8.94-2.12 10.73-3.93.76-.76 4.87-4.56 5.48-5.44.61-.88 5.19-2.77 5.69-3.67 1.87-3.35-13.26-16-11.33-19.36a.823.823 0 0 0 .16-.52.797.797 0 0 0-.25-.4 24.129 24.129 0 0 0-4.38-3 7 7 0 0 1-3.34-4 14.354 14.354 0 0 0-3.87 2.62 279.879 279.879 0 0 0-8.18 7.28c-1.06 1-3.08 2.27-3.57 3.66-.49 1.39 1.6 2.6 2.61 3.42z"/><path fill="#514E7F" d="M953.12 505.593a43.872 43.872 0 0 0-6.48 5.3c-1.88 1.85-3.66 4-4.13 6.61-.19 1-.16 2.06-.32 3.09-.67 4.48-4.56 7.77-6.27 12a20.544 20.544 0 0 0-1.1 4 47.228 47.228 0 0 0-.78 7.86c0 2.56 2.46 4.32 3.38 6.71a40.741 40.741 0 0 1 1.63 7.27 88.532 88.532 0 0 0 4.09 13.5c3.38 9.33 14.33 35.13 17.71 44.47 10.35-2.6 37.91-8.57 47.07-14 3.06-1.82-21.2-22.38-17.93-23.8a1.65 1.65 0 0 0 .91-.69 1.584 1.584 0 0 0 0-1c-3.26-14.29-13.49-26-18.12-40-1.61-4.83-4.5-8.95-6.7-13.55-2-4.16-3.05-8.75-5.42-12.7a8.504 8.504 0 0 0-1.73-2.17 10.635 10.635 0 0 0-1.92-1.15c-1.31-.7-2.57-1.09-3.89-1.75z"/><path fill="#A1616A" d="M929.18 509.352c8.947 0 16.2-7.253 16.2-16.2s-7.253-16.2-16.2-16.2-16.2 7.253-16.2 16.2 7.253 16.2 16.2 16.2z"/><path fill="#464353" d="M945.66 500.763a5.432 5.432 0 0 1 6.09-.87 3 3 0 0 1 1.81 2.92l8 .12a16.751 16.751 0 0 1 3.81.35 5.538 5.538 0 0 1 3.18 2c.1.13.21.28.37.31a.644.644 0 0 0 .37-.13 7.053 7.053 0 0 1 4-.72c4.34.28 8.36 2.46 11.76 5.17a3.814 3.814 0 0 1 1.4 1.71c.28.91 0 2.08.66 2.7 0 7.55 2.59 14.58 4.32 21.93.3 1.31 1.56 2.46 2.43 3.49a13.992 13.992 0 0 1 2.6 3.88c1.46 3.81-.56 8.28.87 12.11a19.53 19.53 0 0 0 2.76 4.35 11.19 11.19 0 0 1 2.35 5.62c.06.92-.06 1.84 0 2.77.09 1.234.31 2.455.66 3.64.58 2.21 1.2 4.42 1.84 6.62 1 3.56 2.4 7.41 5.59 9.31-7.71 1.31-15.83 2.58-23.18-.09a11.988 11.988 0 0 1-2.89-1.45c-2.65-1.89-3.93-5.13-5.07-8.18-1.28-3.43-2.58-6.91-2.84-10.56a12.094 12.094 0 0 0-.48-3.45c-.75-2-2.73-3.19-4.55-4.29a21.864 21.864 0 0 1-5.47-4.26 8.503 8.503 0 0 1-2.22-6.4c.14-1.13.58-2.22.63-3.36a2.694 2.694 0 0 0-1.56-2.77c-5.61-1.7-8.29-8.34-9.54-14.07a44.881 44.881 0 0 1-.72-9l-.07-5.79a7.677 7.677 0 0 1-2.52-5.54c.09-.607.09-1.223 0-1.83a5.122 5.122 0 0 0-1.28-2 16.878 16.878 0 0 1-3.11-4.24zM928.4 519.292c-.18 1.81.23 3.66-.18 5.44-.16.68-.43 1.33-.63 2a11.8 11.8 0 0 0 .75 7.62 42.336 42.336 0 0 0 3.89 6.75c.515.72.935 1.503 1.25 2.33.26.869.421 1.765.48 2.67a81.432 81.432 0 0 0 1.91 10.74c.76 3.08 1.75 6.19 3.78 8.63.37.535.926.913 1.56 1.06.459.016.916-.08 1.33-.28l4.14-1.57a2.897 2.897 0 0 0 1-.52 2.51 2.51 0 0 0 .58-1.62c.29-3.34-.71-6.65-1.82-9.81-3.36-9.54-7.82-18.73-10-28.6-.61-2.76-.93-7-2.94-9.15-.83-.9-.55-.52-1.54 0-.5.225-.984.482-1.45.77a4.748 4.748 0 0 0-2.11 3.54z"/><path fill="#F77021" d="M940.88 537.392c1.1 5.82 2.223 11.643 3.37 17.47l16.08-4.22c.13-1.68-.77-3.24-1.39-4.81-1.47-3.68-1.5-7.77-2.69-11.55-.9-2.88-2.46-5.53-3.3-8.43-.49-1.68-.73-3.44-1.21-5.13a39.258 39.258 0 0 0-1.89-4.89 31.147 31.147 0 0 0-3.51-6.51c-2.06.77-4.25 1.66-5.42 3.51a7.46 7.46 0 0 0-1 3.46c-.28 3.62 1 7.25.59 10.83a31.988 31.988 0 0 0 .37 10.27z"/><path fill="#464353" d="M960.6 614.983c.9 3.44-.41 7-1.47 10.42a80.888 80.888 0 0 0-3.28 15.69 13.001 13.001 0 0 1-.81 4 37.257 37.257 0 0 1-1.95 3.2c-1.62 2.86-1.58 6.36-1.23 9.63.23 2.16.58 4.31 1 6.44.53 2.59 1.18 5.31.42 7.84 1.27-.28 2.14 1.36 2.09 2.67-.05 1.31-.51 2.71.11 3.86 1.58.57 1.6 2.74 1.55 4.41.024 2.913.39 5.813 1.09 8.64 2.387 11.46 4.92 22.89 7.6 34.29 5.79 1.8 12.55 3.67 18.07 1.18a3.551 3.551 0 0 0 2.29-2.3 4.143 4.143 0 0 0-.22-1.77l-2.62-9.52a17.526 17.526 0 0 1-.94-7c.26-1.77 1-3.67.16-5.22-.3-.53-.76-1-1.1-1.46-1.38-2-.66-4.69-.54-7.13a5.58 5.58 0 0 0-.12-1.63 8.565 8.565 0 0 0-.77-1.79 27.329 27.329 0 0 1-3-13.6 3.34 3.34 0 0 0-.24-1.78 4.045 4.045 0 0 1-.44-.72 1.932 1.932 0 0 1 .14-1.31 11.394 11.394 0 0 1-2.11-2 3.004 3.004 0 0 0 1.346-2.191 3 3 0 0 0-.846-2.429c.28-.055.539-.187.749-.38a1.546 1.546 0 0 0-.009-2.27c-.34-.24-.78-.34-1-.68-.37-.5-.07-1.21.23-1.75l1.6-2.89c1.19-2.14 1.46-4.79 2.74-6.88a51.596 51.596 0 0 0 4.22-9.63l4.56-12.7 3.1 2.69a9.704 9.704 0 0 1 2.55 2.91c.442 1.114.718 2.286.82 3.48 1.14 6.9 5.49 12.88 7.1 19.69.22 1.541.72 3.03 1.46 4.4.31.397.59.818.84 1.26.23.673.35 1.379.35 2.09a9.733 9.733 0 0 0 4.11 7c1.52 1 3.45 1.77 4.25 3.43.17.513.41 1.003.7 1.46.74.89 2.34 1 2.66 2.11.17.63-.16 1.37.2 1.92.19.251.45.445.75.56l4.47 2.24c5 2.49 7.52 8.2 11.21 12.39a25.778 25.778 0 0 1 3.35 4.44c1.59 2.84 2.33 6.41 5 8.24a7.78 7.78 0 0 1 1.94 1.44c.85 1.11.54 2.67.61 4.07.07 1.4 1.15 3.06 2.48 2.64a9.655 9.655 0 0 0 0 5.17 26.051 26.051 0 0 0 15.8-6.4c1.3-1.14 2.56-2.59 2.57-4.31.01-.299-.05-.596-.19-.86-.26-.34-.6-.603-1-.76-4.17-2.26-5.43-7.5-7.52-11.76-1.85-3.75-4.57-7-6.88-10.48-5-7.5-8.34-16.57-15.85-21.53-1.65-1.09-3.57-2.06-4.39-3.86-.35-1.05-.64-2.118-.88-3.2a2.695 2.695 0 0 0-2.35-2c.47-1.622.66-3.314.54-5a6.252 6.252 0 0 0-.25-2.15c-.28-.747-.65-1.459-1.1-2.12a20.521 20.521 0 0 1-2.83-11c.06-2 .41-4-.19-5.91-.3-1-.82-1.83-1.19-2.76a17.02 17.02 0 0 1-.86-5.15l-.41-6.59a31.742 31.742 0 0 0-.85-6.51c-1.39-5.11-2.72-26.52-7.43-28.93-4.71-2.41-12.75 14.06-18 14.39a23.995 23.995 0 0 0-6.88 1.32c-3.51 1.32-6.46 3.78-9.33 6.19l-9.72 8.16a35.38 35.38 0 0 1-6.03 4.35zM913.97 475.163a12.23 12.23 0 0 1 4.196-3.365 12.223 12.223 0 0 1 5.234-1.235 22.004 22.004 0 0 1 10.42 2.619c.946.537 1.953.956 3 1.25 1.72.35 3.62-.119 5.17.701 2.06 1.09 2.45 3.87 2.27 6.19-.18 2.32-.61 4.86.62 6.85.43.571.827 1.165 1.19 1.78a5.94 5.94 0 0 1-.11 3.81 30.555 30.555 0 0 1-2-2.51c-.72-.79-1.95-1.33-2.83-.74-.88.59-.88 1.68-.92 2.65-.04.97-.3 2.139-1.22 2.459a2.001 2.001 0 0 1-2-.799c-1.57-1.92-.94-5.001-2.49-6.921-.89-1.1-2.36-1.63-3.18-2.78-.64-.9-.8-2.07-1.36-3-.56-.93-1.87-1.69-2.75-1a3.744 3.744 0 0 0-.73 1 4.217 4.217 0 0 1-2.239 1.62 4.212 4.212 0 0 1-2.761-.12 8.787 8.787 0 0 0-2.17-.929 2.673 2.673 0 0 0-2.47 1.34 5.321 5.321 0 0 0-.65 2.86c0 1.35.24 2.83-.54 3.93-.32.404-.713.743-1.16 1-1.15.73-2.72 1.219-3.8.389a2.863 2.863 0 0 1-.85-2.66 21.94 21.94 0 0 1 .81-2.81c.6-2.12-.18-4.509.48-6.509a20.497 20.497 0 0 1 2.84-5.07z"/><path fill="#F77021" d="M922.65 523.492c-.103.5-.051 1.02.15 1.49.205.32.482.587.81.78a16.786 16.786 0 0 0 7.64 2.47c.35.013.692.105 1 .27a1.886 1.886 0 0 1 .45 2.13 5.673 5.673 0 0 0-.48 2.26c.2 1.43 1.89 2.08 3.33 2.26a7.718 7.718 0 0 0 5.79-1.12 8.923 8.923 0 0 0 2.39-3.59c3.93-9 5.31-19 9.29-28 .307-.584.51-1.217.6-1.87a1.86 1.86 0 0 0-.74-1.73c-.74-.46-1.89-.2-2.39-.91-.25-.37-.22-.86-.44-1.24-.46-.82-1.66-.72-2.49-1.16-.64-.35-1.09-1-1.8-1.19a2.31 2.31 0 0 0-1.88.81c-2.33 2.18-3.56 5.27-4.86 8.19a97.33 97.33 0 0 1-7 12.91c.31-.48-1.48-4.13-2.18-4.27-1.22-.25-2.8 1.9-3.46 2.71a17.16 17.16 0 0 0-3.73 8.8z"/><path fill="#fff" d="M1008.86 536.293h-78.03v78.03h78.03v-78.03z"/><path fill="#F77021" d="M970.45 562.493v-10.24h-25.58v46.1h49.95v-35.86h-24.37zm-15.35 30.73h-5.11v-5.12h5.11v5.12zm0-10.24h-5.11v-5.12h5.11v5.12zm0-10.24h-5.11v-5.13h5.11v5.13zm0-10.25h-5.11v-5.13h5.11v5.13zm10.23 30.73h-5.1v-5.12h5.11l-.01 5.12zm0-10.24h-5.1v-5.12h5.11l-.01 5.12zm0-10.24h-5.1v-5.13h5.11l-.01 5.13zm0-10.25h-5.1v-5.13h5.11l-.01 5.13zm24.38 30.73h-19.26v-5.12h5.11v-5.12h-5.11v-5.12h5.11v-5.13h-5.11v-5.12h19.26v25.61zm-4.48-20.48h-5.11v5.13h5.11v-5.13zm0 10.24h-5.11v5.13h5.11v-5.13z"/><path fill="#A1616A" d="M1008.23 579.273a31.56 31.56 0 0 0-3.7 3.88 7.695 7.695 0 0 0-1.7 5c.01.524.17 1.034.48 1.46.16.208.38.361.63.438.25.077.51.074.76-.008.27-.148.5-.357.68-.61.72-.873 1.49-1.708 2.3-2.5.3-.29.68-.6 1.08-.49.18.062.34.169.47.31.47.396.82.92 1 1.51a3.58 3.58 0 0 1-1.06 2.91 7.526 7.526 0 0 0-1.79 2.65c-.11.273-.11.577 0 .85.13.196.32.355.53.46.98.535 2.07.85 3.19.922a7.695 7.695 0 0 0 3.28-.502c1.39-.55 2.59-1.51 4-2 .61-.161 1.2-.382 1.77-.66.4-.266.75-.61 1.02-1.012s.46-.853.55-1.328c.18-.953.21-1.926.11-2.89-.18-3.744-.99-7.43-2.41-10.9a1.268 1.268 0 0 0-.39-.58c-.2-.118-.43-.184-.66-.19-1.75-.18-4.63-1.08-6.32-.43-.59.321-1.1.776-1.49 1.33-.39.35-2.33 1.92-2.33 2.38z"/><path fill="#464353" d="M1007.63 577.722c0-1.68-2.08-5.71 1.21-6 0-1.78-2.53-2.9-2.07-4.78.16-.64.67-1.15.75-1.79.21-1.83-3.09-2.82-2.55-4.58.2-.67.93-1.08 1.09-1.76.37-1.58-2.46-2.29-2.51-3.91 0-.55.3-1.07.28-1.61 0-.69-.6-1.21-.93-1.8-.85-1.53-.44-3.9-2-4.68 1 .08 1.39-1.45.95-2.39-.44-.94-1.3-1.75-1.3-2.79.05-.382.05-.768 0-1.15-.29-1-1.93-1.07-2.2-2.07-.02-.376-.02-.754 0-1.13-.1-.78-.9-1.26-1.65-1.49a6.563 6.563 0 0 1-2.2-.78c-.48-.37-1-1-1.55-.65-.19.11-.29.33-.44.5-.61.71-1.78.4-2.56-.13-2.29-1.55-3.42-4.34-3.92-7.06-.5-2.72-.47-5.53-1.07-8.23a18.774 18.774 0 0 0-.73-2.46 12.767 12.767 0 0 1-1.16-2.46c-.12-1.57 3.14-.5 4.38-.34 1.205.112 2.397.336 3.56.67 1.237.466 2.449.997 3.63 1.59 5 2.19 10.92 2.46 14.9 6.13 1.31 1.21 2.41 2.79 4.1 3.33.78.156 1.55.357 2.3.6 1.89.89 2.18 3.39 3.21 5.2.32.477.61.979.85 1.5.2.621.29 1.269.27 1.92l.14 4.75c.23 8 .47 15.93-.38 23.84-.28 2.6-.67 5.29.09 7.8.2.68.49 1.33.66 2 .16.814.25 1.64.26 2.47l.11 3.07a.99.99 0 0 1-.15.71 1.007 1.007 0 0 1-.83.2c-4.29-.38-8.61-2.8-12.66-1.34"/><path fill="#A1616A" d="M927.89 565.192c-.19.093-.354.23-.48.4a3.41 3.41 0 0 0 0 4.06c.102.119.183.254.24.4.029.234-.013.47-.12.68a2.248 2.248 0 0 0 .31 2.52c.31.26.73.39.93.73.35.58-.14 1.32-.06 2 .1.89 1.15 1.33 2 1.44a2.134 2.134 0 0 0 1.95-.52 1.617 1.617 0 0 0 0-1.77 4.74 4.74 0 0 0-1.32-1.32 1.997 1.997 0 0 0 1.89-1.83 2.84 2.84 0 0 0-1.14-2.49c-.18-.15-.4-.3-.45-.54-.05-.24.19-.57.41-.8 1-1 1.77-3.45-.11-4a4.626 4.626 0 0 0-2 .09c-.48.15-.48.44-.85.64s-.78.1-1.2.31z"/><path fill="#000" d="M947.54 496.123a3.298 3.298 0 0 0-2.54 1.28 7.32 7.32 0 0 0-1.06 3.4 29.806 29.806 0 0 1-4 10.86M951.04 498.862a3.883 3.883 0 0 0-3.32 2 11.098 11.098 0 0 0-.84 3.39 18.416 18.416 0 0 1-3.33 7.11" opacity=".1"/><path fill="#FBBEBE" d="M305.89 562.572c.58 6.32-4.19 12.44-2.8 18.62.3 1.32.87 2.57 1.08 3.9.57 3.67-1.62 7.15-3.71 10.22l-17.94 26.34a17.076 17.076 0 0 1-2.57 3.17c-3.44 3-8.58 2.73-13.09 3.64a22.448 22.448 0 0 0-8.76 3.88.573.573 0 0 0-.12.79 7.554 7.554 0 0 0 6.52 3.06c.47.62 0 1.53-.65 2-1 .67-2.29.84-2.48 2.48a2.679 2.679 0 0 0 .33 1.64 5.067 5.067 0 0 0 3.14 2.18c6.21 1.9 12.93-1.43 17.57-6 4.64-4.57 8-10.27 12.56-14.9 2.53-2.55 5.4-4.75 8-7.23 5.2-4.94 9.23-11 13.13-17a18.862 18.862 0 0 0 2.84-5.78c.48-2.06.26-4.23.82-6.27.72-2.66 2.68-4.79 4.3-7 3.19-4.38 5.31-9.75 4.89-15.15-.42-5.4-3.76-10.74-8.86-12.57a7.927 7.927 0 0 0-5-.31c-2.09.65-3.63 2.38-5.06 4l-3.4 3.94a9.06 9.06 0 0 0-2 3 3.147 3.147 0 0 0 .7 3.35"/><path fill="#000" d="M305.89 562.572c.58 6.32-4.19 12.44-2.8 18.62.3 1.32.87 2.57 1.08 3.9.57 3.67-1.62 7.15-3.71 10.22l-17.94 26.34a17.076 17.076 0 0 1-2.57 3.17c-3.44 3-8.58 2.73-13.09 3.64a22.448 22.448 0 0 0-8.76 3.88.573.573 0 0 0-.12.79 7.554 7.554 0 0 0 6.52 3.06c.47.62 0 1.53-.65 2-1 .67-2.29.84-2.48 2.48a2.679 2.679 0 0 0 .33 1.64 5.067 5.067 0 0 0 3.14 2.18c6.21 1.9 12.93-1.43 17.57-6 4.64-4.57 8-10.27 12.56-14.9 2.53-2.55 5.4-4.75 8-7.23 5.2-4.94 9.23-11 13.13-17a18.862 18.862 0 0 0 2.84-5.78c.48-2.06.26-4.23.82-6.27.72-2.66 2.68-4.79 4.3-7 3.19-4.38 5.31-9.75 4.89-15.15-.42-5.4-3.76-10.74-8.86-12.57a7.927 7.927 0 0 0-5-.31c-2.09.65-3.63 2.38-5.06 4l-3.4 3.94a9.06 9.06 0 0 0-2 3 3.147 3.147 0 0 0 .7 3.35" opacity=".05"/><path fill="#FFA398" d="M169.23 589.423c1 3.16 2 6.32 3.21 9.4a79.514 79.514 0 0 0 8.31 15.16 109.19 109.19 0 0 0 6.87 9c3.06 3.61 6.48 7.24 7.56 11.85.63 2.66.42 5.45.68 8.17.26 2.72 1.15 5.61 3.35 7.24a12.451 12.451 0 0 0 5.52 1.82c1.38.22 3.11.29 3.83-.91.252-.488.382-1.03.38-1.58l.34-4c.07-.86.37-2 1.23-2s1.3 1.11 2 1.62a2.174 2.174 0 0 0 2.477-.293c.221-.197.399-.438.523-.707a4.998 4.998 0 0 0 .08-3.5 16.611 16.611 0 0 0-8.53-10.57 25.648 25.648 0 0 1-4.16-2.17 14.147 14.147 0 0 1-3.27-4.12c-7.56-12.45-15.16-25-20.5-38.51a28.493 28.493 0 0 1-2.11-7.59 49.053 49.053 0 0 1 .33-8 45.79 45.79 0 0 0-1.32-14.28 11.226 11.226 0 0 0-1.37-3.47c-2.19-3.34-7.36-3.83-10.62-1.53a10.942 10.942 0 0 0-4.22 7.72c-.24 2.69 1.32 5.5 2.11 8a7183.21 7183.21 0 0 1 7.3 23.25z"/><path fill="#000" d="M169.23 589.423c1 3.16 2 6.32 3.21 9.4a79.514 79.514 0 0 0 8.31 15.16 109.19 109.19 0 0 0 6.87 9c3.06 3.61 6.48 7.24 7.56 11.85.63 2.66.42 5.45.68 8.17.26 2.72 1.15 5.61 3.35 7.24a12.451 12.451 0 0 0 5.52 1.82c1.38.22 3.11.29 3.83-.91.252-.488.382-1.03.38-1.58l.34-4c.07-.86.37-2 1.23-2s1.3 1.11 2 1.62a2.174 2.174 0 0 0 2.477-.293c.221-.197.399-.438.523-.707a4.998 4.998 0 0 0 .08-3.5 16.611 16.611 0 0 0-8.53-10.57 25.648 25.648 0 0 1-4.16-2.17 14.147 14.147 0 0 1-3.27-4.12c-7.56-12.45-15.16-25-20.5-38.51a28.493 28.493 0 0 1-2.11-7.59 49.053 49.053 0 0 1 .33-8 45.79 45.79 0 0 0-1.32-14.28 11.226 11.226 0 0 0-1.37-3.47c-2.19-3.34-7.36-3.83-10.62-1.53a10.942 10.942 0 0 0-4.22 7.72c-.24 2.69 1.32 5.5 2.11 8a7183.21 7183.21 0 0 1 7.3 23.25z" opacity=".05"/><path fill="#3F3D56" d="M338.87 724.893a17.488 17.488 0 0 1-11.95 4.46c-1.12 0-2.68.21-2.68 1.33.016.334.127.657.32.93a11.002 11.002 0 0 0 6.18 4.84c2.442.581 4.965.74 7.46.47l7.3-.38c1.38-.07 2.77-.14 4.14-.31 1.37-.17 2.86-.45 4.29-.67a57.17 57.17 0 0 1 10.63-.5 3.098 3.098 0 0 0 2.62-.7c.65-.82.27-2 .06-3-.44-2.11 0-4.33-.41-6.46-.7-3.72-3.9-6.58-7.45-7.93-3.28-1.25-9.1-2.68-12.21-.6-3.34 2.21-5.35 5.85-8.3 8.52z"/><path fill="#464353" d="M324.45 630.433c-3 3.95-6 8.51-5.3 13.39.4 2.63 1.87 4.95 2.95 7.39a52.066 52.066 0 0 1 3 10.38c1.11 5.17 2.22 10.35 2.91 15.59a97.364 97.364 0 0 1 .65 17.9c-.09 1.44-.25 3-1.25 4-.4.4-.92.73-1.09 1.27a2.153 2.153 0 0 0 .23 1.5 16.616 16.616 0 0 0 8.9 8.19 34.1 34.1 0 0 0 12.1 2.26 3.392 3.392 0 0 0 1.62-.21 3.12 3.12 0 0 0 1.25-1.43c3-5.7 1.33-12.58 1.38-19 0-5.37 1.3-10.69 1.07-16.06-.19-4.3-1.34-8.5-1.76-12.79-.69-7 .6-14.1 1.89-21.05 1-5.32 2-10.65 3.25-15.92a30.383 30.383 0 0 1 3.44-9.24c1.4-2.21 3.3-4.06 4.9-6.14a27.869 27.869 0 0 0 5.48-20.37c-.1-.72-10.3 2.58-11.18 3a34.666 34.666 0 0 0-10 6.41c-2.36 2.24-4.21 5.24-6.28 7.76a646.66 646.66 0 0 0-8.62 10.72 738.088 738.088 0 0 0-9.54 12.45z"/><path fill="#000" d="M324.45 630.433c-3 3.95-6 8.51-5.3 13.39.4 2.63 1.87 4.95 2.95 7.39a52.066 52.066 0 0 1 3 10.38c1.11 5.17 2.22 10.35 2.91 15.59a97.364 97.364 0 0 1 .65 17.9c-.09 1.44-.25 3-1.25 4-.4.4-.92.73-1.09 1.27a2.153 2.153 0 0 0 .23 1.5 16.616 16.616 0 0 0 8.9 8.19 34.1 34.1 0 0 0 12.1 2.26 3.392 3.392 0 0 0 1.62-.21 3.12 3.12 0 0 0 1.25-1.43c3-5.7 1.33-12.58 1.38-19 0-5.37 1.3-10.69 1.07-16.06-.19-4.3-1.34-8.5-1.76-12.79-.69-7 .6-14.1 1.89-21.05 1-5.32 2-10.65 3.25-15.92a30.383 30.383 0 0 1 3.44-9.24c1.4-2.21 3.3-4.06 4.9-6.14a27.869 27.869 0 0 0 5.48-20.37c-.1-.72-10.3 2.58-11.18 3a34.666 34.666 0 0 0-10 6.41c-2.36 2.24-4.21 5.24-6.28 7.76a646.66 646.66 0 0 0-8.62 10.72 738.088 738.088 0 0 0-9.54 12.45z" opacity=".05"/><path fill="#464353" d="M346.11 600.053c.64 3.06 3.61 5.4 3.69 8.53.07 2.5-1.71 4.6-3 6.75a45.304 45.304 0 0 0-3.06 6.94 105.788 105.788 0 0 1-9 17.87c-1.71 2.72-3.629 5.67-3.229 8.86.268 1.489.792 2.92 1.549 4.23l5.141 10.21a29.269 29.269 0 0 1 2.62 6.45c.45 1.94.49 4 .75 5.92.81 6.26 3.74 12.56 2 18.63-.15.52-.701 1.15-1.111.79 1.7 3.17 3.071 6.37 2.931 10-.06 1.89-.64 3.85.06 5.61.392.658.656 1.384.78 2.14 0 .51-.241 1-.291 1.51-.14 1.44 1.18 2.65 2.56 3.11 1.38.46 2.88.43 4.27.84 2.68.8 4.58 3.1 6.88 4.7a14.45 14.45 0 0 0 7.891 2.57 2 2 0 0 0 1.16-.23 1.893 1.893 0 0 0 .649-1.41 7.849 7.849 0 0 0-.563-3.759 7.852 7.852 0 0 0-2.267-3.051 3.16 3.16 0 0 1-1-1.1 2.672 2.672 0 0 1-.099-1.23 91.21 91.21 0 0 0-.301-16.85 26.052 26.052 0 0 1-.26-5.36 21.92 21.92 0 0 0 .431-4.47 22.774 22.774 0 0 0-1.37-4.27c-.79-2.55-.571-5.29-.651-8a70.127 70.127 0 0 0-2.259-13.69c-.264-1.805-1-3.509-2.131-4.94-1.07-1.12-2.8-2.18-2.39-3.67a4.242 4.242 0 0 1 1-1.46 5.877 5.877 0 0 0 1.077-2.108 5.866 5.866 0 0 0 .153-2.362 2.004 2.004 0 0 0 2.3-1.08 36.003 36.003 0 0 0 18.08-20.56c.177-.647.45-1.264.81-1.83.77-1.08 2.12-1.55 3.31-2.15 3.74-1.88 6.32-5.41 8.69-8.86a20.623 20.623 0 0 0 3.36-6.43c.324-1.525.479-3.081.461-4.64l.209-8a4.594 4.594 0 0 0-.149-1.57 3.998 3.998 0 0 0-.87-1.28 15.528 15.528 0 0 0-8.541-4.6c-2.19-.39-4.429-.32-6.649-.5-4.3-.36-8.551-1.69-12.861-1.38-6.76.5-12.78 5.19-16 11.17-1.18 2.14-2.36 3.94-4.76 4.01z"/><path fill="#514E7F" d="M121.72 722.522c1.476.511 3.045.699 4.6.55.11-1.27 1.82-1.55 3.09-1.49a3.552 3.552 0 0 1 1.82.4c.32.2.56.5.87.71a3.75 3.75 0 0 0 1.8.46l6.62.56c2.95.25 6 .48 8.78-.58a2.87 2.87 0 0 0 1.41-.94c.75-1.07 0-2.61-1-3.39-1-.78-2.37-1.14-3.41-1.94-2.3-1.75-2.61-5-3.83-7.64a22.04 22.04 0 0 0-3.16-4.59 17.595 17.595 0 0 0-3.13-3.2c-2.65-1.92-5.71-1.88-8.82-2.15-2.2-.2-4.27-.33-5.85 1.62-1.95 2.42-1.17 7.3-1.05 10.19.119 3.837.54 7.659 1.26 11.43z"/><path fill="#2F3F5C" d="M121.72 722.522c1.476.511 3.045.699 4.6.55.11-1.27 1.82-1.55 3.09-1.49a3.552 3.552 0 0 1 1.82.4c.32.2.56.5.87.71a3.75 3.75 0 0 0 1.8.46l6.62.56c2.95.25 6 .48 8.78-.58a2.87 2.87 0 0 0 1.41-.94c.75-1.07 0-2.61-1-3.39-1-.78-2.37-1.14-3.41-1.94-2.3-1.75-2.61-5-3.83-7.64a22.04 22.04 0 0 0-3.16-4.59 17.595 17.595 0 0 0-3.13-3.2c-2.65-1.92-5.71-1.88-8.82-2.15-2.2-.2-4.27-.33-5.85 1.62-1.95 2.42-1.17 7.3-1.05 10.19.119 3.837.54 7.659 1.26 11.43z" opacity=".05"/><path fill="#464353" d="M124.4 593.843c-2 .65-2.9 3.17-2.53 5.27.37 2.1 1.63 3.9 2.67 5.75 2.94 5.27 4.22 11.3 6.69 16.8 1.85 4.11 4.35 7.91 6.18 12s3 8.77 1.85 13.14c-.54 2.13-1.58 4.09-2.28 6.17a34.959 34.959 0 0 0-1.34 7 132.662 132.662 0 0 0-.48 24.16c.009.985.217 1.957.61 2.86.41.8 1.13 1.64.78 2.47-.14.33-.44.57-.59.9-.42.92.43 1.88 1.2 2.53a2.068 2.068 0 0 1-1.3 1 3.07 3.07 0 0 1 1.31 3.42c-.69.1-.73 1.15-.29 1.7s1.11.9 1.42 1.52a2.13 2.13 0 0 1-1.17 2.68 5.484 5.484 0 0 1-3.19.24 34.672 34.672 0 0 1-5.34-1.17 4.802 4.802 0 0 1-1.64-.75 4.87 4.87 0 0 1-1.47-3.24 58.525 58.525 0 0 1-.37-10c.29-16.16 0-32.34-.7-48.49-.29-6.5-2.24-12.84-4.76-18.84a96.551 96.551 0 0 0-4.64-9c-3.62-6.66-6.84-14-6-21.55.09-.81.39-1.79 1.19-1.92.315-.035.633.017.92.15a42.552 42.552 0 0 1 4.85 2.68 18.38 18.38 0 0 0 8.42 2.52z"/><path fill="#000" d="M124.4 593.843c-2 .65-2.9 3.17-2.53 5.27.37 2.1 1.63 3.9 2.67 5.75 2.94 5.27 4.22 11.3 6.69 16.8 1.85 4.11 4.35 7.91 6.18 12s3 8.77 1.85 13.14c-.54 2.13-1.58 4.09-2.28 6.17a34.959 34.959 0 0 0-1.34 7 132.662 132.662 0 0 0-.48 24.16c.009.985.217 1.957.61 2.86.41.8 1.13 1.64.78 2.47-.14.33-.44.57-.59.9-.42.92.43 1.88 1.2 2.53a2.068 2.068 0 0 1-1.3 1 3.07 3.07 0 0 1 1.31 3.42c-.69.1-.73 1.15-.29 1.7s1.11.9 1.42 1.52a2.13 2.13 0 0 1-1.17 2.68 5.484 5.484 0 0 1-3.19.24 34.672 34.672 0 0 1-5.34-1.17 4.802 4.802 0 0 1-1.64-.75 4.87 4.87 0 0 1-1.47-3.24 58.525 58.525 0 0 1-.37-10c.29-16.16 0-32.34-.7-48.49-.29-6.5-2.24-12.84-4.76-18.84a96.551 96.551 0 0 0-4.64-9c-3.62-6.66-6.84-14-6-21.55.09-.81.39-1.79 1.19-1.92.315-.035.633.017.92.15a42.552 42.552 0 0 1 4.85 2.68 18.38 18.38 0 0 0 8.42 2.52z" opacity=".05"/><path fill="#464353" d="M97.08 574.193a7.117 7.117 0 0 0-3.52-1.11 7.136 7.136 0 0 0-3.83 1.9 40.12 40.12 0 0 0-3.8 3.34 20.33 20.33 0 0 0-4.54 20.11c1.21 3.59 3.4 6.76 5.56 9.86l4.4 6.32c6.71 9.64 13.43 19.28 20.46 28.69a1.078 1.078 0 0 0 .76 1c.26.07.57.06.73.27a.775.775 0 0 1 .09.43 6.538 6.538 0 0 1-.39 2 .93.93 0 0 0-.08.69c.22.53 1.19.23 1.49.73.21.32 0 .75-.32 1s-.6.59-.55 1c.05.41.72.79.69 1.29 0 .28-.24.49-.41.71a1.81 1.81 0 0 0 .22 2.31c.46 4.6-2 8.95-2.53 13.55-.79 7.23 2.48 14.29 2.88 21.55-.02.816.133 1.627.45 2.38.68 1.25 2.42 2 2.36 3.43a13.157 13.157 0 0 1-.49 1.73c.013.829.1 1.656.26 2.47 0 .83-.7 1.82-1.47 1.5a87.918 87.918 0 0 1 1.54 5.81l15.4 1.27a13.854 13.854 0 0 0-.14-4.16c-.32-1.48-1-2.87-1.34-4.35a5.12 5.12 0 0 1 .61-4.35 1.698 1.698 0 0 1-1.7-1.4c-.14-.791-.14-1.6 0-2.39.41-4-1.28-8-1.23-12 .05-3.18 1.16-6.23 1.73-9.35 1.2-6.68-.05-13.93 2.92-20 1.8-3.68 4.29-7.76 2.27-11.32-1-1.76-2.75-3-3.89-4.62a18.764 18.764 0 0 1-2.09-5c-2.38-7.36-6.21-14.15-9.58-21.12a22.22 22.22 0 0 1-2.06-5.55 28.19 28.19 0 0 1-.25-5.12c-.01-3.075-.2-6.147-.57-9.2a8.605 8.605 0 0 0-1.12-3.81 8.518 8.518 0 0 0-2.4-2.19c-5.05-3.44-11.07-5.43-16.52-8.3z"/><path fill="#2F3F5C" d="M115.53 728.163c1.476.511 3.045.699 4.6.55.12-1.27 1.82-1.55 3.09-1.49a3.549 3.549 0 0 1 1.77.41c.32.2.56.5.88.71a3.68 3.68 0 0 0 1.8.46l6.61.56c2.95.25 6 .48 8.79-.58a2.885 2.885 0 0 0 1.4-.94c.75-1.07 0-2.61-1-3.39-1-.78-2.37-1.14-3.42-1.94-2.29-1.75-2.61-5-3.83-7.64a22.066 22.066 0 0 0-3.16-4.59 17.508 17.508 0 0 0-3.12-3.2c-2.66-1.92-5.71-1.88-8.82-2.15-2.21-.2-4.28-.33-5.85 1.62-2 2.42-1.18 7.3-1.06 10.19a74.286 74.286 0 0 0 1.32 11.42z"/><path fill="#fff" d="M277.06 612.173h-78.03v78.03h78.03v-78.03z"/><path fill="#F77021" d="M261.1 648.573c0 8.9-4.17 14.5-10.76 14.5-3.37 0-5.94-1.8-6.39-4.47h-.48a6.996 6.996 0 0 1-6.93 4.31c-5.86 0-9.77-4.7-9.77-11.69 0-6.71 3.94-11.38 9.69-11.38a6.998 6.998 0 0 1 6.57 3.93h.48v-3.34h4.79v15.55a2.782 2.782 0 0 0 3 3.1c3.32 0 5.44-4 5.44-10.3 0-10-7.5-16.69-18.57-16.69s-18.75 8-18.75 19.28c0 11.55 7.72 18.93 19.74 18.93a36.19 36.19 0 0 0 6.53-.56 1.897 1.897 0 0 1 2.165 1.474 1.905 1.905 0 0 1-1.365 2.236c-2.467.559-4.99.834-7.52.82-14.61 0-24-9-24-23 0-13.68 9.55-23.07 23.46-23.07 13.4-.08 22.67 8.27 22.67 20.37zm-29.15 2.76c0 4.44 2.08 7.13 5.48 7.13 3.58 0 5.84-2.76 5.84-7.13s-2.26-7.07-5.78-7.07c-3.52 0-5.54 2.62-5.54 7.07z"/><path fill="#FFA398" d="M183.77 547.532c8.422 0 15.25-6.828 15.25-15.25s-6.828-15.25-15.25-15.25-15.25 6.828-15.25 15.25 6.828 15.25 15.25 15.25z"/><path fill="#FFA398" d="M169.39 536.802c-2.19 1.89-5.32 2-8.19 2.32a51.18 51.18 0 0 0-17.62 5.1 6.292 6.292 0 0 0-2 1.4 5.777 5.777 0 0 0-1 2.18 14.418 14.418 0 0 0-.58 5.3c.2 1.739.697 3.43 1.47 5a26.839 26.839 0 0 0 9.46 10.78c.691.507 1.471.88 2.3 1.1 2 .42 3.95-.75 5.92-1.27a9.7 9.7 0 0 1 5.47.18c1.66.55 3.41 1.56 5 .89a5.22 5.22 0 0 0 2.28-2.59 87.757 87.757 0 0 0 4.16-9.11 34.46 34.46 0 0 1 1.51-3.54c1.77-3.37 4.83-6 6.35-9.46a2.087 2.087 0 0 0 .14-1.78 2.472 2.472 0 0 0-1.12-.86 26.73 26.73 0 0 1-6.09-4.78c-1-1-2.85-3.56-4.29-3.79-1.58-.21-2.07 1.99-3.17 2.93z"/><path fill="#4B6590" d="M169.75 567.793c-1.77.85-3.85.47-5.77.07-4.94-1-9.93-2.08-14.5-4.22a7.758 7.758 0 0 1-3.56-2.73 8.732 8.732 0 0 1-1-3.42l-.84-5.67c-.29-2 .22-3.82.26-5.82a1.69 1.69 0 0 0-.33-1.27 1.37 1.37 0 0 0-1-.31c-2.29 0-3.67 2.43-5.28 4.06a9.75 9.75 0 0 1-3.24 2.18c-1.47.6-3.28 1-3.87 2.49-.25.61-.22 1.31-.47 1.92-1 2.44-5.4 1.63-6.51 4-.32.68-.3 1.54-.83 2.08s-1.5.52-2.3.66c-3.18.52-4.73 4.2-7.45 5.93-2.29 1.46-5.24 1.43-7.7 2.57a29.445 29.445 0 0 1-4 2c-1.532.267-3.09.344-4.64.23a1.26 1.26 0 0 0-.93.3 1.282 1.282 0 0 0-.15 1 28.066 28.066 0 0 0 17.35 21.73 6.113 6.113 0 0 1 1.48.71c1.39 1 1.63 3.27 3.2 4a3.31 3.31 0 0 0 3.34-.72 29.193 29.193 0 0 0 2.41-2.66 9.596 9.596 0 0 1 5.37-2.82c1.89-.3 4-.08 5.53-1.24a17.004 17.004 0 0 0 1.74-1.86 10.897 10.897 0 0 1 4-2.36 40.01 40.01 0 0 1 12.5-2.64c4-.23 8.15.14 11.94-1.17a6.992 6.992 0 0 0 2.66-1.5 7.999 7.999 0 0 0 1.78-3.09 23.583 23.583 0 0 0 .81-12.43z"/><path fill="#FFA398" d="M150.09 545.322c1.13-.1 2.26 0 3.39 0 1.33 0 2.64-.32 4-.33a9.861 9.861 0 0 1 9.3 7.08c.114.321.135.668.06 1a.706.706 0 0 1-.77.52 16.898 16.898 0 0 0-1.71-3.43 9.709 9.709 0 0 0-5.12-3.56 13.284 13.284 0 0 0-6.3-.23c-.86.16-1.71.39-2.56.63l-4.15 1.12c-.75.2-1.5.41-2.23.68-.56.2-1.53 1-2.08 1-.75 0-.14-.65.19-1.09a5.345 5.345 0 0 1 2.66-1.93 22.363 22.363 0 0 1 5.32-1.46z"/><path fill="#FFA398" d="M160.37 591.133c1 3.16 2 6.32 3.21 9.4a79.528 79.528 0 0 0 8.32 15.16 109.19 109.19 0 0 0 6.87 9c3.06 3.61 6.48 7.24 7.56 11.85.63 2.66.42 5.45.68 8.17.26 2.72 1.15 5.61 3.35 7.24a12.451 12.451 0 0 0 5.52 1.82c1.38.22 3.11.29 3.83-.91.252-.488.382-1.03.38-1.58l.33-4c.08-.86.38-2 1.24-2s1.3 1.11 2 1.62a2.174 2.174 0 0 0 2.477-.293c.221-.197.399-.438.523-.707a5.07 5.07 0 0 0 .08-3.5 16.63 16.63 0 0 0-8.51-10.58 25.648 25.648 0 0 1-4.16-2.17 13.984 13.984 0 0 1-3.27-4.12c-7.57-12.45-15.17-25-20.5-38.51a28.493 28.493 0 0 1-2.11-7.59 49.053 49.053 0 0 1 .33-8 45.788 45.788 0 0 0-1.29-14.3 11.226 11.226 0 0 0-1.37-3.47c-2.19-3.34-7.36-3.83-10.62-1.53a10.93 10.93 0 0 0-4.22 7.72c-.24 2.69 1.32 5.5 2.11 8 2.413 7.767 4.827 15.527 7.24 23.28z"/><path fill="#464353" d="M205.96 521.502c.12-1.27-1-2.42-2.31-3.23a32.321 32.321 0 0 1-3.92-2.4c-1.16-1-1.79-2.31-2.95-3.31a13.005 13.005 0 0 0-4.4-2.19 33.384 33.384 0 0 0-10.52-1.89 18.534 18.534 0 0 0-10.07 2.66 5.99 5.99 0 0 0-1.71 1.59 6.99 6.99 0 0 0-.83 2.53 49.99 49.99 0 0 1-2.63 8c-1.13 2.88-2.34 5.86-5 8.08-2.85 2.38-7.22 3.75-9.1 6.62a2.15 2.15 0 0 0-.41 1.85c.27.72 1.14 1.21 1.93 1.67 4.63 2.66 8.62 6.1 10.68 10.22a11.846 11.846 0 0 1-.94 12.75c-1.07 1.4-2.55 3.06-1.5 4.47 1.59 2.14 7.08.92 8.34 3.18a4.52 4.52 0 0 1 .17 2.34c0 2.37 2.29 4.49 5.07 5.58a28.258 28.258 0 0 0 9.12 1.5 7.882 7.882 0 0 0 .23-5.9 2.366 2.366 0 0 1-.23-1.34 3.215 3.215 0 0 1 1-1.29c3.35-3.16 2.64-7.81.63-11.56-2.01-3.75-5.13-7.19-6.29-11.14-.58-2-.59-4.17 1-5.8a20.208 20.208 0 0 1 2.87-2.1 10.912 10.912 0 0 0 4-5c.93-2.6.79-5.73 3.53-7.45 2.74-1.72 6.29-1.16 9.18-2.27 2.33-.93 4.88-4.32 5.06-6.17z"/><path fill="#FBBEBE" d="M291.47 543.523c9.184 0 16.63-7.445 16.63-16.63 0-9.184-7.446-16.63-16.63-16.63-9.185 0-16.63 7.446-16.63 16.63 0 9.185 7.445 16.63 16.63 16.63z"/><path fill="#FBBEBE" d="M306.44 526.192a21.559 21.559 0 0 0 13.8 9.65l-1.25 4.54c-2.16 7.82-4.6 16.1-10.64 21.52a10.06 10.06 0 0 0-1.69-7.78 29.43 29.43 0 0 0-5.64-5.9l-9.57-8.33a2.613 2.613 0 0 1-.72-.8 2.437 2.437 0 0 1 0-1.82c1.22-3.8 4.7-6.17 7.52-8.73a26.527 26.527 0 0 0 3.79-4.41c1.96-2.7 3.19.03 4.4 2.06z"/><path fill="#4B6590" d="M308.56 547.702a8.995 8.995 0 0 1-.49 3.67 2.58 2.58 0 0 1-3 1.54c.35-.79-.57-1.69-1.43-1.59a2.683 2.683 0 0 0-1.9 1.61 6.002 6.002 0 0 0-.55 3.72c.27 1.58 1.18 3.09.94 4.67-.19 1.31-1.16 2.62-.64 3.85a6.18 6.18 0 0 0 1.24 1.48 4.2 4.2 0 0 1-.45 5.76l13 .25c-.48 2.17.5 4.39 1.61 6.31a39.731 39.731 0 0 0 29.62 19.34 2.595 2.595 0 0 0-1.242 1.823 2.576 2.576 0 0 0 .622 2.117c1.06 1.05 2.84.92 4.16.24a31.675 31.675 0 0 0 3.57-2.67 10.908 10.908 0 0 1 7.32-2c1.63.15 3.2.67 4.83.76 4.8.26 8.93-3.2 13.52-4.61 3.37-1 7.18-1 10-3.14 1.22-.9 2.22-2.38 1.86-3.86a6.295 6.295 0 0 0-1.4-2.26c-1.63-2.11-2.58-4.64-3.75-7a41.795 41.795 0 0 0-9.37-12.54 82.808 82.808 0 0 0-9.28-7.05 15.756 15.756 0 0 0-2.52-1.51 25.718 25.718 0 0 1-3.44-1.4c-1.53-1-2.4-2.65-3.57-4-2.57-3-6.52-4.37-9.69-6.73-2.12-1.58-4-3.66-6.53-4.43-1.23-.37-2.55-.4-3.78-.77-2.8-.85-4.84-3.34-7.59-4.34-2.17-.8-4.57-.59-6.87-.88a16 16 0 0 1-7.06-2.67 8.495 8.495 0 0 0-2.28-1.34c-3.47-1-3.75 5.42-4.08 7.66-.52 3.27-1.38 6.62-1.38 9.99z"/><path fill="#FBBEBE" d="M311.95 569.412c.58 6.31-4.19 12.43-2.8 18.62.3 1.32.86 2.57 1.07 3.9.58 3.67-1.61 7.14-3.7 10.21l-18 26.34a16.013 16.013 0 0 1-2.56 3.17c-3.44 3.05-8.58 2.73-13.09 3.65a22.404 22.404 0 0 0-8.77 3.88.57.57 0 0 0-.11.78 7.513 7.513 0 0 0 6.52 3.06c.47.62 0 1.54-.65 2-1 .67-2.29.85-2.48 2.48-.066.57.046 1.146.32 1.65a5.121 5.121 0 0 0 3.15 2.18c6.21 1.9 12.92-1.44 17.57-6 4.65-4.56 8-10.27 12.56-14.9 2.53-2.56 5.4-4.75 8-7.23 5.19-5 9.23-11 13.13-17a18.914 18.914 0 0 0 2.84-5.79c.48-2.05.26-4.23.82-6.26.72-2.67 2.67-4.8 4.3-7 3.19-4.39 5.31-9.75 4.89-15.16-.42-5.41-3.77-10.73-8.86-12.57a7.926 7.926 0 0 0-5-.3c-2.09.64-3.63 2.37-5.06 4l-3.41 3.94a9.36 9.36 0 0 0-2 3 3.147 3.147 0 0 0 .7 3.35"/><path fill="#3F3D56" d="M321.03 543.483c-2.36.14-5 .37-6.63 2a9.26 9.26 0 0 0-1.66 2.62c-1.62 3.29-3.2 6.74-3.31 10.41-.1 2.93.75 5.8 1.2 8.7.37 2.41-.57 4.87-.75 7.31a49.951 49.951 0 0 0 9.44-3.63 31.522 31.522 0 0 1 5.53-2.87c2.81-.94 7.55.67 10.21 2 .15-1.88-1.26-5.15-1.11-7 .019-.794.16-1.58.42-2.33.397-.793.869-1.547 1.41-2.25a9.209 9.209 0 0 0-.83-10.81c-2.37-2.67-6.09-3.67-9.64-4.09a42.156 42.156 0 0 0-6.74-.23"/><path fill="#464353" d="M269.56 510.172l-.38-3.13c2.63.67 5.12-1.55 6.8-3.86 1.68-2.31 3.23-5 5.78-6 3.11-1.17 6.4.7 9.37 2.24a29.32 29.32 0 0 0 10.75 3.56c.603.026 1.2.123 1.78.29 1.93.69 2.85 3.11 3.13 5.31.28 2.2.2 4.54 1.15 6.5.73 1.48 2 2.59 2.72 4 2 3.93.07 9.31 2.22 13.17l-5.33-4.88c-.49-.45-1.18-.92-1.71-.54s-.46 1-.64 1.47a2.8 2.8 0 0 1-1.6 1.5 2.782 2.782 0 0 1-2.19-.12 10.394 10.394 0 0 1-3.39-3.1 20.721 20.721 0 0 0-8.46-6.41 10.82 10.82 0 0 0-4.533-.707c-1.544.092-3.05.514-4.417 1.237-2.49 1.41-4.31 4.68-7.36 4.79-4.18.16-5.92-7.62-7.85-10.69a3.788 3.788 0 0 0 1.1-4.72c.29-.1 3-.39 3.06.09z"/><path fill="url(#paint0_linear)" d="M718.46 793.503c-.81-3.43-1.3-6.43-1.3-6.43a13.313 13.313 0 0 0-1.49-6.53v-7.84a22.799 22.799 0 0 1 1.74-3.61c1.24-2.16 0-10.1 0-10.1s-4.6-11.19-3.49-18.29c1.11-7.1-9.44-31.53-9.44-31.53a31.171 31.171 0 0 1 1-7c.114-.478.158-.97.13-1.46.005-.06.005-.12 0-.18v.06c-.16-4.68-3.86-13.46-3.86-13.46l.5-16.72s2.36-9.87-1.49-23.11c-1.35-4.62-2.21-8.31-2.76-11.17-.06-.32-.12-.63-.17-.93 7.93-1.21 14-2.22 14-2.22s-4.6-19.25-7.71-22.62c-3.11-3.37-5.59-13.95-5.59-13.95s-1.62-13.6 1-17.57c2.62-3.97 3-10.83 3-10.83s6-4.33 6.71-6.26a31.711 31.711 0 0 0 2-8.54c0-2.29-.75-4.33-.5-5.54s-1.74-5.77-.74-7.94c.257-.667.39-1.375.39-2.09a.122.122 0 0 0 0-.06 29.754 29.754 0 0 0-.53-5.65 16.017 16.017 0 0 0-5.9-3.16l-.13-.51-.34-1.35a4.673 4.673 0 0 0-.59-.35v-2.5l.93-4.4c1.84-7.63-8.36-8.77-8.36-8.77a5.379 5.379 0 0 0-2.89-2.54c-2-.72-.34 11.5.62 12.28.72.58 3 4.42 4 6.3l.18.31c-.17.15-.327.314-.47.49l.39 2.65.06.41a10.894 10.894 0 0 0-1.63 2.77s1.87 2.05 1.49 4.34a13.606 13.606 0 0 0 .62 5.29c-.11-.13-1.42-1.55-2.73-1.2-1.31.35-5 1.44-5 1.44s-2.74.48-2.49 1.08c.25.6-1.86 3.25-1.86 3.25l-7.35-7c-.08-.21-.15-.42-.22-.63a16.794 16.794 0 0 1-.63-3c.798-.191 1.58-.442 2.34-.75a5.07 5.07 0 0 0 2-1.3 7.948 7.948 0 0 0 1.18-3.17c.58-2.14 1.83-4.05 2.73-6.08a19.785 19.785 0 0 0 1.42-10.85 7.223 7.223 0 0 0-1.12-3.2c-1.2-1.65-3.38-2.32-5-3.64-1.62-1.32-2.6-3.32-4.45-4.31a8.769 8.769 0 0 0-5.58-.48 29.814 29.814 0 0 0-10.41 3.78c-1.08.64-2.25 1.37-3.49 1.15a4.709 4.709 0 0 1-2.51-1.84.506.506 0 0 1 0-.11l-.09-.09a13.17 13.17 0 0 0-1.14 5.5v1.18c.005.087.005.173 0 .26a1.712 1.712 0 0 1-.06.39c-.152.378-.384.72-.68 1a4.426 4.426 0 0 0-.6.82c0-.1.06-.2.1-.3a4.339 4.339 0 0 0-.77 2.31 2.3 2.3 0 0 0 .56 1.66c.363.371.762.706 1.19 1a14.056 14.056 0 0 0-.21 2.44 14.223 14.223 0 0 0 6.92 12.13l.25.63a17.485 17.485 0 0 1 1.33 8c0 .2 0 .39-.09.59l-.26.3s-12.14.12-15-2.47c-2.86-2.59-7.21 6.32-7.21 6.32s-4.35.85-5.22 0c-.87-.85-6-.12-6-.12a10.999 10.999 0 0 0-7.58-2.76 22.264 22.264 0 0 0-5.57-3.1l-.14-.05a6.228 6.228 0 0 0-2.74-.34s-6-4.94-7.7-7.58c-1.7-2.64-10-12.47-10.07-12.52v-.47l-.1-1.43c-.245.04-.492.063-.74.07 0-.15-.1-.31-.17-.5a27.022 27.022 0 0 0-1.76-4s0-1.8.53-2.25c.53-.45-.22-7.07-.22-7.07s-5.38-12.57-10.19-3.19c0 0-9.11 6.07-1.47 13.15 0 0 3 1.47 3.48 2.64.29.76 1.32 2.89 2 4.3l.31.63-.09.07.12 1.18v.46c-1.44.81-2.41 1.62-2.18 2.24a13.17 13.17 0 0 1 .87 3.25s10.57 13.23 11.94 18.89c0 0 28.34 16.84 37.66 18.05l-1.61 8.42a66.605 66.605 0 0 0-.37 6.86c.12 1.8-1.12 10-1.12 10s-1.62 12-3 13.71c-1.38 1.71-1.12 8.91-1.12 8.91a60.099 60.099 0 0 1-1.86 10.22c-1.37 4.58-.37 10.23-.37 10.23s-4.73 10.83 6.59 3.49c0 0 5.55-.34 12-.56v3.29c-.08 6.2-.12 14.75.16 21.22.5 11.43 4 34 4 34v11.36a15.907 15.907 0 0 0-.32 3.25 21.06 21.06 0 0 0 3.06 11.38l.87 7.58s2 5 2.08 8a3.972 3.972 0 0 1-.09.72 5.377 5.377 0 0 0-.1 1.16c-.11 3.44 2 11.68 2 11.68s.13 8.3 1.37 8.78c1.06.41-1.42 4.79-2.16 6a1.966 1.966 0 0 1-.05-.24c-.09.16-.15.25-.15.25a5.844 5.844 0 0 0-.39 2.1 3.002 3.002 0 0 0 1.38 2.92c2.36 1.45 3.63 2.65 1.63 3.13-.738.112-1.469.266-2.19.46 0-.09-.08-.19-.11-.28a1.338 1.338 0 0 0-.78 1.39c.022.983.279 1.947.75 2.81a30.012 30.012 0 0 0 3.36 6.14l1-.11a4.675 4.675 0 0 1-.56 1 3.867 3.867 0 0 1-1.4 1.24c-.521.31-1.099.51-1.7.59a4.738 4.738 0 0 0-3.52 1.71c-1.24 1.6-2 3.79.43 5.71l8.89 3.06s15.29 2 14.48-1.44c-.81-3.44-1.3-6.43-1.3-6.43a13.579 13.579 0 0 0-1.25-6.09 5.992 5.992 0 0 0-.54-.9l.54-.06s1.12-7.58 2.61-9c.35-.33.43-.59.34-.79.16-.41-.23-.65-.73-.79l-.11.3a7.517 7.517 0 0 0-1.48-.16s-.5-4 1.11-5.42a1.524 1.524 0 0 0 .32-1.18 6.84 6.84 0 0 0-.17-1.62l-.06.1a57.757 57.757 0 0 0-3.57-9.33s-.12-3.61.87-5.06c.99-1.45-.12-19.61-.12-19.61s.37-8.78-.75-12.87 1.37-8.91 1.37-8.91v-.32s-.06-.54-.15-1.39v.09c-.25-2.33-.72-6.54-1.07-8.48-.5-2.77.12-16 .12-16l2.24-5.65 4 9.74 4.22 13a11.05 11.05 0 0 1 2.15 5.52v.41c-.019.29-.019.58 0 .87a7.76 7.76 0 0 0 1.29 4.63s1.12 6.14 2.86 7.7c1.74 1.56 1.74 4.57 1.74 4.57s2.11 8.91 3.11 10.47c.84 1.32.88 4.94.87 6v.33s.29 3.18.28 5.86v1-.07a9.296 9.296 0 0 1-.26 2.16v-.32a22.22 22.22 0 0 0-.64 5.55c-.06 3.2.43 7 2.37 9.21 3.36 3.85 5.47 3.37 5.47 3.37s-1.62 4.81-3.61 5.78c-.074.036-.145.08-.21.13 0-.09 0-.19-.05-.28a2.356 2.356 0 0 0-.58 1.8 12.88 12.88 0 0 0 2.46 7.13 3.943 3.943 0 0 0 1.68 1l-.31.19a6.816 6.816 0 0 1-.69.33 3.266 3.266 0 0 1-1 .26 4.738 4.738 0 0 0-3.52 1.71c-1.24 1.6-2 3.79.43 5.71l8.89 3.06s15.1 2.04 14.33-1.44z"/><path fill="#2D293D" d="M660.06 799.182l-8.61-3.06c-2.37-1.92-1.61-4.11-.41-5.71a4.525 4.525 0 0 1 3.4-1.71 4.222 4.222 0 0 0 1.65-.59 3.899 3.899 0 0 0 1.36-1.24 6.326 6.326 0 0 0 1-3.33s9.45-2.76 12 0c.462.501.85 1.067 1.15 1.68a13.993 13.993 0 0 1 1.2 6.09s.48 3 1.26 6.43c.78 3.43-14 1.44-14 1.44zM702.17 794.982l-8.6-3.06c-2.38-1.92-1.62-4.11-.42-5.7a4.517 4.517 0 0 1 3.41-1.72c.345-.03.683-.118 1-.26a5.08 5.08 0 0 0 .66-.33c2.41-1.32 2.35-4.57 2.35-4.57s9.44-2.77 12 0c.346.374.648.787.9 1.23a13.742 13.742 0 0 1 1.45 6.54s.48 3 1.26 6.43c.78 3.43-14.01 1.44-14.01 1.44z"/><path fill="#000" d="M670.46 783.543c.462.501.85 1.067 1.15 1.68l-14.16 1.64a6.326 6.326 0 0 0 1-3.33s9.43-2.75 12.01.01zM713.48 780.533v2.65c-2.2 3.63-12.85 2.84-15.94 1a5.08 5.08 0 0 0 .66-.33c2.41-1.32 2.35-4.57 2.35-4.57s9.44-2.77 12 0c.358.379.67.798.93 1.25z" opacity=".1"/><path fill="#464353" d="M715.17 769.103a23.672 23.672 0 0 0-1.69 3.61v9.51c-2.4 4-14.92 2.65-16.6.48-1.68-2.17-3.49-7.82-1.57-8.78 1.92-.96 3.49-5.78 3.49-5.78s-2 .48-5.29-3.37-2.28-12.39-1.68-14.44c.6-2.05 0-8.9 0-8.9s.12-4.81-.84-6.38c-.96-1.57-3-10.47-3-10.47s0-3-1.68-4.57c-1.68-1.57-2.77-7.7-2.77-7.7a7.89 7.89 0 0 1-1.2-5.17c.36-3-2.05-6.26-2.05-6.26l-4.09-13-3.85-9.75-2.16 5.65s-.61 13.24-.12 16 1.2 10.1 1.2 10.1-2.41 4.82-1.32 8.91.72 12.87.72 12.87 1.08 18.17.12 19.62c-.96 1.45-.84 5-.84 5s4.93 10.59 3.36 12c-1.57 1.41-1.08 5.42-1.08 5.42s3.37 0 1.93 1.44c-1.44 1.44-2.53 9-2.53 9l-14.57 1.84a30.772 30.772 0 0 1-3.26-6.14c-1.92-4.45.36-4 2.3-4.45 1.94-.45.71-1.68-1.58-3.13s-1-4.69-1-4.69 3.49-5.9 2.29-6.38c-1.2-.48-1.33-8.78-1.33-8.78s-2.4-9.87-1.8-12.51c.6-2.64-1.93-9-1.93-9l-.84-7.58a20.844 20.844 0 0 1-2.6-14.34v-11.71s-3.37-22.62-3.86-34c-.3-7.32-.22-17.31-.12-23.55.06-3.49.12-5.81.12-5.81l52-5.41c.083 2.597.401 5.181.95 7.72.53 2.85 1.36 6.55 2.66 11.17 3.73 13.23 1.45 23.1 1.45 23.1l-.48 16.72s4.57 11.19 3.61 15a31.77 31.77 0 0 0-1 7s10.23 24.43 9.15 31.53c-1.08 7.1 3.38 18.24 3.38 18.24s1.2 8 0 10.12z"/><path fill="#000" d="M685.45 706.422l15.78-2.11s-8.92 9.14-15.78 2.11z" opacity=".05"/><path fill="#000" d="M698.98 688.853s.55 5.59-2.88 7.7c0 0 6.13-.96 2.88-7.7zM698.01 671.043s-13.22 10.89-18 10c-4.78-.89 18-10 18-10zM665.83 711.532s-10 2.29-10.34 6.32c-.34 4.03 10.34-6.32 10.34-6.32z" opacity=".1"/><path fill="#000" d="M668.04 761.702s-14.19 2.65-10.16 4.46a68.838 68.838 0 0 0 10.65 3.24s4.57.24-.49-7.7z" opacity=".05"/><g fill="#000" opacity=".05"><path d="M655.01 768.983a2.812 2.812 0 0 1-1.3-2.06l-.14.26s-1.33 3.24 1 4.69c.26.16.51.33.74.49.42-.08.88-.14 1.31-.25 1.9-.44.68-1.65-1.61-3.13zM673.301 768.063c.39-.36.37-1.29.14-2.48a6.716 6.716 0 0 0-.81 3.49c.143-.384.372-.729.67-1.01zM671.11 708.203a16.56 16.56 0 0 0-1 4.42 17.417 17.417 0 0 1 1.1-3s.02-.58-.1-1.42zM703.62 701.883c.094-.433.138-.876.13-1.321-.18.9-.3 1.741-.39 2.471.08-.38.16-.76.26-1.15zM670.77 750.982a7.554 7.554 0 0 0 .36-2.67 8.81 8.81 0 0 0-.69 3.37c.082-.246.192-.481.33-.7zM673.751 773.663a48.138 48.138 0 0 0-1.65 7.39l-14.55 1.69a30.109 30.109 0 0 1-3.26-6.14c-.155-.346-.292-.7-.41-1.06-.87.4-1.22 1.3-.07 4a29.786 29.786 0 0 0 3.26 6.13l14.54-1.69s1.09-7.58 2.53-9c.71-.77.26-1.13-.39-1.32zM654.53 752.053s.12 8.31 1.32 8.79c.61-1.37 1-2.67.47-2.89-1.2-.48-1.32-8.78-1.32-8.78s-2.41-9.87-1.8-12.52c.61-2.65-1.93-9-1.93-9l-.84-7.58a20.88 20.88 0 0 1-2.65-14.32v-11.69s-3.37-22.62-3.85-34.05c-.31-7.32-.22-17.31-.12-23.55v-3h-.41s-.06 2.31-.12 5.81c-.1 6.23-.19 16.23.12 23.55.48 11.43 3.85 34.05 3.85 34.05v11.67a20.812 20.812 0 0 0 2.71 14.44l.84 7.58s2.53 6.37 1.92 9c-.61 2.63 1.81 12.49 1.81 12.49zM697.36 779.492a14 14 0 0 1-2.3-5.72c-1.49 1.34.221 6.55 1.821 8.61 1.6 2.06 14.199 3.49 16.609-.49v-2.29c-3.26 3.23-14.53 1.94-16.13-.11zM715.651 765.893a24.002 24.002 0 0 0-1.68 3.61v1.69c.27-.62.66-1.44 1.2-2.41a7.285 7.285 0 0 0 .53-3l-.05.11zM698.1 767.793c.46-.926.857-1.881 1.19-2.86 0 0-2 .48-5.3-3.37-2.36-2.8-2.49-8.09-2.16-11.55-.6 2.05-1.57 10.59 1.68 14.44 2.13 2.53 3.72 3.18 4.59 3.34zM691.83 741.112c.208 2.371.288 4.751.24 7.13.08-.47.17-.85.24-1.12.61-2 0-8.9 0-8.9s.12-4.82-.84-6.38c-.96-1.56-3-10.47-3-10.47s0-3-1.68-4.57c-1.68-1.57-2.77-7.7-2.77-7.7a7.888 7.888 0 0 1-1.21-5.17c.37-3-2-6.26-2-6.26l-4.09-13-3.9-9.69-2.17 5.65s0 .71-.07 1.83l1.76-4.59 3.85 9.74 4.09 13s2.4 3.25 2 6.25a7.909 7.909 0 0 0 1.25 5.12s1.08 6.13 2.76 7.7c1.68 1.57 1.69 4.57 1.69 4.57s2 8.9 3 10.47c1 1.57.85 6.39.85 6.39z" opacity=".05"/></g><path fill="#FFCDD3" d="M701.93 519.733l-.9 4.4.05 2v1.44l-5 .52-.56-1c-1-1.88-3.2-5.71-3.9-6.3-.93-.78-2.58-13-.6-12.27a5.24 5.24 0 0 1 2.8 2.53s9.89 1.04 8.11 8.68z"/><path fill="#000" d="M701.12 527.523l-5 .52-.56-1a4.421 4.421 0 0 1 5.54-.91l.02 1.39z" opacity=".1"/><path fill="#DCE6F2" d="M702.38 529.903l-6.61 1.54-.14-1-.38-2.65a4.551 4.551 0 0 1 6.41-.88l.33 1.35.39 1.64z"/><path fill="#FFCDD3" d="M595.14 520.212l-7.06 3.8-.64-1.34c-.68-1.41-1.68-3.53-2-4.29-.42-1.17-3.37-2.65-3.37-2.65-7.4-7.07 1.41-13.14 1.41-13.14 4.67-9.39 9.87 3.18 9.87 3.18s.72 6.63.21 7.07c-.51.44-.51 2.26-.51 2.26a27.432 27.432 0 0 1 1.71 4c.27.7.38 1.11.38 1.11z"/><path fill="#000" d="M595.14 520.213l-7.06 3.8-.64-1.34c1-.83 4.53-3.7 5.69-3.57a8.274 8.274 0 0 0 1.68 0c.22.7.33 1.11.33 1.11z" opacity=".1"/><path fill="#DCE6F2" d="M595.86 522.352l-7.94 3.91-.16-1.71-.11-1.17s4.6-3.95 6-3.8c.69.098 1.39.098 2.08 0l.09 1.43.04 1.34z"/><path fill="#FFCDD3" d="M682.68 548.913s-34.63 3.91-28.16 1.81c4.51-1.47 6.3-4.33 6.68-7.51a18.294 18.294 0 0 0-1.29-8 34.76 34.76 0 0 0-3.1-6.26s26.47-14.56 21.18-1.32a20.732 20.732 0 0 0-1.5 6.27 17.666 17.666 0 0 0 .67 6.34 18.91 18.91 0 0 0 5.52 8.67z"/><path fill="#000" d="M677.99 527.622a20.791 20.791 0 0 0-1.5 6.27c-2.5 2.09-5.23 2-8.74 2-2.7 0-5.69.66-7.84-.64a34.793 34.793 0 0 0-3.1-6.26s26.47-14.61 21.18-1.37z" opacity=".1"/><path fill="#FFCDD3" d="M667.28 536.773c7.909 0 14.32-6.411 14.32-14.32 0-7.909-6.411-14.32-14.32-14.32-7.909 0-14.32 6.411-14.32 14.32 0 7.909 6.411 14.32 14.32 14.32z"/><path fill="#000" d="M682.68 548.913s-34.63 3.91-28.16 1.81c4.51-1.47 6.3-4.33 6.68-7.51 1.72-1.87 5.18-3.22 7.41-3.93a10.333 10.333 0 0 1 6.27-.1 8.376 8.376 0 0 1 2.28 1 18.901 18.901 0 0 0 5.52 8.73zM702.38 529.903l-6.61 1.54-.14-1a5.838 5.838 0 0 1 6.36-2.18l.39 1.64zM595.86 522.353l-7.94 3.91-.16-1.71a58.404 58.404 0 0 1 8-3.54l.1 1.34zM696.38 636.172c-13.41 2.11-32.5 4.87-35.53 3.95-2.51-.77-10.53-.69-17.52-.45.06-3.49.12-5.81.12-5.81l52-5.41a43.12 43.12 0 0 0 .93 7.72z" opacity=".1"/><path fill="#3F3D56" d="M709.75 632.983s-44.16 7.58-48.9 6.13c-4.74-1.45-29.07.13-29.07.13-10.95 7.33-6.37-3.49-6.37-3.49s-1-5.66.36-10.23a62.68 62.68 0 0 0 1.8-10.23s-.24-7.22 1.08-8.9c1.32-1.68 2.89-13.72 2.89-13.72s1.21-8.18 1.09-10c-.12-1.82.36-6.85.36-6.85l1.56-8.43c-9-1.2-36.46-18.05-36.46-18.05-1.32-5.65-11.55-18.89-11.55-18.89a13.927 13.927 0 0 0-.84-3.25c-.72-1.92 10.11-5.77 10.11-5.77s8.06 9.87 9.74 12.51c1.68 2.64 7.46 7.58 7.46 7.58.898-.09 1.806.03 2.65.35h.14a21.316 21.316 0 0 1 5.38 3.09 10.432 10.432 0 0 1 7.34 2.77s4.94-.72 5.78.12c.84.84 5 0 5 0s4.22-8.9 7-6.32c2.78 2.58 14.51 2.47 14.51 2.47 1.57-2.08 5.37-3.57 7.76-4.34a10.333 10.333 0 0 1 6.27-.1 7.758 7.758 0 0 1 2.48 1.2l7.12 7s2-2.65 1.81-3.25c-.19-.6 2.41-1.08 2.41-1.08s3.49-1.08 4.81-1.45c1.32-.37 2.54 1.08 2.64 1.2a14.097 14.097 0 0 1-.6-5.29 6.001 6.001 0 0 0-1.44-4.33c4.25-10.28 13.76-1.58 13.76-1.58s1.08 5.65.12 7.82c-.96 2.17 1 6.74.72 7.94-.28 1.2.48 3.25.48 5.53a32.922 32.922 0 0 1-1.92 8.55c-.73 1.92-6.5 6.25-6.5 6.25s-.36 6.86-2.89 10.83c-2.53 3.97-1 17.57-1 17.57s2.4 10.59 5.41 14c3.01 3.41 7.5 22.51 7.5 22.51z"/><path fill="#000" d="M645.38 553.853s-1.32-4-2.53-4.34a28.37 28.37 0 0 1-3.49-1.56l.78-1.48s4.52 1.24 5.24 2.56c.72 1.32 0 4.82 0 4.82zM621.23 545.063c-.24 1.21-10.94 2.29-10.94 2.29l5.41-5.43.14.05a21.358 21.358 0 0 1 5.39 3.09z" opacity=".1"/><path fill="#575988" d="M590.21 529.513a.96.96 0 1 0 0-1.92.96.96 0 0 0 0 1.92zM591.44 531.442a.961.961 0 1 0 0-1.922.961.961 0 0 0 0 1.922zM592.65 533.213a.96.96 0 1 0 0-1.92.96.96 0 0 0 0 1.92zM593.91 535.143a.96.96 0 1 0 0-1.92.96.96 0 0 0 0 1.92zM707.33 534.853a.78.78 0 1 0 0-1.56.78.78 0 0 0 0 1.56zM707.45 536.632a.78.78 0 1 0 0-1.56.78.78 0 0 0 0 1.56zM707.549 538.403a.78.78 0 1 0 0-1.561.78.78 0 0 0 0 1.561z"/><path fill="#000" d="M645.44 586.453c-.11-.14 27 34.11 48.07 14.32 0 0-33.28 4.51-48.07-14.32zM629.86 604.263s16.23.44 17.93 5.11v4.86a3.113 3.113 0 0 1-3 0c-1.64-.88-11.45-5.87-14.91-3.47l-.02-6.5z" opacity=".1"/><path fill="#3F3D56" d="M630.16 604.263s15.52.42 17.15 4.87v4.64a3.005 3.005 0 0 1-2.89 0c-1.57-.85-11-5.6-14.26-3.31v-6.2z"/><path fill="#000" d="M638.72 568.982a52.286 52.286 0 0 0 6.29 10.79 42.143 42.143 0 0 0 9.86 9.52s-15.88-18.04-16.15-20.31zM633.41 550.162s2.71 11.69 9.68 15.66l-9.68-15.66zM629.23 551.343c-.07-.22-2.41 9.24 9 14.48 0 0-4.82-1.64-9-14.48zM700.13 543.503c-.18 0 5.62 3.7 7.2 5.41 0 0-3.77-5.65-7.2-5.41z" opacity=".1"/><path fill="#2D293D" d="M663.41 535.422a3.05 3.05 0 0 0 1.11 1.94c.422.199.883.302 1.35.3 4.37.27 8.91.46 13-1.22a4.846 4.846 0 0 0 2-1.31 7.79 7.79 0 0 0 1.06-3.15c.57-2.14 1.78-4 2.65-6.08a20.437 20.437 0 0 0 1.41-10.92 7.312 7.312 0 0 0-1.09-3.2c-1.16-1.65-3.27-2.32-4.8-3.64-1.53-1.32-2.52-3.33-4.3-4.32a8.365 8.365 0 0 0-5.4-.48 28.527 28.527 0 0 0-10.08 3.79c-1 .64-2.18 1.37-3.37 1.15a4.63 4.63 0 0 1-2.48-1.9 13.332 13.332 0 0 0-1.07 6.23c.049.311.049.629 0 .94a3.007 3.007 0 0 1-.67 1c-1.08 1.25-1.75 3.23-.69 4.49.47.55 1.18.85 1.63 1.41.81 1 .53 2.45.51 3.74a2 2 0 0 0 .32 1.27 1.86 1.86 0 0 0 1.77.42 4.84 4.84 0 0 1 1.88-.18c.672.225 1.25.668 1.64 1.26 1.98 2.56 2.77 5.37 3.62 8.46z"/><g fill="#000" opacity=".1"><path d="M681.23 534.033a4.728 4.728 0 0 1-2 1.3c-4 1.69-8.58 1.49-12.94 1.22a2.938 2.938 0 0 1-1.35-.3 2.997 2.997 0 0 1-1.12-1.93c-.85-3.09-1.63-5.91-3.65-8.47a3.118 3.118 0 0 0-1.64-1.26 4.84 4.84 0 0 0-1.88.18 1.86 1.86 0 0 1-1.77-.42 1.94 1.94 0 0 1-.31-1.27c0-1.29.29-2.74-.52-3.74-.45-.56-1.16-.86-1.63-1.41a2.815 2.815 0 0 1-.27-2.88c-.77 1.22-1.1 2.78-.21 3.84.47.55 1.18.85 1.63 1.41.81 1 .53 2.45.51 3.74a2 2 0 0 0 .32 1.27c.234.216.52.369.83.443.31.073.634.065.94-.023a4.84 4.84 0 0 1 1.88-.18c.672.225 1.25.668 1.64 1.26 2 2.57 2.8 5.38 3.65 8.47a3.05 3.05 0 0 0 1.11 1.94c.422.199.883.302 1.35.3 4.37.27 8.91.46 13-1.22a4.905 4.905 0 0 0 2-1.31 3.82 3.82 0 0 0 .62-1.16c-.06.07-.1.15-.19.2zM653.41 513.172a2 2 0 0 0 .44-.73 3.024 3.024 0 0 0 0-.94 13.202 13.202 0 0 1 .67-5.18l-.08-.09a13.2 13.2 0 0 0-1.07 6.23c.033.235.047.473.04.71z" opacity=".1"/></g><path fill="#000" d="M660.85 544.102s17.89 2.37 19.5-.32l-19.5.32zM695.63 536.702s9.93 0 12.12 3.74l-12.12-3.74z" opacity=".1"/><defs><filter id="filter0_f" width="50.727" height="78.6" x="761.453" y="579.522" color-interpolation-filters="sRGB" filterUnits="userSpaceOnUse"><feGaussianBlur stdDeviation="2"/></filter><linearGradient id="paint0_linear" x1="647.69" x2="647.69" y1="799.763" y2="499.103" gradientUnits="userSpaceOnUse"><stop stop-color="gray" stop-opacity=".25"/><stop offset=".54" stop-color="gray" stop-opacity=".12"/><stop offset="1" stop-color="gray" stop-opacity=".1"/></linearGradient></defs></svg>