<svg xmlns="http://www.w3.org/2000/svg" fill="none" viewBox="0 0 500 500"><path fill="#C1EEE6" d="M91.38 276.86c-5.55-2.55-13.37-1.06-16.81-6.12-1.6-2.34-1.61-5.37-2.43-8.08a14.205 14.205 0 0 0-13.32-9.83c-5.92 0-12.94 4.48-14.57 10.17-2.61 6.19-1.55 15 1.6 20.91a42.089 42.089 0 0 0 13.6 14.67c5.91 4.07 12.82 7.07 20 7 7.18-.07 14.55-3.83 17.67-10.28 3.12-6.45.78-15.44-5.74-18.44zM414.87 275.5c-1.27-4.09 1.07-8.46 4-11.56 2.93-3.1 6.6-5.59 8.94-9.17 4.78-7.3 2.87-17.09-.66-25.06-2.75-6.22-6.44-13.26-3.52-19.41 3.2-6.75 12.81-7.87 19.64-4.85 10.44 4.62 16.71 16.4 16.42 27.81-.29 11.41-5.07 24.47-13.58 32.07-8.51 7.6-26.35 18.8-31.26 10.17M294 402.869c-3.94-5.68-1.19-14.74 5.24-17.27 4.65-1.83 10-.51 14.75-2.15 4.53-1.58 7.68-5.58 11.09-9a18.174 18.174 0 0 1 12.71-5.34c5.13 0 10.24 3.33 10.8 8.1.83 7.13-.64 11.89-4.68 15.93-3.07 3.06-8.88 5.87-12.69 7.92-5.8 3.13-14 5-20.46 6-6.46 1-11.86.13-16.76-4.28"/><path fill="#C1EEE6" stroke="#EBEBEB" stroke-miterlimit="10" d="M55.6 225.13c7.08 0 12.82-5.739 12.82-12.82 0-7.08-5.74-12.82-12.82-12.82s-12.82 5.74-12.82 12.82c0 7.081 5.74 12.82 12.82 12.82z"/><path fill="#C1EEE6" d="M286.18 107.22c15.15 1.67 36 2.76 49.4-4.55 13.4-7.31 21.82-24.62 15.64-38.55A25 25 0 0 0 313.77 54c-6.29 4.53-10.399 11.92-17.379 15.31-4.7 2.28-10.111 2.44-15.331 2.75-5.22.31-10.69.87-15 3.78-4.31 2.91-6.999 8.93-4.609 13.56-.03-.03 2.829 15.41 24.729 17.82z"/><path fill="#F77021" d="M203.71 80.3c-37.07 2.69-77.55 7.6-107.23 19l9.38 63.431s57.52-20.59 104.33-19.16l-6.48-63.27z"/><path fill="#fff" d="M203.71 80.3c-37.07 2.69-77.55 7.6-107.23 19l9.38 63.431s57.52-20.59 104.33-19.16l-6.48-63.27z" opacity=".8"/><path fill="#F77021" d="M201 135.2l-.36.06-1.05.15-4 .5c-1.76.21-3.91.47-6.4.83s-5.33.72-8.45 1.24c-12.51 1.93-29.73 5.12-48.43 10-6.5 1.68-12.77 3.41-18.5 5.21l-.29.08v-.29c-2-14.54-3.94-27.08-5.43-36-.76-4.42-1.37-8-1.79-10.41-.21-1.19-.37-2.12-.49-2.78 0-.3-.08-.54-.11-.72a.806.806 0 0 1 0-.25.97.97 0 0 1 .07.24c0 .18.09.42.16.71.13.66.32 1.58.57 2.77.48 2.41 1.15 5.94 1.93 10.38 1.58 8.88 3.58 21.42 5.62 36l-.33-.2c5.75-1.82 12-3.56 18.53-5.24a472.575 472.575 0 0 1 48.5-9.82c3.13-.49 6-.82 8.47-1.15 2.47-.33 4.65-.57 6.41-.75l4.06-.41 1.06-.09c.082-.027.165-.047.25-.06z"/><path fill="#F77021" d="M202.301 119.78s-.14-.44-.43-1.27a13.352 13.352 0 0 0-1.91-3.27 16.639 16.639 0 0 0-4.5-3.95c-.48-.32-1.05-.56-1.6-.85a14.346 14.346 0 0 0-1.81-.65 9.909 9.909 0 0 0-4.13-.4 8.606 8.606 0 0 0-4.2 1.65 14.228 14.228 0 0 0-3.36 3.65c-2 2.89-3.21 6.41-4.71 10.06a12.492 12.492 0 0 1-3.49 5 6.54 6.54 0 0 1-2.89 1.39 5.869 5.869 0 0 1-3.26-.38c-4.22-1.67-6.1-6.54-10.37-8a8.371 8.371 0 0 0-6.33.52 8.099 8.099 0 0 0-2.51 1.94 12.984 12.984 0 0 0-1.67 2.68c-.95 1.88-1.67 4-3.28 5.45a4.882 4.882 0 0 1-2.88 1.29 5.741 5.741 0 0 1-3-.64 10.86 10.86 0 0 1-4.14-4.07 35.882 35.882 0 0 1-2.19-5 23.578 23.578 0 0 0-2.17-4.51 9.012 9.012 0 0 0-3.31-3.08 8.609 8.609 0 0 0-7.6-.22 12.85 12.85 0 0 0-4.83 3.48 9.38 9.38 0 0 0-1.81 3.31c-.26.83-.29 1.3-.33 1.29.024-.447.101-.89.23-1.32a8.998 8.998 0 0 1 1.75-3.41 13.005 13.005 0 0 1 4.87-3.62 8.882 8.882 0 0 1 7.89.17 9.34 9.34 0 0 1 3.48 3.18 23.798 23.798 0 0 1 2.23 4.58 36.103 36.103 0 0 0 2.19 4.91 10.321 10.321 0 0 0 4 3.88 5.272 5.272 0 0 0 2.75.59 4.445 4.445 0 0 0 2.59-1.18c1.48-1.35 2.2-3.39 3.15-5.3a13.452 13.452 0 0 1 1.74-2.8 8.594 8.594 0 0 1 2.67-2.06 8.873 8.873 0 0 1 6.73-.55c2.27.75 3.9 2.5 5.41 4.08a15.12 15.12 0 0 0 5 4 5.361 5.361 0 0 0 3 .35 6.135 6.135 0 0 0 2.67-1.28 12.173 12.173 0 0 0 3.36-4.8c1.49-3.61 2.8-7.18 4.8-10.11a14.183 14.183 0 0 1 3.48-3.74 9.079 9.079 0 0 1 4.39-1.69c1.436-.15 2.887.003 4.26.45.632.188 1.25.418 1.85.69a17.243 17.243 0 0 1 6.13 5 12.842 12.842 0 0 1 1.85 3.37c.105.329.192.662.26 1a2.397 2.397 0 0 1-.02.19zM104.05 111.45c0 .14-.46.35-1.08.47-.62.12-1.15.1-1.17 0-.02-.1.45-.35 1.07-.47.62-.12 1.13-.14 1.18 0zM105.691 123c.06.14-.3.43-.81.67-.51.24-1 .32-1 .19s.31-.42.82-.66c.51-.24.93-.3.99-.2zM107.74 135.69c0 .14-.33.39-.84.57-.51.18-1 .21-1 .08s.33-.39.84-.57c.51-.18.95-.21 1-.08zM110.2 148.131c0 .14-.39.4-1 .57-.61.17-1.06.22-1.1.08-.04-.14.38-.39.94-.57.56-.18 1.11-.21 1.16-.08zM180.11 88.36a5.198 5.198 0 0 1 1.21-.28c.8-.13 2-.31 3.45-.52 3-.42 7.21-1 12.26-1.59h.24v.24c.39 4.26.85 9.16 1.33 14.361v.47h-.25l-16.57 2h-.23v-.22c-.46-4.35-.85-8-1.13-10.59-.12-1.22-.21-2.19-.29-2.93a8.356 8.356 0 0 1-.06-1c.081.35.141.703.18 1.06.11.74.24 1.73.41 3 .33 2.58.78 6.16 1.33 10.46l-.25-.2 16.57-2.11-.23.28v-.21c-.46-5.2-.89-10.11-1.27-14.37l.26.21-16.96 1.94z"/><path fill="#F77021" d="M195.51 90.88c0 .16-2.85.15-6.33.53s-6.27 1-6.31.81a30.758 30.758 0 0 1 12.64-1.34zM195.69 94.6c0 .15-2.66.25-5.91.57-3.25.32-5.89.72-5.92.57a23.191 23.191 0 0 1 5.87-1.09 22.825 22.825 0 0 1 5.96-.05zM191.72 97.84a10.94 10.94 0 0 1-3.38.69c-1.128.229-2.284.29-3.43.18 1.082-.4 2.218-.634 3.37-.69a11.74 11.74 0 0 1 3.44-.18zM384.43 99c-36.3-11.06-66.93-20.51-108-20.25l-6.28 64.63c42.71 3.78 57 6.58 96.42 20.85L384.43 99z"/><path fill="#fff" d="M384.43 99c-36.3-11.06-66.93-20.51-108-20.25l-6.28 64.63c42.71 3.78 57 6.58 96.42 20.85L384.43 99z" opacity=".8"/><path fill="#F77021" d="M302.25 110.07l1.6-13.71a16.05 16.05 0 0 0-11.19 3.1 16.827 16.827 0 0 0-6.88 13.54c-.017.667-.001 1.335.05 2l16-1.8.42-3.13zM318.8 107.83A15.516 15.516 0 0 0 307.39 97l-.48-.1-.31-.07-.94-.14h-.08L304 110.34l-.38 3.22 15.12 5.52c.381-1.139.643-2.316.78-3.51.3-2.602.055-5.238-.72-7.74z"/><path fill="#000" d="M318.8 107.83A15.516 15.516 0 0 0 307.39 97l-.48-.1-.31-.07-.94-.14h-.08L304 110.34l-.38 3.22 15.12 5.52c.381-1.139.643-2.316.78-3.51.3-2.602.055-5.238-.72-7.74z" opacity=".3"/><path fill="#F77021" d="M302.48 115.101l-16 1.8c.67 7.76 6.33 14.19 13.93 15.13 7.6.94 14.73-4 17.23-11.4l-15.12-5.52M370.4 111.281a8.74 8.74 0 0 1-1.41-.57c-.89-.41-2.19-1-3.81-1.65a116.164 116.164 0 0 0-12.88-4.52 117.45 117.45 0 0 0-13.34-3c-1.72-.28-3.13-.48-4.1-.61a7.877 7.877 0 0 1-1.5-.26c.511-.02 1.023 0 1.53.06 1 .07 2.39.22 4.13.45a96.225 96.225 0 0 1 26.31 7.5c1.6.72 2.88 1.34 3.75 1.8.462.228.904.496 1.32.8zM369.301 118a9.412 9.412 0 0 1-1.41-.58c-.89-.4-2.19-1-3.81-1.64a113.4 113.4 0 0 0-26.22-7.48c-1.72-.28-3.13-.48-4.1-.61a10.163 10.163 0 0 1-1.5-.26 7.46 7.46 0 0 1 1.53.06c1 .06 2.39.21 4.13.44a96.738 96.738 0 0 1 13.42 2.82 98.507 98.507 0 0 1 12.89 4.69c1.6.72 2.88 1.34 3.75 1.8.465.208.907.463 1.32.76zM368.2 124.771a8.702 8.702 0 0 1-1.41-.57c-.89-.4-2.19-1-3.81-1.65a118.144 118.144 0 0 0-12.88-4.55 119.571 119.571 0 0 0-13.34-3c-1.72-.27-3.12-.48-4.1-.61a7.863 7.863 0 0 1-1.5-.26c.511-.02 1.023 0 1.53.06 1 .07 2.39.22 4.13.45a96.563 96.563 0 0 1 13.42 2.82 95.297 95.297 0 0 1 12.89 4.69c1.6.72 2.88 1.34 3.75 1.8a7.88 7.88 0 0 1 1.32.82zM366.001 131.521a9.77 9.77 0 0 1-1.37-.57c-.86-.41-2.12-1-3.68-1.64a107.86 107.86 0 0 0-25.44-7.49c-1.68-.28-3-.48-4-.61a7.462 7.462 0 0 1-1.46-.26 7.9 7.9 0 0 1 1.49.06c.95.06 2.32.21 4 .45a91.179 91.179 0 0 1 13.05 2.82 93.254 93.254 0 0 1 12.51 4.72c1.55.72 2.79 1.34 3.62 1.8.448.199.877.44 1.28.72zM361.221 136.9a7.579 7.579 0 0 1-1.23-.49l-3.31-1.47a80.598 80.598 0 0 0-22.82-6.51l-3.59-.5a7.985 7.985 0 0 1-1.31-.23 5.69 5.69 0 0 1 1.33 0c.86 0 2.09.16 3.61.33a69.525 69.525 0 0 1 22.93 6.54c1.39.66 2.49 1.22 3.25 1.63.404.193.786.427 1.14.7zM345.091 137.66a17.04 17.04 0 0 1-2.58-.53c-1.58-.37-3.77-.85-6.21-1.26-2.44-.41-4.67-.73-6.28-1a15.373 15.373 0 0 1-2.6-.45c.88-.069 1.765-.042 2.64.08 1.63.14 3.87.38 6.33.81 2.095.356 4.168.83 6.21 1.42.863.214 1.698.526 2.49.93z"/><path fill="#F77021" d="M282.68 86.37l.84-.05 2.5-.08c2.2 0 5.4 0 9.48.21a151.605 151.605 0 0 1 33.3 6l.18.06v.19c-2.5 14.33-5.48 31.36-8.66 49.58-.13.74-.26 1.48-.39 2.2v.28l-.28-.07a216.378 216.378 0 0 0-22.23-4.59c-7.17-1.1-14-1.88-20.38-2.28h-.25v-.24c1.75-15.29 3.22-28.09 4.25-37.1.52-4.46.94-8 1.22-10.4.14-1.18.26-2.09.33-2.73 0-.29.07-.52.09-.7.02-.18 0-.23 0-.22a1.16 1.16 0 0 1 0 .25c0 .18 0 .42-.07.72-.06.65-.16 1.58-.28 2.78-.25 2.44-.63 6-1.1 10.46-1 9-2.36 21.75-4 37l-.22-.25c6.39.38 13.25 1.15 20.43 2.24a217.193 217.193 0 0 1 22.29 4.58l-.32.21c.13-.72.26-1.46.39-2.2 3.21-18.22 6.21-35.24 8.73-49.56l.15.25a154.646 154.646 0 0 0-33.18-6.13c-4.06-.27-7.28-.34-9.44-.33h-3.36l-.02-.08zM243.039 218.441l35.4 7.84 5.41-7.84-.87-10.09-5.38-4.92h-18.54l-17.32 15.6"/><path fill="#000" d="M243.039 218.441l35.4 7.84 5.41-7.84-.87-10.09-5.38-4.92h-18.54l-17.32 15.6" opacity=".3"/><path fill="#FFBE9D" d="M297 145.54l44.69-6 7-2s16.11-3.54 17.61-4.08c1.74-.62 2.46.07 2.64.72.29 1-.69 2.17-2.17 2.75-.5.2-8.67 3-8.67 3 .938.2 1.86.468 2.76.8 1.95.66 3.82 3.18 4.76 6.12s.95 3.84-.18 4.26a1.55 1.55 0 0 1-.67.052 1.56 1.56 0 0 1-.63-.232 3.097 3.097 0 0 1-1.34-1.68c-1.57-4.69-4.5-5.06-4.5-5.06l-.92.26s3 2.11 3 4.67a2.88 2.88 0 0 1-.24 1.09 3.87 3.87 0 0 1-4.31 5.09c-.64-.12-1.34-.5-1.43-1.14-.018-.346.054-.69.21-1a4.83 4.83 0 0 0 .16-.53l-2.68.37s-6.07.5-8.68 1l-41.84 12.6a10.838 10.838 0 0 1-13.57-7.38 10.822 10.822 0 0 1 1.374-8.896A10.84 10.84 0 0 1 297 145.54z"/><path fill="#FFBE9D" d="M342.739 140.66a2.244 2.244 0 0 0 1.93 1.78c.92.19 1.88.07 2.81.19 2.78.38 4.95 2.91 7.74 3.15.39 0 .89 0 1-.42.11-.42-.19-.67-.46-.91l-7-6.17"/><path fill="#EB996E" d="M348.79 138.28c.293.168.568.365.82.59.5.41 1.23 1 2.11 1.76l3.09 2.65.88.77c.27.27.73.5.81 1.14a.79.79 0 0 1-.48.74c-.238.098-.494.14-.75.12a5.573 5.573 0 0 1-1.34-.27 35.527 35.527 0 0 1-4.47-2.26 6.866 6.866 0 0 0-2-.66c-.65-.1-1.29-.08-1.87-.12a3.283 3.283 0 0 1-2.55-1.1c-.41-.57-.33-1-.31-1 .109.304.267.588.47.84a3.125 3.125 0 0 0 2.4.86c.64-.013 1.281.007 1.92.06a7.403 7.403 0 0 1 2.14.65 40.487 40.487 0 0 0 4.42 2.21c.393.122.799.203 1.21.24.39 0 .72-.11.68-.31-.04-.2-.32-.52-.62-.78l-.88-.78-3-2.74-2-1.88c-.47-.44-.71-.7-.68-.73zM357.35 144.391a3.766 3.766 0 0 1 1.76 0c.604.16 1.141.511 1.53 1a7.353 7.353 0 0 1 1.1 2.09c.259.771.594 1.515 1 2.22.354.59.858 1.077 1.46 1.41a1.51 1.51 0 0 0 1.37 0c.29-.15.4-.3.39-.31-.01-.01-.16.08-.44.19a1.505 1.505 0 0 1-.618.069 1.513 1.513 0 0 1-.592-.189 3.884 3.884 0 0 1-1.3-1.36 12.8 12.8 0 0 1-1-2.19 7.329 7.329 0 0 0-1.18-2.16 3.127 3.127 0 0 0-1.71-1.09 2.86 2.86 0 0 0-1.37 0c-.26.2-.41.3-.4.32zM367.389 136.7a8.96 8.96 0 0 0-1.63.55l-3.88 1.43-3.88 1.37a8.415 8.415 0 0 0-1.6.61 7.986 7.986 0 0 0 1.68-.38c1-.29 2.42-.73 3.94-1.28s2.89-1.09 3.86-1.52a7.498 7.498 0 0 0 1.51-.78zM356.169 146.881s.12.16.35.41a1.591 1.591 0 0 1 .51 1.23.844.844 0 0 1-.53.66 4.81 4.81 0 0 1-1.08.3 1.908 1.908 0 0 0-1.21.64 1.664 1.664 0 0 0-.2 1.47 1.876 1.876 0 0 0 1 1.08c.416.203.884.272 1.34.2a7.607 7.607 0 0 0 2.07-.77 4.43 4.43 0 0 0 1.2-.89c.13-.132.227-.293.28-.47 0 0-.13.15-.38.37a4.99 4.99 0 0 1-1.21.77 7.888 7.888 0 0 1-2 .68 1.836 1.836 0 0 1-2-1.07 1.325 1.325 0 0 1 .14-1.17c.259-.292.614-.48 1-.53a4.879 4.879 0 0 0 1.14-.36 1.124 1.124 0 0 0 .64-.88 1.706 1.706 0 0 0-.65-1.36c-.23-.19-.4-.33-.41-.31z"/><path fill="#EB996E" d="M355.209 152.45s-.19 0-.44.21a1.497 1.497 0 0 0-.5 1.24 2.003 2.003 0 0 0 1.19 1.59 3.245 3.245 0 0 0 2.42 0 3.91 3.91 0 0 0 1.93-1.47 3.755 3.755 0 0 0 .65-1.86 3.413 3.413 0 0 0-.15-1.32 1.08 1.08 0 0 0-.2-.44c.109.57.146 1.151.11 1.73a3.695 3.695 0 0 1-2.45 3 2.994 2.994 0 0 1-2.18 0 1.745 1.745 0 0 1-1.08-1.32 1.42 1.42 0 0 1 .35-1.12c.2-.15.37-.21.35-.24zM347.779 148.781s0-.32-.29-.78a3.27 3.27 0 0 0-1.63-1.33v.3c.347-.163.681-.35 1-.56a7.394 7.394 0 0 0 2.8-2.89 18.95 18.95 0 0 1-3 2.599c-.34.21-.67.4-1 .56l-.34.181.36.119a3.423 3.423 0 0 1 1.57 1.14c.37.39.48.671.53.661zM361.69 144.001c-.06-.06-.53.46-.59 1.29-.06.83.34 1.4.42 1.35.08-.05-.13-.61-.07-1.33.06-.72.33-1.25.24-1.31z"/><path fill="#FFBE9D" d="M153.18 159.551s-6.52-10.57-7.68-11.47c-1.16-.9-11.49-4.68-12.37-4.4-.88.28-13.4 2.41-12 3.9 1.4 1.49 10.17-.13 10.17-.13l1.18.59s-7.55 1.2-9.14 2.12c-1.59.92-1 2.63.43 2.49 1.43-.14 7.93-1.41 8.32-1.14.39.27-7.13 1.77-7.94 2.24-1.09.65-1.2 2.58.18 2.49.81-.06 7.9-1.89 7.9-1.89a61.09 61.09 0 0 0-6.14 2.66c-.85.81-.18 2 1 1.76.84-.18 4.81-2.08 5.93-2.32 0 0 1 .28 2 2.4.44 1 2.46 7.15 6.15 7.07 3.27-.07 6.48 2.62 6.48 2.62l5.53-8.99z"/><path fill="#EB996E" d="M121.189 147.61a5.719 5.719 0 0 0 2.28.63c.855.123 1.719.159 2.58.11 1-.11 2-.25 3.1-.41l2.34-.34h-.14a32.63 32.63 0 0 0 5.4 1.69 34.398 34.398 0 0 0-5.21-2.22h-.14l-2.32.31-3.07.45a16.05 16.05 0 0 1-2.5 0c-1.42-.1-2.3-.31-2.32-.22z"/><path fill="#FFBE9D" d="M148.29 158.3a2.504 2.504 0 0 1-2.91 0c-.89-.54-1.58-1.36-2.43-2-2.54-1.8-6.21-1.37-8.67-3.29-.34-.26-.68-.7-.49-1.09.19-.39.66-.4 1.07-.39l10.31.24"/><path fill="#EB996E" d="M145.17 151.81a4.67 4.67 0 0 0-1.11-.14c-.72 0-1.76-.11-3-.16l-4.51-.18h-1.31a2.005 2.005 0 0 0-1.51.32.879.879 0 0 0-.17 1c.116.262.294.492.52.67.399.31.832.575 1.29.79a39.72 39.72 0 0 0 5.35 1.53c.749.226 1.46.564 2.11 1 .6.41 1.1.91 1.61 1.32a3.642 3.642 0 0 0 2.9 1c.77-.14 1-.56 1-.56a3.235 3.235 0 0 1-1 .34 3.59 3.59 0 0 1-2.6-1.12c-.47-.41-1-.93-1.6-1.4a7.992 7.992 0 0 0-2.23-1.08 45.354 45.354 0 0 1-5.25-1.54 6.6 6.6 0 0 1-1.18-.71c-.33-.27-.49-.64-.31-.78s.65-.17 1.09-.16h8.82c.368.001.734-.046 1.09-.14z"/><path fill="#2F3F5C" d="M204 393.78L201.63 420l-7.87 20.21a2.695 2.695 0 0 0 .752 3.016 2.697 2.697 0 0 0 3.398.114c4.43-3.37 20.66-15.87 20.73-17.8.08-2.23 4.36-27.54 4.36-27.54l-19-4.22z"/><path fill="#fff" d="M195.47 443.771l23.37-20-.12 1.11a4.11 4.11 0 0 1-1.26 2.51c-1.88 1.76-7.19 6.52-19.47 16a2.704 2.704 0 0 1-1.209.523c-.439.071-.89.032-1.311-.113v-.03zM214.43 414.73a1.64 1.64 0 0 0-.68 2.07 1.558 1.558 0 0 0 2 .69 1.723 1.723 0 0 0 .72-2.19 1.63 1.63 0 0 0-2.21-.49" opacity=".6"/><path fill="#4B6590" d="M202.76 433c-.16.06-.59-1.38-2.07-2.3a8.317 8.317 0 0 0-2.94-.92c0-.06.34-.23 1-.25a4.206 4.206 0 0 1 2.3.69 4.105 4.105 0 0 1 1.57 1.8c.21.6.2.98.14.98zM200.49 436.311c-.13.1-.88-.85-2.19-1.39a22.317 22.317 0 0 0-2.51-.62 3.006 3.006 0 0 1 2.74.09c1.47.61 2.11 1.87 1.96 1.92zM206.74 428.921a26.918 26.918 0 0 0-3.24-2.37c-1.94-1.05-3.79-1.17-3.77-1.35a6 6 0 0 1 4.05.84 6 6 0 0 1 2.96 2.88zM208.13 421c-.09.15-1.46-.62-3.34-.9s-3.41 0-3.45-.17a6.726 6.726 0 0 1 6.79 1.07zM208.999 413.33a13.006 13.006 0 0 0-3.45-1 13.457 13.457 0 0 0-3.57.47c0-.06.281-.35.931-.63a5.687 5.687 0 0 1 2.679-.42 5.945 5.945 0 0 1 2.59.83c.62.35.89.69.82.75zM205.79 410.84a2.187 2.187 0 0 1 .08-1 7.001 7.001 0 0 1 1.08-2.5 3.14 3.14 0 0 1 1.47-1.31 1.097 1.097 0 0 1 1.19.38c.242.361.342.799.28 1.23a3.819 3.819 0 0 1-3.72 3.13 4.43 4.43 0 0 1-4.06-2.79 1.557 1.557 0 0 1 .07-1.28 1.065 1.065 0 0 1 1.17-.43c.628.21 1.188.587 1.62 1.09a7.598 7.598 0 0 1 1.56 2.24c.163.293.265.616.3.95a12.401 12.401 0 0 0-2.14-2.9 3.474 3.474 0 0 0-1.44-.91.57.57 0 0 0-.64.23 1.06 1.06 0 0 0 0 .84 3.929 3.929 0 0 0 3.54 2.38 3.314 3.314 0 0 0 3.2-2.61 1.274 1.274 0 0 0-.16-.86.584.584 0 0 0-.65-.22 2.72 2.72 0 0 0-1.27 1.08 10.182 10.182 0 0 0-1.48 3.26z"/><path fill="#4B6590" d="M228.14 409.17l19.63-155.45-6.28-36.14-37 2-4.63 186.72a2.827 2.827 0 0 0 2.3 2.87l21.56 3.33a3.861 3.861 0 0 0 3.927-1.88c.259-.446.427-.939.493-1.45z"/><path fill="#4B6590" d="M247.2 258.93l35.71 35.34-51.37 12.49 3.65 25.92 69.54-9.46a21.909 21.909 0 0 0 14.8-8.89 21.88 21.88 0 0 0 .34-25.12l-54.18-79.52-24.2 7.89 5.71 41.35z"/><path fill="#455A64" d="M245.229 249.94a20.147 20.147 0 0 1 1.24 4.44c.423 1.483.668 3.01.73 4.55a21.05 21.05 0 0 1-1.239-4.44 20.865 20.865 0 0 1-.731-4.55z"/><path fill="#455A64" d="M240 310l.85-.28 2.5-.78 9.58-2.91 34.86-10.48-.09.33-42.86-45.65.45-.14c-.85 7.17-1.74 14.66-2.64 22.3-4.42 37-8.58 70.52-11.79 94.74-1.6 12.11-3 21.9-4 28.66-.57 3.36-1 6-1.34 7.75-.18.87-.33 1.53-.43 2-.1.47-.16.68-.16.68s0-.24.11-.69c.11-.45.22-1.14.38-2 .36-1.76.7-4.39 1.24-7.76 1-6.77 2.32-16.56 3.86-28.68 3.13-24.22 7.22-57.73 11.64-94.75.91-7.64 1.8-15.13 2.65-22.3l.06-.55.38.4L288 295.62l.22.24-.31.09L253 306.27l-9.62 2.81-2.51.72c-.54.2-.87.2-.87.2z"/><path fill="#455A64" d="M228.469 406.241c-.14 0 3.94-33 9.11-73.69s9.48-73.64 9.62-73.62c.14.02-3.93 33-9.1 73.69s-9.48 73.63-9.63 73.62zM241.409 233.49c.358.772.633 1.58.82 2.41.44 1.5 1 3.61 1.5 5.95.5 2.34.89 4.48 1.12 6 .176.832.26 1.68.25 2.53a12.943 12.943 0 0 1-.61-2.47c-.37-1.71-.8-3.74-1.27-6s-1-4.26-1.34-6a12.001 12.001 0 0 1-.47-2.42zM243.7 230.44s.5-.49 1.45-.16a1.696 1.696 0 0 1 1.08 1.28 1.855 1.855 0 0 1-.81 1.9 1.789 1.789 0 0 1-2-.21 1.519 1.519 0 0 1-.46-1.61c.1-.372.34-.691.67-.89.23-.13.38-.13.39-.1-.344.271-.59.647-.7 1.07a1.144 1.144 0 0 0 .41 1.16 1.357 1.357 0 0 0 1.48.13 1.423 1.423 0 0 0 .6-1.37 1.346 1.346 0 0 0-.76-1 2.68 2.68 0 0 0-1.35-.2zM293.43 300.32c-.11.11-2.12-1.74-5-3.4s-5.48-2.52-5.43-2.67a15.553 15.553 0 0 1 5.7 2.22 15.764 15.764 0 0 1 4.73 3.85z"/><path fill="#F77021" d="M216.25 111.61l-20.5 9.9 8.84 61.68-3.47 27.68a10.794 10.794 0 0 0 3.61 9.49l33.11-.65L261 207l10.65-1.8-4.36-21.07 2-29.89 24.23 12.93c1.866 1 4.04 1.26 6.09.73L344 156.37l-2.31-17.12-40.22 4.55-30.63-27.06-22.8-5.13-4.04-6.71h-23.33l-1.67 1.22a4.93 4.93 0 0 0-1.69 2.31l-1.06 3.18z"/><path fill="#F77021" d="M195.75 121.511a24.607 24.607 0 0 0-9.23 12c-2.34 7.28-7.63 36.71-7.63 36.71l-23.29-14.42-13.42 14.11 31 27.38a15.788 15.788 0 0 0 17.29 2.39 15.798 15.798 0 0 0 8.79-12.09l3.81-27.91-7.32-38.17z"/><path fill="#FFBE9D" d="M265.69 209.69l-1.44-2.12-15.33 2.83-2.82 6.53 19.59-7.24z"/><path fill="#F77021" d="M204.729 220.36c13.7 5.51 28.331 3.48 41.371-3.43 3.94-2.09 7.589-4.68 11.549-6.74 3.96-2.06 8.34-3.57 12.79-3.26 4.45.31 8.93 2.76 10.71 6.85 1.78 4.09 0 9.65-4.19 11.18l1.48 1.32c6.15-2.86 9.071-11.14 6.071-17.23-2.3-4.66-7.141-7.45-10.681-11.26-5.21-5.6-5.749-16.44-5.789-24.88"/><path fill="#4B6590" d="M234.78 123.541a6.42 6.42 0 0 1-1 0 3.875 3.875 0 0 0-2.43 1.12 5.717 5.717 0 0 0-1.21 3.91 13.258 13.258 0 0 0 1.11 5.25l.39.86-.75-.56a40.3 40.3 0 0 1-5.17-4.57 38.09 38.09 0 0 1-7.94-12.16 27.806 27.806 0 0 1-1.29-4.22 10.564 10.564 0 0 1-.23-1.61 47.62 47.62 0 0 0 1.86 5.69 40.072 40.072 0 0 0 8 11.94 42.494 42.494 0 0 0 5.08 4.53l-.37.31a11.854 11.854 0 0 1-.85-2.81 12.215 12.215 0 0 1-.23-2.65 5.898 5.898 0 0 1 1.41-4.12 3.845 3.845 0 0 1 2.63-1.07c.335.014.667.068.99.16z"/><path fill="#F77021" d="M236 123.541c1.69-.73 4.19.34 5.4 1.72.8.92 1.25 2.18 2.3 2.78 1.05.6 4.39 1.07 5.36.33 0 0 .59-2.85.91-4a88.588 88.588 0 0 0 2.27-13.68c-3.22-1.57-2.33-3.63-8.14-3.23.838 2.652.911 5.488.21 8.18"/><path fill="#4B6590" d="M244.32 115.61c-.06 0 .21-.77.33-2.19a16.056 16.056 0 0 0-.72-5.93l-.07-.24h.24a9.942 9.942 0 0 1 4.28.38c.751.346 1.43.831 2 1.43a7.802 7.802 0 0 0 2 1.38l.16.08v.17c-.26 2.43-.55 5.08-1 7.82-.3 1.79-.66 3.52-1.08 5.17-.42 1.65-.75 3.24-1.1 4.74v.1l-.06.05a3.174 3.174 0 0 1-1.72.41 10.111 10.111 0 0 1-3.1-.43 3.218 3.218 0 0 1-1.31-.71 13.245 13.245 0 0 1-1.54-2.12 5.439 5.439 0 0 0-1.58-1.43 5.643 5.643 0 0 0-2.88-.9 5.794 5.794 0 0 0-1.08.16c.328-.193.699-.3 1.08-.31a5.484 5.484 0 0 1 3 .8 5.586 5.586 0 0 1 1.71 1.48c.444.715.957 1.384 1.53 2a4.888 4.888 0 0 0 2.6.9 9.663 9.663 0 0 0 1.53.08c.5.017.997-.097 1.44-.33l-.09.14c.34-1.51.66-3.13 1.07-4.77.41-1.64.77-3.36 1.06-5.14.46-2.72.76-5.36 1-7.78l.14.25a8.457 8.457 0 0 1-2.16-1.47 5.898 5.898 0 0 0-1.83-1.36 9.843 9.843 0 0 0-4.08-.42l.17-.25c.587 1.966.781 4.029.57 6.07a11.182 11.182 0 0 1-.34 1.63 2.355 2.355 0 0 1-.17.54zM278.48 210.001v-1.14a7.074 7.074 0 0 0-1-3.09 10.411 10.411 0 0 0-3.68-3.55 15.513 15.513 0 0 0-6.56-1.8c-2.54-.23-5.36-.09-8.39-.3a31.644 31.644 0 0 1-9.46-2 19.519 19.519 0 0 1-8.53-6.38 14.832 14.832 0 0 1-2.45-5.13 19.57 19.57 0 0 1-.56-5.83c.15-4 1.06-7.71 1.61-11.35a86.509 86.509 0 0 0 1-10.56 87.612 87.612 0 0 0-4.27-29.68c-.42-1.37-.81-2.41-1.06-3.12-.12-.34-.21-.61-.28-.82a1.194 1.194 0 0 1-.08-.28s.05.08.13.26.19.47.33.8c.28.7.7 1.73 1.16 3.1a83.042 83.042 0 0 1 3.12 11.76 87.11 87.11 0 0 1 1.43 18 85.686 85.686 0 0 1-1 10.63c-.54 3.66-1.44 7.4-1.59 11.29a16.236 16.236 0 0 0 2.9 10.64 19.001 19.001 0 0 0 8.3 6.23 31.214 31.214 0 0 0 9.31 2c3 .22 5.82.11 8.4.37a15.7 15.7 0 0 1 6.74 1.95 10.41 10.41 0 0 1 3.7 3.7 6.86 6.86 0 0 1 .92 3.18c.014.291-.003.582-.05.87-.06.19-.08.25-.09.25z"/><path fill="#4B6590" d="M263.519 191.79c-.345.435-.73.837-1.15 1.2-.38.37-.86.82-1.44 1.31-.58.49-1.22 1.08-2 1.65a54.7 54.7 0 0 1-5.53 3.83 56.497 56.497 0 0 1-15.16 6.35 53.763 53.763 0 0 1-6.61 1.25c-.95.15-1.81.2-2.57.26-.76.06-1.41.1-1.95.11a9.586 9.586 0 0 1-1.66 0 11.58 11.58 0 0 1 1.65-.19c.53 0 1.18-.09 1.93-.19s1.61-.16 2.55-.33a62.258 62.258 0 0 0 6.54-1.36 64.952 64.952 0 0 0 7.73-2.63 63.534 63.534 0 0 0 7.3-3.67 62.306 62.306 0 0 0 5.56-3.7c.77-.55 1.43-1.11 2-1.58.57-.47 1.09-.89 1.49-1.24.414-.388.855-.745 1.32-1.07zM257.08 159a1.936 1.936 0 0 1-.09.55l-.35 1.56c-.173.825-.393 1.64-.66 2.44-.3.94-.59 2-1.06 3.18-.23.58-.46 1.19-.7 1.82-.24.63-.57 1.26-.86 1.93-.58 1.35-1.34 2.71-2.11 4.16a57.7 57.7 0 0 1-13.68 16.31c-1.3 1-2.51 2-3.74 2.8-.6.41-1.17.83-1.75 1.19l-1.67 1c-1 .67-2.07 1.15-2.95 1.61-.741.396-1.502.753-2.28 1.07l-1.48.62a3.093 3.093 0 0 1-.53.18c.152-.112.316-.206.49-.28l1.43-.7c.63-.29 1.39-.66 2.24-1.15.85-.49 1.86-1 2.89-1.66l1.64-1c.57-.36 1.13-.79 1.73-1.2 1.2-.81 2.39-1.8 3.67-2.82a65.332 65.332 0 0 0 7.51-7.48 66.446 66.446 0 0 0 6.06-8.69c.78-1.44 1.55-2.78 2.13-4.11.31-.66.63-1.29.89-1.91l.72-1.8c.5-1.13.81-2.2 1.13-3.13.32-.93.57-1.74.75-2.41l.44-1.53c.036-.192.1-.377.19-.55zM214.91 225.38a6.01 6.01 0 0 1-1.83-1.36 13.82 13.82 0 0 1-4.17-9.93 6.264 6.264 0 0 1 .3-2.25c.09 0 0 .87.07 2.24a15.67 15.67 0 0 0 4.07 9.69c.93 1.01 1.65 1.54 1.56 1.61zM214.18 217.59c.15 0-.13 1.33 0 2.9.13 1.57.62 2.8.48 2.87a6 6 0 0 1-.49-5.77h.01zM204.31 181.79a1.595 1.595 0 0 1-.12-.47c-.07-.37-.15-.82-.25-1.36-.21-1.26-.5-3-.84-5-.7-4.23-1.7-10.07-2.9-16.5s-2.37-12.25-3.2-16.46c-.42-2-.77-3.72-1-5-.11-.54-.19-1-.26-1.35a1.502 1.502 0 0 1-.06-.49c.073.146.127.301.16.46.1.37.21.81.35 1.34.3 1.16.71 2.85 1.19 4.94 1 4.18 2.19 10 3.4 16.42 1.21 6.42 2.13 12.3 2.74 16.54.31 2.13.54 3.85.68 5 .06.55.11 1 .15 1.38.019.184.005.371-.04.55zM268.31 181.791a2.697 2.697 0 0 1-.05-.49v-1.42-5.23c0-4.41.24-10.5.75-17.21.51-6.71 1.18-12.77 1.7-17.15.27-2.13.49-3.88.66-5.18.08-.56.15-1.03.21-1.41.016-.163.05-.324.1-.48.026.165.026.334 0 .5 0 .38-.07.85-.11 1.41-.12 1.31-.29 3.06-.49 5.2-.43 4.38-1 10.44-1.55 17.15-.55 6.71-.76 12.78-.9 17.18-.06 2.14-.11 3.9-.15 5.22l-.05 1.42a1.63 1.63 0 0 1-.12.49zM188.35 184.371c-.17.07-1.49-3.57-4-7.53-2.51-3.96-5.55-6.45-5.42-6.58a9.17 9.17 0 0 1 2 1.59 27.532 27.532 0 0 1 3.9 4.7 32.55 32.55 0 0 1 2.8 5.42c.339.767.581 1.573.72 2.4zM190.07 180a19.201 19.201 0 0 1-1.12-2 15.478 15.478 0 0 0-3.46-4 21.942 21.942 0 0 0-4.57-2.79 13.193 13.193 0 0 1-2-1c.75.107 1.481.323 2.17.64a17.492 17.492 0 0 1 4.76 2.73 13.444 13.444 0 0 1 3.45 4.27c.381.666.642 1.394.77 2.15z"/><path fill="#FAFAFA" d="M200.37 156s-.05.16-.21.44c-.243.405-.55.766-.91 1.07a6.067 6.067 0 0 1-4.9 1.32 9.487 9.487 0 0 1-6.16-4.35 21.204 21.204 0 0 1-2-4c-.28-.73-.56-1.47-.8-2.25a6.202 6.202 0 0 1-.28-2.52 3.47 3.47 0 0 1 1.22-2.27 2.902 2.902 0 0 1 2.47-.44 4.872 4.872 0 0 1 3.29 3.12 4.691 4.691 0 0 1-.41 4.09 5.108 5.108 0 0 1-2.85 2.19 4.525 4.525 0 0 1-3-.14 4.979 4.979 0 0 1-1.85-1.26 3.89 3.89 0 0 1-.78-1.17c-.13-.3-.17-.46-.15-.47a6.375 6.375 0 0 0 1.07 1.5 5.061 5.061 0 0 0 1.81 1.13 4.335 4.335 0 0 0 2.75.06 4.73 4.73 0 0 0 2.59-2.06 4.251 4.251 0 0 0 .33-3.7 4.363 4.363 0 0 0-3-2.79 2.391 2.391 0 0 0-2 .36 2.923 2.923 0 0 0-1 1.92c-.18 1.55.52 3.07 1 4.51a19.992 19.992 0 0 0 2 4 9.227 9.227 0 0 0 5.82 4.26 5.996 5.996 0 0 0 4.71-1.12 7.555 7.555 0 0 0 1.24-1.43zM239.69 171.33l-.28.23c-.2.17-.48.38-.83.65a22.144 22.144 0 0 1-3.44 2.16c-.888.444-1.834.761-2.81.94a7.34 7.34 0 0 1-3.51-.23 12.378 12.378 0 0 1-6.33-5.58 20.381 20.381 0 0 1-2.897-10.65 20.38 20.38 0 0 1 3.077-10.6 11.002 11.002 0 0 1 4.71-4.4 6.147 6.147 0 0 1 3.37-.43 4.612 4.612 0 0 1 3 1.71 4.9 4.9 0 0 1 .94 3.41 7.679 7.679 0 0 1-1.08 3.4 11.111 11.111 0 0 1-5.56 4.51 14.314 14.314 0 0 1-7.14.74 14.644 14.644 0 0 1-6.43-2.67 22.058 22.058 0 0 1-7.57-10.6 12.875 12.875 0 0 1-.92-6.07 6.078 6.078 0 0 1 1.17-2.76 4.201 4.201 0 0 1 2.44-1.59 5.338 5.338 0 0 1 5 1.74 5.716 5.716 0 0 1 1.21 4.79 7.595 7.595 0 0 1-2.05 4 9.728 9.728 0 0 1-3.38 2.21 15.24 15.24 0 0 1-6.35 1 36.5 36.5 0 0 1-4-.41l-1.05-.17-.35-.07h.36l1.05.12c.92.09 2.28.27 4 .31 2.127.1 4.251-.24 6.24-1a9.368 9.368 0 0 0 3.25-2.17 7.27 7.27 0 0 0 1.93-3.87 5.365 5.365 0 0 0-1.15-4.47 5.014 5.014 0 0 0-2.113-1.398 5.01 5.01 0 0 0-2.527-.182 4.6 4.6 0 0 0-3.25 4 12.145 12.145 0 0 0 .92 5.84 21.595 21.595 0 0 0 7.4 10.35 14.26 14.26 0 0 0 6.22 2.56c2.313.354 4.678.11 6.87-.71a10.52 10.52 0 0 0 5.3-4.28 7.308 7.308 0 0 0 1-3.18 4.343 4.343 0 0 0-.83-3.05 4.15 4.15 0 0 0-2.7-1.53 5.666 5.666 0 0 0-3.1.39 10.53 10.53 0 0 0-4.49 4.2 19.568 19.568 0 0 0-3.05 11.1 19.832 19.832 0 0 0 2.77 9.7 12.097 12.097 0 0 0 6.11 5.49 8.262 8.262 0 0 0 6.14-.61 24.507 24.507 0 0 0 3.47-2.07l.86-.6c.117-.083.245-.15.38-.2zM212.1 115.22c-.065.31-.172.61-.32.89-.358.789-.79 1.543-1.29 2.25a16.425 16.425 0 0 1-14.82 7.07 13.665 13.665 0 0 1-2.55-.41 3.005 3.005 0 0 1-.9-.32c0-.09 1.32.29 3.47.37a17.202 17.202 0 0 0 8.112-1.662 17.195 17.195 0 0 0 6.398-5.258c1.29-1.72 1.8-2.98 1.9-2.93zM226.87 119.47a9.242 9.242 0 0 0-2.82 1.39 9.114 9.114 0 0 0-1.83 2.56c-.06 0-.08-.4.12-1a4.663 4.663 0 0 1 1.371-1.97 4.664 4.664 0 0 1 2.169-1.03c.61-.09.99-.01.99.05zM248 125.351a2.141 2.141 0 0 1-.85-.39 6.922 6.922 0 0 1-1.88-1.73 6.837 6.837 0 0 1-1.39-3.54c-.067-.8.152-1.598.62-2.25a2.31 2.31 0 0 1 2.31-1 2.54 2.54 0 0 1 1.141.634c.32.306.553.691.679 1.116a2.389 2.389 0 0 1-.46 2.3 3.237 3.237 0 0 1-3.62 1 4.138 4.138 0 0 1-2-1.64 1.997 1.997 0 0 1-.37-.86s.18.29.54.74a4.175 4.175 0 0 0 1.93 1.41 2.87 2.87 0 0 0 3.13-.91 1.946 1.946 0 0 0 .35-1.85 2.09 2.09 0 0 0-1.45-1.39 1.801 1.801 0 0 0-1.015.125 1.802 1.802 0 0 0-.785.655 2.996 2.996 0 0 0-.54 1.91 6.68 6.68 0 0 0 1.21 3.36 10.384 10.384 0 0 0 2.45 2.31zM251.999 113.68a12.646 12.646 0 0 0-3.31-2.31 12.987 12.987 0 0 0-4-.68c0-.06.43-.24 1.2-.29a6.554 6.554 0 0 1 3 .49c.939.386 1.78.977 2.46 1.73.52.58.71 1.03.65 1.06zM279.5 125.32s-.06.05-.19.12l-.6.32c-.54.26-1.34.62-2.41 1a29.086 29.086 0 0 1-9.42 1.77 13.755 13.755 0 0 1-3.2-.31 7.001 7.001 0 0 1-3.15-1.54 4.67 4.67 0 0 1-1.55-3.42 5.8 5.8 0 0 1 1.33-3.76 7.722 7.722 0 0 1 8-2 9.301 9.301 0 0 1 6.38 6.18 9.128 9.128 0 0 1-1.91 8.67 14.005 14.005 0 0 1-7.4 4c-2.503.48-5.043.737-7.59.77-2.197.04-4.387.254-6.55.64a13.279 13.279 0 0 0-8.05 4.59 9.549 9.549 0 0 0-1.54 3.11.635.635 0 0 1 0-.23c0-.15.07-.38.16-.66a8.43 8.43 0 0 1 1.18-2.34 13.286 13.286 0 0 1 8.15-4.83 39.963 39.963 0 0 1 6.6-.71 42.661 42.661 0 0 0 7.5-.8 13.592 13.592 0 0 0 7.13-3.86 8.629 8.629 0 0 0 1.79-8.18 8.794 8.794 0 0 0-6-5.84 7.28 7.28 0 0 0-7.46 1.86 5.317 5.317 0 0 0-1.24 3.45 4.216 4.216 0 0 0 1.38 3.11 6.677 6.677 0 0 0 3 1.47c1.017.231 2.057.341 3.1.33a30.32 30.32 0 0 0 9.36-1.59c1.06-.37 1.87-.7 2.42-.93.25-.149.51-.279.78-.39zM254.56 164.591c-.09 0-.43-.84-1.35-2a10.28 10.28 0 0 0-10.21-3.85c-1.45.28-2.29.7-2.33.62a5.394 5.394 0 0 1 2.25-1 9.87 9.87 0 0 1 10.6 4c.514.653.87 1.416 1.04 2.23zM266.239 172.151a4.878 4.878 0 0 1-1.37 2 8.39 8.39 0 0 1-11 .87 5.008 5.008 0 0 1-1.67-1.78c.07-.07.64.68 1.88 1.47a8.8 8.8 0 0 0 5.39 1.4 8.894 8.894 0 0 0 5.11-2.23c1.13-.96 1.58-1.79 1.66-1.73zM269.28 152.251c0 .08-.65-.29-1.71-.57a7.338 7.338 0 0 0-7.66 2.45c-.7.85-1 1.49-1.06 1.46a3.533 3.533 0 0 1 .77-1.68 6.994 6.994 0 0 1 8.06-2.58c.605.16 1.156.478 1.6.92zM306.54 143.051c.078.242.138.489.18.74.067.302.107.61.12.92a7.28 7.28 0 0 1 0 1.27 12.601 12.601 0 0 1-2.87 7.45 13.136 13.136 0 0 1-4.27 3.57 13.286 13.286 0 0 1-6.24 1.43 16.79 16.79 0 0 1-12.85-6.35 10.118 10.118 0 0 1-1.81-3.47 6.585 6.585 0 0 1 .06-3.81 4.908 4.908 0 0 1 2.34-2.86 5.336 5.336 0 0 1 3.52-.41 5.863 5.863 0 0 1 3 1.57 6.987 6.987 0 0 1 1.64 2.71 9.128 9.128 0 0 1-.05 5.58 10.525 10.525 0 0 1-2.36 4 11.013 11.013 0 0 1-2.75 2.12 10.55 10.55 0 0 1-2 .82 5.009 5.009 0 0 1-.76.14 14.82 14.82 0 0 0 2.7-1.13 10.802 10.802 0 0 0 4.86-6 8.815 8.815 0 0 0 0-5.33 6.378 6.378 0 0 0-1.55-2.52 5.448 5.448 0 0 0-2.74-1.43 4.923 4.923 0 0 0-3.2.38 4.383 4.383 0 0 0-2.08 2.58 5.999 5.999 0 0 0-.05 3.51 9.455 9.455 0 0 0 1.72 3.29 16.402 16.402 0 0 0 5.533 4.476 16.401 16.401 0 0 0 6.907 1.714 12.73 12.73 0 0 0 10.27-4.74 12.795 12.795 0 0 0 2.95-7.23c.001-1.001-.072-2-.22-2.99zM314.249 163.761a2.89 2.89 0 0 1-.61-.69 7.196 7.196 0 0 1-1.09-2.26 9.237 9.237 0 0 1-.15-3.72c.236-1.494.57-2.971 1-4.42a31.75 31.75 0 0 1 3.58-7.38c.56-.88 1-1.59 1.38-2.06a3.58 3.58 0 0 1 .57-.72 23.955 23.955 0 0 1-1.63 3 37.017 37.017 0 0 0-3.4 7.34 41.022 41.022 0 0 0-1 4.34 9.35 9.35 0 0 0 0 3.56 13.357 13.357 0 0 0 1.35 3.01zM333.19 140.75c.137.222.239.466.3.72.224.668.391 1.354.5 2.05a18.336 18.336 0 0 1-2.99 13.37 12.335 12.335 0 0 1-1.32 1.65c-.35.36-.55.55-.58.53-.03-.02.67-.89 1.59-2.38a20.96 20.96 0 0 0 2.57-6.31c.485-2.233.597-4.531.33-6.8-.17-1.75-.49-2.8-.4-2.83zM267.75 187.521a2.249 2.249 0 0 1-.43-.23 12.703 12.703 0 0 0-1.22-.66 14.46 14.46 0 0 0-4.88-1.37 14.811 14.811 0 0 0-7.34 1.18 12.582 12.582 0 0 0-3.67 2.43 7.493 7.493 0 0 0-1.44 1.78c-.4.66-.576 1.432-.5 2.2a2.617 2.617 0 0 0 1.06 1.88 2.143 2.143 0 0 0 2 .09 3.578 3.578 0 0 0 1.86-3.51 7.107 7.107 0 0 0-3.71-6 7.266 7.266 0 0 0-4.9-.64 17.06 17.06 0 0 0-1.78.57 1.72 1.72 0 0 1 .42-.27c.419-.21.857-.378 1.31-.5a7.29 7.29 0 0 1 5.12.52 7.471 7.471 0 0 1 2.852 2.626 7.472 7.472 0 0 1 1.148 3.704 5.317 5.317 0 0 1-.43 2.26 3.375 3.375 0 0 1-1.7 1.73 2.652 2.652 0 0 1-2.53-.13 3.134 3.134 0 0 1-1.3-2.25 3.993 3.993 0 0 1 .57-2.51 7.753 7.753 0 0 1 1.54-1.9 12.987 12.987 0 0 1 3.83-2.5 14.997 14.997 0 0 1 7.57-1.11c1.729.196 3.403.726 4.93 1.56.416.218.814.468 1.19.75.31.17.45.28.43.3zM271.37 195.79a6.515 6.515 0 0 1-1.21 2.29c-.79 1.19-1.52 2.09-1.64 2a6.49 6.49 0 0 1 1.21-2.29c.79-1.18 1.52-2.08 1.64-2zM284.07 210.1c-.08 0-.22-.35-.57-.87a5.178 5.178 0 0 0-4.07-2.26c-.62 0-1 .05-1 0s.35-.27 1-.34a4.551 4.551 0 0 1 4.4 2.45c.28.58.3 1.01.24 1.02zM242.759 205c0 .07-1.2.68-3.13 1.79a27.067 27.067 0 0 0-6.8 5.25 14.518 14.518 0 0 0-3.61 7.64 18.048 18.048 0 0 0 .06 3.57 3.001 3.001 0 0 1-.28-.94 9.098 9.098 0 0 1-.14-2.66 14 14 0 0 1 3.58-7.95 24.547 24.547 0 0 1 7-5.24c1-.51 1.82-.89 2.39-1.14.292-.155.605-.263.93-.32zM257.45 209.891s-.56-.33-1.09-1.2a6.687 6.687 0 0 1 .63-7.47 2.921 2.921 0 0 1 1.27-1c.06.08-.43.45-1 1.23a7.174 7.174 0 0 0-.59 7.07c.43.85.85 1.31.78 1.37zM234.489 191.77s-.18-.22-.58-.58a4.121 4.121 0 0 0-2.08-.92 5.206 5.206 0 0 0-3.49.72 10.673 10.673 0 0 0-3.31 3.5c-1 1.52-1.82 3.35-3.09 5.13a10.922 10.922 0 0 1-5.51 4.12 10.227 10.227 0 0 1-7.57-.44 10.839 10.839 0 0 1-5.57-5.94 6.473 6.473 0 0 1-.17-4.21 5.875 5.875 0 0 1 2.6-3.18 6 6 0 0 1 3.86-.89 6.4 6.4 0 0 1 3.43 1.63 8.386 8.386 0 0 1 2.71 6.29 10.357 10.357 0 0 1-1.86 5.71 11.618 11.618 0 0 1-3.62 3.4 14.611 14.611 0 0 1-3.43 1.5c-.757.216-1.529.377-2.31.48l-.61.07h-.22c.266-.076.537-.133.81-.17a17.403 17.403 0 0 0 2.27-.58 14.635 14.635 0 0 0 3.34-1.55 11.376 11.376 0 0 0 3.46-3.35 10.066 10.066 0 0 0 1.74-5.51 7.996 7.996 0 0 0-2.6-5.93 5.862 5.862 0 0 0-3.17-1.49 5.548 5.548 0 0 0-3.54.82 5.472 5.472 0 0 0-2.37 2.91 6.002 6.002 0 0 0 .17 3.88 10.394 10.394 0 0 0 5.3 5.65 9.71 9.71 0 0 0 7.2.44 10.467 10.467 0 0 0 5.31-3.92c1.25-1.71 2.11-3.54 3.13-5.07a10.851 10.851 0 0 1 3.48-3.55 5.35 5.35 0 0 1 3.66-.67 4.088 4.088 0 0 1 2.12 1c.209.202.382.439.51.7zM234.82 207.351a4.595 4.595 0 0 1-1.61-1.27 10.998 10.998 0 0 1-2.77-9.28c.066-.707.288-1.39.65-2 .09 0-.15.77-.28 2a12.193 12.193 0 0 0 2.67 9c.79.99 1.4 1.48 1.34 1.55zM238.5 184.3s-.7-.34-2-.85a23.997 23.997 0 0 0-14.4-1.08 19.646 19.646 0 0 0-4.8 1.8 3.229 3.229 0 0 0-1.59 1.9 1.82 1.82 0 0 0 1 2 1.06 1.06 0 0 0 1-.32c.292-.312.499-.694.6-1.11a9.155 9.155 0 0 0 .23-2.66 11.9 11.9 0 0 0-1.28-4.91 11.489 11.489 0 0 0-2.82-3.63 11.3 11.3 0 0 0-3.49-2 12.237 12.237 0 0 0-5.79-.58c-1.38.22-2.11.53-2.12.48.158-.104.33-.184.51-.24a11.116 11.116 0 0 1 7.53 0 11.73 11.73 0 0 1 3.64 2 11.998 11.998 0 0 1 3 3.74 12.35 12.35 0 0 1 1.36 5.11 9.724 9.724 0 0 1-.24 2.82c-.13.5-.381.96-.73 1.34a1.599 1.599 0 0 1-1.56.45 2.011 2.011 0 0 1-1.19-1.07 2.626 2.626 0 0 1-.22-1.54 3.716 3.716 0 0 1 1.84-2.24 19.345 19.345 0 0 1 4.95-1.82 23.714 23.714 0 0 1 8.86-.33c1.977.3 3.904.865 5.73 1.68.508.224 1.002.478 1.48.76.347.18.513.28.5.3zM160.569 187.171s.62-.48 1.61-1.48a13.894 13.894 0 0 0 3.14-5 10.854 10.854 0 0 0-.25-8.46 10.693 10.693 0 0 0-3.19-3.94 8.994 8.994 0 0 0-5-1.89 5.76 5.76 0 0 0-2.64.55 3.382 3.382 0 0 0-1.76 1.79 2.57 2.57 0 0 0 .36 2.32 3.773 3.773 0 0 0 1.89 1.41 5.187 5.187 0 0 0 4.33-.74 7.283 7.283 0 0 0 2.63-3 15.136 15.136 0 0 0 1.25-5.74c0-.66 0-1.2.07-1.63a1.918 1.918 0 0 1 .05-.56c.028.185.028.374 0 .56v1.63a14.496 14.496 0 0 1-1.06 6.01 7.641 7.641 0 0 1-2.72 3.18 5.611 5.611 0 0 1-4.71.83 4.188 4.188 0 0 1-2.16-1.58 3.06 3.06 0 0 1-.43-2.77 3.793 3.793 0 0 1 2-2.08 6.344 6.344 0 0 1 2.89-.61 9.456 9.456 0 0 1 5.33 2 11.152 11.152 0 0 1 3.32 4.15 10.492 10.492 0 0 1 1 4.69 12.025 12.025 0 0 1-.82 4.1 13.642 13.642 0 0 1-3.35 5c-.388.371-.81.706-1.26 1-.34.18-.51.28-.52.26zM181.3 202.05a3.681 3.681 0 0 1-.78-.83 15.994 15.994 0 0 1-1.72-2.6 18.447 18.447 0 0 1 1.29-19.57 16.421 16.421 0 0 1 2-2.35c.27-.273.576-.509.91-.7.07.08-1.18 1.14-2.62 3.29a18.995 18.995 0 0 0-1.27 19.19 38.816 38.816 0 0 0 2.19 3.57zM200.839 180.3c-.09 0-.51-1.5-1.75-3.71a20.56 20.56 0 0 0-15.8-10.45c-2.52-.28-4.1-.06-4.1-.16a4.244 4.244 0 0 1 1.1-.19 18.323 18.323 0 0 1 3 0 19.777 19.777 0 0 1 16.1 10.65c.473.897.865 1.834 1.17 2.8.142.339.236.695.28 1.06z"/><path fill="#000" d="M228.169 208.29c-1 .41-.87 1.93-.07 2.59a4.277 4.277 0 0 0 3 .64 38.63 38.63 0 0 0 29.63-16.64c-9 7.41-20.9 10.22-32.31 12.8M226.38 198.09c-1-1.51-.32-3.63 1-4.91a16.766 16.766 0 0 1 4.62-2.75 29.178 29.178 0 0 0 13.48-13.83c1.82-3.94 3.19-8.77 7.22-10.39a39.06 39.06 0 0 1-25.71 30.66M198 146.24a101.506 101.506 0 0 1-2.3 32.68 27.519 27.519 0 0 0-1.11 6.89 9.156 9.156 0 0 0 3.32 6.47c1.66-3.83 1.69-7.52 2.39-11.64.63-3.71 1.69-12.38 1.69-12.51.15-7.58-1.64-14.08-4.56-20.91M216.84 113.41a39.916 39.916 0 0 0 11.32 21.24c2.21 2.15 5 4.14 8.05 4a18.834 18.834 0 0 1-1.55-11.78 48.687 48.687 0 0 0 8.24 4.48 16.34 16.34 0 0 0 9.2 1l1.9-16.53a3.096 3.096 0 0 0-.17-1.86 1.076 1.076 0 0 0-1.169-.567 1.073 1.073 0 0 0-.421.187c-.164.213-.27.465-.31.73-1.12 4.85-1.75 9.2-2.88 14.06-.81.8-3.3.47-4.94-.14-1.43-.53-2-1.71-2.92-2.9-.92-1.19-.78-1-2.18-1.58-2.58-1.09-7.53-.22-8.61 2.09-1.08 2.31-.26 5.36.46 7.64a34.647 34.647 0 0 1-14.59-20.24M271.37 136.87c-.2.4 6.23 22.08 6.23 22.08l-8.33-4.75 2.1-17.33z" opacity=".3"/><path fill="#FFBE9D" d="M219.61 74v34.51a8.344 8.344 0 0 0 2 5.39 25.067 25.067 0 0 0 6.94 5.74l7 3.93 5.76-5.15a8.38 8.38 0 0 0 2.79-5.91c.1-2.52.09-5 .09-5s9.76-.7 10.68-10.32c.43-4.54.57-13.82.59-22.37A18.72 18.72 0 0 0 238.2 56h-.27a17.887 17.887 0 0 0-18.32 18z"/><path fill="#EB996E" d="M244.11 107.431a23.356 23.356 0 0 1-12.23-4.75s2.52 7.3 12.21 7.23l.02-2.48z"/><path fill="#4B6590" d="M252.53 80.93a1.382 1.382 0 0 1-1.44 1.28 1.325 1.325 0 0 1-.941-.403 1.317 1.317 0 0 1-.369-.956 1.382 1.382 0 0 1 1.44-1.28 1.309 1.309 0 0 1 1.31 1.36zM252.919 78.63c-.18.16-1.16-.7-2.64-.82-1.48-.12-2.63.54-2.77.34-.14-.2.12-.39.63-.7a3.792 3.792 0 0 1 2.23-.49c.772.06 1.505.365 2.09.87.43.39.54.72.46.8zM238.57 80.23a1.382 1.382 0 0 1-1.44 1.28 1.331 1.331 0 0 1-1.32-1.36 1.391 1.391 0 0 1 1.44-1.28 1.312 1.312 0 0 1 .948.4 1.321 1.321 0 0 1 .372.96zM238.35 77.7c-.19.16-1.17-.69-2.65-.81-1.48-.12-2.62.53-2.77.33-.15-.2.13-.39.63-.7a3.85 3.85 0 0 1 2.24-.52 3.68 3.68 0 0 1 2.09.87c.42.42.55.75.46.83zM242.81 89.12a9.57 9.57 0 0 1 2.44-.24c.38 0 .75 0 .83-.3a1.914 1.914 0 0 0-.16-1.14c-.28-1-.57-1.94-.88-3-1.21-4.23-2-7.69-1.88-7.74.12-.05 1.29 3.34 2.5 7.57.29 1 .57 2 .83 3 .203.476.231 1.007.08 1.5a.998.998 0 0 1-.67.5 2.508 2.508 0 0 1-.65 0 10.313 10.313 0 0 1-2.44-.15zM238.37 89.78c.24 0 .11 1.62 1.39 2.87 1.28 1.25 3 1.22 3 1.44 0 .22-.4.29-1.13.25a3.999 3.999 0 0 1-2.51-1.12 3.491 3.491 0 0 1-1.06-2.4c-.01-.67.2-1.06.31-1.04zM239.209 71.93c-.18.39-1.64.08-3.39.14-1.75.06-3.2.42-3.4 0-.09-.18.18-.54.78-.88a5.893 5.893 0 0 1 5.18-.14c.62.35.91.69.83.88zM252.73 74.3c-.29.31-1.28-.12-2.5-.24s-2.28 0-2.49-.33c-.1-.18.1-.51.58-.79a3.64 3.64 0 0 1 4 .46c.43.38.54.74.41.9z"/><path fill="#2F3F5C" d="M230.94 64.27h-.06a7.597 7.597 0 0 0-3.22 4.73v.2c-.61 2.71-.77 5.51-1.4 8.22-.63 2.71-.51 4.78-3.23 5.39a3.602 3.602 0 0 1-3.78-1.53A2.463 2.463 0 0 1 219 80c0-6.68-1.3-9.27-.72-16.2a5.885 5.885 0 0 1 2.82-4.56c1.54-.92 3.4-1.86 5-1 1.6.86 3.4 4.09 4.54 5.48"/><path fill="#FFBE9D" d="M222.49 78.59c-.15-.08-6.45-2.5-6.79 4.1-.34 6.6 6.37 5.58 6.39 5.39.02-.19.4-9.49.4-9.49z"/><path fill="#EB996E" d="M220.199 85.47s-.12.08-.32.16a1.119 1.119 0 0 1-.86 0 2.84 2.84 0 0 1-1.19-2.63c.01-.568.15-1.125.41-1.63a1.332 1.332 0 0 1 .91-.84.592.592 0 0 1 .66.35c.08.19 0 .32.06.33.06.01.15-.1.11-.37a.696.696 0 0 0-.24-.43.813.813 0 0 0-.62-.2 1.61 1.61 0 0 0-1.26 1 3.999 3.999 0 0 0-.49 1.82 3 3 0 0 0 1.53 2.94 1.263 1.263 0 0 0 1.06-.12c.22-.22.26-.36.24-.38z"/><path fill="#2F3F5C" d="M225.72 59.24c-1.41-2.77 3.35-6.18 6.68-6.94 3.33-.76 7.49 1.19 10.64 2.53 2 .84 3.94 2 6.09 2a14.741 14.741 0 0 0 4.26-.71 10.828 10.828 0 0 1 4.29-.49 4.003 4.003 0 0 1 3.32 2.53 2.487 2.487 0 0 1-2 3.22 3.249 3.249 0 0 1 3.329 5.527 3.246 3.246 0 0 1-2.969.543c1-.64 2.34.65 2.12 1.81a3.418 3.418 0 0 1-2.45 2.31c-2.85 1-6 .33-8.78-.86-2.78-1.19-5.28-2.9-8-4.16-2.72-1.26-7.3-3.5-10.21-2.73-2.15.56-3.8 2.95-4.93 2.29a3.996 3.996 0 0 1-1.83-3.11 11.612 11.612 0 0 1 .44-3.74"/><path fill="#2F3F5C" d="M259.829 61.27c-.05 0-.38.45-1.15 1.16a9.058 9.058 0 0 1-3.86 2.06 8.35 8.35 0 0 1-6.26-.78c-2.15-1.18-3.9-3.35-5.95-5.43a13.74 13.74 0 0 0-7.11-4.16 7.618 7.618 0 0 0-6.5 1.66 5.718 5.718 0 0 0-1.84 4.13c-.001.417.06.832.18 1.23.037.143.098.278.18.4a9.98 9.98 0 0 1-.11-1.62 5.643 5.643 0 0 1 1.9-3.8 7.219 7.219 0 0 1 6.06-1.41 13.328 13.328 0 0 1 6.76 4c2 2 3.81 4.25 6.12 5.49a9.001 9.001 0 0 0 10.58-1.62c.29-.309.551-.643.78-1 .17-.17.24-.3.22-.31zM220.84 78.17s.3-.16.59-.66c.391-.723.574-1.54.53-2.36 0-2.14-1.66-4.57-1.66-7.52a6.674 6.674 0 0 1 1.06-3.87 4.998 4.998 0 0 1 2.64-1.91 4.34 4.34 0 0 1 2.22-.12c.53.13.8.28.83.23.03-.05-.22-.26-.75-.47a4.11 4.11 0 0 0-2.42-.09 5.34 5.34 0 0 0-3 2 6.999 6.999 0 0 0-1.22 4.23c.051 1.461.366 2.901.93 4.25.45 1.048.76 2.15.92 3.28a5.141 5.141 0 0 1-.67 3.01z"/><path fill="#F77021" d="M248 268.88h-1.49l-4.36.06c-3.84.06-9.5.21-16.78.56-7.28.35-16.18 1-26.47 2.2-5.13.62-10.63 1.32-16.42 2.28-5.79.96-11.89 2.08-18.24 3.53-6.35 1.45-13 3.17-19.72 5.38a131.584 131.584 0 0 0-20.45 8.43 65.922 65.922 0 0 0-9.8 6.27 31.23 31.23 0 0 0-8 8.78c-.25.44-.51.87-.74 1.32l-.56 1.41-.29.71c-.08.24-.12.49-.19.74l-.35 1.48a14.852 14.852 0 0 0 .3 6.11c1 4.05 3.65 7.54 6.72 10.48 6.26 5.89 14.25 10 22.54 13.42a185.86 185.86 0 0 0 26.27 8.31 345.807 345.807 0 0 0 57.33 8.44 457.22 457.22 0 0 0 58 .23 365.769 365.769 0 0 0 53.56-7 226.01 226.01 0 0 0 24.28-6.55 120.522 120.522 0 0 0 21.71-9.46 60.077 60.077 0 0 0 9.15-6.51 26.413 26.413 0 0 0 6.62-8.44l.5-1.22c.179-.399.319-.815.42-1.24l.3-1.26c.05-.21.12-.42.15-.63v-.65a12.545 12.545 0 0 0-.38-5 17.698 17.698 0 0 0-2.11-4.51 27.185 27.185 0 0 0-3.1-3.81 46.458 46.458 0 0 0-7.32-6 75.378 75.378 0 0 0-7.76-4.62 133.156 133.156 0 0 0-15.12-6.74 230.258 230.258 0 0 0-25.36-7.82c-7.07-1.76-12.62-2.88-16.39-3.6-1.88-.37-3.33-.61-4.29-.8l-1.47-.28s2 .29 5.78 1c3.78.71 9.33 1.77 16.42 3.51a224.952 224.952 0 0 1 25.41 7.74 133.646 133.646 0 0 1 15.18 6.71 77.098 77.098 0 0 1 7.8 4.63 47.065 47.065 0 0 1 7.39 6.07 27.943 27.943 0 0 1 3.14 3.85A17.965 17.965 0 0 1 392 311a12.99 12.99 0 0 1 .4 5.2l-.05.66c0 .22-.1.43-.15.65l-.31 1.29a6.958 6.958 0 0 1-.43 1.27l-.5 1.25a26.929 26.929 0 0 1-6.71 8.58 60.034 60.034 0 0 1-9.22 6.58 120.926 120.926 0 0 1-21.76 9.52 225.25 225.25 0 0 1-24.33 6.59 365.486 365.486 0 0 1-53.63 7 456.282 456.282 0 0 1-58.07-.22 345.838 345.838 0 0 1-57.42-8.47 184.618 184.618 0 0 1-26.34-8.34c-8.31-3.46-16.34-7.57-22.68-13.53-3.11-3-5.84-6.54-6.85-10.72a15.374 15.374 0 0 1-.3-6.29l.37-1.53c.06-.26.11-.51.19-.76l.29-.73.59-1.44c.23-.46.5-.91.75-1.36a31.722 31.722 0 0 1 8.15-8.9 67.193 67.193 0 0 1 9.88-6.3 131.3 131.3 0 0 1 20.52-8.43c6.78-2.2 13.4-3.92 19.76-5.36 6.36-1.44 12.48-2.58 18.28-3.49 5.8-.91 11.3-1.65 16.44-2.25 10.3-1.15 19.21-1.76 26.49-2.11 7.28-.35 12.95-.44 16.79-.47H248v-.01z"/><path fill="#F77021" d="M166.28 193.11s-.57.13-1.68.35c-1.11.22-2.77.54-4.94 1-4.34.9-10.73 2.29-18.84 4.51A193.072 193.072 0 0 0 112 209.18c-2.71 1.24-5.49 2.61-8.26 4.18a78.649 78.649 0 0 0-8.29 5.32 46.273 46.273 0 0 0-7.65 7 24.15 24.15 0 0 0-5.19 9.52 17.44 17.44 0 0 0 .83 11.19 28.766 28.766 0 0 0 6.92 9.69c5.92 5.67 13.43 10 21.42 13.67 16.11 7.32 34.5 12.23 54 15.89a451.77 451.77 0 0 0 62 6.84 534.823 534.823 0 0 0 67-1.19c22.86-1.91 45.11-5.27 66.05-10.77a197.722 197.722 0 0 0 30.08-10.32 103.777 103.777 0 0 0 13.49-7.2 51.897 51.897 0 0 0 11.45-9.66c3.19-3.73 5.54-8.3 5.68-13.12.02-.598 0-1.196-.06-1.79a12.977 12.977 0 0 0-.19-1.77l-.39-1.74a12.726 12.726 0 0 0-.57-1.68 25.37 25.37 0 0 0-3.43-6.13 47.14 47.14 0 0 0-10.15-9.37 92.91 92.91 0 0 0-11.61-6.79 164.575 164.575 0 0 0-23.78-9.33c-7.84-2.45-15.48-4.4-22.82-6a439.285 439.285 0 0 0-70.61-9c-8.4-.43-14.94-.45-19.37-.56l-5-.11-1.71-.06h1.71l5 .06c4.43.08 11 .06 19.38.47a434.595 434.595 0 0 1 70.68 8.85c7.35 1.62 15 3.55 22.86 6a163.56 163.56 0 0 1 23.85 9.34 92.037 92.037 0 0 1 11.68 6.74 47.691 47.691 0 0 1 10.25 9.45 25.68 25.68 0 0 1 3.5 6.25c.238.557.432 1.132.58 1.72l.41 1.78c.109.601.173 1.209.19 1.82.068.607.092 1.219.07 1.83a18.644 18.644 0 0 1-1.74 7.16 26.613 26.613 0 0 1-4 6.26 52.043 52.043 0 0 1-11.56 9.76 103.04 103.04 0 0 1-13.65 7.3 199.076 199.076 0 0 1-30.15 10.37c-21 5.51-43.25 8.88-66.14 10.79a533.869 533.869 0 0 1-67 1.18 452.72 452.72 0 0 1-62-6.87c-19.55-3.69-38-8.62-54.12-16-8-3.73-15.55-8.05-21.52-13.79a29.242 29.242 0 0 1-7-9.82 17.852 17.852 0 0 1-.82-11.44c1-3.573 2.803-6.87 5.27-9.64a46.206 46.206 0 0 1 7.73-7.08 77.936 77.936 0 0 1 8.33-5.32c2.78-1.57 5.57-2.94 8.29-4.18a192.185 192.185 0 0 1 28.93-10.13 288.93 288.93 0 0 1 18.88-4.42c4.35-.87 6.55-1.22 6.55-1.22zM201.34 344l-5 .79c-3.27.52-8.08 1.35-14.23 2.69a182.378 182.378 0 0 0-22 6.21 103.955 103.955 0 0 0-13.1 5.7 55.81 55.81 0 0 0-6.64 4.06 34.282 34.282 0 0 0-6.11 5.44 19.772 19.772 0 0 0-2.42 3.48 13.89 13.89 0 0 0-1.49 4c-.05.36-.14.72-.17 1.09l-.07 1.1c0 .73.1 1.47.16 2.21.154.733.348 1.457.58 2.17l.42 1.05.21.53.28.49a24.66 24.66 0 0 0 6 7.07 49.317 49.317 0 0 0 8.06 5.41 107.17 107.17 0 0 0 18.85 7.87 193.886 193.886 0 0 0 21 5.37 311.953 311.953 0 0 0 46.26 5.53c16.667.821 33.371.531 50-.87 17.08-1.48 33.7-4.09 49.27-8.49a124.2 124.2 0 0 0 22.2-8.46 55.936 55.936 0 0 0 9.65-6.23c.76-.57 1.41-1.27 2.11-1.9.7-.63 1.27-1.38 1.91-2.06a18.146 18.146 0 0 0 2.84-4.75 12.742 12.742 0 0 0-.44-10.55 25.344 25.344 0 0 0-6.88-8c-5.51-4.38-11.77-7.33-17.88-9.78a151.022 151.022 0 0 0-18.19-5.83c-5.94-1.53-11.71-2.74-17.24-3.71a341.807 341.807 0 0 0-53-4.85l-19.53-.1s6.95-.09 19.53 0a338.685 338.685 0 0 1 53 4.75c5.55 1 11.32 2.17 17.27 3.7a150.165 150.165 0 0 1 18.28 5.87c6.12 2.45 12.4 5.4 17.95 9.81a25.652 25.652 0 0 1 7 8.11 13.002 13.002 0 0 1 .45 10.77 18.704 18.704 0 0 1-2.88 4.83c-.65.69-1.24 1.44-1.94 2.09-.7.65-1.35 1.34-2.12 1.91a55.929 55.929 0 0 1-9.71 6.28 124.407 124.407 0 0 1-22.25 8.49 267.033 267.033 0 0 1-49.32 8.5 376.244 376.244 0 0 1-50.06.87 313.602 313.602 0 0 1-46.29-5.55 196.49 196.49 0 0 1-21-5.4 106.28 106.28 0 0 1-18.9-7.9 49.99 49.99 0 0 1-8.09-5.45 24.744 24.744 0 0 1-6.06-7.15l-.29-.5-.21-.54-.43-1.06c-.27-.72-.38-1.48-.58-2.21-.2-.73-.16-1.51-.16-2.26l.07-1.12c0-.37.12-.73.18-1.1a13.97 13.97 0 0 1 1.51-4.11 20.163 20.163 0 0 1 2.45-3.51 34.292 34.292 0 0 1 6.15-5.47 57.296 57.296 0 0 1 6.68-4.07 102.619 102.619 0 0 1 13.02-5.71 180.459 180.459 0 0 1 22.07-6.17c6.15-1.32 11-2.13 14.24-2.63s5.03-.75 5.03-.75z"/><path fill="#F77021" d="M331.921 435.47a10.37 10.37 0 0 0-.83-3.65c-.93-2.29-3.42-5.14-7.33-7.72-7.85-5.17-21-9.51-37.52-12.17a228.02 228.02 0 0 0-27.24-2.67 262.36 262.36 0 0 0-31.45.58c-5.53.43-11.18 1.07-16.91 2a160.23 160.23 0 0 0-17.36 3.67c-2.91.78-5.82 1.69-8.69 2.74a70.086 70.086 0 0 0-8.49 3.7 34.348 34.348 0 0 0-7.69 5.33c-2.27 2.12-4.12 5-4.17 8.2-.05 3.2 1.89 6.08 4.16 8.21a34.255 34.255 0 0 0 7.6 5.31 68.29 68.29 0 0 0 8.49 3.7c2.87 1.06 5.78 2 8.69 2.75a159.93 159.93 0 0 0 17.37 3.67c5.73.91 11.38 1.55 16.91 2a260.052 260.052 0 0 0 31.46.58 227.725 227.725 0 0 0 27.32-2.7c16.54-2.66 29.67-7 37.53-12.17 3.91-2.58 6.39-5.43 7.32-7.72a10.35 10.35 0 0 0 .83-3.64c0 .15 0 .4-.07.95a4.96 4.96 0 0 1-.21 1.16 7.39 7.39 0 0 1-.52 1.54c-.92 2.31-3.4 5.18-7.31 7.78-7.86 5.2-21 9.57-37.55 12.25a229.689 229.689 0 0 1-27.3 2.7 262.647 262.647 0 0 1-31.48-.56c-5.53-.44-11.18-1.07-16.92-2a157.16 157.16 0 0 1-17.39-3.66c-2.92-.78-5.83-1.69-8.71-2.75a70.86 70.86 0 0 1-8.52-3.71 34.82 34.82 0 0 1-7.74-5.36 15.491 15.491 0 0 1-2.94-3.75 8.992 8.992 0 0 1 0-9.22 15.541 15.541 0 0 1 3-3.74 34.887 34.887 0 0 1 7.74-5.36 71.759 71.759 0 0 1 8.51-3.71c2.89-1.06 5.8-2 8.72-2.75a160.358 160.358 0 0 1 17.38-3.66c5.74-.91 11.39-1.55 16.92-2a260.585 260.585 0 0 1 31.48-.56 227.994 227.994 0 0 1 27.3 2.69c16.54 2.68 29.69 7.05 37.55 12.25 3.91 2.6 6.39 5.47 7.31 7.78.228.494.402 1.01.52 1.54.116.377.186.767.21 1.16-.01.58.01.84.02.99zM111 280.37a3.194 3.194 0 0 1-1.976 2.94 3.185 3.185 0 0 1-4.343-2.331 3.195 3.195 0 0 1 3.129-3.809 3.189 3.189 0 0 1 3.19 3.2zM396.52 285.72a3.19 3.19 0 1 0 0-6.38 3.19 3.19 0 0 0 0 6.38zM269.501 400.17a3.2 3.2 0 1 1-6.155-1.219 3.197 3.197 0 0 1 2.965-1.971 3.19 3.19 0 0 1 3.19 3.19zM172.551 318.13a1.597 1.597 0 0 1-.988 1.478 1.6 1.6 0 1 1 .988-1.478zM371.06 356.81a1.6 1.6 0 1 1-3.201 0 1.6 1.6 0 0 1 3.201 0z"/><path fill="#F77021" d="M245 430.64a1.6 1.6 0 1 1-3.2.001 1.6 1.6 0 0 1 3.2-.001zM161.72 151.97a.8.8 0 1 0 0-1.6.8.8 0 0 0 0 1.6zM305.65 274.001c-38.77 10.26-76.14 9.48-116.87 0l-4.78-74.48c42.09 8.19 84.34 7.15 121.63-1.76l.02 76.24z"/><path fill="#fff" d="M305.65 274.001c-38.77 10.26-76.14 9.48-116.87 0l-4.78-74.48c42.09 8.19 84.34 7.15 121.63-1.76l.02 76.24z" opacity=".8"/><path fill="#F77021" d="M299.639 262.65a.96.96 0 0 1-.25.12l-.73.31c-.65.26-1.59.68-2.84 1.13a107.008 107.008 0 0 1-10.73 3.36 140.256 140.256 0 0 1-36.78 4.2 214.65 214.65 0 0 1-36.86-3.94c-4.67-.89-8.42-1.71-11-2.31-1.29-.29-2.29-.54-3-.71l-.77-.2c-.17-.05-.26-.08-.25-.09h.27l.78.15 3 .61c2.59.54 6.36 1.31 11 2.14a226.273 226.273 0 0 0 36.8 3.79 144.978 144.978 0 0 0 36.69-4c4.59-1.16 8.25-2.32 10.75-3.21 1.26-.41 2.21-.8 2.87-1l.75-.26a.773.773 0 0 1 .3-.09z"/><path fill="#F77021" d="M242.67 265.681a25.392 25.392 0 0 1-14.92-.5v-26.5c4.923-1 9.997-1 14.92 0v27zM266.77 264.111a1.053 1.053 0 0 1 0-.21v-.57c0-.54 0-1.28-.07-2.22 0-1.95-.09-4.74-.16-8.23-.1-7-.25-16.87-.42-28.28l.2.24a40.317 40.317 0 0 0-15.45 0l.21-.25v.52c.16 15.66.31 29.81.41 39.91l-.15-.18c2.141.465 4.32.733 6.51.8a24.502 24.502 0 0 0 4.91-.41 23.19 23.19 0 0 0 3-.79l.75-.26c.089-.04.183-.066.28-.08l-.24.11-.76.33c-.977.37-1.98.668-3 .89a23.52 23.52 0 0 1-4.95.49 34.237 34.237 0 0 1-6.58-.72h-.14v-.2c-.15-10.1-.35-24.24-.57-39.9v-.75h.22a40.313 40.313 0 0 1 15.64 0l.2.05v.2c.09 11.46.16 21.35.22 28.41v10.92c0 .15-.05.18-.06.18zM289.709 261c-4 2.16-9.25 2.45-14.93 2.12v-43.78a31.926 31.926 0 0 1 14.93 0V261zM219 263.521s0-.41-.05-1.13 0-1.79-.06-3.06c0-2.66-.07-6.35-.11-10.74l.14.21a33.35 33.35 0 0 0-14.37-2.39l.24-.26v14.93l-.13-.2a27.915 27.915 0 0 0 5.76 1.64c1.77.32 3.32.5 4.61.63l3 .25c.355.02.709.06 1.06.12a8.15 8.15 0 0 1-1.06 0c-.7 0-1.71 0-3-.13s-2.86-.24-4.64-.53a26.793 26.793 0 0 1-5.88-1.59l-.13-.06v-.15-15.17h.26c4.985-.28 9.97.572 14.58 2.49l.15.05v.16c0 4.45-.09 8.19-.12 10.89 0 1.25 0 2.25-.06 3a6.04 6.04 0 0 1-.19 1.04zM226 224.791c-.965.155-1.943.215-2.92.18-1.81 0-4.31 0-7.06-.17s-5.23-.42-7-.66a14.814 14.814 0 0 1-2.88-.52c.972-.024 1.945.029 2.91.16 1.8.14 4.28.34 7 .5 2.72.16 5.23.26 7 .32.986-.012 1.973.052 2.95.19zM223.77 228.05c-.852.085-1.709.085-2.56 0-1.58-.08-3.76-.22-6.17-.4-2.41-.18-4.59-.38-6.16-.55a12.646 12.646 0 0 1-2.53-.38 12.882 12.882 0 0 1 2.56 0c1.59.08 3.76.22 6.17.4 2.41.18 4.58.38 6.15.55.857.043 1.707.17 2.54.38z"/><path fill="#F77021" d="M229.229 232.321v-.93c0-.59.05-1.5.1-2.58.1-2.26.25-5.44.44-9.35l.19.21a213.865 213.865 0 0 1-27.63-1.54l.29-.24V218.711l-.05.84c0 .56-.06 1.12-.1 1.67-.06 1.11-.12 2.2-.19 3.27-.13 2.15-.25 4.23-.37 6.22l-.21-.26c8 1 14.89 1.4 19.78 1.59l5.73.17 1.5.05h.55a2.981 2.981 0 0 1-.5 0c-.34 0-.88 0-1.55.05h-5.74c-4.9-.1-11.82-.46-19.83-1.41h-.23v-.24c.11-2 .23-4.07.35-6.22.06-1.07.12-2.16.19-3.27l.09-1.67V217.841l.29-.24a236.078 236.078 0 0 0 27.67 1.69h.2v.2c-.27 3.94-.49 7.16-.65 9.44-.08 1.06-.15 1.91-.2 2.53a4.464 4.464 0 0 1-.12.86z"/><path fill="#F77021" d="M232.639 237.93a11.806 11.806 0 0 1-1.929-2.67 9.563 9.563 0 0 1-1.481-2.94 11.86 11.86 0 0 1 1.931 2.67 9.558 9.558 0 0 1 1.479 2.94zM70.64 141l12.67 76.68s19.35 36.22 70.75 44.38l-8.29-68.44S98.23 178.9 70.64 141z"/><path fill="#fff" d="M70.64 141l12.67 76.68s19.35 36.22 70.75 44.38l-8.29-68.44S98.23 178.9 70.64 141z" opacity=".8"/><path fill="#F77021" d="M147.43 256.58l-.32-.08-1-.27-3.62-1.11c-1.57-.5-3.52-1-5.69-1.9l-3.49-1.33c-1.25-.47-2.56-1-3.89-1.6-2.67-1.22-5.64-2.48-8.66-4.18-3.02-1.7-6.24-3.53-9.52-5.62a95.27 95.27 0 0 1-19.1-16.55 56.631 56.631 0 0 1-6.89-9.61l-5.8-37.5c-.7-4.68-1.27-8.43-1.66-11.06l-.42-3-.1-.77a1.089 1.089 0 0 1 0-.27c.032.084.052.172.06.26l.15.77.51 3c.43 2.62 1 6.37 1.81 11 1.5 9.42 3.6 22.54 6 37.47v-.07a57.2 57.2 0 0 0 6.82 9.5 95.972 95.972 0 0 0 19 16.49c3.26 2.1 6.37 4.07 9.45 5.64 3.08 1.57 5.95 3 8.61 4.22 1.32.65 2.63 1.16 3.86 1.63L137 253c2.15.91 4.09 1.45 5.64 2l3.59 1.2.93.32c.092.011.182.031.27.06z"/><path fill="#F77021" d="M142.909 234.32s0 .06-.17.16l-.55.44-2.13 1.66-8.06 6.19-.12.1-.1-.14c-2.72-3.75-6.07-8.39-9.87-13.66l.3.05-7.57 5.4-.25.18-.11-.3c-3-8-6.27-17-9.76-26.47l-1.4-3.81h.47l-6.16 12.24-.27.53-.19-.56c-5.37-15.46-9.92-28.6-12.88-37.13h.27c-.81 3.42-1.45 6.11-1.89 8-.22.9-.4 1.6-.52 2.1l-.14.54a.613.613 0 0 1-.07.18v-.19c0-.14.06-.32.1-.54l.45-2.12c.41-1.89 1-4.59 1.76-8l.11-.48.17.47c3 8.51 7.63 21.62 13.08 37.05h-.46l6.15-12.24.27-.54.21.56 1.4 3.81c3.47 9.48 6.77 18.47 9.71 26.49l-.36-.11 7.6-5.36.17-.12.13.17 9.77 13.68h-.23l8.17-6.07 2.18-1.6.57-.4.22-.16zM141.14 197.551a4.7 4.7 0 0 1-1.08-.24c-.68-.19-1.67-.49-2.87-.89a94.016 94.016 0 0 1-9.19-3.62 98.068 98.068 0 0 1-8.83-4.53c-1.09-.64-2-1.18-2.56-1.57a4.545 4.545 0 0 1-.89-.65c.351.119.687.28 1 .48l2.64 1.42c2.23 1.19 5.34 2.79 8.86 4.38 3.52 1.59 6.77 2.86 9.14 3.75 1.11.4 2 .75 2.81 1 .343.112.669.27.97.47zM143.179 200.731a10.353 10.353 0 0 1-2.48-.44 57.807 57.807 0 0 1-5.83-1.74 58.44 58.44 0 0 1-5.61-2.35 10.787 10.787 0 0 1-2.19-1.23c.81.227 1.596.528 2.35.9 1.43.59 3.41 1.39 5.63 2.19 2.22.8 4.26 1.43 5.75 1.88.816.189 1.613.454 2.38.79z"/><path fill="#F77021" d="M122.929 229.09c0 .64-.39 1.15-.87 1.15s-.86-.51-.86-1.15c0-.64.39-1.15.86-1.15s.87.52.87 1.15zM103.259 206c.475 0 .86-.515.86-1.15 0-.635-.385-1.15-.86-1.15s-.86.515-.86 1.15c0 .635.385 1.15.86 1.15zM85.13 179.56c0 .63-.39 1.15-.86 1.15s-.86-.52-.86-1.15c0-.63.38-1.15.86-1.15s.86.52.86 1.15zM406 154.641l-6.35 77.9s-18.57 33.31-69.65 34.58l6.31-78.43s44.57-1.81 69.69-34.05z"/><path fill="#F77021" d="M405 150.58c-1.66-5.39-5.7-13.08-15.3-14.68l-11.32 104.78s21.31-4.25 21.88-15.93c.05-1 4.31-53.09 5.38-66a21.118 21.118 0 0 0-.64-8.17z"/><path fill="#fff" d="M406 154.641l-6.35 77.9s-18.57 33.31-69.65 34.58l6.31-78.43s44.57-1.81 69.69-34.05z" opacity=".8"/><path fill="#F77021" d="M404.449 174.5a46.143 46.143 0 0 0-8.13 25.19c-.05 2.59.1 5.26-.89 7.65-.99 2.39-3.55 4.39-6 3.71-2.45-.68-3.77-3.8-6.05-5.24a6.747 6.747 0 0 0-6.85.15 11.536 11.536 0 0 0-4.5 5.47c-1.85 4.27-2 9.09-3.34 13.54-1.34 4.45-4.72 8.94-9.38 9.14-1.7.07-3.38-.44-5.08-.39-3.59.11-6.71 2.78-8.38 6-1.67 3.22-2.18 6.83-2.66 10.39 0 0 27.22 2.6 57.77-33.48l3.49-42.13z"/><path fill="#F77021" d="M361.18 221.75c0 1-.48 1.75-1.07 1.75-.59 0-1.06-.78-1.06-1.75s.47-1.75 1.06-1.75c.59 0 1.07.79 1.07 1.75zM373.999 189.37c0 1-.48 1.75-1.07 1.75-.59 0-1.06-.79-1.06-1.75s.47-1.75 1.06-1.75c.59 0 1.07.78 1.07 1.75z"/><path fill="#F77021" d="M403.84 178.261a2.397 2.397 0 0 1-.17.44l-.58 1.27c-.54 1.13-1.29 2.73-2.24 4.75l-8.12 16.91-.11.23-.22-.14-19.25-12.18.38-.12c-.25.62-.53 1.29-.8 2l-12.43 30.41-.09.21-.19-.11c-4.8-2.7-8.72-4.87-11.44-6.35-1.37-.74-2.43-1.31-3.16-1.68l-.83-.4-.29-.13a23.21 23.21 0 0 1 4.38 2c2.76 1.42 6.7 3.54 11.53 6.2l-.28.1 12.32-30.49c.27-.67.55-1.34.8-2l.12-.29.26.17 19.22 12.24-.33.09c3.41-6.93 6.27-12.72 8.29-16.82l2.39-4.67.64-1.23c.055-.142.122-.279.2-.41z"/></svg>