<svg xmlns="http://www.w3.org/2000/svg" fill="none" viewBox="0 0 500 500"><path fill="#C1EEE6" d="M126.05 399.25s44.5 26.64 98.5 4.62 74-69.78 103.42-104.79c15.41-18.34 39.4-27.63 58.18-42.7 60-48.18 44.67-135.68-6-162.48-43.87-23.2-96.41-19-163 11.83S102.62 156.15 64.58 223.25c-38.04 67.1 6.42 139.12 61.47 176z" opacity=".7"/><path fill="#2F3F5C" d="M427.08 325.55c-3.21-.59-7.39 3.58-8.76 6.15-.1.18-1.07 2.63-1.41 3.56v-.09a51.119 51.119 0 0 0-.5-9 69.208 69.208 0 0 0-1.58-7.85c-.6-2.41-1.3-4.57-1.94-6.48-.35-1-.69-2-1-2.84h.06c.06 0 .29-3.94.27-4.19-.16-2.91-2.19-8.44-5.35-9.27a3.87 3.87 0 0 0-4.71 3.31c-.36 2.28 1.14 4.69 2.65 6.26 1.51 1.57 5.84 3.37 6.9 3.8.32.9.66 1.89 1 3 .59 1.92 1.24 4.09 1.79 6.5.16.68.31 1.38.46 2.1-.47-1.09-1.18-2.64-1.26-2.78-1.49-2.51-5.84-6.49-9-5.76a3.847 3.847 0 0 0-1.44.717 3.847 3.847 0 0 0-1.451 2.792c-.032.542.05 1.084.241 1.591.73 2.19 3.17 3.64 5.24 4.33 2.07.69 6.87.3 7.92.19.28 1.49.54 3 .72 4.66.359 2.935.46 5.897.3 8.85v.54c-.14-.56-1.15-3.7-1.25-3.91-1.2-2.66-5.09-7.09-8.34-6.72a3.876 3.876 0 0 0-2.668 1.681 3.86 3.86 0 0 0-.532 3.109c.49 2.25 2.76 4 4.74 4.87 2.27 1.05 7.78 1.06 8 1.06a69.303 69.303 0 0 1-1.31 8.74c-.45 2.14-1 4.29-1.55 6.44-.2-.73-1.14-3.64-1.23-3.84-1.2-2.66-5.09-7.09-8.34-6.72a3.876 3.876 0 0 0-2.668 1.681 3.86 3.86 0 0 0-.532 3.109c.49 2.25 2.76 4 4.74 4.88 2.17 1 7.31 1.05 8 1.06-.25 1-.51 1.94-.78 2.92-.86 3.18-1.74 6.37-2.51 9.54-.27 1.09-.51 2.17-.73 3.25-.34-1.12-1-3.08-1-3.24-1.21-2.66-5.1-7.09-8.35-6.71a3.842 3.842 0 0 0-3.22 4.57c-2.74.87-4.75 5.46-5.06 8v1.4c-.2-1-.38-2.06-.54-3.11-.44-2.91-.8-5.88-1.17-8.85l-.24-1.87c1.06-.34 4.95-1.67 6.43-3 1.48-1.33 3-3.42 2.79-5.51a3.51 3.51 0 0 0-1.306-2.545 3.517 3.517 0 0 0-2.764-.735c-2.92.56-5.09 5.45-5.42 8.08v1.5c-.22-1.61-.47-3.21-.76-4.79a62.058 62.058 0 0 0-2-8.06c.62-.19 5-1.62 6.63-3.07 1.63-1.45 3-3.43 2.79-5.52a3.494 3.494 0 0 0-2.609-3.204 3.513 3.513 0 0 0-1.461-.066c-2.92.55-5.09 5.44-5.42 8.07 0 .19-.05 2.58 0 3.48v-.08a47.168 47.168 0 0 0-3.59-7.43 62.598 62.598 0 0 0-3.91-6.14c-1.3-1.84-2.6-3.45-3.76-4.86a97.6 97.6 0 0 0-1.79-2.07h.06c.05 0-1.05-3.43-1.14-3.64-1.09-2.42-4.62-6.44-7.57-6.11a3.503 3.503 0 0 0-2.423 1.521 3.504 3.504 0 0 0-.487 2.819c.44 2.05 2.5 3.61 4.3 4.44 1.8.83 6 .95 7.08 1 .57.66 1.18 1.39 1.82 2.19 1.13 1.44 2.39 3.06 3.64 4.93.36.52.72 1.07 1.08 1.62-.76-.77-1.86-1.85-2-1.94-2.08-1.64-7.07-3.59-9.53-1.93a3.494 3.494 0 0 0-1.457 2.463 3.486 3.486 0 0 0 .867 2.727c1.34 1.61 3.89 2.05 5.86 2 1.97-.05 5.92-2 6.77-2.43.74 1.17 1.46 2.4 2.14 3.71a45.399 45.399 0 0 1 3.15 7.4c.05.16.09.32.14.48-.3-.43-2.19-2.77-2.34-2.91-1.89-1.86-6.63-4.34-9.26-3a3.514 3.514 0 0 0-1.15 5.1c1.15 1.75 3.63 2.46 5.61 2.59 2.27.15 6.94-1.65 7.16-1.73a60.2 60.2 0 0 1 1.74 7.83c.32 2 .57 4 .79 6-.4-.56-2.15-2.72-2.29-2.86-1.89-1.86-6.63-4.34-9.26-3a3.5 3.5 0 0 0-1.714 2.293 3.524 3.524 0 0 0 .564 2.807c1.15 1.74 3.63 2.46 5.61 2.58 2.16.14 6.54-1.49 7.11-1.71.1.91.2 1.82.29 2.73.31 3 .61 6 1 8.91.13 1 .28 2 .44 3-.65-.83-1.83-2.28-1.95-2.4-1.89-1.86-6.63-4.34-9.26-3a3.514 3.514 0 0 0-1.15 5.1c1.15 1.75 3.63 2.46 5.61 2.58 1.98.12 5.77-1.21 6.87-1.62.28 1.67.61 3.31 1 4.91.19.69.33 1.41.54 2.06l.6 2c.46 1.32.88 2.55 1.33 3.78.22.58.43 1.16.65 1.73-.54-.94-1.36-2.35-1.45-2.47-1.59-2.13-5.9-5.3-8.71-4.34a3.52 3.52 0 0 0-1.91 4.87c.88 1.9 3.22 3 5.15 3.41 1.93.41 6.52-.45 7.25-.61.57 1.47 1.13 2.88 1.68 4.2.55 1.32 1.19 2.8 1.75 4.05h-4.82v3.17h1.15l1.88 22.23h15l1.87-22.23h.87v-3.17h-4.26c-.12-1.59-.23-3.31-.32-5.15-.07-1.43-.12-2.93-.16-4.48.8-.07 5.78-.57 7.82-1.74 1.89-1.08 4-3 4.3-5.27a3.865 3.865 0 0 0-.799-3.047 3.865 3.865 0 0 0-2.801-1.443c-3.27-.09-6.76 4.66-7.73 7.41-.07.18-.58 2.39-.8 3.49v-2.87-4.32c0-.75.07-1.5.11-2.26.04-.76.14-1.49.2-2.25.12-1.11.28-2.25.46-3.39 1.45.07 5.65.2 7.61-.55s4.41-2.35 5-4.56a3.859 3.859 0 0 0-2.88-5c-3.21-.59-7.38 3.57-8.76 6.15-.05.08-.3.7-.58 1.42.21-1.13.43-2.27.68-3.4.7-3.16 1.51-6.36 2.3-9.56.17-.67.33-1.34.5-2 1.22.07 5.74.24 7.79-.55s4.41-2.34 5-4.56a3.87 3.87 0 0 0-2.88-5c-3.22-.58-7.39 3.58-8.76 6.16-.05.09-.33.76-.63 1.53.41-1.74.79-3.49 1.11-5.23a68.351 68.351 0 0 0 1.15-9.06c.71.05 5.8.32 8-.53 2-.78 4.4-2.34 5-4.56a3.856 3.856 0 0 0-1.265-4.289 3.857 3.857 0 0 0-1.415-.701zm-26.85 69.57c-.666-1.44-1.393-3.02-2.18-4.74-.53-1.19-1.06-2.44-1.6-3.74a32.565 32.565 0 0 0 5-3.06 36.611 36.611 0 0 0 6.07 1.48c0 1.73 0 3.4.07 5 .05 1.82.12 3.51.2 5.08l-7.56-.02zm7.9-22.1c-.08.78-.22 1.57-.25 2.33s-.11 1.5-.17 2.25c0 1.54-.11 3-.12 4.41v2c-.17-1.18-.46-3-.51-3.11-.79-2.81-4-7.78-7.23-7.9a3.876 3.876 0 0 0-2.889 1.253 3.869 3.869 0 0 0-1.001 2.987 5 5 0 0 0 .46 1.73 13.13 13.13 0 0 0-.61 3.91c0 .18.29 2.21.46 3.22-.32-.79-.65-1.59-1-2.42-.47-1.18-.93-2.45-1.39-3.67-.21-.64-.42-1.29-.64-2-.22-.71-.37-1.31-.56-2-.26-1-.5-2-.72-3 1.25-.42 4.85-1.68 6.26-3a8.936 8.936 0 0 0 2.61-3.88l.52.27c2 .91 6.41 1 7.7 1.05-.366 1.92-.673 3.77-.92 5.55v.02z"/><path fill="#2F3F5C" d="M423.19 318.45c1.75-1.29 3.63-3.43 3.66-5.73a3.87 3.87 0 0 0-4.09-4.05c-3.26.29-6.18 5.41-6.83 8.25-.06.25-.49 4.19-.43 4.18.06-.01 5.63-1.1 7.69-2.65zM380.58 330.07s4.39-2.8 5.65-4.76c1.06-1.67 2-4.09 1.23-6.05a3.5 3.5 0 0 0-1.928-2.115 3.515 3.515 0 0 0-2.862.025c-2.67 1.3-3.47 6.6-3.09 9.22.03.22.95 3.71 1 3.68z"/><path fill="#fff" stroke="#2F3F5C" stroke-linecap="round" stroke-linejoin="round" d="M425.94 139.76H217.29v125.77h208.65V139.76z"/><path fill="#fff" stroke="#2F3F5C" stroke-linecap="round" stroke-linejoin="round" d="M425.94 261.67H217.29v3.86h208.65v-3.86z"/><path stroke="#2F3F5C" stroke-linecap="round" stroke-linejoin="round" stroke-width=".72" d="M392.29 225c.07.12 1.62-1.1 1.7-1 .16.28-6.43 5.76-6.27 6 .35.62 12.84-8.19 13.18-7.61.34.58-15.08 10.15-14.68 10.85.52.89 17.84-11.25 18.26-10.54.42.71-19.25 11.6-18.8 12.38.45.78 20.18-12.76 20.67-11.93.49.83-21.49 12.43-21 13.35.49.92 21.81-13.75 22.31-12.88.5.87-22.94 15.19-22.45 16 .66 1.15 24.7-15.61 25.28-14.6.58 1.01-25.78 14.35-25.23 15.31.55.96 25.19-16 25.83-14.91.55.94-26.38 14.92-25.73 16.05.65 1.13 26-16.54 26.67-15.4.67 1.14-26.66 17.06-26.09 18 .68 1.17 27.4-17.34 28.06-16.2.66 1.14-28.17 16.6-27.44 17.86.73 1.26 27.83-17.83 28.6-16.51.63 1.1-29 15.9-28.43 16.92.7 1.21 28-17.77 28.71-16.57.71 1.2-29.14 16-28.48 17.13.77 1.32 28.11-17.8 28.79-16.62.59 1-29.15 16.08-28.51 17.18.64 1.1 28.19-17.79 28.85-16.65.66 1.14-28.2 17.57-27.47 18.84.63 1.09 27.94-17.8 28.67-16.55.73 1.25-28.45 16.44-27.8 17.56.65 1.12 27.68-17.43 28.31-16.34.63 1.09-28.27 16.06-27.68 17.08.73 1.26 27.33-17.22 27.95-16.14.62 1.08-26.65 16.77-26 17.89.65 1.12 25.82-16.58 26.54-15.32.58 1-27.05 14.28-26.38 15.43.67 1.15 25.77-16.22 26.43-15.06.66 1.16-26.91 14.28-26.32 15.3.59 1.02 25.66-16.35 26.33-15.19.57 1-24.26 15.79-23.68 16.8.58 1.01 23.13-14.81 23.76-13.72.47.82-22.08 13.72-21.55 14.63.53.91 20.77-13.09 21.24-12.27.47.82-21.36 11.55-20.87 12.4.49.85 20.22-13 20.79-12 .48.82-17.14 12.07-16.75 12.74.39.67 15-9.63 15.4-8.89.3.52-11.49 8.21-11.21 8.7.28.49 8.62-5.57 8.88-5.12.12.2-5.41 3.82-5.27 4 .14.18 2.57-1.71 2.67-1.54.1.17-2.08 1.2-2 1.27.08.07 1.61-1.11 1.69-1"/><path fill="#fff" d="M399.38 246.29a3.446 3.446 0 0 0 1.4-.62 3.53 3.53 0 0 0 .87-1 3.595 3.595 0 0 0 .55-2 3.274 3.274 0 0 0-.48-1.81 2.743 2.743 0 0 0-1.43-1.09c.36-.164.68-.403.94-.7a2.698 2.698 0 0 0 .58-1.82 3.11 3.11 0 0 0-.57-1.88 3.783 3.783 0 0 0-3.2-1.31h-6v12.33h5.56a8.693 8.693 0 0 0 1.78-.1zm-4.84-10h2.68c.494-.016.987.048 1.46.19a1.115 1.115 0 0 1 .67 1.14 1.148 1.148 0 0 1-.51 1.08 2.419 2.419 0 0 1-1.3.31h-3v-2.72zm0 8.05V241h3c.42-.01.837.061 1.23.21a1.324 1.324 0 0 1 .79 1.32 1.536 1.536 0 0 1-.82 1.54 2.789 2.789 0 0 1-1.24.22l-2.96.05zM404.29 245.639a4.993 4.993 0 0 0 3.21 1.12 4.396 4.396 0 0 0 3.43-1.33 3 3 0 0 0 .89-1.65h-2.44a1.886 1.886 0 0 1-.49.63 1.997 1.997 0 0 1-1.32.42 2.448 2.448 0 0 1-1.32-.34 2.196 2.196 0 0 1-.95-1.93h6.64c.025-.604.001-1.209-.07-1.81a4.768 4.768 0 0 0-.73-1.89 3.707 3.707 0 0 0-1.58-1.34 5.098 5.098 0 0 0-2.14-.43 4.414 4.414 0 0 0-1.765.293 4.411 4.411 0 0 0-1.505.967 4.99 4.99 0 0 0-1.25 3.65 4.404 4.404 0 0 0 1.39 3.64zm1.7-6.06a1.894 1.894 0 0 1 1.43-.52 2.075 2.075 0 0 1 1.41.49 2.016 2.016 0 0 1 .64 1.44h-4.11a2.429 2.429 0 0 1 .64-1.41h-.01zM409.94 234.83h-5.36v1.25h5.36v-1.25z"/><path stroke="#2F3F5C" stroke-linecap="round" stroke-linejoin="round" stroke-width=".72" d="M388.35 149c.07.13 1.62-1.1 1.69-1 .16.29-6.73 6.2-6.54 6.52.32.55 13.68-8.72 14-8.11.32.61-14.71 8.21-14.38 8.79.33.58 14.76-9.38 15.13-8.74.37.64-16.21 9.76-15.86 10.37.48.83 17.25-10.89 17.65-10.19.4.7-19.09 13-18.62 13.81.47.81 21.63-13.86 22.22-12.83.47.8-22.87 13-22.32 13.93.55.93 22.75-14.52 23.35-13.48.51.88-23.9 14.81-23.41 15.66.49.85 24.75-15.63 25.33-14.62.58 1.01-25.85 14.34-25.27 15.35.58 1.01 25.19-16.13 25.87-14.94.68 1.19-26.34 14.81-25.8 15.75.64 1.11 25.89-16.33 26.48-15.29.59 1.04-27.08 14.64-26.45 15.74.63 1.1 26.16-16.56 26.8-15.47.64 1.09-27.43 14.55-26.74 15.75.69 1.2 26.32-16.6 26.93-15.55.61 1.05-27.3 15.53-26.66 16.63.64 1.1 26.89-17 27.51-15.89.71 1.23-28.07 15.05-27.46 16.12.76 1.31 27-17 27.64-15.95.64 1.05-27.86 16.38-27.25 17.44.71 1.24 27.56-17.57 28.28-16.33.62 1.07-28.05 17.32-27.36 18.51.69 1.19 28.12-17.82 28.8-16.63.68 1.19-28.17 17.66-27.57 18.7.6 1.04 28.06-17.85 28.78-16.61.72 1.24-29.37 15.56-28.66 16.79.71 1.23 28.1-17.7 28.74-16.59.64 1.11-28.57 16.55-28 17.56.68 1.18 27.81-17.56 28.46-16.43.65 1.13-28.21 16.35-27.53 17.52.68 1.17 27.34-17.28 28-16.16.66 1.12-28 15.62-27.33 16.81.67 1.19 26.83-17.15 27.55-15.91.72 1.24-26.1 16.45-25.43 17.61.67 1.16 25.28-15.9 25.84-14.92.56.98-24.4 15.13-23.83 16.11.57.98 23.29-14.83 23.88-13.83.59 1-23.87 13.15-23.35 14.05.52.9 22.76-14.43 23.31-13.46.55.97-22 13.32-21.51 14.17.59 1 20.66-13.26 21.24-12.26.48.83-19.07 12.2-18.65 12.92.42.72 17.44-11.19 17.92-10.35.36.61-17.09 9.77-16.65 10.52.44.75 15.76-10.09 16.19-9.35.31.54-12.57 8.71-12.24 9.29.33.58 10-6.37 10.25-5.92.13.22-5.44 4.31-5.32 4.53.12.22 1.77-1.18 1.84-1.06.07.12-1.78.95-1.74 1 .04.05 1.6-1.12 1.69-1"/><path fill="#fff" d="M395.27 174.25h4.29v-10.74h3l.32-3.6h-3.32v-2c0-.84.17-1.18 1-1.18h2.33V153h-3c-3.2 0-4.64 1.4-4.64 4.1v2.86H393v3.64h2.23l.04 10.65z"/><path stroke="#2F3F5C" stroke-linecap="round" stroke-linejoin="round" stroke-width=".72" d="M339.33 178.49c.07.12 1.62-1.11 1.7-1 .08.11-5.43 4.37-5.3 4.59.29.5 10.17-6.51 10.45-6 .28.51-12.48 8.4-12.18 8.92.3.52 15.16-9.75 15.59-9 .43.75-17.31 11.7-16.84 12.51.47.81 20-12.72 20.53-11.85.53.87-21.51 14.13-21 15 .51.87 23.42-14.77 24-13.83.58.94-24.49 13.29-24 14.15.65 1.12 23.61-15.15 24.27-14 .51.89-24.86 13.74-24.3 14.72.65 1.13 24.26-15.57 24.94-14.39.57 1-25.28 15.92-24.74 16.84.63 1.1 26.18-16.44 26.75-15.44.57 1-26.72 17.2-26.11 18.29.61 1.09 27.47-17.47 28.17-16.26.58 1-28.43 16.16-27.75 17.35.78 1.35 27.88-17.56 28.51-16.46.63 1.1-29 15.71-28.29 17 .71 1.29 27.92-17.83 28.65-16.55.6 1-29.14 15.84-28.44 17 .7 1.16 28.1-17.71 28.74-16.59.64 1.12-28.95 16.38-28.31 17.5.75 1.29 28.18-17.8 28.84-16.65.66 1.15-29.36 15.66-28.68 16.88.68 1.22 28.14-17.87 28.85-16.65.71 1.22-28 17.81-27.35 18.88.65 1.07 27.9-17.57 28.53-16.47.73 1.26-28.63 16-27.92 17.18.71 1.18 27.58-17.55 28.28-16.33.6 1-27.71 16.45-27 17.68.71 1.23 26.73-17.15 27.47-15.87.64 1.11-27.47 15.32-26.83 16.43.64 1.11 26.36-16.77 27-15.61.64 1.16-26.67 15.3-26 16.39.67 1.09 25.53-16.24 26.18-15.12.5.88-24.23 15.69-23.7 16.61.53.92 23.11-14.87 23.76-13.73.65 1.14-23.61 13.11-23 14.09.61.98 22.46-14.19 23-13.27.54.92-21.36 13.18-20.8 14.07.56.89 19.83-12.72 20.38-11.76.46.78-20.57 11-20.08 11.85.49.85 19.58-12.32 20-11.56.42.76-19.75 10.97-19.3 11.72.45.75 18.55-11.82 19-11 .38.65-18.34 10.45-17.9 11.22.44.77 17-11 17.52-10.11.37.64-13.59 9.6-13.24 10.21.35.61 10.95-7 11.24-6.49.16.28-6.58 5.1-6.42 5.36.16.26 2.89-1.92 3-1.73.11.19-2.88 1.53-2.81 1.65.07.12 2.6-1.74 2.71-1.56.11.18-2.1 1.21-2.06 1.29.04.08 1.62-1.11 1.69-1"/><path fill="#fff" d="M339.67 198.999a10.939 10.939 0 0 0 16.85-9.72 7.754 7.754 0 0 0 1.92-2 7.451 7.451 0 0 1-2.21.61 3.809 3.809 0 0 0 1.69-2.13 7.648 7.648 0 0 1-2.44.93 3.857 3.857 0 0 0-6.326 1.054 3.854 3.854 0 0 0-.244 2.466 10.929 10.929 0 0 1-7.94-4 3.848 3.848 0 0 0 1.2 5.14 3.794 3.794 0 0 1-1.75-.48 3.86 3.86 0 0 0 3.09 3.83 3.763 3.763 0 0 1-1.74.06 3.84 3.84 0 0 0 3.6 2.68 7.702 7.702 0 0 1-5.7 1.56z"/><path stroke="#2F3F5C" stroke-linecap="round" stroke-linejoin="round" stroke-width=".72" d="M292.25 148.78c.07.12 1.61-1.12 1.69-1 .19.33-6.77 6.28-6.58 6.61.34.6 13.8-8.85 14.18-8.19.38.66-15 8.75-14.73 9.29.27.54 15.49-10 15.94-9.21.45.79-16.63 9.25-16.26 9.89.37.64 16.56-10.66 17-9.84.44.82-18.48 12.7-18.06 13.44.42.74 21.15-13.46 21.69-12.52.54.94-22.56 14.5-22 15.5.56 1 24.08-15.35 24.71-14.27.63 1.08-25.11 16.09-24.5 17.15.71 1.24 26.17-16.72 26.87-15.51.7 1.21-27.43 14.67-26.76 15.88.67 1.21 26.42-16.68 27-15.61.58 1.07-27.7 14.55-27 15.73.7 1.18 26.36-16.93 27.1-15.65.58 1-27.24 16.76-26.53 18 .71 1.24 27.5-17.59 28.24-16.3.63 1.09-28.61 15.91-27.87 17.17.74 1.26 27.76-17.71 28.49-16.45.62 1.07-28.61 16.64-27.9 17.87.62 1.07 28.06-17.91 28.8-16.63.61 1.06-29.06 16.21-28.4 17.36.66 1.15 28.11-17.93 28.85-16.65.6 1.06-29.29 15.87-28.7 16.88.75 1.31 28.19-17.77 28.84-16.65.65 1.12-28 17.77-27.4 18.78.6 1.01 27.8-17.7 28.51-16.47.71 1.23-28.19 16.49-27.57 17.57.71 1.23 27.32-17.5 28.07-16.2.63 1.09-28.61 15.23-28 16.26.61 1.03 27.33-17.41 28-16.19.67 1.22-27.71 15.87-26.97 17.08.59 1 26.7-17 27.39-15.81.69 1.19-27.48 15.15-26.79 16.33.57 1 26.27-16.81 27-15.58.57 1-27.54 14.52-26.86 15.69.58 1 26.15-16.8 26.89-15.52.58 1-26.16 15.47-25.59 16.47.69 1.2 25.07-16 25.72-14.85.52.89-25.42 14.46-24.86 15.43.67 1.17 24.33-15.46 24.94-14.41.61 1.05-22.48 14.91-22 15.76.48.85 21.11-13.53 21.69-12.52.49.85-21.22 12-20.75 12.85.57 1 20-12.84 20.55-11.87.55.97-18.95 11.54-18.48 12.34.47.8 17.41-11.1 17.86-10.31.45.79-14.88 10-14.53 10.56.35.56 12.75-8.21 13.11-7.57.36.64-11.87 7-11.59 7.45.28.45 10.48-6.68 10.75-6.21.16.27-5.53 4.53-5.4 4.75.13.22 1.61-1.11 1.69-1"/><path fill="#fff" d="M297.14 159h-3.65v11.78h3.65V159zM295.3 157.46a2.187 2.187 0 0 0 2.028-1.332 2.179 2.179 0 0 0-2.838-2.864 2.182 2.182 0 0 0-.02 4.027c.263.11.545.167.83.169zM303.001 164.6c0-1.66.76-2.64 2.22-2.64 1.46 0 2 .94 2 2.64v6.18h3.63v-7.46c0-3.15-1.79-4.68-4.28-4.68a4.102 4.102 0 0 0-3.55 2V159h-3.5v11.78h3.48v-6.18z"/><path stroke="#2F3F5C" stroke-linecap="round" stroke-linejoin="round" stroke-width=".72" d="M302.6 224.89c.08.14 1.62-1.1 1.69-1 .07.1-4 2.77-3.91 3 .09.23 6.72-4.34 6.92-4 .2.34-9.43 6.51-9.19 6.93.24.42 12.56-8.1 12.93-7.46.37.64-14.76 9.72-14.36 10.41.4.69 17.2-11 17.67-10.2.47.8-18.24 10.09-17.86 10.74.49.86 18-11.42 18.41-10.63.41.79-19.13 10.46-18.65 11.3.48.84 18.83-12 19.34-11.16.51.84-20.48 13.61-20 14.49.63 1.09 22.66-14.33 23.2-13.39.54.94-23.78 13.6-23.27 14.47.51.87 23.59-15.08 24.23-14 .64 1.08-24.68 15.1-24.17 16 .51.9 25.28-16 25.88-14.94.6 1.06-26.18 16.15-25.55 17.25.74 1.29 26.69-17 27.38-15.8.6 1-27.56 16.47-27 17.51.56 1.04 27.57-17.34 28.18-16.28.61 1.06-28.34 16.38-27.68 17.53.66 1.15 27.86-17.72 28.57-16.49.71 1.23-28.56 16.89-28 17.91.79 1.37 28.2-17.76 28.84-16.65.64 1.11-28.93 16.45-28.32 17.5.73 1.26 28.2-17.77 28.84-16.65.64 1.12-28.27 17.34-27.62 18.48.78 1.35 27.95-17.57 28.57-16.49.73 1.25-28 16.7-27.32 17.94.68 1.24 27.2-17.46 28-16.15.61 1.07-27.23 16.37-26.67 17.34.67 1.17 26.42-16.8 27.09-15.64.67 1.16-27.41 14.84-26.8 15.91.61 1.07 26.21-16.67 26.88-15.52.57 1-26.43 15.19-25.77 16.33.66 1.14 25.32-15.91 25.88-14.95.56.96-24.5 15.07-23.88 16.14.62 1.07 23.41-14.71 23.93-13.81.52.9-21.7 14-21.17 14.94.53.94 20.19-13 20.76-12 .49.84-18.59 11.78-18.12 12.6.47.82 16.94-10.7 17.33-10 .39.7-16.86 9.45-16.5 10.09.36.64 15.76-10.1 16.19-9.35.26.45-10.43 8.37-10.14 8.87.29.5 6.6-4.24 6.79-3.92.09.15-4 2.74-3.86 2.91.14.17 1.61-1.12 1.69-1"/><path fill="#fff" d="M312.32 231.53c2.58 0 2.88 0 3.9.06a5.398 5.398 0 0 1 1.8.33 3.225 3.225 0 0 1 1.83 1.84c.212.573.323 1.179.33 1.79.05 1 .06 1.33.06 3.91s0 2.88-.06 3.9a5.34 5.34 0 0 1-.33 1.79A3.231 3.231 0 0 1 318 247a5.423 5.423 0 0 1-1.8.33c-1 .05-1.32.06-3.9.06s-2.89 0-3.91-.06a5.336 5.336 0 0 1-1.79-.33 3.08 3.08 0 0 1-1.11-.73 2.847 2.847 0 0 1-.72-1.11 5.245 5.245 0 0 1-.34-1.79c0-1-.05-1.33-.05-3.9s0-2.89.05-3.91a5.24 5.24 0 0 1 .34-1.79c.149-.422.396-.802.72-1.11a3.054 3.054 0 0 1 1.11-.73 5.311 5.311 0 0 1 1.79-.33c1-.05 1.33-.06 3.91-.06l.02-.01zm-.02-1.73c-2.63 0-2.95 0-4 .06a7.09 7.09 0 0 0-2.34.45 4.727 4.727 0 0 0-1.71 1.12 4.647 4.647 0 0 0-1.12 1.71 7.305 7.305 0 0 0-.45 2.34v8a7.31 7.31 0 0 0 .45 2.34c.242.646.624 1.23 1.12 1.71a4.74 4.74 0 0 0 1.71 1.12c.749.28 1.54.432 2.34.45 1 .05 1.36.06 4 .06 2.64 0 2.95 0 4-.06a7.205 7.205 0 0 0 2.35-.45 4.837 4.837 0 0 0 1.71-1.12 4.63 4.63 0 0 0 1.11-1.71 7.09 7.09 0 0 0 .45-2.34c.05-1 .06-1.36.06-4 0-2.64 0-3-.06-4a7.09 7.09 0 0 0-.45-2.34 4.623 4.623 0 0 0-1.11-1.71 4.824 4.824 0 0 0-1.71-1.12 7.179 7.179 0 0 0-2.35-.45c-1 0-1.36-.06-4-.06z"/><path fill="#fff" d="M312.32 234.49a4.998 4.998 0 0 0-4.619 3.087 4.995 4.995 0 0 0 1.084 5.449 5 5 0 1 0 3.535-8.536zm0 8.19a3.232 3.232 0 0 1-2.992-1.989 3.23 3.23 0 1 1 6.212-1.231 3.22 3.22 0 0 1-3.22 3.22zM318.63 234.3a1.158 1.158 0 0 1-.719 1.072 1.159 1.159 0 0 1-1.51-1.523 1.161 1.161 0 0 1 2.229.451"/><path stroke="#2F3F5C" stroke-linecap="round" stroke-linejoin="round" d="M371.72 193.45h14.16M371.72 196.37h14.16M371.72 199.279h14.16M371.72 202.189h14.16M326.35 159.319h42.88M321.771 220.09l12.28-12.28M399.61 185.13v31.22M336.76 235.49h14.15M336.76 238.41h14.15M336.76 241.319h14.15M336.76 244.24h14.15M295.55 185.96h14.15M295.55 188.87h14.15M295.55 191.79h14.15M295.55 194.7h14.15M362.15 164.729h14.15M362.15 167.649h14.15M362.15 170.56h14.15M362.15 173.47h14.15M365.48 240.91h14.15M365.48 243.819h14.15M365.48 246.729h14.15M365.48 249.649h14.15"/><path fill="#F77021" d="M370.47 215.51l-12.07.84v12.9l13.32-.83-1.25-12.91z"/><path stroke="#2F3F5C" stroke-linecap="round" stroke-linejoin="round" d="M360.83 220.039l7.77-.56M360.55 223.37l8.33-.28"/><path fill="#F77021" d="M323.26 172.47l-12.07.83v12.9l13.32-.83-1.25-12.9z"/><path stroke="#2F3F5C" stroke-linecap="round" stroke-linejoin="round" d="M313.61 176.99l7.78-.56M313.33 180.32l8.33-.28"/><path fill="#F77021" d="M302.43 209.68l-12.07.83v12.91l13.32-.83-1.25-12.91z"/><path stroke="#2F3F5C" stroke-linecap="round" stroke-linejoin="round" d="M292.78 214.199l7.78-.55M292.5 217.54l8.33-.28"/><path fill="#fff" stroke="#2F3F5C" stroke-linecap="round" stroke-linejoin="round" d="M285.611 238.24s2.27 4.16 2.27 6c0 1.84-10.58 24.76-10.77 25.54-.19.78 1.13 4.92.38 7.94-.75 3.02-3.59 6.28-3.59 6.28l-3.59-15.49a9.536 9.536 0 0 0 2.08-9.44c-1.89-5.48-1.89-17.19-1.89-17.19l15.11-3.64zM267.29 410.471s-.94 9.59-.19 10.16c.75.57 4.61.48 7.27 0 3.63-.66 5.61.16 8.26.16 2.65 0 8.31.72 8.91-.49 1.16-2.32-5.74-4.54-9.52-6.8-3.78-2.26-7.36-4.16-7.36-4.16l-7.37 1.13z"/><path fill="#2F3F5C" stroke="#2F3F5C" stroke-linecap="round" stroke-linejoin="round" d="M238.58 266.57s-3.4 18.14-3.59 21.53c-.19 3.39-9.63 118.41-9.63 118.41l8.69.75 21.72-109 1.51-.37 10 112.54 8.12-1.51.38-124.07-2.46-18.69-34.74.41z"/><path fill="#F77021" stroke="#2F3F5C" stroke-linecap="round" stroke-linejoin="round" d="M247.27 208.781s-15.11-3.21-18.7-4.15c-3.59-.94-4.57 7.55-5.66 10.37-1.09 2.82-11.9 22.48-11.15 24 .75 1.52 3.59 5.48 9.26 1.51 5.67-3.97 9.06-10.58 9.06-10.58s7.56 21.35 7.94 23.8c.38 2.45-1 12.66 0 14.73 1 2.07 10.38 3.4 18.13 3.21 7.75-.19 16.24-.37 17.37-3.21 1.13-2.84-.19-23.79-.19-23.79s11.71-2.08 13.6-4.91c1.89-2.83-2.26-6.8-6-14.17s-4.72-16.24-7.56-17.94c-2.84-1.7-21.34 1.51-23 1.51a12.087 12.087 0 0 1-3.1-.38v0z"/><path fill="#2F3F5C" stroke="#2F3F5C" stroke-linecap="round" stroke-linejoin="round" d="M250.1 213.88l2.65 6.8-3.59 41.36 8.69 14.73 5.1-17-7.56-39.66 4.16-8.12-5.67-2.45-4.34 3.4.56.94z"/><path fill="#F77021" stroke="#2F3F5C" stroke-linecap="round" stroke-linejoin="round" d="M243.11 207.65l-.56 12.09 12.65-6.24 11.15 6.61-6.05-12.65a20.15 20.15 0 0 0-9.25-2.46 12.186 12.186 0 0 0-7.94 2.65v0z"/><path fill="#fff" stroke="#2F3F5C" stroke-linecap="round" stroke-linejoin="round" d="M245.76 194.431a52.59 52.59 0 0 1 .57 9.63c-.19 5.29.56 4.16 3 8.12 2.44 3.96 4.15 5.48 6.23 3.21 2.08-2.27 2.08-7 2.46-7.93.38-.93.75-11.9.75-11.9s-2.62 1.89-13.01-1.13z"/><path fill="#fff" stroke="#2F3F5C" stroke-linecap="round" stroke-linejoin="round" d="M259.33 172.15a50.022 50.022 0 0 1 2.43 15.09c0 8.28 0 11-2.76 12.5s-7 1.62-9.57 0a36.175 36.175 0 0 1-7.14-5.68c-1.79-1.95-6.66-7.95-7.31-12-.65-4.05 7.15-9.25 13.64-11.85a9.818 9.818 0 0 1 10.71 1.94v0z"/><path fill="#2F3F5C" d="M251.001 182.901c.18.94-.08 1.78-.58 1.88-.5.1-1-.59-1.23-1.54-.23-.95.08-1.78.58-1.88.5-.1 1.02.64 1.23 1.54z"/><path stroke="#2F3F5C" stroke-linecap="round" stroke-linejoin="round" d="M256.91 180.52a2.15 2.15 0 0 1 2.45-.82M256.91 191.761l2.66-1.84M246.69 180.521s.82-2.86 4.5-1.84M254.66 178.271s.21-2.05 3.07-2.05M255.381 180.261s3.25 5.2 3.09 6c-.16.8-3.41 3.08-3.41 3.08"/><path fill="#2F3F5C" stroke="#2F3F5C" stroke-linecap="round" stroke-linejoin="round" d="M239.85 189.84a2.107 2.107 0 0 0 1.46-2.27c0-1.95-1-3.08-1-5.84s8.6-7.15 13-6.66c4.4.49 8.44.49 10.88-1.95 2.44-2.44 2.92-5.19 1.95-5-1.17.34-2.31.775-3.41 1.3a12.422 12.422 0 0 0-1.95-9.9c-3.41-4.87-4.22-1.62-3.73-.81.49.81 1.94 4.54 1.94 4.54s-5.35-4.05-8.76-3.73c-3.41.32-14.28 5.19-16.88 8.93-2.6 3.74-2.76 9.57-2.11 12.82.65 3.25 2.6 3.57 2.6 3.57l4.38 5.52 1.63-.52z"/><path stroke="#787878" stroke-linecap="round" stroke-linejoin="round" d="M234 181.181s.61-5.11 5.31-6.75c4.7-1.64 9-1.63 14.92-1.63s2.86-5.72.61-6.13M233.58 174.23s1-4.29 9.81-4.7"/><path fill="#fff" d="M242.29 191.46s-2.11-5-5.52-3.57c-3.41 1.43.32 8.28 3.89 8.12 3.57-.16 4.06-2.27 4.06-2.27"/><path stroke="#2F3F5C" stroke-linecap="round" stroke-linejoin="round" d="M242.29 191.46s-2.11-5-5.52-3.57c-3.41 1.43.32 8.28 3.89 8.12 3.57-.16 4.06-2.27 4.06-2.27"/><path fill="#fff" stroke="#2F3F5C" stroke-linecap="round" stroke-linejoin="round" d="M242.81 215.46s0-10.05 1.06-12c1.06-1.95 4.41-3.53 6.35-4.59 1.94-1.06 2.82 0 1.94 1.59a19.985 19.985 0 0 1-3.18 3.7s9.35-4.41 10.23-3.17c.88 1.24 1.06 2.82 0 3.7a19.02 19.02 0 0 0-2.64 2.12c-.53.7.53 6-.53 7.76-1.06 1.76-5.82 3.7-8.29 5.29-2.47 1.59-20.11 21-24.87 23.28-4.76 2.28-7.59 3.71-10.06.53-2.47-3.18-1.94-6.35 1.24-10.23 3.18-3.88 28.75-17.98 28.75-17.98zM225.36 406.511s-2.83 5.48-4.72 7.36c-1.89 1.88-5.77 5.65-5.39 6.59.38.94 18.16 0 18.16 0s1.49.66 1-3.75c-.22-2.07-.38-9.45-.38-9.45l-8.67-.75z"/><path fill="#fff" d="M273.33 244.671s.19-21.35-.94-24z"/><path stroke="#2F3F5C" stroke-linecap="round" stroke-linejoin="round" d="M273.33 244.671s.19-21.35-.94-24"/><path fill="#2F3F5C" stroke="#2F3F5C" stroke-linecap="round" stroke-linejoin="round" d="M122.06 415.45a4.636 4.636 0 0 0-2.858-4.277 4.63 4.63 0 1 0 2.858 4.277v0z"/><path fill="#fff" stroke="#2F3F5C" stroke-linecap="round" stroke-linejoin="round" d="M117.429 417.77a2.32 2.32 0 1 0 0-4.64 2.32 2.32 0 0 0 0 4.64z"/><path fill="#2F3F5C" stroke="#2F3F5C" stroke-linecap="round" stroke-linejoin="round" d="M171.67 415.45a4.628 4.628 0 0 0-5.533-4.541 4.64 4.64 0 0 0-2.371 1.267 4.622 4.622 0 0 0-1.003 5.046 4.625 4.625 0 0 0 4.277 2.858 4.627 4.627 0 0 0 4.63-4.63v0z"/><path fill="#fff" stroke="#2F3F5C" stroke-linecap="round" stroke-linejoin="round" d="M169.36 415.45a2.328 2.328 0 0 0-.386-1.292 2.325 2.325 0 0 0-2.381-.995 2.325 2.325 0 0 0-1.828 1.821 2.323 2.323 0 0 0 3.912 2.1c.434-.433.68-1.02.683-1.634z"/><path fill="#2F3F5C" stroke="#2F3F5C" stroke-linecap="round" stroke-linejoin="round" d="M183.25 420.08a4.63 4.63 0 1 0 0-9.26 4.63 4.63 0 0 0 0 9.26z"/><path fill="#fff" stroke="#2F3F5C" stroke-linecap="round" stroke-linejoin="round" d="M183.25 417.77a2.32 2.32 0 1 0 0-4.64 2.32 2.32 0 0 0 0 4.64z"/><path fill="#2F3F5C" stroke="#2F3F5C" stroke-linecap="round" stroke-linejoin="round" d="M150.1 342.66h9.72v67.45h-9.8V342.7l.08-.04z"/><path fill="#2F3F5C" stroke="#2F3F5C" stroke-linecap="round" stroke-linejoin="round" d="M162.46 374.729h-15.01v35.42h15.01v-35.42zM132.359 307.28h12.64v26.95h-12.6v-26.95h-.04z"/><path fill="#F77021" stroke="#2F3F5C" stroke-linecap="round" stroke-linejoin="round" d="M163.46 307.29h-49a8.607 8.607 0 0 1-8.6-8.81L107 250.6a8.59 8.59 0 0 1 8.59-8.39h40.5a8.59 8.59 0 0 1 8.5 7.29l7.41 47.89a8.592 8.592 0 0 1-8.54 9.9v0z"/><path stroke="#2F3F5C" stroke-linecap="round" stroke-linejoin="round" d="M147.44 344.41l-21.52 14.17"/><path fill="#2F3F5C" stroke="#2F3F5C" stroke-linecap="round" stroke-linejoin="round" d="M125.11 356.44l-3.67 2.47a2.405 2.405 0 0 0-.911 2.821c.122.335.317.638.571.889l.26.24a2.393 2.393 0 0 0 3.2.14l3.37-2.78c.253-.207.46-.464.609-.755a2.374 2.374 0 0 0 .109-1.895 2.342 2.342 0 0 0-.518-.82v0a2.365 2.365 0 0 0-3.02-.31v0z"/><path fill="#F77021" stroke="#2F3F5C" stroke-linecap="round" stroke-linejoin="round" d="M195.18 331.47h-80.43a7.37 7.37 0 0 0-7.37 7.37v.66c0 4.07 3.3 7.37 7.37 7.37h80.43c4.07 0 7.37-3.3 7.37-7.37v-.66a7.37 7.37 0 0 0-7.37-7.37z"/><path fill="#F77021" stroke="#2F3F5C" stroke-linecap="round" stroke-linejoin="round" d="M202.49 338.23a7.899 7.899 0 0 0-8-6.76h-41.3a7.911 7.911 0 0 0-8 6.76 7.704 7.704 0 0 0 7.64 8.63h42a7.696 7.696 0 0 0 5.775-2.589 7.687 7.687 0 0 0 1.885-6.041z"/><path fill="#2F3F5C" stroke="#2F3F5C" stroke-linecap="round" stroke-linejoin="round" d="M116.769 408.75h68.61a3.998 3.998 0 0 1 4 4v.2h-76.6v-.2a4 4 0 0 1 3.99-4v0z"/><path fill="#2F3F5C" stroke="#2F3F5C" stroke-linecap="round" stroke-linejoin="round" d="M150.8 408.75h20.93a4 4 0 0 1 4 4v.2H150.8v-4.2z"/><path fill="#fff" stroke="#2F3F5C" stroke-linecap="round" stroke-linejoin="round" d="M212.71 297.859h-63.481v2.56h63.481v-2.56z"/><path fill="#fff" stroke="#2F3F5C" stroke-linecap="round" stroke-linejoin="round" d="M230.61 297.859h-63.48v2.56h63.48v-2.56zM223.54 252.89H170.6v40.41h52.94v-40.41z"/><path fill="#2F3F5C" stroke="#2F3F5C" stroke-linecap="round" stroke-linejoin="round" d="M225.73 252.89h-52.94v40.41h52.94v-40.41z"/><path fill="#fff" stroke="#2F3F5C" stroke-linecap="round" stroke-linejoin="round" d="M209.51 274.52h-13.66v25.9h13.66v-25.9z"/><path fill="#2F3F5C" d="M124.32 298.34a1.4 1.4 0 0 0 1.4-1.37l.32-14.72 7-18.17 16.69 6.5a1.415 1.415 0 0 0 1.679-.861 1.412 1.412 0 0 0-.679-1.759l-18-7a1.432 1.432 0 0 0-1.08 0 1.368 1.368 0 0 0-.74.78l-7.56 19.71c-.06.149-.09.309-.09.47l-.32 15a1.399 1.399 0 0 0 1.37 1.43l.01-.01z"/><path fill="#2F3F5C" stroke="#2F3F5C" stroke-linecap="round" stroke-linejoin="round" d="M115.14 299.6h18.37v-5.31h-18.37v5.31z"/><path fill="#2F3F5C" d="M128.93 262.259a3.273 3.273 0 0 1 3.908-3.207 3.27 3.27 0 1 1-3.908 3.207zM121.5 282.74a3.273 3.273 0 0 1 2.019-3.021 3.269 3.269 0 1 1 1.251 6.291 3.263 3.263 0 0 1-3.27-3.27zM151.269 266.23l12.32-.77-7.7 16.92-7.52-9.8 2.9-6.35z"/><path fill="#fff" stroke="#2F3F5C" stroke-linecap="round" stroke-linejoin="round" d="M105.42 315.149l2.74 103.64a2.53 2.53 0 0 0 2.53 2.46v0a2.538 2.538 0 0 0 2.54-2.5l1.35-103.6h-9.16zM138.899 315.149l2.74 103.64a2.53 2.53 0 0 0 2.53 2.46 2.538 2.538 0 0 0 2.54-2.5l1.35-103.6h-9.16zM277 315.149l2.75 103.64a2.53 2.53 0 0 0 5.06-.04l1.36-103.6H277zM310.489 315.149l2.75 103.64c.018.659.293 1.285.766 1.744a2.531 2.531 0 0 0 4.294-1.784l1.36-103.6h-9.17z"/><path fill="#fff" stroke="#2F3F5C" stroke-linecap="round" stroke-linejoin="round" d="M322.719 303.83h-220.56v12.4h220.56v-12.4z"/><path fill="#fff" stroke="#2F3F5C" stroke-linecap="round" stroke-linejoin="round" d="M148.309 303.83h-46.15v12.4h46.15v-12.4z"/><path fill="#2F3F5C" stroke="#2F3F5C" stroke-linecap="round" stroke-linejoin="round" d="M322.719 303.83h-220.56v6.2h220.56v-6.2z"/><path fill="#fff" stroke="#2F3F5C" stroke-linecap="round" stroke-linejoin="round" d="M325.28 299.56H99.6v6.83h225.68v-6.83z"/><path fill="#fff" stroke="#2F3F5C" stroke-linecap="round" stroke-linejoin="round" d="M325.269 299.56h-173.9v6.83h173.9v-6.83z"/><path stroke="#2F3F5C" stroke-linecap="round" stroke-linejoin="round" d="M166.97 190.394c5.678-13.86-.954-29.699-14.813-35.378-13.86-5.678-29.699.954-35.378 14.814-5.678 13.859.954 29.698 14.813 35.377 13.86 5.679 29.699-.954 35.378-14.813z"/><path stroke="#2F3F5C" stroke-linecap="round" stroke-linejoin="round" d="M145.451 202.311c12.251-1.974 20.584-13.506 18.61-25.758-1.973-12.252-13.505-20.584-25.757-18.611-12.252 1.974-20.584 13.506-18.611 25.758 1.974 12.252 13.506 20.584 25.758 18.611z"/><path stroke="#2F3F5C" stroke-linecap="round" stroke-linejoin="round" d="M127.551 180.12h14.33v20.68M51.7 421.08h402"/></svg>