<svg xmlns="http://www.w3.org/2000/svg" fill="none" viewBox="0 0 750 500"><path fill="#C1EEE6" d="M610.08 121.78c24 68.55 3.26 148.5-44.84 202.93C517.14 379.14 445 409.07 372.5 414c-51.73 3.52-120.41-5.67-163.54-34.45-43.13-28.78-73.11-71.07-62.71-125.55 3.67-19.24 16.09-45 30.91-57.76 23.65-20.46 59-16.71 89.91-11.75 30.91 4.96 66.22 8.8 90-11.54 18.24-15.64 23.91-41 35.2-62.21 19.2-36.07 57.52-61.21 98.25-64.46a117.378 117.378 0 0 1 17-.11c43.95 2.92 82.41 30.7 100.47 70.88l2.09 4.73z"/><path fill="#4B6590" d="M196.45 218.269v235c0 6.379 5.171 11.55 11.55 11.55h347.3c6.379 0 11.55-5.171 11.55-11.55v-235c0-6.379-5.171-11.55-11.55-11.55H208c-6.379 0-11.55 5.171-11.55 11.55z"/><path fill="#fff" d="M221.79 214.859v241.83h309.33v-241.83H221.79z"/><path fill="#2F3F5C" d="M557.906 338.071c1.252-5.323-2.049-10.652-7.371-11.903-5.323-1.251-10.652 2.049-11.903 7.372-1.251 5.322 2.049 10.651 7.371 11.902 5.323 1.252 10.652-2.049 11.903-7.371zM207.11 298.12v75.3c0 .673.547 1.22 1.22 1.22h1.65a1.22 1.22 0 0 0 1.22-1.22v-75.3a1.22 1.22 0 0 0-1.22-1.22h-1.65a1.22 1.22 0 0 0-1.22 1.22z"/><path fill="#F77021" d="M309.538 356.749c7.587-11.529 4.392-27.025-7.137-34.613-11.529-7.587-27.025-4.392-34.613 7.137-7.587 11.528-4.392 27.025 7.137 34.613 11.529 7.587 27.025 4.392 34.613-7.137z"/><path fill="#fff" d="M309.538 356.749c7.587-11.529 4.392-27.025-7.137-34.613-11.529-7.587-27.025-4.392-34.613 7.137-7.587 11.528-4.392 27.025 7.137 34.613 11.529 7.587 27.025 4.392 34.613-7.137z" opacity=".3"/><path fill="#263238" d="M280 336.74c.94-.08 1.8 1 1.92 2.34.12 1.34-.57 2.53-1.52 2.61-.95.08-1.8-1-1.91-2.33-.11-1.33.6-2.54 1.51-2.62zM295.92 336.41c-.94 0-1.76 1-1.82 2.42-.06 1.42.67 2.51 1.62 2.55.95.04 1.77-1 1.82-2.41.05-1.41-.67-2.52-1.62-2.56zM298.65 348c0 .29-4.66.53-10.4.53s-10.41-.24-10.41-.53c0-.29 4.66-.54 10.41-.54s10.4.23 10.4.54zM282 333.87c-.06.3-1.25.29-2.64.51-1.39.22-2.52.58-2.67.32-.15-.26.9-1.12 2.51-1.37 1.61-.25 2.8.26 2.8.54zM300.431 335.08c-.18.24-1.26-.32-2.65-.74s-2.59-.57-2.62-.88c-.03-.31 1.33-.64 2.93-.14s2.53 1.55 2.34 1.76z"/><path fill="#F77021" d="M495.165 345.053c2.25-14.126-7.378-27.402-21.504-29.652-14.126-2.25-27.401 7.378-29.651 21.504-2.25 14.126 7.377 27.401 21.503 29.651 14.126 2.25 27.402-7.377 29.652-21.503z"/><path fill="#000" d="M495.165 345.053c2.25-14.126-7.378-27.402-21.504-29.652-14.126-2.25-27.401 7.378-29.651 21.504-2.25 14.126 7.377 27.401 21.503 29.651 14.126 2.25 27.402-7.377 29.652-21.503z" opacity=".3"/><path fill="#263238" d="M460.63 334.44c1-.08 1.88 1 2 2.42.12 1.42-.58 2.63-1.56 2.71-.98.08-1.88-1-2-2.42-.12-1.42.58-2.63 1.56-2.71zM477.1 334.1c-1 0-1.83 1.08-1.89 2.5-.06 1.42.7 2.6 1.68 2.64.98.04 1.83-1.08 1.89-2.5.06-1.42-.69-2.6-1.68-2.64zM479.93 346.1c-.11.14-1.19-.63-3-1.58a16.724 16.724 0 0 0-7.71-1.9c-2.688.119-5.321.8-7.73 2-1.88.92-3 1.62-3.09 1.48-.09-.14.89-1 2.74-2.14a16.793 16.793 0 0 1 8.06-2.41 15.207 15.207 0 0 1 8.1 2.31c1.79 1.14 2.7 2.14 2.63 2.24zM462.61 331.459c.09.11-.08.44-.51.81a4.185 4.185 0 0 1-2 1 3.834 3.834 0 0 1-2.25-.25c-.53-.24-.77-.52-.71-.65.06-.13 1.35.13 2.77-.15s2.51-1 2.7-.76zM481.781 332.719c0 .13-.24.38-.82.56a3.8 3.8 0 0 1-2.32-.08 4.66 4.66 0 0 1-1.91-1.27c-.38-.44-.52-.79-.42-.89.1-.1 1.27.66 2.67 1.15 1.4.49 2.7.23 2.8.53z"/><path fill="#E0E0E0" d="M419.93 412.86l6-2.97 5.86 3.26-.98-6.63 4.91-4.56-6.61-1.12-2.82-6.08-3.1 5.94-6.65.8 4.68 4.79-1.29 6.57z"/><path fill="#F77021" d="M395.451 412.86l6-2.97 5.86 3.26-.98-6.63 4.91-4.56-6.61-1.12-2.82-6.08-3.1 5.94-6.65.8 4.68 4.79-1.29 6.57zM370.97 412.86l6-2.97 5.85 3.26-.97-6.63 4.91-4.56-6.61-1.12-2.82-6.08-3.1 5.94-6.65.8 4.68 4.79-1.29 6.57zM346.491 412.86l6-2.97 5.85 3.26-.97-6.63 4.91-4.56-6.61-1.12-2.82-6.08-3.1 5.94-6.65.8 4.68 4.79-1.29 6.57zM322.01 412.86l6-2.97 5.85 3.26-.97-6.63 4.91-4.56-6.61-1.12-2.82-6.08-3.1 5.94-6.65.8 4.68 4.79-1.29 6.57z"/><path fill="#263238" d="M436 265.51c0 .15-26.86.27-60 .27s-60-.12-60-.27c0-.15 26.85-.26 60-.26s60 .12 60 .26zM406.5 258.31c0 .15-13.26.27-29.62.27s-29.63-.12-29.63-.27c0-.15 13.26-.27 29.63-.27 16.37 0 29.62.12 29.62.27z"/><path fill="#F77021" d="M413.632 345.493c5.779-17.936-4.076-37.161-22.012-42.94-17.936-5.779-37.161 4.075-42.94 22.011-5.779 17.936 4.076 37.161 22.012 42.94 17.935 5.78 37.16-4.075 42.94-22.011z"/><path fill="#263238" d="M369.36 326.4c1.29-.1 2.46 1.32 2.62 3.19.16 1.87-.77 3.46-2.06 3.57-1.29.11-2.47-1.32-2.62-3.18-.15-1.86.77-3.47 2.06-3.58zM391.05 326c-1.29-.06-2.41 1.42-2.48 3.29-.07 1.87.91 3.43 2.2 3.48 1.29.05 2.41-1.42 2.49-3.29.08-1.87-.91-3.48-2.21-3.48zM394.77 337.149c.06.06-.22.41-.77 1a19.336 19.336 0 0 1-2.56 2.31 18.192 18.192 0 0 1-4.51 2.47 15.905 15.905 0 0 1-6.26 1 18.235 18.235 0 0 1-6.15-1.42 26.174 26.174 0 0 1-4.53-2.37c-2.42-1.62-3.7-2.88-3.63-3 .07-.12 1.56.9 4 2.32a31.667 31.667 0 0 0 4.49 2.11 19.102 19.102 0 0 0 5.85 1.27c1.996.085 3.99-.203 5.88-.85a20.291 20.291 0 0 0 4.41-2.16c1.16-.8 2.1-1.47 2.71-2 .61-.53 1.02-.73 1.07-.68zM370.9 318.729c-.06.3-1.69.19-3.63.5s-3.46.9-3.61.63c-.15-.27 1.29-1.35 3.45-1.68 2.16-.33 3.89.27 3.79.55zM398.37 320.32c-.19.24-1.63-.62-3.57-1.2s-3.61-.7-3.62-1c-.01-.3 1.79-.68 3.94 0s3.44 1.99 3.25 2.2z"/><path fill="#263238" d="M366.92 334.699c.13 0 .35.33.38 1a3.9 3.9 0 0 1-.74 2.36 3.86 3.86 0 0 1-2 1.48c-.62.18-1 .09-1.05 0 0-.3 1.26-.74 2.16-2.06.9-1.32.95-2.73 1.25-2.78zM397.66 337.839c0 .13-.26.34-.79.38a2.994 2.994 0 0 1-1.94-.6 3 3 0 0 1-1.15-1.69c-.11-.52 0-.85.14-.86.3 0 .64 1 1.64 1.69 1 .69 2.03.78 2.1 1.08z"/><path fill="#F77021" d="M422.85 334.7s0-.23-.06-.69l-.13-2c0-.44-.05-.94-.08-1.48s-.18-1.13-.27-1.77c-.09-.64-.21-1.33-.33-2.06a23.337 23.337 0 0 0-.55-2.32 40.442 40.442 0 0 0-4.7-11.24 42.171 42.171 0 0 0-10.73-12l-1.83-1.35c-.64-.42-1.31-.81-2-1.22-.69-.41-1.33-.86-2.06-1.19l-2.19-1.05-1.11-.53-1.17-.42-2.38-.87c-.8-.27-1.65-.44-2.48-.66a19.518 19.518 0 0 0-2.55-.58 38.95 38.95 0 0 0-5.33-.62c-.91 0-1.83-.12-2.75-.1l-2.79.14c-.47 0-.94 0-1.41.09l-1.41.22c-.93.15-1.89.26-2.83.46a42.72 42.72 0 0 0-5.62 1.65 44.27 44.27 0 0 0-5.5 2.41c-.89.49-1.74 1.05-2.62 1.57-.43.28-.89.51-1.3.82l-1.24.93a48.055 48.055 0 0 0-4.78 4.06l-2.14 2.36-.54.6-.49.64-1 1.29-1 1.29-.85 1.39-.85 1.4-.42.7-.36.73-1.43 3-1.14 3.12a41.721 41.721 0 0 0 0 26.59c.39 1 .77 2.08 1.15 3.12.38 1.04.95 2 1.43 3l.36.74.42.7.85 1.39.85 1.39 1 1.3 1 1.29.48.64.54.59 2.14 2.36a48.154 48.154 0 0 0 4.78 4.07l1.25.92c.41.32.87.55 1.3.83.88.52 1.73 1.08 2.62 1.57a46.58 46.58 0 0 0 11.12 4.06c.94.2 1.9.31 2.84.46l1.4.22c.47.06.94.06 1.41.09l2.79.14c.92 0 1.84-.07 2.75-.1a38.95 38.95 0 0 0 5.33-.62 21.378 21.378 0 0 0 2.55-.58c.84-.22 1.68-.4 2.49-.66l2.37-.87 1.17-.42 1.11-.53 2.19-1.05a23.026 23.026 0 0 0 2.06-1.19c.67-.41 1.35-.8 2-1.22l1.82-1.36a42.164 42.164 0 0 0 10.74-12 40.627 40.627 0 0 0 4.69-11.29c.223-.76.406-1.531.55-2.31.12-.73.23-1.42.33-2.06.1-.64.21-1.23.27-1.77.06-.54.06-1 .08-1.48.06-.87.1-1.54.13-2 .03-.46.06-.69.06-.69v.69c0 .46-.05 1.14-.08 2 0 .45 0 1-.06 1.49s-.16 1.14-.24 1.78c-.08.64-.2 1.34-.31 2.08a23.888 23.888 0 0 1-.53 2.32 40.138 40.138 0 0 1-4.63 11.37 42.264 42.264 0 0 1-10.76 12.12l-1.84 1.38c-.64.43-1.32.82-2 1.24-.68.42-1.34.87-2.08 1.2l-2.2 1.07-1.12.57-1.18.43-2.39.88c-.82.28-1.67.45-2.51.68-.847.252-1.709.452-2.58.6-1.78.333-3.581.544-5.39.63-.91 0-1.84.13-2.77.12l-2.82-.14c-.48 0-1 0-1.43-.09l-1.42-.22c-.95-.15-1.92-.26-2.87-.46a45.957 45.957 0 0 1-5.69-1.66 45.355 45.355 0 0 1-5.56-2.43c-.91-.49-1.77-1.06-2.66-1.59a13.988 13.988 0 0 1-1.32-.83l-1.26-.94a47.904 47.904 0 0 1-4.84-4.1l-2.17-2.39-.55-.6-.49-.65-1-1.3-1-1.32-.86-1.4-.86-1.41-.43-.71-.36-.75-1.45-3c-.39-1.05-.77-2.11-1.16-3.16a42.28 42.28 0 0 1 0-26.92l1.16-3.16 1.45-3 .37-.75.43-.71.86-1.41.86-1.4 1-1.31 1-1.31.49-.65.54-.6c.73-.79 1.45-1.59 2.17-2.38a49.121 49.121 0 0 1 4.84-4.11l1.26-.94c.42-.31.88-.55 1.32-.83.89-.52 1.76-1.09 2.66-1.58a45.203 45.203 0 0 1 5.56-2.43 45.957 45.957 0 0 1 5.69-1.66c.95-.2 1.92-.31 2.87-.46l1.42-.22c.47-.06.95-.06 1.42-.09l2.82-.14c.94 0 1.86.08 2.78.12 1.809.086 3.61.297 5.39.63.87.15 1.731.347 2.58.59.84.24 1.69.41 2.5.68l2.4.88 1.18.44 1.12.54 2.21 1.06c.74.34 1.39.82 2.07 1.21.68.39 1.36.81 2 1.24l1.84 1.38A42.26 42.26 0 0 1 417 313a40.198 40.198 0 0 1 4.64 11.34c.18.83.45 1.59.53 2.33.08.74.21 1.43.31 2.08.1.65.19 1.23.24 1.78.05.55 0 1 .06 1.48 0 .88.06 1.55.08 2 .02.45-.01.69-.01.69z"/><path fill="#E0E0E0" d="M531.12 214.859H221.79v15.43h309.33v-15.43z"/><path fill="#fff" d="M231.77 222.15a2.093 2.093 0 0 1-3.568 1.477 2.091 2.091 0 0 1 1.478-3.567 2.09 2.09 0 0 1 2.09 2.09zM238.71 222.15a2.088 2.088 0 0 1-3.568 1.477 2.091 2.091 0 1 1 3.568-1.477zM245.66 222.15a2.088 2.088 0 0 1-3.567 1.477 2.076 2.076 0 0 1-.572-1.07 2.088 2.088 0 0 1 2.049-2.497 2.093 2.093 0 0 1 1.475.615c.392.391.613.921.615 1.475z"/><path fill="#E0E0E0" d="M497 277.68c0 .15-53.67.27-119.87.27s-119.88-.12-119.88-.27c0-.15 53.67-.26 119.88-.26s119.87.12 119.87.26zM497 283.629c0 .14-53.67.26-119.87.26s-119.88-.12-119.88-.26 53.67-.27 119.88-.27 119.87.12 119.87.27z"/><path fill="#6B7DA3" d="M339.7 208.35s-2.11-4.79-2.51-5.84c-1.07-2.87-8-22.1-6.33-25 7.67-13.47 13.62-23 28.75-23l26.73-.18s25.32-5.16 43.17 52.44l-89.81 1.58z"/><path fill="#6B7DA3" d="M283.321 213.169l35-7.54 41.14-21.63.15-29.53c-6.17-1.7-18 2.58-39.25 13.41l-31.59 16.31a18.7 18.7 0 0 0-5.45 29v-.02z"/><path fill="#FFC1B7" d="M362.08 270.33c-.51-1.66-.16-2.73 2.26-1.91 5.34 1.79 10.11 1.2 11.27.17 1.16-1.03.1-3-1.64-2.85-1.9-.006-3.79-.268-5.62-.78a13.786 13.786 0 0 1-4.19-1.77c-1.12-.71-2.08-1.38-2.93-2 0 0-4.93-3.56-6.47-6.42L337.87 262l2.72 8.46a9.007 9.007 0 0 0 5.71 6.54c4.83 1.57 12.51 1 12.51 1 1.41-.92 6.84 6.94 8.49 9.71 1.65 2.77 3.6 3.12 4.24 1.43.43-1.16-4.4-9.77-6.08-12.48a32.858 32.858 0 0 1-3.38-6.35"/><path fill="#995037" d="M350.64 278c0 .06-.42 0-1-.24a4.172 4.172 0 0 1-1.77-1.72 4.324 4.324 0 0 1-.55-2.41c.06-.64.26-1 .32-1a5.58 5.58 0 0 0 3 5.34v.03zM356 278.25c0 .06-.4 0-.94-.27a4.187 4.187 0 0 1-1.65-1.69 4.284 4.284 0 0 1-.52-2.31c.06-.61.23-1 .3-.93a7.887 7.887 0 0 0 .69 3 8.116 8.116 0 0 0 2.12 2.2z"/><path fill="#6B7DA3" d="M282.32 212s53.62 61.62 53.55 60.6c-.07-1.02 24-19 24-19L307.34 191l-25.02 21z"/><path fill="#263238" d="M314.84 199.92s.14.11.38.36l1 1.12 3.6 4.16c3 3.52 7.17 8.42 11.73 13.85 4.56 5.43 8.67 10.37 11.62 14l3.47 4.27.93 1.18c.2.27.31.42.29.43a2.067 2.067 0 0 1-.37-.36l-1-1.12c-.91-1-2.12-2.45-3.6-4.16-3-3.52-7.18-8.42-11.74-13.85-4.56-5.43-8.66-10.37-11.62-14l-3.47-4.27c-.37-.47-.68-.86-.92-1.18a2.21 2.21 0 0 1-.3-.43zM409.69 207a18.12 18.12 0 0 0 .64-4 11.807 11.807 0 0 0-3.5-8.64c-1.3-1.37-2.7-2.55-3.83-3.79a11.544 11.544 0 0 1-2.4-3.74 6.611 6.611 0 0 1-.44-3c.02-.372.115-.736.28-1.07a7.52 7.52 0 0 0 .51 3.9 12.082 12.082 0 0 0 2.41 3.55c1.12 1.19 2.52 2.35 3.85 3.75a12.24 12.24 0 0 1 2.89 4.62c.479 1.415.686 2.908.61 4.4a10.32 10.32 0 0 1-.57 2.94 3.545 3.545 0 0 1-.45 1.08z"/><path fill="#263238" d="M337.37 159.599s.27-.14.78-.37c.51-.23 1.3-.52 2.32-.84a20.03 20.03 0 0 1 3.84-.78 13.074 13.074 0 0 1 5.18.48 12.076 12.076 0 0 1 5.29 3.4 14.006 14.006 0 0 1 3.22 6.51c.604 2.622.777 5.324.51 8a17.38 17.38 0 0 1-3 8 21.994 21.994 0 0 1-6.41 5.69c-2.35 1.48-4.71 2.68-6.95 3.86l-11.91 6.26-8 4.17-2.2 1.11a4.187 4.187 0 0 1-.79.35c.236-.166.484-.316.74-.45l2.15-1.2 8-4.32 11.84-6.35c2.23-1.19 4.6-2.41 6.91-3.88a21.729 21.729 0 0 0 6.26-5.55 16.822 16.822 0 0 0 2.88-7.79c.26-2.608.102-5.241-.47-7.8a13.62 13.62 0 0 0-3-6.29 11.625 11.625 0 0 0-5.08-3.34 13.02 13.02 0 0 0-5-.55c-1.289.11-2.564.341-3.81.69-1 .29-1.81.55-2.34.74a4.089 4.089 0 0 1-.96.25z"/><path fill="#263238" d="M320.74 205.57c-.18.05-.62-3.54-3-7.15-2.38-3.61-5.42-5.51-5.3-5.65a6.845 6.845 0 0 1 2 1.22 17.179 17.179 0 0 1 6 9.28c.232.743.333 1.521.3 2.3z"/><path fill="#FAFAFA" d="M399.541 198.87c-.37.138-.752.242-1.14.31a11.616 11.616 0 0 1-3.38.15 12.543 12.543 0 0 1-5.08-1.67 11.686 11.686 0 0 1-4.69-5.27 12.423 12.423 0 0 1-.65-8.51 6.997 6.997 0 0 1 2.83-3.92 3.51 3.51 0 0 1 2.56-.53 3.781 3.781 0 0 1 2.22 1.48 12.388 12.388 0 0 1 1.2 10.67 12.665 12.665 0 0 1-3 5 11.566 11.566 0 0 1-5.21 3 11.917 11.917 0 0 1-11.2-2.68 11.693 11.693 0 0 1-3.35-10.16c.254-1.712.942-3.33 2-4.7a5.094 5.094 0 0 1 2-1.53 3.225 3.225 0 0 1 2.46 0 4.588 4.588 0 0 1 2.61 3.64 7.684 7.684 0 0 1-.81 4.08 19.561 19.561 0 0 1-4.26 5.68 20.181 20.181 0 0 1-4.37 3.09c-.999.529-2.043.968-3.12 1.31-.36.12-.65.18-.84.23a1.183 1.183 0 0 1-.3.06.996.996 0 0 1 .28-.11c.19-.07.47-.15.83-.29a20.998 20.998 0 0 0 3.05-1.38 20.709 20.709 0 0 0 4.27-3.13 19.404 19.404 0 0 0 4.12-5.61 7.41 7.41 0 0 0 .74-3.88 4.188 4.188 0 0 0-2.37-3.28 2.78 2.78 0 0 0-2.12 0 4.578 4.578 0 0 0-1.8 1.4 9.551 9.551 0 0 0-1.92 4.49 11.179 11.179 0 0 0 3.22 9.7 11.383 11.383 0 0 0 10.68 2.49 10.916 10.916 0 0 0 5-2.8 12.126 12.126 0 0 0 2.91-4.75c.57-1.729.771-3.558.59-5.37a10.665 10.665 0 0 0-.55-2.57 7.447 7.447 0 0 0-1.12-2.27 3.344 3.344 0 0 0-1.94-1.31 3 3 0 0 0-2.21.46 6.489 6.489 0 0 0-2.68 3.61 12.064 12.064 0 0 0 .56 8.23 11.35 11.35 0 0 0 4.51 5.17 12.327 12.327 0 0 0 4.95 1.72c1.51.169 3.037.084 4.52-.25z"/><path fill="#F77021" d="M403.58 138.87a12.129 12.129 0 0 1-2.39-4.75 3.18 3.18 0 0 1-.06-1.73 1.322 1.322 0 0 1 1.29-1c.6 0 1 .61 1.33 1.12a25.816 25.816 0 0 1 2.46 4.68c.194.448.292.931.29 1.42a1.427 1.427 0 0 1-.69 1.21 1.49 1.49 0 0 1-1.51-.2 4.48 4.48 0 0 1-1-1.21"/><path fill="#995037" d="M406.15 137.76l-2.64-5.54a4.453 4.453 0 0 1-.55-1.72 1.503 1.503 0 0 1 .85-1.48 1.472 1.472 0 0 1 1.46.38c.377.373.679.814.89 1.3l1.25 2.43c.371.644.647 1.337.82 2.06a2.653 2.653 0 0 1-.41 2.13 1.63 1.63 0 0 1-2 .47"/><path fill="#FFC1B7" d="M394.401 154.89s-3.68-4.77-4-7.28c-.32-2.51 2.75-7 9.36-8a16.155 16.155 0 0 0 6.8-2.32 2.134 2.134 0 0 0 .77-2.58c-.87-2.11-2.43-6-2.31-6.55.31-1.35 1.19-1.32 3.47 2 2.28 3.32 4.93 6.74 4.42 8.28-.51 1.54-8.57 6.31-8.57 6.31l2.2 3.55-12.14 6.59z"/><path fill="#6B7DA3" d="M416.261 203.929l-25.37-49.71 16.34-9.15 34.32 54.4s1.81 3.48 4.34 7.55h-28.77"/><path fill="#263238" d="M407 145.069s-.09.08-.28.2l-.86.52-3.28 1.91-11.8 6.72.09-.3c2.47 5 5.68 10.85 8.91 17.18 4.81 9.35 9 17.92 11.9 24.16 1.46 3.12 2.62 5.66 3.41 7.41.37.85.67 1.52.89 2 .118.23.212.471.28.72a3.776 3.776 0 0 1-.38-.68c-.24-.5-.57-1.16-1-2l-3.56-7.34c-3-6.19-7.22-14.73-12-24.08-3.23-6.32-6.42-12.15-8.85-17.21l-.09-.2.19-.11 11.89-6.55 3.35-1.81.89-.46c.096-.04.197-.066.3-.08zM339.7 208.35a30.717 30.717 0 0 1-4.23-11.68c.16 0 .85 2.66 2 5.87s2.37 5.74 2.23 5.81zM395.58 135.07a10 10 0 0 0 11.83-15.17c5.73-1.45 9.3-8.06 8.14-13.86-1.16-5.8-6.33-10.32-12.11-11.57a13 13 0 0 0-6.7.17 8.241 8.241 0 0 0-5 4.29"/><path fill="#F77021" d="M394.77 122.109c0 .06-.74.2-1.95.83a8.61 8.61 0 0 0-3.83 4.12 8.485 8.485 0 0 0 .64 8.06 8.055 8.055 0 0 0 1.6 1.82 7.904 7.904 0 0 0 2.14 1.33 8.397 8.397 0 0 0 9.69-2.21 8.135 8.135 0 0 0 1.35-2.13c.329-.74.548-1.525.65-2.33a8.552 8.552 0 0 0-1.974-6.59 8.572 8.572 0 0 0-2.777-2.154 8.572 8.572 0 0 0-3.409-.856c-1.37-.05-2.12.17-2.13.1.172-.074.354-.124.54-.15a7.315 7.315 0 0 1 1.59-.16 8.77 8.77 0 0 1 8 5.22 8.818 8.818 0 0 1 .69 4.64 7.905 7.905 0 0 1-.67 2.47 8.212 8.212 0 0 1-1.42 2.27 8.88 8.88 0 0 1-10.29 2.35 8.486 8.486 0 0 1-2.26-1.43 8.239 8.239 0 0 1-1.68-1.93 8.999 8.999 0 0 1-1.39-4.48 8.755 8.755 0 0 1 4.89-8.15c.48-.242.987-.426 1.51-.55.159-.048.324-.078.49-.09z"/><path fill="#263238" d="M399.11 106.35a9.83 9.83 0 0 0 4.62-18.17 12.215 12.215 0 0 0-3.968-13.712 12.21 12.21 0 0 0-14.262-.578 16.205 16.205 0 0 0-16.67-8.04 16.198 16.198 0 0 0-13.33 12.84 15.66 15.66 0 0 0-20.1 21.25 12.136 12.136 0 0 0 2.06 24.18 10.704 10.704 0 0 0 3.867 11.735 10.702 10.702 0 0 0 12.353.265 11.712 11.712 0 0 0 11.297 5.464 11.724 11.724 0 0 0 9.763-7.884"/><path fill="#FFC1B7" d="M387.07 153.269c.21-4.87.47-9.28.47-9.28s10.89-1.37 11.36-12.48c.47-11.11-.64-36.69-.64-36.69l-20-9.62-21.56 17.36 3.38 51a13.541 13.541 0 0 0 14.13 12.62 13.516 13.516 0 0 0 12.86-12.91z"/><path fill="#263238" d="M397.73 113.84c-.18.19-1.22-.68-2.71-.74-1.49-.06-2.6.7-2.75.5-.15-.2.1-.43.58-.79a3.523 3.523 0 0 1 2.21-.63 3.58 3.58 0 0 1 2.15.83c.45.4.6.75.52.83zM381.21 113.84c-.18.19-1.21-.68-2.71-.74-1.5-.06-2.59.7-2.75.5-.16-.2.1-.43.58-.79a3.525 3.525 0 0 1 2.21-.63 3.577 3.577 0 0 1 2.15.83c.45.4.6.75.52.83zM386.81 125.05a8.893 8.893 0 0 1 2.43-.37c.38 0 .74-.1.81-.37a2.227 2.227 0 0 0-.23-1.22c-.347-1-.707-2.05-1.08-3.15-1.5-4.49-2.57-8.17-2.4-8.23.17-.06 1.51 3.53 3 8l1 3.17a2.62 2.62 0 0 1 .17 1.61 1.007 1.007 0 0 1-.64.57 2.226 2.226 0 0 1-.64.07 9.125 9.125 0 0 1-2.42-.08z"/><path fill="#ECB7AE" d="M387.54 143.999a26.473 26.473 0 0 1-14.41-4.72s3.39 8.09 14.22 7.45l.19-2.73z"/><path fill="#263238" d="M372.08 85.82a14.683 14.683 0 0 0 .2 17c1.62 2.12 4.06 3.85 6.73 3.75 2.67-.1 5.25-2.62 4.68-5.23a5.512 5.512 0 0 0 2.699 6.557 5.52 5.52 0 0 0 7.881-6.367 10.101 10.101 0 0 0 1.25 3.4 3.37 3.37 0 0 0 3.07 1.62c1.67-.22 2.64-2 3-3.67A15.064 15.064 0 0 0 397.34 89a18.225 18.225 0 0 0-13.88-4.87 23.19 23.19 0 0 0-13.63 6"/><path fill="#263238" d="M373.49 89.74a25.767 25.767 0 0 1 2.24 10 13.368 13.368 0 0 1-3.6 9.359 9.094 9.094 0 0 1-9.45 2.27 10.523 10.523 0 0 1-1.38 8.87c-1.86 2.47-5.52 3.65-8.23 2.16-2.46-1.34-3.52-4.32-3.86-7.1a22.73 22.73 0 0 1 6.291-18.605 22.751 22.751 0 0 1 18.439-6.765"/><path fill="#FFA398" d="M359.75 116.21c-1.48-.92-3.5-.17-4.68 1.12a6.389 6.389 0 0 0 6.36 10.48"/><path fill="#995037" d="M359.41 124.48c0 .06-.49.13-1.26-.08a3.375 3.375 0 0 1-2.28-2 2.469 2.469 0 0 1 .06-1.78c.202-.44.52-.817.92-1.09.69-.45 1.21-.44 1.22-.38.01.06-.45.21-1 .68a2.183 2.183 0 0 0-.71 2.4 3.341 3.341 0 0 0 1.91 1.85c.73.25 1.15.32 1.14.4z"/><path fill="#263238" d="M382.131 109.21c-.14.43-1.77.27-3.7.36-1.93.09-3.54.33-3.71-.09-.17-.42 1.4-1.43 3.65-1.51 2.25-.08 3.91.83 3.76 1.24zM397.69 108.9c-.17.15-.5 0-.89-.05a3.843 3.843 0 0 0-1.36-.08c-.58 0-1.22.16-1.71.15-.49-.01-.83-.11-.89-.33-.06-.22.16-.48.57-.76a4.347 4.347 0 0 1 1.89-.66 2.525 2.525 0 0 1 2.15.76c.37.45.4.83.24.97z"/><path fill="#FFC1B7" d="M384.22 127.89a3.37 3.37 0 0 1 2.81-.4 2.098 2.098 0 0 1 1.39 2.3 2.24 2.24 0 0 1-.9 1.28 2.911 2.911 0 0 1-2.31.56 2.274 2.274 0 0 1-1.73-1.57 1.859 1.859 0 0 1 .91-2.08"/><path fill="#263238" d="M389.681 129.08s-.36.31-1.07.46a4.795 4.795 0 0 1-2.82-.27 4.9 4.9 0 0 1-2.18-1.81c-.4-.61-.48-1.06-.42-1.09.06-.03.28.35.72.87a5.783 5.783 0 0 0 2.08 1.54 5.697 5.697 0 0 0 2.56.39c.68-.05 1.1-.17 1.13-.09z"/><path fill="#F77021" d="M367.13 134.379c-.07 0 0-.78-.38-2.1a8.58 8.58 0 0 0-3.16-4.64 8.427 8.427 0 0 0-3.57-1.56 8.617 8.617 0 0 0-4.43.38 8.041 8.041 0 0 0-2.13 1.16 7.73 7.73 0 0 0-1.77 1.79 8.376 8.376 0 0 0 0 9.93 7.692 7.692 0 0 0 1.77 1.79 7.985 7.985 0 0 0 2.13 1.16 8.539 8.539 0 0 0 11.16-5.82c.35-1.32.31-2.1.38-2.09.015.183.015.367 0 .55a6.86 6.86 0 0 1-.19 1.59 8.608 8.608 0 0 1-3.14 4.89 8.797 8.797 0 0 1-3.72 1.7 8.896 8.896 0 0 1-4.68-.36 8.377 8.377 0 0 1-2.26-1.21 8.229 8.229 0 0 1-1.89-1.89 8.826 8.826 0 0 1 0-10.55 8.269 8.269 0 0 1 1.89-1.89 8.404 8.404 0 0 1 2.26-1.21 8.792 8.792 0 0 1 4.373-.415 8.797 8.797 0 0 1 4.027 1.755 8.615 8.615 0 0 1 3.14 4.89c.125.521.189 1.055.19 1.59a3.49 3.49 0 0 1 0 .56z"/><path fill="#455A64" d="M397.68 84.66c.097.007.192.03.28.07.261.103.499.256.7.45a3.223 3.223 0 0 1 .89 2.92 4.174 4.174 0 0 1-3.46 3.06 8.692 8.692 0 0 1-5.86-1.4l-2.06-1.19 2.26.74a2.444 2.444 0 0 1 1.57 1.76 3.099 3.099 0 0 1-.32 2.39 3.328 3.328 0 0 1-2 1.44 4.73 4.73 0 0 1-2.53-.06 8.63 8.63 0 0 1-4.36-3.76L381.27 89l1.84 1.79a3.993 3.993 0 0 1 1 3.78 4.089 4.089 0 0 1-2.22 2.81 5.358 5.358 0 0 1-5.69-.69 6.796 6.796 0 0 1-2.2-3.25 6.869 6.869 0 0 1-.24-1 1.968 1.968 0 0 1 0-.36c.05 0 .11.48.43 1.31a6.915 6.915 0 0 0 2.19 3 5.062 5.062 0 0 0 5.29.55 3.67 3.67 0 0 0 1.95-2.52 3.53 3.53 0 0 0-.87-3.3l.39-.33a8.202 8.202 0 0 0 4.07 3.54 3.522 3.522 0 0 0 4-1.14c.72-1.18.29-3-.93-3.41l.2-.45a8.353 8.353 0 0 0 5.52 1.43 3.872 3.872 0 0 0 3.26-2.76 3.157 3.157 0 0 0-.71-2.75 3.79 3.79 0 0 0-.87-.59zM371.001 102.53s0 .07-.13.19a4.728 4.728 0 0 1-.47.5 6.523 6.523 0 0 1-2.23 1.33 6.357 6.357 0 0 1-4 .06 6.68 6.68 0 0 1-4-3.43l.42-.06a6.482 6.482 0 0 1-3.485 4.759 6.476 6.476 0 0 1-5.898-.046 6.467 6.467 0 0 1-3.41-4.813 6.468 6.468 0 0 1 1.913-5.58l.35.37a6.633 6.633 0 0 1-4.2 1.53 7.25 7.25 0 0 1-3.95-1.08 5.994 5.994 0 0 1-2.37-2.78 7.048 7.048 0 0 1-.49-3.09 6.795 6.795 0 0 1 1.64-4.06 4.328 4.328 0 0 1 1.22-1s-.45.34-1.08 1.13a6.92 6.92 0 0 0-1.46 4c-.042 1 .139 1.998.53 2.92a5.639 5.639 0 0 0 2.24 2.55 6.787 6.787 0 0 0 3.71 1 6.25 6.25 0 0 0 3.88-1.42l.34.37a6.188 6.188 0 0 0-1.27 6.73 6.117 6.117 0 0 0 6.68 3.39 6.22 6.22 0 0 0 4.68-4.87l.11-.7.31.64a6.353 6.353 0 0 0 3.68 3.28c1.249.416 2.6.416 3.85 0a6.666 6.666 0 0 0 2.22-1.18c.48-.42.67-.66.67-.64zM351.211 120.309a2.506 2.506 0 0 1-.87.52 5.89 5.89 0 0 1-2.77.43 5.709 5.709 0 0 1-3.81-1.86 6.159 6.159 0 0 1-1.51-5.13l.46.2a10.288 10.288 0 0 1-3.75 3.07 7.991 7.991 0 0 1-3.65.77 7.299 7.299 0 0 1-3.35-.92 5.924 5.924 0 0 1-3.19-4.73 5.659 5.659 0 0 1 1-3.75 4.12 4.12 0 0 1 .75-.76c.093-.086.201-.154.32-.2 0 0-.39.34-.9 1.08a5.633 5.633 0 0 0-.82 3.6 5.547 5.547 0 0 0 3.08 4.37 7.173 7.173 0 0 0 6.53.09 9.84 9.84 0 0 0 3.57-2.89l.65-.84-.19 1a5.764 5.764 0 0 0 1.33 4.74 5.487 5.487 0 0 0 3.52 1.84c.899.106 1.81.013 2.67-.27.6-.21.91-.39.93-.36zM407.84 98.65c.242.584.318 1.224.22 1.849a6.67 6.67 0 0 1-5.85 6.11 3.308 3.308 0 0 1-1.85-.14c0-.09.71 0 1.79-.23a6.866 6.866 0 0 0 5.53-5.79c.18-1.09.07-1.79.16-1.8zM414 109.12a1.9 1.9 0 0 1 .25.76 4.32 4.32 0 0 1-.21 2.19 3.413 3.413 0 0 1-2.42 2.23 3.49 3.49 0 0 1-2-.18 2.798 2.798 0 0 1-1.59-1.54l.5-.17c.092.325.135.662.13 1a3.99 3.99 0 0 1-.728 2.152 3.99 3.99 0 0 1-1.782 1.408 3.317 3.317 0 0 1-2 .09 3.816 3.816 0 0 1-1.5-.83 3.593 3.593 0 0 1-1.21-2.1c-.09-.57 0-.89 0-.88 0 .01 0 .31.17.84.219.73.655 1.375 1.25 1.85a3.125 3.125 0 0 0 3.08.57 3.526 3.526 0 0 0 2.15-3.11 2.678 2.678 0 0 0-.11-.82l.51-.17a2.712 2.712 0 0 0 3 1.44 3.073 3.073 0 0 0 2.18-1.89 4.553 4.553 0 0 0 .35-2c-.02-.56-.11-.83-.02-.84z"/><path fill="#263238" d="M383.46 124c.07 0 .11.23 0 .57a2.346 2.346 0 0 1-2 1.64c-.35 0-.56-.06-.55-.13.01-.07.77-.22 1.45-.81.68-.59.95-1.27 1.1-1.27zM669.18 464.82c0 .15-129 .26-288.12.26S92.9 465 92.9 464.82s129-.26 288.16-.26c159.16 0 288.12.12 288.12.26z"/><path fill="#F77021" d="M621.81 410.79c-2.5 3.56-7.35 2.38-9.6.21s-3.2-5.33-4.07-8.34c-2-6.87-4-14.08-2.5-21.08a11.687 11.687 0 0 1 2.7-5.73 6.08 6.08 0 0 1 5.79-1.93c2.45.64 4 3 5.07 5.32a50.322 50.322 0 0 1 5 21.56c0 3.48-.4 7.12-2.36 10"/><path fill="#000" d="M621.81 410.79c-2.5 3.56-7.35 2.38-9.6.21s-3.2-5.33-4.07-8.34c-2-6.87-4-14.08-2.5-21.08a11.687 11.687 0 0 1 2.7-5.73 6.08 6.08 0 0 1 5.79-1.93c2.45.64 4 3 5.07 5.32a50.322 50.322 0 0 1 5 21.56c0 3.48-.4 7.12-2.36 10" opacity=".2"/><path fill="#F77021" d="M612.46 428.85a21.632 21.632 0 0 0-13.46-1.64c-2.43.41-5 1.14-6.63 3s-2 5.05-.07 6.62a6.329 6.329 0 0 0 4.18 1.06c3.55 0 7.49-.66 10.32 1.47 1.62 1.22 2.7 3.25 4.63 3.85a4.592 4.592 0 0 0 5-2.24 7.824 7.824 0 0 0 .57-5.77 8.791 8.791 0 0 0-4.54-6.35zM628.67 415.9c-2.72-3.21-3.23-7.9-2-11.93a23.006 23.006 0 0 1 7.07-10.26 38.01 38.01 0 0 1 12.66-7.47 13.326 13.326 0 0 1 5.7-1 6.007 6.007 0 0 1 4.77 2.89c1.34 2.54.06 5.62-1.32 8.14a96.632 96.632 0 0 1-8.34 12.73c-2.49 3.22-5.35 6.39-9.15 7.84-3.8 1.45-7.74 1.28-9.76-1.35"/><path fill="#263238" d="M622 464.571a7.717 7.717 0 0 1-.23-1.62c-.11-1.17-.26-2.66-.43-4.42a63.805 63.805 0 0 0-1-6.48 50.085 50.085 0 0 0-2.36-7.66 27.97 27.97 0 0 0-3.91-6.92 14.56 14.56 0 0 0-4.94-4.11 13.79 13.79 0 0 0-4.16-1.3 7.893 7.893 0 0 1-1.61-.23 6.817 6.817 0 0 1 1.64 0c1.503.116 2.972.499 4.34 1.13a14.653 14.653 0 0 1 5.21 4.15 27.675 27.675 0 0 1 4.05 7.06 47.013 47.013 0 0 1 2.34 7.78c.422 2.17.709 4.364.86 6.57.14 1.88.2 3.4.22 4.45.05.532.043 1.068-.02 1.6z"/><path fill="#263238" d="M621.67 461.17a3.915 3.915 0 0 1 0-.75v-2.15c0-1.86 0-4.56-.1-7.9-.16-6.67-.74-15.87-1.85-26s-2.6-19.22-3.94-25.75c-.32-1.64-.64-3.11-1-4.4-.36-1.29-.53-2.41-.77-3.31-.24-.9-.37-1.54-.5-2.09a2.585 2.585 0 0 1-.13-.75c.111.228.198.465.26.71l.62 2.06c.28.89.56 2 .89 3.29.33 1.29.69 2.75 1 4.39a244.38 244.38 0 0 1 4.15 25.78c1.11 10.14 1.61 19.37 1.65 26.05 0 3.34 0 6.05-.11 7.92-.06.87-.1 1.58-.14 2.15.029.25.019.503-.03.75z"/><path fill="#263238" d="M621.63 443.37a13.855 13.855 0 0 1 0-2.25c.09-1.44.29-3.53.69-6.08a81.552 81.552 0 0 1 2-8.87 79.135 79.135 0 0 1 3.68-10.49 55.98 55.98 0 0 1 10.88-16.95 28.225 28.225 0 0 1 2.57-2.38c.39-.33.74-.66 1.09-.92l1-.69c.598-.451 1.23-.856 1.89-1.21a70.107 70.107 0 0 0-6.19 5.53A58.714 58.714 0 0 0 628.63 416a83.65 83.65 0 0 0-3.73 10.39c-1 3.26-1.61 6.26-2.1 8.78-.49 2.52-.73 4.59-.9 6-.031.74-.122 1.475-.27 2.2zM270.4 41.62a6.618 6.618 0 0 1-.7.09l-2 .17a22.17 22.17 0 0 0-3.28.47c-.65.14-1.36.2-2.08.42-.72.22-1.5.44-2.31.67a38.515 38.515 0 0 0-11 5.61 39.23 39.23 0 0 0-10.73 12.22 42.005 42.005 0 0 0-5.09 24.34c.06.92.26 1.83.39 2.76.124.935.312 1.86.56 2.77a39.142 39.142 0 0 0 4.3 10.86 38.61 38.61 0 0 0 18.43 16.37 35.738 35.738 0 0 0 12.9 2.75A34.775 34.775 0 0 0 283.2 119l1.31-.5.17-.06.16.07 19 9.38-.55.49-6.06-18.09-.07-.23.16-.17a40.268 40.268 0 0 0 9.73-16.6 41.425 41.425 0 0 0 1.24-17.57 40.41 40.41 0 0 0-13.78-25.18 41.967 41.967 0 0 0-9.35-5.8 40.555 40.555 0 0 0-7.87-2.38l-2.94-.46-2.17-.13-1.33-.09a2.236 2.236 0 0 1-.45-.05c.15-.017.301-.017.45 0h1.33l2.19.06 3 .41a39.695 39.695 0 0 1 8 2.29 41.23 41.23 0 0 1 9.51 5.78 40.495 40.495 0 0 1 8.83 10.42 41.07 41.07 0 0 1 5.29 15 41.979 41.979 0 0 1-1.2 17.87 40.866 40.866 0 0 1-9.87 16.94l.07-.4c2 5.8 4 11.85 6.08 18.08l.31.91-.86-.42-19-9.37h.33l-1.34.51a35.335 35.335 0 0 1-13.71 2.13 36.444 36.444 0 0 1-13.18-2.81 39.369 39.369 0 0 1-18.77-16.74 39.806 39.806 0 0 1-4.37-11 19.595 19.595 0 0 1-.55-2.82c-.13-.94-.34-1.86-.39-2.8a41.015 41.015 0 0 1-.14-5.52A42.437 42.437 0 0 1 234 69.84a41.675 41.675 0 0 1 3.78-8.84 39.492 39.492 0 0 1 11-12.31 38.12 38.12 0 0 1 11.15-5.54l2.35-.64a20.79 20.79 0 0 1 2.09-.38 20.392 20.392 0 0 1 3.31-.4l2.05-.1.67-.01z"/><path fill="#F77021" d="M279.341 76.5h-2.77l-6.14-8.35-.06-5.53s-4.28-.21-3.7 7c.58 7.21 0 5.39 0 5.39s-9.08.14-9.83.94c-.54.58-.69 9.61-.72 14.5a5.299 5.299 0 0 0 3.88 5.35c.327.081.663.121 1 .12 2.27 0 13.82-2 13.82-2l4.79-.06-.27-17.36zM287.251 74.89l-1.49 18.95-4.74.06-.21-18.55 6.44-.46z"/></svg>